# Blender 4.4.3
# www.blender.org
mtllib RockSlab.mtl
o Rock_Slab
v 0.000000 0.000000 0.000000
v 1.044479 0.041190 0.707753
v -0.527679 0.042921 0.906107
v -1.411273 0.039352 -0.198342
v -0.325486 0.040302 -1.026012
v 1.267394 0.042063 -0.382841
v 0.360608 0.459889 0.925872
v -1.356212 0.485038 0.395162
v -0.997690 0.450193 -0.725981
v 0.524679 0.484194 -0.801453
v 1.330499 0.485724 0.186990
v 0.000000 0.535657 0.000000
v -0.320407 0.012959 0.531152
v 0.611527 0.010894 0.415667
v 0.330089 0.036929 0.878743
v 1.397161 0.033286 0.196358
v 0.751335 0.012297 -0.224129
v -0.815895 0.015626 -0.114667
v -1.288346 0.036540 0.376034
v -0.208535 0.014418 -0.605490
v -0.961281 0.037361 -0.692198
v 0.511754 0.037510 -0.760430
v 1.301747 0.251906 0.533829
v 1.645886 0.251906 -0.119566
v -0.150307 0.251906 1.069489
v 0.862156 0.251906 0.944753
v -1.616861 0.251906 0.095912
v -1.062956 0.251906 0.791676
v -0.887473 0.251906 -1.065791
v -1.393475 0.251906 -0.518987
v 1.067830 0.251906 -0.673511
v 0.150307 0.251906 -1.069489
v 0.975151 0.492312 0.670557
v -0.487553 0.486365 0.863765
v -1.398714 0.487606 -0.196576
v -0.322949 0.495170 -0.977674
v 1.263723 0.488444 -0.355903
v 0.221618 0.524583 0.545567
v 0.805880 0.530864 0.113259
v -0.799414 0.521540 0.231951
v -0.637879 0.522673 -0.433950
v 0.304452 0.518795 -0.471633
vn 0.0009 -0.9997 0.0249
vn 0.0406 -0.9982 0.0434
vn -0.0208 -0.9997 0.0118
vn -0.0166 -0.9997 -0.0181
vn 0.0084 -0.9996 -0.0267
vn 0.7248 -0.4664 0.5071
vn 0.0201 -0.6381 0.7697
vn -0.6180 -0.7756 0.1285
vn -0.2688 -0.8114 -0.5191
vn 0.3508 -0.6283 -0.6944
vn 0.6654 -0.2249 0.7118
vn -0.2843 -0.2168 0.9339
vn -0.8614 -0.4000 -0.3130
vn -0.0035 -0.1937 -0.9811
vn 0.6546 -0.3237 -0.6831
vn 0.0153 0.9866 0.1622
vn -0.0428 0.9961 0.0766
vn -0.0880 0.9867 -0.1364
vn 0.0304 0.9960 -0.0842
vn 0.0865 0.9962 -0.0056
vn 0.0101 0.9995 -0.0292
vn 0.0380 0.9979 -0.0532
vn 0.0408 0.9962 -0.0772
vn 0.0028 0.9994 -0.0340
vn 0.0021 0.9988 -0.0493
vn -0.1078 0.9878 -0.1124
vn -0.0185 0.9998 -0.0028
vn -0.0492 0.9987 -0.0102
vn -0.0628 0.9980 0.0088
vn -0.0105 0.9996 0.0246
vn -0.0236 0.9975 0.0672
vn 0.0190 0.9868 0.1609
vn 0.0033 0.9998 0.0190
vn 0.0329 0.9977 0.0590
vn 0.0794 0.9958 0.0448
vn 0.5535 0.8304 -0.0639
vn 0.6432 0.3686 -0.6712
vn 0.4151 0.5882 -0.6941
vn 0.1679 0.6168 -0.7690
vn -0.0033 0.3474 -0.9377
vn -0.2574 0.7959 -0.5479
vn -0.5812 0.6524 -0.4864
vn -0.8583 0.4075 -0.3118
vn -0.6990 0.7131 0.0533
vn -0.3542 0.6679 0.6546
vn -0.2684 0.3877 0.8819
vn -0.0373 0.6282 0.7771
vn 0.2531 0.6734 0.6947
vn 0.6078 0.4559 0.6502
vn 0.6429 0.6094 0.4641
vn 0.3652 0.3879 -0.8463
vn 0.3314 -0.5482 -0.7679
vn 0.2261 -0.6563 -0.7198
vn -0.5855 0.6030 -0.5418
vn -0.5374 -0.6811 -0.4973
vn -0.5371 -0.6891 -0.4866
vn -0.7801 0.0750 0.6211
vn -0.7305 -0.3579 0.5816
vn -0.4006 -0.7066 0.5833
vn 0.1141 0.3593 0.9262
vn 0.1045 -0.5191 0.8483
vn 0.1779 -0.6635 0.7267
vn 0.7645 0.5033 0.4027
vn 0.8394 -0.3161 0.4421
vn 0.5510 -0.8233 -0.1359
vn 0.0379 -0.9972 -0.0638
vn 0.0200 -0.9982 -0.0559
vn 0.0177 -0.9976 -0.0663
vn -0.0241 -0.9982 -0.0547
vn -0.0269 -0.9992 -0.0308
vn -0.0358 -0.9990 -0.0286
vn -0.0403 -0.9992 0.0037
vn -0.0270 -0.9995 0.0166
vn -0.0341 -0.9976 0.0609
vn 0.0495 -0.9984 -0.0262
vn 0.0297 -0.9996 0.0043
vn 0.0168 -0.9999 0.0015
vn -0.0045 -0.9970 0.0772
vn 0.0051 -0.9982 0.0592
vn 0.0227 -0.9973 0.0698
vt 0.181819 0.000000
vt 0.227273 0.078731
vt 0.136365 0.078731
vt 0.272728 0.157461
vt 0.318182 0.078731
vt 0.363637 0.157461
vt 0.909091 0.000000
vt 0.954545 0.078731
vt 0.863636 0.078731
vt 0.727273 0.000000
vt 0.772727 0.078731
vt 0.681818 0.078731
vt 0.545455 0.000000
vt 0.590909 0.078731
vt 0.500000 0.078731
vt 0.318182 0.236191
vt 0.090910 0.157461
vt 0.181819 0.157461
vt 0.136365 0.236191
vt 0.818182 0.157461
vt 0.909091 0.157461
vt 0.863636 0.236191
vt 0.636364 0.157461
vt 0.727273 0.157461
vt 0.681818 0.236191
vt 0.454546 0.157461
vt 0.545455 0.157461
vt 0.500000 0.236191
vt 0.227273 0.236191
vt 0.045455 0.236191
vt 0.772727 0.236191
vt 0.590909 0.236191
vt 0.409092 0.236191
vt 0.181819 0.314921
vt 0.272728 0.314921
vt 0.227273 0.393651
vt 0.000000 0.314921
vt 0.090910 0.314921
vt 0.045455 0.393651
vt 0.727273 0.314921
vt 0.818182 0.314921
vt 0.772727 0.393651
vt 0.545455 0.314921
vt 0.636364 0.314921
vt 0.590909 0.393651
vt 0.363637 0.314921
vt 0.454546 0.314921
vt 0.409092 0.393651
vt 0.500000 0.393651
vt 0.454546 0.472382
vt 0.681818 0.393651
vt 0.636364 0.472382
vt 0.863636 0.393651
vt 0.818182 0.472382
vt 0.909091 0.314921
vt 0.136365 0.393651
vt 0.090910 0.472382
vt 0.318182 0.393651
vt 0.272728 0.472382
vt 0.954545 0.236191
vt 1.000000 0.157461
vt 0.409092 0.078731
vt 0.363637 0.000000
s 0
usemtl Rock_Gray
f 1/1/1 14/2/1 13/3/1
f 2/4/2 14/5/2 16/6/2
f 1/7/3 13/8/3 18/9/3
f 1/10/4 18/11/4 20/12/4
f 1/13/5 20/14/5 17/15/5
f 2/4/6 16/6/6 23/16/6
f 3/17/7 15/18/7 25/19/7
f 4/20/8 19/21/8 27/22/8
f 5/23/9 21/24/9 29/25/9
f 6/26/10 22/27/10 31/28/10
f 2/4/11 23/16/11 26/29/11
f 3/17/12 25/19/12 28/30/12
f 4/20/13 27/22/13 30/31/13
f 5/23/14 29/25/14 32/32/14
f 6/26/15 31/28/15 24/33/15
f 7/34/16 33/35/16 38/36/16
f 8/37/17 34/38/17 40/39/17
f 9/40/18 35/41/18 41/42/18
f 10/43/19 36/44/19 42/45/19
f 11/46/20 37/47/20 39/48/20
f 39/48/21 42/49/21 12/50/21
f 39/48/22 37/47/22 42/49/22
f 37/47/23 10/43/23 42/49/23
f 42/45/24 41/51/24 12/52/24
f 42/45/25 36/44/25 41/51/25
f 36/44/26 9/40/26 41/51/26
f 41/42/27 40/53/27 12/54/27
f 41/42/28 35/41/28 40/53/28
f 35/41/29 8/55/29 40/53/29
f 40/39/30 38/56/30 12/57/30
f 40/39/31 34/38/31 38/56/31
f 34/38/32 7/34/32 38/56/32
f 38/36/33 39/58/33 12/59/33
f 38/36/34 33/35/34 39/58/34
f 33/35/35 11/46/35 39/58/35
f 24/33/36 37/47/36 11/46/36
f 24/33/37 31/28/37 37/47/37
f 31/28/38 10/43/38 37/47/38
f 32/32/39 36/44/39 10/43/39
f 32/32/40 29/25/40 36/44/40
f 29/25/41 9/40/41 36/44/41
f 30/31/42 35/41/42 9/40/42
f 30/31/43 27/22/43 35/41/43
f 27/22/44 8/55/44 35/41/44
f 28/30/45 34/38/45 8/37/45
f 28/30/46 25/19/46 34/38/46
f 25/19/47 7/34/47 34/38/47
f 26/29/48 33/35/48 7/34/48
f 26/29/49 23/16/49 33/35/49
f 23/16/50 11/46/50 33/35/50
f 31/28/51 32/32/51 10/43/51
f 31/28/52 22/27/52 32/32/52
f 22/27/53 5/23/53 32/32/53
f 29/25/54 30/31/54 9/40/54
f 29/25/55 21/24/55 30/31/55
f 21/24/56 4/20/56 30/31/56
f 27/22/57 28/60/57 8/55/57
f 27/22/58 19/21/58 28/60/58
f 19/21/59 3/61/59 28/60/59
f 25/19/60 26/29/60 7/34/60
f 25/19/61 15/18/61 26/29/61
f 15/18/62 2/4/62 26/29/62
f 23/16/63 24/33/63 11/46/63
f 23/16/64 16/6/64 24/33/64
f 16/6/65 6/26/65 24/33/65
f 17/15/66 22/27/66 6/26/66
f 17/15/67 20/14/67 22/27/67
f 20/14/68 5/23/68 22/27/68
f 20/12/69 21/24/69 5/23/69
f 20/12/70 18/11/70 21/24/70
f 18/11/71 4/20/71 21/24/71
f 18/9/72 19/21/72 4/20/72
f 18/9/73 13/8/73 19/21/73
f 13/8/74 3/61/74 19/21/74
f 16/6/75 17/62/75 6/26/75
f 16/6/76 14/5/76 17/62/76
f 14/5/77 1/63/77 17/62/77
f 13/3/78 15/18/78 3/17/78
f 13/3/79 14/2/79 15/18/79
f 14/2/80 2/4/80 15/18/80
