{
	"asset":{
		"generator":"Khronos glTF Blender I/O v4.4.56",
		"version":"2.0"
	},
	"scene":0,
	"scenes":[
		{
			"name":"Scene",
			"nodes":[
				16
			]
		}
	],
	"nodes":[
		{
			"name":"\u30dc\u30fc\u30f3.002",
			"rotation":[
				0.14574109017848969,
				3.591056319223861e-15,
				3.4747383637068197e-08,
				0.9893227815628052
			],
			"translation":[
				7.105427357601002e-15,
				0.41629350185394287,
				-2.9802322387695312e-08
			]
		},
		{
			"children":[
				0
			],
			"name":"\u30dc\u30fc\u30f3.001",
			"rotation":[
				-0.21898892521858215,
				1.1631576768422747e-07,
				-2.6105512418439503e-08,
				0.975727379322052
			],
			"translation":[
				0,
				1.0663397312164307,
				2.7948242831143943e-08
			]
		},
		{
			"name":"\u30dc\u30fc\u30f3.011",
			"rotation":[
				0.011758982203900814,
				0.0011059459066018462,
				0.008541600778698921,
				0.9998937845230103
			],
			"scale":[
				0.9999999403953552,
				0.9999999403953552,
				1
			],
			"translation":[
				-5.238689482212067e-09,
				0.6442775726318359,
				1.601874828338623e-07
			]
		},
		{
			"children":[
				2
			],
			"name":"\u30dc\u30fc\u30f3.007",
			"rotation":[
				-0.4362305700778961,
				-0.07432949542999268,
				0.1473677009344101,
				0.8845681548118591
			],
			"scale":[
				0.9999998211860657,
				1,
				0.9999999403953552
			],
			"translation":[
				1.4901159417490817e-08,
				0.7139487266540527,
				4.440892098500626e-15
			]
		},
		{
			"children":[
				3
			],
			"name":"\u30dc\u30fc\u30f3.003",
			"rotation":[
				0.1131158322095871,
				0.13531850278377533,
				-0.7552160620689392,
				0.6313021779060364
			],
			"scale":[
				0.9999999403953552,
				1,
				1
			],
			"translation":[
				0,
				1.0663397312164307,
				2.7948242831143943e-08
			]
		},
		{
			"name":"\u30dc\u30fc\u30f3.012",
			"rotation":[
				-0.012696823105216026,
				-0.0011577471159398556,
				-0.011557918973267078,
				0.9998518824577332
			],
			"translation":[
				1.4901161193847656e-08,
				0.7104908227920532,
				4.842877388000488e-08
			]
		},
		{
			"children":[
				5
			],
			"name":"\u30dc\u30fc\u30f3.008",
			"rotation":[
				-0.43109697103500366,
				0.07492832094430923,
				-0.16812466084957123,
				0.8833318948745728
			],
			"scale":[
				0.9999999403953552,
				1,
				1
			],
			"translation":[
				-1.4901130995781386e-08,
				0.6728925108909607,
				-2.1316282072803006e-14
			]
		},
		{
			"children":[
				6
			],
			"name":"\u30dc\u30fc\u30f3.004",
			"rotation":[
				0.11106006801128387,
				-0.1370110958814621,
				0.7646614909172058,
				0.6198278069496155
			],
			"scale":[
				1,
				0.9999999403953552,
				1
			],
			"translation":[
				0,
				1.0663397312164307,
				2.7948242831143943e-08
			]
		},
		{
			"children":[
				1,
				4,
				7
			],
			"name":"\u30dc\u30fc\u30f3",
			"rotation":[
				-0.17636974155902863,
				0,
				0,
				0.984324038028717
			],
			"translation":[
				0,
				-0.5096772909164429,
				0.37024372816085815
			]
		},
		{
			"name":"\u30dc\u30fc\u30f3.013",
			"rotation":[
				-0.0520925335586071,
				0.01432902179658413,
				-0.01640794612467289,
				0.9984046220779419
			],
			"scale":[
				1,
				0.9999999403953552,
				0.9999998807907104
			],
			"translation":[
				4.842877388000488e-08,
				0.5582137703895569,
				-2.6309862732887268e-08
			]
		},
		{
			"children":[
				9
			],
			"name":"\u30dc\u30fc\u30f3.009",
			"rotation":[
				-0.3650394082069397,
				0.13358646631240845,
				0.17870350182056427,
				0.9038617014884949
			],
			"scale":[
				1,
				1.0000001192092896,
				1.0000001192092896
			],
			"translation":[
				-2.9802322387695312e-08,
				0.7047068476676941,
				2.7939677238464355e-08
			]
		},
		{
			"children":[
				10
			],
			"name":"\u30dc\u30fc\u30f3.005",
			"rotation":[
				-0.5225717425346375,
				-0.49289965629577637,
				-0.46869975328445435,
				0.514090895652771
			],
			"scale":[
				0.9999999403953552,
				1,
				1
			],
			"translation":[
				0,
				-0.5096772909164429,
				0.37024372816085815
			]
		},
		{
			"name":"\u30dc\u30fc\u30f3.014",
			"rotation":[
				-0.03461463749408722,
				0.05963272973895073,
				0.021731123328208923,
				0.9973833560943604
			],
			"scale":[
				1.0000001192092896,
				1,
				0.9999998807907104
			],
			"translation":[
				2.9802322387695312e-08,
				0.5534148216247559,
				1.979060471057892e-09
			]
		},
		{
			"children":[
				12
			],
			"name":"\u30dc\u30fc\u30f3.010",
			"rotation":[
				-0.3555622100830078,
				-0.09093499183654785,
				-0.14410953223705292,
				0.9189879298210144
			],
			"scale":[
				1,
				0.9999998807907104,
				1.0000001192092896
			],
			"translation":[
				8.440110832452774e-09,
				0.6709830164909363,
				6.585999301478296e-08
			]
		},
		{
			"children":[
				13
			],
			"name":"\u30dc\u30fc\u30f3.006",
			"rotation":[
				-0.530862033367157,
				0.467103511095047,
				0.4620266556739807,
				0.5352861881256104
			],
			"scale":[
				0.9999999403953552,
				1,
				0.9999999403953552
			],
			"translation":[
				0,
				-0.5096772909164429,
				0.37024372816085815
			]
		},
		{
			"mesh":0,
			"name":"\u7403.001",
			"skin":0
		},
		{
			"children":[
				15,
				8,
				11,
				14
			],
			"name":"\u30a2\u30fc\u30de\u30c1\u30e5\u30a2"
		}
	],
	"animations":[
		{
			"channels":[
				{
					"sampler":0,
					"target":{
						"node":8,
						"path":"translation"
					}
				},
				{
					"sampler":1,
					"target":{
						"node":8,
						"path":"rotation"
					}
				},
				{
					"sampler":2,
					"target":{
						"node":8,
						"path":"scale"
					}
				},
				{
					"sampler":3,
					"target":{
						"node":1,
						"path":"translation"
					}
				},
				{
					"sampler":4,
					"target":{
						"node":1,
						"path":"rotation"
					}
				},
				{
					"sampler":5,
					"target":{
						"node":1,
						"path":"scale"
					}
				},
				{
					"sampler":6,
					"target":{
						"node":0,
						"path":"translation"
					}
				},
				{
					"sampler":7,
					"target":{
						"node":0,
						"path":"rotation"
					}
				},
				{
					"sampler":8,
					"target":{
						"node":0,
						"path":"scale"
					}
				},
				{
					"sampler":9,
					"target":{
						"node":4,
						"path":"translation"
					}
				},
				{
					"sampler":10,
					"target":{
						"node":4,
						"path":"rotation"
					}
				},
				{
					"sampler":11,
					"target":{
						"node":4,
						"path":"scale"
					}
				},
				{
					"sampler":12,
					"target":{
						"node":3,
						"path":"translation"
					}
				},
				{
					"sampler":13,
					"target":{
						"node":3,
						"path":"rotation"
					}
				},
				{
					"sampler":14,
					"target":{
						"node":3,
						"path":"scale"
					}
				},
				{
					"sampler":15,
					"target":{
						"node":2,
						"path":"translation"
					}
				},
				{
					"sampler":16,
					"target":{
						"node":2,
						"path":"rotation"
					}
				},
				{
					"sampler":17,
					"target":{
						"node":2,
						"path":"scale"
					}
				},
				{
					"sampler":18,
					"target":{
						"node":7,
						"path":"translation"
					}
				},
				{
					"sampler":19,
					"target":{
						"node":7,
						"path":"rotation"
					}
				},
				{
					"sampler":20,
					"target":{
						"node":7,
						"path":"scale"
					}
				},
				{
					"sampler":21,
					"target":{
						"node":6,
						"path":"translation"
					}
				},
				{
					"sampler":22,
					"target":{
						"node":6,
						"path":"rotation"
					}
				},
				{
					"sampler":23,
					"target":{
						"node":6,
						"path":"scale"
					}
				},
				{
					"sampler":24,
					"target":{
						"node":5,
						"path":"translation"
					}
				},
				{
					"sampler":25,
					"target":{
						"node":5,
						"path":"rotation"
					}
				},
				{
					"sampler":26,
					"target":{
						"node":5,
						"path":"scale"
					}
				},
				{
					"sampler":27,
					"target":{
						"node":11,
						"path":"translation"
					}
				},
				{
					"sampler":28,
					"target":{
						"node":11,
						"path":"rotation"
					}
				},
				{
					"sampler":29,
					"target":{
						"node":11,
						"path":"scale"
					}
				},
				{
					"sampler":30,
					"target":{
						"node":10,
						"path":"translation"
					}
				},
				{
					"sampler":31,
					"target":{
						"node":10,
						"path":"rotation"
					}
				},
				{
					"sampler":32,
					"target":{
						"node":10,
						"path":"scale"
					}
				},
				{
					"sampler":33,
					"target":{
						"node":9,
						"path":"translation"
					}
				},
				{
					"sampler":34,
					"target":{
						"node":9,
						"path":"rotation"
					}
				},
				{
					"sampler":35,
					"target":{
						"node":9,
						"path":"scale"
					}
				},
				{
					"sampler":36,
					"target":{
						"node":14,
						"path":"translation"
					}
				},
				{
					"sampler":37,
					"target":{
						"node":14,
						"path":"rotation"
					}
				},
				{
					"sampler":38,
					"target":{
						"node":14,
						"path":"scale"
					}
				},
				{
					"sampler":39,
					"target":{
						"node":13,
						"path":"translation"
					}
				},
				{
					"sampler":40,
					"target":{
						"node":13,
						"path":"rotation"
					}
				},
				{
					"sampler":41,
					"target":{
						"node":13,
						"path":"scale"
					}
				},
				{
					"sampler":42,
					"target":{
						"node":12,
						"path":"translation"
					}
				},
				{
					"sampler":43,
					"target":{
						"node":12,
						"path":"rotation"
					}
				},
				{
					"sampler":44,
					"target":{
						"node":12,
						"path":"scale"
					}
				}
			],
			"name":"defence",
			"samplers":[
				{
					"input":7,
					"interpolation":"STEP",
					"output":8
				},
				{
					"input":9,
					"interpolation":"LINEAR",
					"output":10
				},
				{
					"input":7,
					"interpolation":"LINEAR",
					"output":11
				},
				{
					"input":7,
					"interpolation":"LINEAR",
					"output":12
				},
				{
					"input":7,
					"interpolation":"LINEAR",
					"output":13
				},
				{
					"input":7,
					"interpolation":"LINEAR",
					"output":14
				},
				{
					"input":7,
					"interpolation":"LINEAR",
					"output":15
				},
				{
					"input":9,
					"interpolation":"LINEAR",
					"output":16
				},
				{
					"input":7,
					"interpolation":"STEP",
					"output":17
				},
				{
					"input":7,
					"interpolation":"LINEAR",
					"output":18
				},
				{
					"input":7,
					"interpolation":"LINEAR",
					"output":19
				},
				{
					"input":7,
					"interpolation":"STEP",
					"output":20
				},
				{
					"input":7,
					"interpolation":"LINEAR",
					"output":21
				},
				{
					"input":9,
					"interpolation":"LINEAR",
					"output":22
				},
				{
					"input":7,
					"interpolation":"LINEAR",
					"output":23
				},
				{
					"input":7,
					"interpolation":"LINEAR",
					"output":24
				},
				{
					"input":7,
					"interpolation":"LINEAR",
					"output":25
				},
				{
					"input":7,
					"interpolation":"STEP",
					"output":26
				},
				{
					"input":7,
					"interpolation":"LINEAR",
					"output":27
				},
				{
					"input":7,
					"interpolation":"LINEAR",
					"output":28
				},
				{
					"input":7,
					"interpolation":"STEP",
					"output":29
				},
				{
					"input":7,
					"interpolation":"LINEAR",
					"output":30
				},
				{
					"input":9,
					"interpolation":"LINEAR",
					"output":31
				},
				{
					"input":7,
					"interpolation":"STEP",
					"output":32
				},
				{
					"input":7,
					"interpolation":"LINEAR",
					"output":33
				},
				{
					"input":9,
					"interpolation":"LINEAR",
					"output":34
				},
				{
					"input":7,
					"interpolation":"STEP",
					"output":35
				},
				{
					"input":7,
					"interpolation":"STEP",
					"output":36
				},
				{
					"input":9,
					"interpolation":"LINEAR",
					"output":37
				},
				{
					"input":7,
					"interpolation":"STEP",
					"output":38
				},
				{
					"input":7,
					"interpolation":"LINEAR",
					"output":39
				},
				{
					"input":7,
					"interpolation":"LINEAR",
					"output":40
				},
				{
					"input":7,
					"interpolation":"STEP",
					"output":41
				},
				{
					"input":7,
					"interpolation":"LINEAR",
					"output":42
				},
				{
					"input":7,
					"interpolation":"LINEAR",
					"output":43
				},
				{
					"input":7,
					"interpolation":"STEP",
					"output":44
				},
				{
					"input":7,
					"interpolation":"STEP",
					"output":45
				},
				{
					"input":9,
					"interpolation":"LINEAR",
					"output":46
				},
				{
					"input":7,
					"interpolation":"STEP",
					"output":47
				},
				{
					"input":7,
					"interpolation":"LINEAR",
					"output":48
				},
				{
					"input":7,
					"interpolation":"STEP",
					"output":49
				},
				{
					"input":7,
					"interpolation":"LINEAR",
					"output":50
				},
				{
					"input":7,
					"interpolation":"LINEAR",
					"output":51
				},
				{
					"input":7,
					"interpolation":"STEP",
					"output":52
				},
				{
					"input":7,
					"interpolation":"STEP",
					"output":53
				}
			]
		}
	],
	"meshes":[
		{
			"name":"\u7403.007",
			"primitives":[
				{
					"attributes":{
						"POSITION":0,
						"NORMAL":1,
						"TEXCOORD_0":2,
						"JOINTS_0":3,
						"WEIGHTS_0":4
					},
					"indices":5
				}
			]
		}
	],
	"skins":[
		{
			"inverseBindMatrices":6,
			"joints":[
				8,
				1,
				0,
				4,
				3,
				2,
				7,
				6,
				5,
				11,
				10,
				9,
				14,
				13,
				12
			],
			"name":"\u30a2\u30fc\u30de\u30c1\u30e5\u30a2"
		}
	],
	"accessors":[
		{
			"bufferView":0,
			"componentType":5126,
			"count":3340,
			"max":[
				1.5597487688064575,
				1.7123616933822632,
				1.584183931350708
			],
			"min":[
				-1.5597485303878784,
				-1.5871180295944214,
				-1.1304931640625
			],
			"type":"VEC3"
		},
		{
			"bufferView":1,
			"componentType":5126,
			"count":3340,
			"type":"VEC3"
		},
		{
			"bufferView":2,
			"componentType":5126,
			"count":3340,
			"type":"VEC2"
		},
		{
			"bufferView":3,
			"componentType":5121,
			"count":3340,
			"type":"VEC4"
		},
		{
			"bufferView":4,
			"componentType":5126,
			"count":3340,
			"type":"VEC4"
		},
		{
			"bufferView":5,
			"componentType":5123,
			"count":5610,
			"type":"SCALAR"
		},
		{
			"bufferView":6,
			"componentType":5126,
			"count":15,
			"type":"MAT4"
		},
		{
			"bufferView":7,
			"componentType":5126,
			"count":2,
			"max":[
				0.25
			],
			"min":[
				0
			],
			"type":"SCALAR"
		},
		{
			"bufferView":8,
			"componentType":5126,
			"count":2,
			"type":"VEC3"
		},
		{
			"bufferView":9,
			"componentType":5126,
			"count":16,
			"max":[
				0.25
			],
			"min":[
				0
			],
			"type":"SCALAR"
		},
		{
			"bufferView":10,
			"componentType":5126,
			"count":16,
			"type":"VEC4"
		},
		{
			"bufferView":11,
			"componentType":5126,
			"count":2,
			"type":"VEC3"
		},
		{
			"bufferView":12,
			"componentType":5126,
			"count":2,
			"type":"VEC3"
		},
		{
			"bufferView":13,
			"componentType":5126,
			"count":2,
			"type":"VEC4"
		},
		{
			"bufferView":14,
			"componentType":5126,
			"count":2,
			"type":"VEC3"
		},
		{
			"bufferView":15,
			"componentType":5126,
			"count":2,
			"type":"VEC3"
		},
		{
			"bufferView":16,
			"componentType":5126,
			"count":16,
			"type":"VEC4"
		},
		{
			"bufferView":17,
			"componentType":5126,
			"count":2,
			"type":"VEC3"
		},
		{
			"bufferView":18,
			"componentType":5126,
			"count":2,
			"type":"VEC3"
		},
		{
			"bufferView":19,
			"componentType":5126,
			"count":2,
			"type":"VEC4"
		},
		{
			"bufferView":20,
			"componentType":5126,
			"count":2,
			"type":"VEC3"
		},
		{
			"bufferView":21,
			"componentType":5126,
			"count":2,
			"type":"VEC3"
		},
		{
			"bufferView":22,
			"componentType":5126,
			"count":16,
			"type":"VEC4"
		},
		{
			"bufferView":23,
			"componentType":5126,
			"count":2,
			"type":"VEC3"
		},
		{
			"bufferView":24,
			"componentType":5126,
			"count":2,
			"type":"VEC3"
		},
		{
			"bufferView":25,
			"componentType":5126,
			"count":2,
			"type":"VEC4"
		},
		{
			"bufferView":26,
			"componentType":5126,
			"count":2,
			"type":"VEC3"
		},
		{
			"bufferView":27,
			"componentType":5126,
			"count":2,
			"type":"VEC3"
		},
		{
			"bufferView":28,
			"componentType":5126,
			"count":2,
			"type":"VEC4"
		},
		{
			"bufferView":29,
			"componentType":5126,
			"count":2,
			"type":"VEC3"
		},
		{
			"bufferView":30,
			"componentType":5126,
			"count":2,
			"type":"VEC3"
		},
		{
			"bufferView":31,
			"componentType":5126,
			"count":16,
			"type":"VEC4"
		},
		{
			"bufferView":32,
			"componentType":5126,
			"count":2,
			"type":"VEC3"
		},
		{
			"bufferView":33,
			"componentType":5126,
			"count":2,
			"type":"VEC3"
		},
		{
			"bufferView":34,
			"componentType":5126,
			"count":16,
			"type":"VEC4"
		},
		{
			"bufferView":35,
			"componentType":5126,
			"count":2,
			"type":"VEC3"
		},
		{
			"bufferView":36,
			"componentType":5126,
			"count":2,
			"type":"VEC3"
		},
		{
			"bufferView":37,
			"componentType":5126,
			"count":16,
			"type":"VEC4"
		},
		{
			"bufferView":38,
			"componentType":5126,
			"count":2,
			"type":"VEC3"
		},
		{
			"bufferView":39,
			"componentType":5126,
			"count":2,
			"type":"VEC3"
		},
		{
			"bufferView":40,
			"componentType":5126,
			"count":2,
			"type":"VEC4"
		},
		{
			"bufferView":41,
			"componentType":5126,
			"count":2,
			"type":"VEC3"
		},
		{
			"bufferView":42,
			"componentType":5126,
			"count":2,
			"type":"VEC3"
		},
		{
			"bufferView":43,
			"componentType":5126,
			"count":2,
			"type":"VEC4"
		},
		{
			"bufferView":44,
			"componentType":5126,
			"count":2,
			"type":"VEC3"
		},
		{
			"bufferView":45,
			"componentType":5126,
			"count":2,
			"type":"VEC3"
		},
		{
			"bufferView":46,
			"componentType":5126,
			"count":16,
			"type":"VEC4"
		},
		{
			"bufferView":47,
			"componentType":5126,
			"count":2,
			"type":"VEC3"
		},
		{
			"bufferView":48,
			"componentType":5126,
			"count":2,
			"type":"VEC3"
		},
		{
			"bufferView":49,
			"componentType":5126,
			"count":2,
			"type":"VEC4"
		},
		{
			"bufferView":50,
			"componentType":5126,
			"count":2,
			"type":"VEC3"
		},
		{
			"bufferView":51,
			"componentType":5126,
			"count":2,
			"type":"VEC3"
		},
		{
			"bufferView":52,
			"componentType":5126,
			"count":2,
			"type":"VEC4"
		},
		{
			"bufferView":53,
			"componentType":5126,
			"count":2,
			"type":"VEC3"
		}
	],
	"bufferViews":[
		{
			"buffer":0,
			"byteLength":40080,
			"byteOffset":0,
			"target":34962
		},
		{
			"buffer":0,
			"byteLength":40080,
			"byteOffset":40080,
			"target":34962
		},
		{
			"buffer":0,
			"byteLength":26720,
			"byteOffset":80160,
			"target":34962
		},
		{
			"buffer":0,
			"byteLength":13360,
			"byteOffset":106880,
			"target":34962
		},
		{
			"buffer":0,
			"byteLength":53440,
			"byteOffset":120240,
			"target":34962
		},
		{
			"buffer":0,
			"byteLength":11220,
			"byteOffset":173680,
			"target":34963
		},
		{
			"buffer":0,
			"byteLength":960,
			"byteOffset":184900
		},
		{
			"buffer":0,
			"byteLength":8,
			"byteOffset":185860
		},
		{
			"buffer":0,
			"byteLength":24,
			"byteOffset":185868
		},
		{
			"buffer":0,
			"byteLength":64,
			"byteOffset":185892
		},
		{
			"buffer":0,
			"byteLength":256,
			"byteOffset":185956
		},
		{
			"buffer":0,
			"byteLength":24,
			"byteOffset":186212
		},
		{
			"buffer":0,
			"byteLength":24,
			"byteOffset":186236
		},
		{
			"buffer":0,
			"byteLength":32,
			"byteOffset":186260
		},
		{
			"buffer":0,
			"byteLength":24,
			"byteOffset":186292
		},
		{
			"buffer":0,
			"byteLength":24,
			"byteOffset":186316
		},
		{
			"buffer":0,
			"byteLength":256,
			"byteOffset":186340
		},
		{
			"buffer":0,
			"byteLength":24,
			"byteOffset":186596
		},
		{
			"buffer":0,
			"byteLength":24,
			"byteOffset":186620
		},
		{
			"buffer":0,
			"byteLength":32,
			"byteOffset":186644
		},
		{
			"buffer":0,
			"byteLength":24,
			"byteOffset":186676
		},
		{
			"buffer":0,
			"byteLength":24,
			"byteOffset":186700
		},
		{
			"buffer":0,
			"byteLength":256,
			"byteOffset":186724
		},
		{
			"buffer":0,
			"byteLength":24,
			"byteOffset":186980
		},
		{
			"buffer":0,
			"byteLength":24,
			"byteOffset":187004
		},
		{
			"buffer":0,
			"byteLength":32,
			"byteOffset":187028
		},
		{
			"buffer":0,
			"byteLength":24,
			"byteOffset":187060
		},
		{
			"buffer":0,
			"byteLength":24,
			"byteOffset":187084
		},
		{
			"buffer":0,
			"byteLength":32,
			"byteOffset":187108
		},
		{
			"buffer":0,
			"byteLength":24,
			"byteOffset":187140
		},
		{
			"buffer":0,
			"byteLength":24,
			"byteOffset":187164
		},
		{
			"buffer":0,
			"byteLength":256,
			"byteOffset":187188
		},
		{
			"buffer":0,
			"byteLength":24,
			"byteOffset":187444
		},
		{
			"buffer":0,
			"byteLength":24,
			"byteOffset":187468
		},
		{
			"buffer":0,
			"byteLength":256,
			"byteOffset":187492
		},
		{
			"buffer":0,
			"byteLength":24,
			"byteOffset":187748
		},
		{
			"buffer":0,
			"byteLength":24,
			"byteOffset":187772
		},
		{
			"buffer":0,
			"byteLength":256,
			"byteOffset":187796
		},
		{
			"buffer":0,
			"byteLength":24,
			"byteOffset":188052
		},
		{
			"buffer":0,
			"byteLength":24,
			"byteOffset":188076
		},
		{
			"buffer":0,
			"byteLength":32,
			"byteOffset":188100
		},
		{
			"buffer":0,
			"byteLength":24,
			"byteOffset":188132
		},
		{
			"buffer":0,
			"byteLength":24,
			"byteOffset":188156
		},
		{
			"buffer":0,
			"byteLength":32,
			"byteOffset":188180
		},
		{
			"buffer":0,
			"byteLength":24,
			"byteOffset":188212
		},
		{
			"buffer":0,
			"byteLength":24,
			"byteOffset":188236
		},
		{
			"buffer":0,
			"byteLength":256,
			"byteOffset":188260
		},
		{
			"buffer":0,
			"byteLength":24,
			"byteOffset":188516
		},
		{
			"buffer":0,
			"byteLength":24,
			"byteOffset":188540
		},
		{
			"buffer":0,
			"byteLength":32,
			"byteOffset":188564
		},
		{
			"buffer":0,
			"byteLength":24,
			"byteOffset":188596
		},
		{
			"buffer":0,
			"byteLength":24,
			"byteOffset":188620
		},
		{
			"buffer":0,
			"byteLength":32,
			"byteOffset":188644
		},
		{
			"buffer":0,
			"byteLength":24,
			"byteOffset":188676
		}
	],
	"buffers":[
		{
			"byteLength":188700,
			"uri":"Enemy_03_defence.bin"
		}
	]
}
