# Blender 4.4.3
# www.blender.org
mtllib Bridge.mtl
o 立方体
v -1.546996 -0.145902 1.652491
v -1.546996 0.690797 1.652491
v -1.546996 -0.145902 -1.652487
v -1.546996 0.690797 -1.652487
v 1.546996 -0.145902 1.652491
v 1.546996 0.690797 1.652491
v 1.546996 -0.145902 -1.652487
v 1.546996 0.690797 -1.652487
v -0.432984 1.957022 0.522436
v -0.432984 1.957022 -0.522432
v 0.432984 1.957022 -0.522432
v 0.432984 1.957022 0.522436
v -0.610524 11.559276 0.736654
v -0.610524 11.559276 -0.736650
v 0.610524 11.559276 -0.736650
v 0.610524 11.559276 0.736654
v -12.488075 13.246687 3.775668
v -12.488075 13.246687 -3.775664
v 12.488075 13.246687 -3.775664
v 12.488075 13.246687 3.775668
v -12.488075 14.047538 3.899664
v -12.488075 14.047538 -3.899661
v 12.488075 14.047538 -3.899661
v 12.488075 14.047538 3.899664
v -1.137328 1.486981 -1.132454
v 1.137328 1.486981 -1.132454
v 1.137328 1.486981 1.132458
v -1.137328 1.486981 1.132458
v -3.677094 12.029316 -1.132454
v 3.677094 12.029316 -1.132454
v 3.677094 12.029316 1.132458
v -3.677094 12.029316 1.132458
vn -1.0000 -0.0000 -0.0000
vn -0.0000 -0.0000 -1.0000
vn 1.0000 -0.0000 -0.0000
vn -0.0000 -0.0000 1.0000
vn -0.0000 -1.0000 -0.0000
vn 0.8892 0.4575 -0.0000
vn -0.0000 -0.0223 0.9998
vn -0.8892 0.4575 -0.0000
vn -0.0000 0.5468 0.8372
vn -0.0000 0.5468 -0.8372
vn 0.1369 -0.9906 -0.0000
vn 0.9722 -0.2342 -0.0000
vn -0.9722 -0.2342 -0.0000
vn -0.0000 -0.1530 0.9882
vn -0.1369 -0.9906 -0.0000
vn -0.0000 -0.9083 0.4183
vn -0.0000 -0.9083 -0.4183
vn -0.0000 1.0000 -0.0000
vn -0.0000 -0.1530 -0.9882
vn -0.0000 0.7921 -0.6104
vn -0.0000 0.7921 0.6104
vn -0.0000 -0.6441 -0.7649
vn -0.0000 -0.6441 0.7649
vn -0.1250 -0.0198 0.9920
vn 0.5919 0.1426 0.7933
vn 0.1250 -0.0198 -0.9920
vn -0.5919 0.1426 -0.7933
vn -0.0000 -0.0223 -0.9998
vn -0.5919 0.1426 0.7933
vn 0.1250 -0.0198 0.9920
vn 0.5919 0.1426 -0.7933
vn -0.1250 -0.0198 -0.9920
vt 0.625000 0.000000
vt 0.375000 0.250000
vt 0.375000 0.000000
vt 0.625000 0.250000
vt 0.375000 0.500000
vt 0.625000 0.500000
vt 0.375000 0.750000
vt 0.625000 0.750000
vt 0.375000 1.000000
vt 0.125000 0.750000
vt 0.125000 0.500000
vt 0.625000 0.978154
vt 0.625000 0.771846
vt 0.625000 0.978154
vt 0.625000 1.000000
vt 0.875000 0.500000
vt 0.625000 0.478154
vt 0.625000 0.271846
vt 0.625000 0.771846
vt 0.625000 0.271846
vt 0.625000 0.478154
vt 0.875000 0.750000
s 0
f 2/1/1 3/2/1 1/3/1
f 4/4/2 7/5/2 3/2/2
f 8/6/3 5/7/3 7/5/3
f 6/8/4 1/9/4 5/7/4
f 7/5/5 1/10/5 3/11/5
f 6/8/6 26/6/6 27/8/6
f 9/12/7 16/13/7 13/14/7
f 4/4/8 28/1/8 25/4/8
f 6/8/9 28/15/9 2/15/9
f 4/4/10 26/6/10 8/6/10
f 30/6/11 20/8/11 31/8/11
f 26/6/12 31/8/12 27/8/12
f 28/1/13 29/4/13 25/4/13
f 20/8/14 21/15/14 17/15/14
f 32/1/15 18/4/15 29/4/15
f 31/8/16 17/15/16 32/15/16
f 29/4/17 19/6/17 30/6/17
f 22/16/18 24/8/18 23/6/18
f 18/4/19 23/6/19 19/6/19
f 19/6/3 24/8/3 20/8/3
f 17/1/1 22/4/1 18/4/1
f 11/17/20 25/4/20 10/18/20
f 9/12/21 27/8/21 12/19/21
f 14/20/22 30/6/22 15/21/22
f 16/13/23 32/15/23 13/14/23
f 12/19/24 31/8/24 16/13/24
f 9/12/25 32/15/25 28/15/25
f 10/18/26 29/4/26 14/20/26
f 11/17/27 30/6/27 26/6/27
f 11/17/28 14/20/28 15/21/28
f 2/1/1 4/4/1 3/2/1
f 4/4/2 8/6/2 7/5/2
f 8/6/3 6/8/3 5/7/3
f 6/8/4 2/15/4 1/9/4
f 7/5/5 5/7/5 1/10/5
f 6/8/6 8/6/6 26/6/6
f 9/12/7 12/19/7 16/13/7
f 4/4/8 2/1/8 28/1/8
f 6/8/9 27/8/9 28/15/9
f 4/4/10 25/4/10 26/6/10
f 30/6/11 19/6/11 20/8/11
f 26/6/12 30/6/12 31/8/12
f 28/1/13 32/1/13 29/4/13
f 20/8/14 24/8/14 21/15/14
f 32/1/15 17/1/15 18/4/15
f 31/8/16 20/8/16 17/15/16
f 29/4/17 18/4/17 19/6/17
f 22/16/18 21/22/18 24/8/18
f 18/4/19 22/4/19 23/6/19
f 19/6/3 23/6/3 24/8/3
f 17/1/1 21/1/1 22/4/1
f 11/17/20 26/6/20 25/4/20
f 9/12/21 28/15/21 27/8/21
f 14/20/22 29/4/22 30/6/22
f 16/13/23 31/8/23 32/15/23
f 12/19/29 27/8/29 31/8/29
f 9/12/30 13/14/30 32/15/30
f 10/18/31 25/4/31 29/4/31
f 11/17/32 15/21/32 30/6/32
f 11/17/28 10/18/28 14/20/28
