{
	"asset":{
		"generator":"Khronos glTF Blender I/O v4.4.56",
		"version":"2.0"
	},
	"scene":0,
	"scenes":[
		{
			"name":"Scene",
			"nodes":[
				17
			]
		}
	],
	"nodes":[
		{
			"name":"\u30dc\u30fc\u30f3.002",
			"translation":[
				-1.559584461574559e-09,
				0.8406200408935547,
				5.295200722343907e-08
			]
		},
		{
			"name":"\u30dc\u30fc\u30f3.015",
			"rotation":[
				-0.7030434012413025,
				1.2629581647161103e-07,
				-0.0022903243079781532,
				0.7111433148384094
			],
			"scale":[
				1,
				0.9999999403953552,
				0.9999999403953552
			],
			"translation":[
				-9.668219291825153e-08,
				1.319201946258545,
				1.908165359054692e-08
			]
		},
		{
			"children":[
				1
			],
			"name":"\u30dc\u30fc\u30f3.005",
			"rotation":[
				-2.6462312341379857e-09,
				8.276465734979865e-08,
				0.03302767127752304,
				0.9994544982910156
			],
			"scale":[
				0.9999999403953552,
				0.9999998807907104,
				1
			],
			"translation":[
				6.566217791714735e-08,
				0.9396857023239136,
				7.086997300120856e-08
			]
		},
		{
			"children":[
				2
			],
			"name":"\u30dc\u30fc\u30f3.004",
			"rotation":[
				1.806545135707438e-08,
				-3.361231648568719e-08,
				-0.5000689029693604,
				0.865985631942749
			],
			"translation":[
				2.1620542156597367e-07,
				1.1034795045852661,
				9.841052417414176e-08
			]
		},
		{
			"children":[
				3
			],
			"name":"\u30dc\u30fc\u30f3.003",
			"rotation":[
				1.645640956837724e-08,
				-5.0968687048680295e-08,
				-0.808483898639679,
				0.5885183811187744
			],
			"scale":[
				0.9999998807907104,
				0.9999999403953552,
				1
			],
			"translation":[
				-1.559584461574559e-09,
				0.8406200408935547,
				5.295200722343907e-08
			]
		},
		{
			"name":"\u30dc\u30fc\u30f3.008",
			"rotation":[
				2.9301443493778834e-09,
				9.144670798377774e-09,
				0.0067411563359200954,
				0.9999772906303406
			],
			"scale":[
				1,
				0.9999999403953552,
				1
			],
			"translation":[
				1.2463101484172512e-07,
				0.955594539642334,
				5.32194839308886e-08
			]
		},
		{
			"children":[
				5
			],
			"name":"\u30dc\u30fc\u30f3.007",
			"rotation":[
				1.7372379090829781e-07,
				-6.020285781005441e-08,
				0.46212488412857056,
				0.8868148922920227
			],
			"scale":[
				1.0000001192092896,
				1.0000001192092896,
				1
			],
			"translation":[
				-8.431501896666305e-08,
				1.0412198305130005,
				-1.7454645728776086e-08
			]
		},
		{
			"children":[
				6
			],
			"name":"\u30dc\u30fc\u30f3.006",
			"rotation":[
				6.050635192877962e-08,
				-5.31958548322109e-08,
				0.8141458630561829,
				0.5806604623794556
			],
			"translation":[
				-1.559584461574559e-09,
				0.8406200408935547,
				5.295200722343907e-08
			]
		},
		{
			"children":[
				0,
				4,
				7
			],
			"name":"\u30dc\u30fc\u30f3.001",
			"translation":[
				-1.559584461574559e-09,
				1,
				5.295200722343907e-08
			]
		},
		{
			"children":[
				8
			],
			"name":"\u30dc\u30fc\u30f3",
			"rotation":[
				0,
				-1,
				0,
				7.549790126404332e-08
			]
		},
		{
			"name":"\u30dc\u30fc\u30f3.012",
			"rotation":[
				-0.0049078697338700294,
				-6.984388534192476e-08,
				1.4792771452221132e-09,
				0.9999879598617554
			],
			"scale":[
				1,
				0.9999999403953552,
				0.9999999403953552
			],
			"translation":[
				-9.006819823298429e-08,
				0.9526474475860596,
				-1.4481642551800178e-08
			]
		},
		{
			"children":[
				10
			],
			"name":"\u30dc\u30fc\u30f3.011",
			"rotation":[
				-0.42231929302215576,
				1.3472376103607075e-08,
				1.0519954685150879e-07,
				0.906447172164917
			],
			"scale":[
				1,
				1,
				0.9999998807907104
			],
			"translation":[
				-1.227890749078142e-07,
				0.9363691210746765,
				7.855901174025348e-08
			]
		},
		{
			"children":[
				11
			],
			"name":"\u30dc\u30fc\u30f3.009",
			"rotation":[
				-0.6339263319969177,
				-0.3132689893245697,
				-0.6339263319969177,
				0.3132689595222473
			],
			"scale":[
				1,
				1.0000001192092896,
				1
			]
		},
		{
			"name":"\u30dc\u30fc\u30f3.014",
			"rotation":[
				-0.02093937061727047,
				9.238424780733112e-08,
				-6.756074810709833e-09,
				0.9997807741165161
			],
			"scale":[
				1,
				1.0000001192092896,
				1
			],
			"translation":[
				-6.045898715001385e-08,
				0.9866428971290588,
				1.4260876923799515e-09
			]
		},
		{
			"children":[
				13
			],
			"name":"\u30dc\u30fc\u30f3.013",
			"rotation":[
				-0.42150357365608215,
				1.1484162598662806e-07,
				-4.872041259318394e-08,
				0.9068267345428467
			],
			"scale":[
				1,
				0.9999998807907104,
				1
			],
			"translation":[
				-9.244354970405766e-08,
				0.9232437014579773,
				1.593942897670786e-07
			]
		},
		{
			"children":[
				14
			],
			"name":"\u30dc\u30fc\u30f3.010",
			"rotation":[
				-0.6309497356414795,
				0.31922152638435364,
				0.630949854850769,
				0.31922152638435364
			],
			"scale":[
				1,
				1,
				0.9999999403953552
			]
		},
		{
			"mesh":0,
			"name":"\u7acb\u65b9\u4f53.022",
			"skin":0
		},
		{
			"children":[
				16,
				9,
				12,
				15
			],
			"name":"\u30a2\u30fc\u30de\u30c1\u30e5\u30a2.001",
			"translation":[
				-0.3506852984428406,
				2.4104013442993164,
				-1.5893036127090454
			]
		}
	],
	"animations":[
		{
			"channels":[
				{
					"sampler":0,
					"target":{
						"node":9,
						"path":"translation"
					}
				},
				{
					"sampler":1,
					"target":{
						"node":9,
						"path":"rotation"
					}
				},
				{
					"sampler":2,
					"target":{
						"node":9,
						"path":"scale"
					}
				},
				{
					"sampler":3,
					"target":{
						"node":8,
						"path":"translation"
					}
				},
				{
					"sampler":4,
					"target":{
						"node":8,
						"path":"rotation"
					}
				},
				{
					"sampler":5,
					"target":{
						"node":8,
						"path":"scale"
					}
				},
				{
					"sampler":6,
					"target":{
						"node":0,
						"path":"translation"
					}
				},
				{
					"sampler":7,
					"target":{
						"node":0,
						"path":"rotation"
					}
				},
				{
					"sampler":8,
					"target":{
						"node":0,
						"path":"scale"
					}
				},
				{
					"sampler":9,
					"target":{
						"node":4,
						"path":"translation"
					}
				},
				{
					"sampler":10,
					"target":{
						"node":4,
						"path":"rotation"
					}
				},
				{
					"sampler":11,
					"target":{
						"node":4,
						"path":"scale"
					}
				},
				{
					"sampler":12,
					"target":{
						"node":3,
						"path":"translation"
					}
				},
				{
					"sampler":13,
					"target":{
						"node":3,
						"path":"rotation"
					}
				},
				{
					"sampler":14,
					"target":{
						"node":3,
						"path":"scale"
					}
				},
				{
					"sampler":15,
					"target":{
						"node":2,
						"path":"translation"
					}
				},
				{
					"sampler":16,
					"target":{
						"node":2,
						"path":"rotation"
					}
				},
				{
					"sampler":17,
					"target":{
						"node":2,
						"path":"scale"
					}
				},
				{
					"sampler":18,
					"target":{
						"node":1,
						"path":"translation"
					}
				},
				{
					"sampler":19,
					"target":{
						"node":1,
						"path":"rotation"
					}
				},
				{
					"sampler":20,
					"target":{
						"node":1,
						"path":"scale"
					}
				},
				{
					"sampler":21,
					"target":{
						"node":7,
						"path":"translation"
					}
				},
				{
					"sampler":22,
					"target":{
						"node":7,
						"path":"rotation"
					}
				},
				{
					"sampler":23,
					"target":{
						"node":7,
						"path":"scale"
					}
				},
				{
					"sampler":24,
					"target":{
						"node":6,
						"path":"translation"
					}
				},
				{
					"sampler":25,
					"target":{
						"node":6,
						"path":"rotation"
					}
				},
				{
					"sampler":26,
					"target":{
						"node":6,
						"path":"scale"
					}
				},
				{
					"sampler":27,
					"target":{
						"node":5,
						"path":"translation"
					}
				},
				{
					"sampler":28,
					"target":{
						"node":5,
						"path":"rotation"
					}
				},
				{
					"sampler":29,
					"target":{
						"node":5,
						"path":"scale"
					}
				},
				{
					"sampler":30,
					"target":{
						"node":12,
						"path":"translation"
					}
				},
				{
					"sampler":31,
					"target":{
						"node":12,
						"path":"rotation"
					}
				},
				{
					"sampler":32,
					"target":{
						"node":12,
						"path":"scale"
					}
				},
				{
					"sampler":33,
					"target":{
						"node":11,
						"path":"translation"
					}
				},
				{
					"sampler":34,
					"target":{
						"node":11,
						"path":"rotation"
					}
				},
				{
					"sampler":35,
					"target":{
						"node":11,
						"path":"scale"
					}
				},
				{
					"sampler":36,
					"target":{
						"node":10,
						"path":"translation"
					}
				},
				{
					"sampler":37,
					"target":{
						"node":10,
						"path":"rotation"
					}
				},
				{
					"sampler":38,
					"target":{
						"node":10,
						"path":"scale"
					}
				},
				{
					"sampler":39,
					"target":{
						"node":15,
						"path":"translation"
					}
				},
				{
					"sampler":40,
					"target":{
						"node":15,
						"path":"rotation"
					}
				},
				{
					"sampler":41,
					"target":{
						"node":15,
						"path":"scale"
					}
				},
				{
					"sampler":42,
					"target":{
						"node":14,
						"path":"translation"
					}
				},
				{
					"sampler":43,
					"target":{
						"node":14,
						"path":"rotation"
					}
				},
				{
					"sampler":44,
					"target":{
						"node":14,
						"path":"scale"
					}
				},
				{
					"sampler":45,
					"target":{
						"node":13,
						"path":"translation"
					}
				},
				{
					"sampler":46,
					"target":{
						"node":13,
						"path":"rotation"
					}
				},
				{
					"sampler":47,
					"target":{
						"node":13,
						"path":"scale"
					}
				}
			],
			"name":"move_back",
			"samplers":[
				{
					"input":8,
					"interpolation":"STEP",
					"output":9
				},
				{
					"input":8,
					"interpolation":"STEP",
					"output":10
				},
				{
					"input":8,
					"interpolation":"STEP",
					"output":11
				},
				{
					"input":8,
					"interpolation":"STEP",
					"output":12
				},
				{
					"input":13,
					"interpolation":"LINEAR",
					"output":14
				},
				{
					"input":8,
					"interpolation":"STEP",
					"output":15
				},
				{
					"input":8,
					"interpolation":"STEP",
					"output":16
				},
				{
					"input":13,
					"interpolation":"LINEAR",
					"output":17
				},
				{
					"input":8,
					"interpolation":"STEP",
					"output":18
				},
				{
					"input":8,
					"interpolation":"STEP",
					"output":19
				},
				{
					"input":8,
					"interpolation":"STEP",
					"output":20
				},
				{
					"input":8,
					"interpolation":"STEP",
					"output":21
				},
				{
					"input":8,
					"interpolation":"STEP",
					"output":22
				},
				{
					"input":13,
					"interpolation":"LINEAR",
					"output":23
				},
				{
					"input":8,
					"interpolation":"STEP",
					"output":24
				},
				{
					"input":8,
					"interpolation":"STEP",
					"output":25
				},
				{
					"input":8,
					"interpolation":"STEP",
					"output":26
				},
				{
					"input":8,
					"interpolation":"STEP",
					"output":27
				},
				{
					"input":8,
					"interpolation":"STEP",
					"output":28
				},
				{
					"input":8,
					"interpolation":"STEP",
					"output":29
				},
				{
					"input":8,
					"interpolation":"STEP",
					"output":30
				},
				{
					"input":8,
					"interpolation":"STEP",
					"output":31
				},
				{
					"input":8,
					"interpolation":"STEP",
					"output":32
				},
				{
					"input":8,
					"interpolation":"STEP",
					"output":33
				},
				{
					"input":8,
					"interpolation":"STEP",
					"output":34
				},
				{
					"input":13,
					"interpolation":"LINEAR",
					"output":35
				},
				{
					"input":8,
					"interpolation":"STEP",
					"output":36
				},
				{
					"input":8,
					"interpolation":"STEP",
					"output":37
				},
				{
					"input":8,
					"interpolation":"STEP",
					"output":38
				},
				{
					"input":8,
					"interpolation":"STEP",
					"output":39
				},
				{
					"input":8,
					"interpolation":"STEP",
					"output":40
				},
				{
					"input":8,
					"interpolation":"STEP",
					"output":41
				},
				{
					"input":8,
					"interpolation":"STEP",
					"output":42
				},
				{
					"input":8,
					"interpolation":"STEP",
					"output":43
				},
				{
					"input":13,
					"interpolation":"LINEAR",
					"output":44
				},
				{
					"input":8,
					"interpolation":"STEP",
					"output":45
				},
				{
					"input":8,
					"interpolation":"STEP",
					"output":46
				},
				{
					"input":8,
					"interpolation":"STEP",
					"output":47
				},
				{
					"input":8,
					"interpolation":"STEP",
					"output":48
				},
				{
					"input":8,
					"interpolation":"STEP",
					"output":49
				},
				{
					"input":8,
					"interpolation":"STEP",
					"output":50
				},
				{
					"input":8,
					"interpolation":"STEP",
					"output":51
				},
				{
					"input":8,
					"interpolation":"STEP",
					"output":52
				},
				{
					"input":13,
					"interpolation":"LINEAR",
					"output":53
				},
				{
					"input":8,
					"interpolation":"STEP",
					"output":54
				},
				{
					"input":8,
					"interpolation":"STEP",
					"output":55
				},
				{
					"input":8,
					"interpolation":"STEP",
					"output":56
				},
				{
					"input":8,
					"interpolation":"STEP",
					"output":57
				}
			]
		}
	],
	"meshes":[
		{
			"name":"\u7acb\u65b9\u4f53.022",
			"primitives":[
				{
					"attributes":{
						"POSITION":0,
						"NORMAL":1,
						"TEXCOORD_0":2,
						"COLOR_0":3,
						"JOINTS_0":4,
						"WEIGHTS_0":5
					},
					"indices":6
				}
			]
		}
	],
	"skins":[
		{
			"inverseBindMatrices":7,
			"joints":[
				9,
				8,
				0,
				4,
				3,
				2,
				1,
				7,
				6,
				5,
				12,
				11,
				10,
				15,
				14,
				13
			],
			"name":"\u30a2\u30fc\u30de\u30c1\u30e5\u30a2.001"
		}
	],
	"accessors":[
		{
			"bufferView":0,
			"componentType":5126,
			"count":14859,
			"max":[
				1.5886244773864746,
				6.810957908630371,
				3.786052703857422
			],
			"min":[
				-2.289994955062866,
				-0.17155933380126953,
				-2.7703733444213867
			],
			"type":"VEC3"
		},
		{
			"bufferView":1,
			"componentType":5126,
			"count":14859,
			"type":"VEC3"
		},
		{
			"bufferView":2,
			"componentType":5126,
			"count":14859,
			"type":"VEC2"
		},
		{
			"bufferView":3,
			"componentType":5123,
			"count":14859,
			"normalized":true,
			"type":"VEC4"
		},
		{
			"bufferView":4,
			"componentType":5121,
			"count":14859,
			"type":"VEC4"
		},
		{
			"bufferView":5,
			"componentType":5126,
			"count":14859,
			"type":"VEC4"
		},
		{
			"bufferView":6,
			"componentType":5123,
			"count":24162,
			"type":"SCALAR"
		},
		{
			"bufferView":7,
			"componentType":5126,
			"count":16,
			"type":"MAT4"
		},
		{
			"bufferView":8,
			"componentType":5126,
			"count":2,
			"max":[
				0.5
			],
			"min":[
				0
			],
			"type":"SCALAR"
		},
		{
			"bufferView":9,
			"componentType":5126,
			"count":2,
			"type":"VEC3"
		},
		{
			"bufferView":10,
			"componentType":5126,
			"count":2,
			"type":"VEC4"
		},
		{
			"bufferView":11,
			"componentType":5126,
			"count":2,
			"type":"VEC3"
		},
		{
			"bufferView":12,
			"componentType":5126,
			"count":2,
			"type":"VEC3"
		},
		{
			"bufferView":13,
			"componentType":5126,
			"count":31,
			"max":[
				0.5
			],
			"min":[
				0
			],
			"type":"SCALAR"
		},
		{
			"bufferView":14,
			"componentType":5126,
			"count":31,
			"type":"VEC4"
		},
		{
			"bufferView":15,
			"componentType":5126,
			"count":2,
			"type":"VEC3"
		},
		{
			"bufferView":16,
			"componentType":5126,
			"count":2,
			"type":"VEC3"
		},
		{
			"bufferView":17,
			"componentType":5126,
			"count":31,
			"type":"VEC4"
		},
		{
			"bufferView":18,
			"componentType":5126,
			"count":2,
			"type":"VEC3"
		},
		{
			"bufferView":19,
			"componentType":5126,
			"count":2,
			"type":"VEC3"
		},
		{
			"bufferView":20,
			"componentType":5126,
			"count":2,
			"type":"VEC4"
		},
		{
			"bufferView":21,
			"componentType":5126,
			"count":2,
			"type":"VEC3"
		},
		{
			"bufferView":22,
			"componentType":5126,
			"count":2,
			"type":"VEC3"
		},
		{
			"bufferView":23,
			"componentType":5126,
			"count":31,
			"type":"VEC4"
		},
		{
			"bufferView":24,
			"componentType":5126,
			"count":2,
			"type":"VEC3"
		},
		{
			"bufferView":25,
			"componentType":5126,
			"count":2,
			"type":"VEC3"
		},
		{
			"bufferView":26,
			"componentType":5126,
			"count":2,
			"type":"VEC4"
		},
		{
			"bufferView":27,
			"componentType":5126,
			"count":2,
			"type":"VEC3"
		},
		{
			"bufferView":28,
			"componentType":5126,
			"count":2,
			"type":"VEC3"
		},
		{
			"bufferView":29,
			"componentType":5126,
			"count":2,
			"type":"VEC4"
		},
		{
			"bufferView":30,
			"componentType":5126,
			"count":2,
			"type":"VEC3"
		},
		{
			"bufferView":31,
			"componentType":5126,
			"count":2,
			"type":"VEC3"
		},
		{
			"bufferView":32,
			"componentType":5126,
			"count":2,
			"type":"VEC4"
		},
		{
			"bufferView":33,
			"componentType":5126,
			"count":2,
			"type":"VEC3"
		},
		{
			"bufferView":34,
			"componentType":5126,
			"count":2,
			"type":"VEC3"
		},
		{
			"bufferView":35,
			"componentType":5126,
			"count":31,
			"type":"VEC4"
		},
		{
			"bufferView":36,
			"componentType":5126,
			"count":2,
			"type":"VEC3"
		},
		{
			"bufferView":37,
			"componentType":5126,
			"count":2,
			"type":"VEC3"
		},
		{
			"bufferView":38,
			"componentType":5126,
			"count":2,
			"type":"VEC4"
		},
		{
			"bufferView":39,
			"componentType":5126,
			"count":2,
			"type":"VEC3"
		},
		{
			"bufferView":40,
			"componentType":5126,
			"count":2,
			"type":"VEC3"
		},
		{
			"bufferView":41,
			"componentType":5126,
			"count":2,
			"type":"VEC4"
		},
		{
			"bufferView":42,
			"componentType":5126,
			"count":2,
			"type":"VEC3"
		},
		{
			"bufferView":43,
			"componentType":5126,
			"count":2,
			"type":"VEC3"
		},
		{
			"bufferView":44,
			"componentType":5126,
			"count":31,
			"type":"VEC4"
		},
		{
			"bufferView":45,
			"componentType":5126,
			"count":2,
			"type":"VEC3"
		},
		{
			"bufferView":46,
			"componentType":5126,
			"count":2,
			"type":"VEC3"
		},
		{
			"bufferView":47,
			"componentType":5126,
			"count":2,
			"type":"VEC4"
		},
		{
			"bufferView":48,
			"componentType":5126,
			"count":2,
			"type":"VEC3"
		},
		{
			"bufferView":49,
			"componentType":5126,
			"count":2,
			"type":"VEC3"
		},
		{
			"bufferView":50,
			"componentType":5126,
			"count":2,
			"type":"VEC4"
		},
		{
			"bufferView":51,
			"componentType":5126,
			"count":2,
			"type":"VEC3"
		},
		{
			"bufferView":52,
			"componentType":5126,
			"count":2,
			"type":"VEC3"
		},
		{
			"bufferView":53,
			"componentType":5126,
			"count":31,
			"type":"VEC4"
		},
		{
			"bufferView":54,
			"componentType":5126,
			"count":2,
			"type":"VEC3"
		},
		{
			"bufferView":55,
			"componentType":5126,
			"count":2,
			"type":"VEC3"
		},
		{
			"bufferView":56,
			"componentType":5126,
			"count":2,
			"type":"VEC4"
		},
		{
			"bufferView":57,
			"componentType":5126,
			"count":2,
			"type":"VEC3"
		}
	],
	"bufferViews":[
		{
			"buffer":0,
			"byteLength":178308,
			"byteOffset":0,
			"target":34962
		},
		{
			"buffer":0,
			"byteLength":178308,
			"byteOffset":178308,
			"target":34962
		},
		{
			"buffer":0,
			"byteLength":118872,
			"byteOffset":356616,
			"target":34962
		},
		{
			"buffer":0,
			"byteLength":118872,
			"byteOffset":475488,
			"target":34962
		},
		{
			"buffer":0,
			"byteLength":59436,
			"byteOffset":594360,
			"target":34962
		},
		{
			"buffer":0,
			"byteLength":237744,
			"byteOffset":653796,
			"target":34962
		},
		{
			"buffer":0,
			"byteLength":48324,
			"byteOffset":891540,
			"target":34963
		},
		{
			"buffer":0,
			"byteLength":1024,
			"byteOffset":939864
		},
		{
			"buffer":0,
			"byteLength":8,
			"byteOffset":940888
		},
		{
			"buffer":0,
			"byteLength":24,
			"byteOffset":940896
		},
		{
			"buffer":0,
			"byteLength":32,
			"byteOffset":940920
		},
		{
			"buffer":0,
			"byteLength":24,
			"byteOffset":940952
		},
		{
			"buffer":0,
			"byteLength":24,
			"byteOffset":940976
		},
		{
			"buffer":0,
			"byteLength":124,
			"byteOffset":941000
		},
		{
			"buffer":0,
			"byteLength":496,
			"byteOffset":941124
		},
		{
			"buffer":0,
			"byteLength":24,
			"byteOffset":941620
		},
		{
			"buffer":0,
			"byteLength":24,
			"byteOffset":941644
		},
		{
			"buffer":0,
			"byteLength":496,
			"byteOffset":941668
		},
		{
			"buffer":0,
			"byteLength":24,
			"byteOffset":942164
		},
		{
			"buffer":0,
			"byteLength":24,
			"byteOffset":942188
		},
		{
			"buffer":0,
			"byteLength":32,
			"byteOffset":942212
		},
		{
			"buffer":0,
			"byteLength":24,
			"byteOffset":942244
		},
		{
			"buffer":0,
			"byteLength":24,
			"byteOffset":942268
		},
		{
			"buffer":0,
			"byteLength":496,
			"byteOffset":942292
		},
		{
			"buffer":0,
			"byteLength":24,
			"byteOffset":942788
		},
		{
			"buffer":0,
			"byteLength":24,
			"byteOffset":942812
		},
		{
			"buffer":0,
			"byteLength":32,
			"byteOffset":942836
		},
		{
			"buffer":0,
			"byteLength":24,
			"byteOffset":942868
		},
		{
			"buffer":0,
			"byteLength":24,
			"byteOffset":942892
		},
		{
			"buffer":0,
			"byteLength":32,
			"byteOffset":942916
		},
		{
			"buffer":0,
			"byteLength":24,
			"byteOffset":942948
		},
		{
			"buffer":0,
			"byteLength":24,
			"byteOffset":942972
		},
		{
			"buffer":0,
			"byteLength":32,
			"byteOffset":942996
		},
		{
			"buffer":0,
			"byteLength":24,
			"byteOffset":943028
		},
		{
			"buffer":0,
			"byteLength":24,
			"byteOffset":943052
		},
		{
			"buffer":0,
			"byteLength":496,
			"byteOffset":943076
		},
		{
			"buffer":0,
			"byteLength":24,
			"byteOffset":943572
		},
		{
			"buffer":0,
			"byteLength":24,
			"byteOffset":943596
		},
		{
			"buffer":0,
			"byteLength":32,
			"byteOffset":943620
		},
		{
			"buffer":0,
			"byteLength":24,
			"byteOffset":943652
		},
		{
			"buffer":0,
			"byteLength":24,
			"byteOffset":943676
		},
		{
			"buffer":0,
			"byteLength":32,
			"byteOffset":943700
		},
		{
			"buffer":0,
			"byteLength":24,
			"byteOffset":943732
		},
		{
			"buffer":0,
			"byteLength":24,
			"byteOffset":943756
		},
		{
			"buffer":0,
			"byteLength":496,
			"byteOffset":943780
		},
		{
			"buffer":0,
			"byteLength":24,
			"byteOffset":944276
		},
		{
			"buffer":0,
			"byteLength":24,
			"byteOffset":944300
		},
		{
			"buffer":0,
			"byteLength":32,
			"byteOffset":944324
		},
		{
			"buffer":0,
			"byteLength":24,
			"byteOffset":944356
		},
		{
			"buffer":0,
			"byteLength":24,
			"byteOffset":944380
		},
		{
			"buffer":0,
			"byteLength":32,
			"byteOffset":944404
		},
		{
			"buffer":0,
			"byteLength":24,
			"byteOffset":944436
		},
		{
			"buffer":0,
			"byteLength":24,
			"byteOffset":944460
		},
		{
			"buffer":0,
			"byteLength":496,
			"byteOffset":944484
		},
		{
			"buffer":0,
			"byteLength":24,
			"byteOffset":944980
		},
		{
			"buffer":0,
			"byteLength":24,
			"byteOffset":945004
		},
		{
			"buffer":0,
			"byteLength":32,
			"byteOffset":945028
		},
		{
			"buffer":0,
			"byteLength":24,
			"byteOffset":945060
		}
	],
	"buffers":[
		{
			"byteLength":945084,
			"uri":"Player_move_back.bin"
		}
	]
}
