# Blender 4.4.3
# www.blender.org
mtllib pillar.mtl
o 立方体
v -1.546996 -0.145902 1.652491
v -1.546996 0.690797 1.652491
v -1.546996 -0.145902 -1.652487
v -1.546996 0.690797 -1.652487
v 1.546996 -0.145902 1.652491
v 1.546996 0.690797 1.652491
v 1.546996 -0.145902 -1.652487
v 1.546996 0.690797 -1.652487
v -0.938559 1.957022 1.132458
v -0.938559 1.957022 -1.132454
v 0.938559 1.957022 -1.132454
v 0.938559 1.957022 1.132458
v -0.938559 11.559276 1.132458
v -0.938559 11.559276 -1.132454
v 0.938559 11.559276 -1.132454
v 0.938559 11.559276 1.132458
v -1.437646 13.246687 1.431490
v -1.437646 13.246687 -1.431486
v 1.437646 13.246687 -1.431486
v 1.437646 13.246687 1.431490
v -1.437646 14.047538 1.431490
v -1.437646 14.047538 -1.431486
v 1.437646 14.047538 -1.431486
v 1.437646 14.047538 1.431490
v -1.137328 1.486981 -1.132454
v 1.137328 1.486981 -1.132454
v 1.137328 1.486981 1.132458
v -1.137328 1.486981 1.132458
v -1.137328 12.029316 -1.132454
v 1.137328 12.029316 -1.132454
v 1.137328 12.029316 1.132458
v -1.137328 12.029316 1.132458
vn -1.0000 -0.0000 -0.0000
vn -0.0000 -0.0000 -1.0000
vn 1.0000 -0.0000 -0.0000
vn -0.0000 -0.0000 1.0000
vn -0.0000 -1.0000 -0.0000
vn 0.8892 0.4575 -0.0000
vn -0.8892 0.4575 -0.0000
vn -0.0000 0.5468 0.8372
vn -0.0000 0.5468 -0.8372
vn 0.9709 -0.2395 -0.0000
vn -0.9709 -0.2395 -0.0000
vn -0.0000 -0.2385 0.9711
vn -0.0000 -0.2385 -0.9711
vn -0.0000 1.0000 -0.0000
vt 0.625000 0.000000
vt 0.375000 0.250000
vt 0.375000 0.000000
vt 0.625000 0.250000
vt 0.375000 0.500000
vt 0.625000 0.500000
vt 0.375000 0.750000
vt 0.625000 0.750000
vt 0.375000 1.000000
vt 0.125000 0.750000
vt 0.125000 0.500000
vt 0.625000 0.771846
vt 0.625000 0.978154
vt 0.625000 0.978154
vt 0.625000 1.000000
vt 0.875000 0.500000
vt 0.625000 0.271846
vt 0.625000 0.478154
vt 0.625000 0.771846
vt 0.625000 0.271846
vt 0.625000 0.478154
vt 0.875000 0.750000
s 0
f 2/1/1 3/2/1 1/3/1
f 4/4/2 7/5/2 3/2/2
f 8/6/3 5/7/3 7/5/3
f 6/8/4 1/9/4 5/7/4
f 7/5/5 1/10/5 3/11/5
f 6/8/6 26/6/6 27/8/6
f 12/12/4 13/13/4 9/14/4
f 4/4/7 28/1/7 25/4/7
f 6/8/8 28/15/8 2/15/8
f 4/4/9 26/6/9 8/6/9
f 30/6/10 20/8/10 31/8/10
f 26/6/3 31/8/3 27/8/3
f 28/1/1 29/4/1 25/4/1
f 20/8/4 21/15/4 17/15/4
f 32/1/11 18/4/11 29/4/11
f 31/8/12 17/15/12 32/15/12
f 29/4/13 19/6/13 30/6/13
f 22/16/14 24/8/14 23/6/14
f 18/4/2 23/6/2 19/6/2
f 19/6/3 24/8/3 20/8/3
f 17/1/1 22/4/1 18/4/1
f 10/17/2 26/6/2 25/4/2
f 12/12/4 28/15/4 27/8/4
f 15/18/2 29/4/2 30/6/2
f 13/13/4 31/8/4 32/15/4
f 12/12/4 31/8/4 16/19/4
f 13/13/4 28/15/4 9/14/4
f 10/17/2 29/4/2 14/20/2
f 15/18/2 26/6/2 11/21/2
f 10/17/2 15/18/2 11/21/2
f 2/1/1 4/4/1 3/2/1
f 4/4/2 8/6/2 7/5/2
f 8/6/3 6/8/3 5/7/3
f 6/8/4 2/15/4 1/9/4
f 7/5/5 5/7/5 1/10/5
f 6/8/6 8/6/6 26/6/6
f 12/12/4 16/19/4 13/13/4
f 4/4/7 2/1/7 28/1/7
f 6/8/8 27/8/8 28/15/8
f 4/4/9 25/4/9 26/6/9
f 30/6/10 19/6/10 20/8/10
f 26/6/3 30/6/3 31/8/3
f 28/1/1 32/1/1 29/4/1
f 20/8/4 24/8/4 21/15/4
f 32/1/11 17/1/11 18/4/11
f 31/8/12 20/8/12 17/15/12
f 29/4/13 18/4/13 19/6/13
f 22/16/14 21/22/14 24/8/14
f 18/4/2 22/4/2 23/6/2
f 19/6/3 23/6/3 24/8/3
f 17/1/1 21/1/1 22/4/1
f 10/17/2 11/21/2 26/6/2
f 12/12/4 9/14/4 28/15/4
f 15/18/2 14/20/2 29/4/2
f 13/13/4 16/19/4 31/8/4
f 12/12/4 27/8/4 31/8/4
f 13/13/4 32/15/4 28/15/4
f 10/17/2 25/4/2 29/4/2
f 15/18/2 30/6/2 26/6/2
f 10/17/2 14/20/2 15/18/2
