{
	"asset":{
		"generator":"Khronos glTF Blender I/O v4.4.56",
		"version":"2.0"
	},
	"scene":0,
	"scenes":[
		{
			"name":"Scene",
			"nodes":[
				16
			]
		}
	],
	"nodes":[
		{
			"name":"\u30dc\u30fc\u30f3.004",
			"rotation":[
				1.1857978599039143e-08,
				6.443752909035538e-08,
				-0.04271664470434189,
				0.9990872740745544
			],
			"scale":[
				0.9999999403953552,
				0.9999998807907104,
				1
			],
			"translation":[
				-3.634623624293454e-08,
				0.5690720081329346,
				-2.2538003463523637e-08
			]
		},
		{
			"children":[
				0
			],
			"name":"\u30dc\u30fc\u30f3.003",
			"rotation":[
				4.047665669304479e-08,
				2.7297524241021165e-08,
				-0.2186441421508789,
				0.9758046269416809
			],
			"translation":[
				-1.8133536627829017e-07,
				0.8039423823356628,
				-1.8171179005932458e-09
			]
		},
		{
			"children":[
				1
			],
			"name":"\u30dc\u30fc\u30f3.002",
			"rotation":[
				-1.8699306281177996e-07,
				1.8470409202109295e-08,
				0.7043175101280212,
				0.7098851203918457
			],
			"translation":[
				8.22174683889898e-09,
				0.3924809694290161,
				4.212296289551887e-09
			]
		},
		{
			"name":"\u30dc\u30fc\u30f3.014",
			"rotation":[
				-0.0019701889250427485,
				-5.757552767882146e-10,
				0.7065249681472778,
				0.7076854109764099
			],
			"scale":[
				0.9999999403953552,
				0.9999998807907104,
				1
			],
			"translation":[
				-1.0702967756515136e-07,
				0.5135157704353333,
				-1.4527529401675565e-08
			]
		},
		{
			"children":[
				3
			],
			"name":"\u30dc\u30fc\u30f3.007",
			"rotation":[
				-3.5720887581192073e-08,
				4.2925030641072226e-08,
				0.037876155227422714,
				0.9992824792861938
			],
			"scale":[
				1,
				1.0000001192092896,
				1
			],
			"translation":[
				5.4410833172369166e-08,
				0.5916829109191895,
				4.450072310646647e-09
			]
		},
		{
			"children":[
				4
			],
			"name":"\u30dc\u30fc\u30f3.006",
			"rotation":[
				-1.626106609364797e-07,
				1.3647368746205757e-07,
				0.21383874118328094,
				0.9768689870834351
			],
			"scale":[
				1,
				0.9999998807907104,
				1
			],
			"translation":[
				8.602833645454666e-08,
				0.8231267929077148,
				-3.732991693539134e-09
			]
		},
		{
			"children":[
				5
			],
			"name":"\u30dc\u30fc\u30f3.005",
			"rotation":[
				2.5218292876161286e-07,
				8.976628862455982e-08,
				-0.698902428150177,
				0.7152170538902283
			],
			"scale":[
				1,
				0.9999999403953552,
				1
			],
			"translation":[
				8.22174683889898e-09,
				0.3924809694290161,
				4.212296289551887e-09
			]
		},
		{
			"name":"\u30dc\u30fc\u30f3.009",
			"translation":[
				8.221732628044265e-09,
				0.38613343238830566,
				4.2122820786971715e-09
			]
		},
		{
			"children":[
				7
			],
			"name":"\u30dc\u30fc\u30f3.008",
			"rotation":[
				0,
				1.4210854715202004e-14,
				0,
				1
			],
			"translation":[
				8.22174683889898e-09,
				0.3924809694290161,
				4.212296289551887e-09
			]
		},
		{
			"children":[
				2,
				6,
				8
			],
			"name":"\u30dc\u30fc\u30f3.001",
			"rotation":[
				0,
				1.1920927533992653e-07,
				0,
				1
			],
			"scale":[
				1,
				0.9999999403953552,
				1
			],
			"translation":[
				0,
				0.9999999403953552,
				0
			]
		},
		{
			"children":[
				9
			],
			"name":"\u30dc\u30fc\u30f3"
		},
		{
			"name":"\u30dc\u30fc\u30f3.011",
			"rotation":[
				-0.5577096939086914,
				-3.708443330197042e-08,
				9.515041199392726e-08,
				0.8300361037254333
			],
			"scale":[
				1,
				0.9999999403953552,
				1
			],
			"translation":[
				5.70780445130481e-09,
				0.35589340329170227,
				-3.682592364384618e-08
			]
		},
		{
			"children":[
				11
			],
			"name":"\u30dc\u30fc\u30f3.010",
			"rotation":[
				-0.5217595100402832,
				0.4772494435310364,
				0.5217595100402832,
				0.477249413728714
			]
		},
		{
			"name":"\u30dc\u30fc\u30f3.013",
			"rotation":[
				-0.5537907481193542,
				-2.2545971756215977e-09,
				-5.197639652010366e-08,
				0.8326559066772461
			],
			"scale":[
				1,
				0.9999999403953552,
				0.9999999403953552
			],
			"translation":[
				-7.341242058700459e-10,
				0.3680155575275421,
				-7.92930308080031e-08
			]
		},
		{
			"children":[
				13
			],
			"name":"\u30dc\u30fc\u30f3.012",
			"rotation":[
				-0.5169144868850708,
				-0.48249301314353943,
				-0.5169143676757812,
				0.48249298334121704
			],
			"scale":[
				1,
				0.9999999403953552,
				0.9999999403953552
			]
		},
		{
			"mesh":0,
			"name":"\u7acb\u65b9\u4f53.001",
			"skin":0
		},
		{
			"children":[
				15,
				10,
				12,
				14
			],
			"name":"\u30a2\u30fc\u30de\u30c1\u30e5\u30a2",
			"translation":[
				-0.6073324084281921,
				0.7479010224342346,
				0.4655155539512634
			]
		}
	],
	"animations":[
		{
			"channels":[
				{
					"sampler":0,
					"target":{
						"node":10,
						"path":"translation"
					}
				},
				{
					"sampler":1,
					"target":{
						"node":10,
						"path":"rotation"
					}
				},
				{
					"sampler":2,
					"target":{
						"node":10,
						"path":"scale"
					}
				},
				{
					"sampler":3,
					"target":{
						"node":9,
						"path":"translation"
					}
				},
				{
					"sampler":4,
					"target":{
						"node":9,
						"path":"rotation"
					}
				},
				{
					"sampler":5,
					"target":{
						"node":9,
						"path":"scale"
					}
				},
				{
					"sampler":6,
					"target":{
						"node":2,
						"path":"translation"
					}
				},
				{
					"sampler":7,
					"target":{
						"node":2,
						"path":"rotation"
					}
				},
				{
					"sampler":8,
					"target":{
						"node":2,
						"path":"scale"
					}
				},
				{
					"sampler":9,
					"target":{
						"node":1,
						"path":"translation"
					}
				},
				{
					"sampler":10,
					"target":{
						"node":1,
						"path":"rotation"
					}
				},
				{
					"sampler":11,
					"target":{
						"node":1,
						"path":"scale"
					}
				},
				{
					"sampler":12,
					"target":{
						"node":0,
						"path":"translation"
					}
				},
				{
					"sampler":13,
					"target":{
						"node":0,
						"path":"rotation"
					}
				},
				{
					"sampler":14,
					"target":{
						"node":0,
						"path":"scale"
					}
				},
				{
					"sampler":15,
					"target":{
						"node":6,
						"path":"translation"
					}
				},
				{
					"sampler":16,
					"target":{
						"node":6,
						"path":"rotation"
					}
				},
				{
					"sampler":17,
					"target":{
						"node":6,
						"path":"scale"
					}
				},
				{
					"sampler":18,
					"target":{
						"node":5,
						"path":"translation"
					}
				},
				{
					"sampler":19,
					"target":{
						"node":5,
						"path":"rotation"
					}
				},
				{
					"sampler":20,
					"target":{
						"node":5,
						"path":"scale"
					}
				},
				{
					"sampler":21,
					"target":{
						"node":4,
						"path":"translation"
					}
				},
				{
					"sampler":22,
					"target":{
						"node":4,
						"path":"rotation"
					}
				},
				{
					"sampler":23,
					"target":{
						"node":4,
						"path":"scale"
					}
				},
				{
					"sampler":24,
					"target":{
						"node":3,
						"path":"translation"
					}
				},
				{
					"sampler":25,
					"target":{
						"node":3,
						"path":"rotation"
					}
				},
				{
					"sampler":26,
					"target":{
						"node":3,
						"path":"scale"
					}
				},
				{
					"sampler":27,
					"target":{
						"node":8,
						"path":"translation"
					}
				},
				{
					"sampler":28,
					"target":{
						"node":8,
						"path":"rotation"
					}
				},
				{
					"sampler":29,
					"target":{
						"node":8,
						"path":"scale"
					}
				},
				{
					"sampler":30,
					"target":{
						"node":7,
						"path":"translation"
					}
				},
				{
					"sampler":31,
					"target":{
						"node":7,
						"path":"rotation"
					}
				},
				{
					"sampler":32,
					"target":{
						"node":7,
						"path":"scale"
					}
				},
				{
					"sampler":33,
					"target":{
						"node":12,
						"path":"translation"
					}
				},
				{
					"sampler":34,
					"target":{
						"node":12,
						"path":"rotation"
					}
				},
				{
					"sampler":35,
					"target":{
						"node":12,
						"path":"scale"
					}
				},
				{
					"sampler":36,
					"target":{
						"node":11,
						"path":"translation"
					}
				},
				{
					"sampler":37,
					"target":{
						"node":11,
						"path":"rotation"
					}
				},
				{
					"sampler":38,
					"target":{
						"node":11,
						"path":"scale"
					}
				},
				{
					"sampler":39,
					"target":{
						"node":14,
						"path":"translation"
					}
				},
				{
					"sampler":40,
					"target":{
						"node":14,
						"path":"rotation"
					}
				},
				{
					"sampler":41,
					"target":{
						"node":14,
						"path":"scale"
					}
				},
				{
					"sampler":42,
					"target":{
						"node":13,
						"path":"translation"
					}
				},
				{
					"sampler":43,
					"target":{
						"node":13,
						"path":"rotation"
					}
				},
				{
					"sampler":44,
					"target":{
						"node":13,
						"path":"scale"
					}
				}
			],
			"name":"idle",
			"samplers":[
				{
					"input":7,
					"interpolation":"STEP",
					"output":8
				},
				{
					"input":9,
					"interpolation":"LINEAR",
					"output":10
				},
				{
					"input":7,
					"interpolation":"STEP",
					"output":11
				},
				{
					"input":7,
					"interpolation":"STEP",
					"output":12
				},
				{
					"input":7,
					"interpolation":"STEP",
					"output":13
				},
				{
					"input":7,
					"interpolation":"STEP",
					"output":14
				},
				{
					"input":7,
					"interpolation":"STEP",
					"output":15
				},
				{
					"input":7,
					"interpolation":"STEP",
					"output":16
				},
				{
					"input":7,
					"interpolation":"STEP",
					"output":17
				},
				{
					"input":7,
					"interpolation":"STEP",
					"output":18
				},
				{
					"input":9,
					"interpolation":"LINEAR",
					"output":19
				},
				{
					"input":7,
					"interpolation":"STEP",
					"output":20
				},
				{
					"input":7,
					"interpolation":"STEP",
					"output":21
				},
				{
					"input":9,
					"interpolation":"LINEAR",
					"output":22
				},
				{
					"input":7,
					"interpolation":"STEP",
					"output":23
				},
				{
					"input":7,
					"interpolation":"STEP",
					"output":24
				},
				{
					"input":7,
					"interpolation":"STEP",
					"output":25
				},
				{
					"input":7,
					"interpolation":"STEP",
					"output":26
				},
				{
					"input":7,
					"interpolation":"STEP",
					"output":27
				},
				{
					"input":9,
					"interpolation":"LINEAR",
					"output":28
				},
				{
					"input":7,
					"interpolation":"STEP",
					"output":29
				},
				{
					"input":7,
					"interpolation":"STEP",
					"output":30
				},
				{
					"input":7,
					"interpolation":"STEP",
					"output":31
				},
				{
					"input":7,
					"interpolation":"STEP",
					"output":32
				},
				{
					"input":7,
					"interpolation":"STEP",
					"output":33
				},
				{
					"input":7,
					"interpolation":"STEP",
					"output":34
				},
				{
					"input":7,
					"interpolation":"STEP",
					"output":35
				},
				{
					"input":7,
					"interpolation":"STEP",
					"output":36
				},
				{
					"input":9,
					"interpolation":"LINEAR",
					"output":37
				},
				{
					"input":7,
					"interpolation":"STEP",
					"output":38
				},
				{
					"input":7,
					"interpolation":"STEP",
					"output":39
				},
				{
					"input":9,
					"interpolation":"LINEAR",
					"output":40
				},
				{
					"input":7,
					"interpolation":"STEP",
					"output":41
				},
				{
					"input":7,
					"interpolation":"STEP",
					"output":42
				},
				{
					"input":7,
					"interpolation":"STEP",
					"output":43
				},
				{
					"input":7,
					"interpolation":"STEP",
					"output":44
				},
				{
					"input":7,
					"interpolation":"STEP",
					"output":45
				},
				{
					"input":7,
					"interpolation":"STEP",
					"output":46
				},
				{
					"input":7,
					"interpolation":"STEP",
					"output":47
				},
				{
					"input":7,
					"interpolation":"STEP",
					"output":48
				},
				{
					"input":7,
					"interpolation":"STEP",
					"output":49
				},
				{
					"input":7,
					"interpolation":"STEP",
					"output":50
				},
				{
					"input":7,
					"interpolation":"STEP",
					"output":51
				},
				{
					"input":7,
					"interpolation":"STEP",
					"output":52
				},
				{
					"input":7,
					"interpolation":"STEP",
					"output":53
				}
			]
		}
	],
	"meshes":[
		{
			"name":"\u7acb\u65b9\u4f53.001",
			"primitives":[
				{
					"attributes":{
						"POSITION":0,
						"NORMAL":1,
						"TEXCOORD_0":2,
						"JOINTS_0":3,
						"WEIGHTS_0":4
					},
					"indices":5
				}
			]
		}
	],
	"skins":[
		{
			"inverseBindMatrices":6,
			"joints":[
				10,
				9,
				2,
				1,
				0,
				6,
				5,
				4,
				3,
				8,
				7,
				12,
				11,
				14,
				13
			],
			"name":"\u30a2\u30fc\u30de\u30c1\u30e5\u30a2"
		}
	],
	"accessors":[
		{
			"bufferView":0,
			"componentType":5126,
			"count":3094,
			"max":[
				1.4771103858947754,
				5.084989547729492,
				1.3132073879241943
			],
			"min":[
				-2.5679855346679688,
				0,
				-0.7050016522407532
			],
			"type":"VEC3"
		},
		{
			"bufferView":1,
			"componentType":5126,
			"count":3094,
			"type":"VEC3"
		},
		{
			"bufferView":2,
			"componentType":5126,
			"count":3094,
			"type":"VEC2"
		},
		{
			"bufferView":3,
			"componentType":5121,
			"count":3094,
			"type":"VEC4"
		},
		{
			"bufferView":4,
			"componentType":5126,
			"count":3094,
			"type":"VEC4"
		},
		{
			"bufferView":5,
			"componentType":5123,
			"count":5064,
			"type":"SCALAR"
		},
		{
			"bufferView":6,
			"componentType":5126,
			"count":15,
			"type":"MAT4"
		},
		{
			"bufferView":7,
			"componentType":5126,
			"count":2,
			"max":[
				4.166666666666667
			],
			"min":[
				0
			],
			"type":"SCALAR"
		},
		{
			"bufferView":8,
			"componentType":5126,
			"count":2,
			"type":"VEC3"
		},
		{
			"bufferView":9,
			"componentType":5126,
			"count":251,
			"max":[
				4.166666666666667
			],
			"min":[
				0
			],
			"type":"SCALAR"
		},
		{
			"bufferView":10,
			"componentType":5126,
			"count":251,
			"type":"VEC4"
		},
		{
			"bufferView":11,
			"componentType":5126,
			"count":2,
			"type":"VEC3"
		},
		{
			"bufferView":12,
			"componentType":5126,
			"count":2,
			"type":"VEC3"
		},
		{
			"bufferView":13,
			"componentType":5126,
			"count":2,
			"type":"VEC4"
		},
		{
			"bufferView":14,
			"componentType":5126,
			"count":2,
			"type":"VEC3"
		},
		{
			"bufferView":15,
			"componentType":5126,
			"count":2,
			"type":"VEC3"
		},
		{
			"bufferView":16,
			"componentType":5126,
			"count":2,
			"type":"VEC4"
		},
		{
			"bufferView":17,
			"componentType":5126,
			"count":2,
			"type":"VEC3"
		},
		{
			"bufferView":18,
			"componentType":5126,
			"count":2,
			"type":"VEC3"
		},
		{
			"bufferView":19,
			"componentType":5126,
			"count":251,
			"type":"VEC4"
		},
		{
			"bufferView":20,
			"componentType":5126,
			"count":2,
			"type":"VEC3"
		},
		{
			"bufferView":21,
			"componentType":5126,
			"count":2,
			"type":"VEC3"
		},
		{
			"bufferView":22,
			"componentType":5126,
			"count":251,
			"type":"VEC4"
		},
		{
			"bufferView":23,
			"componentType":5126,
			"count":2,
			"type":"VEC3"
		},
		{
			"bufferView":24,
			"componentType":5126,
			"count":2,
			"type":"VEC3"
		},
		{
			"bufferView":25,
			"componentType":5126,
			"count":2,
			"type":"VEC4"
		},
		{
			"bufferView":26,
			"componentType":5126,
			"count":2,
			"type":"VEC3"
		},
		{
			"bufferView":27,
			"componentType":5126,
			"count":2,
			"type":"VEC3"
		},
		{
			"bufferView":28,
			"componentType":5126,
			"count":251,
			"type":"VEC4"
		},
		{
			"bufferView":29,
			"componentType":5126,
			"count":2,
			"type":"VEC3"
		},
		{
			"bufferView":30,
			"componentType":5126,
			"count":2,
			"type":"VEC3"
		},
		{
			"bufferView":31,
			"componentType":5126,
			"count":2,
			"type":"VEC4"
		},
		{
			"bufferView":32,
			"componentType":5126,
			"count":2,
			"type":"VEC3"
		},
		{
			"bufferView":33,
			"componentType":5126,
			"count":2,
			"type":"VEC3"
		},
		{
			"bufferView":34,
			"componentType":5126,
			"count":2,
			"type":"VEC4"
		},
		{
			"bufferView":35,
			"componentType":5126,
			"count":2,
			"type":"VEC3"
		},
		{
			"bufferView":36,
			"componentType":5126,
			"count":2,
			"type":"VEC3"
		},
		{
			"bufferView":37,
			"componentType":5126,
			"count":251,
			"type":"VEC4"
		},
		{
			"bufferView":38,
			"componentType":5126,
			"count":2,
			"type":"VEC3"
		},
		{
			"bufferView":39,
			"componentType":5126,
			"count":2,
			"type":"VEC3"
		},
		{
			"bufferView":40,
			"componentType":5126,
			"count":251,
			"type":"VEC4"
		},
		{
			"bufferView":41,
			"componentType":5126,
			"count":2,
			"type":"VEC3"
		},
		{
			"bufferView":42,
			"componentType":5126,
			"count":2,
			"type":"VEC3"
		},
		{
			"bufferView":43,
			"componentType":5126,
			"count":2,
			"type":"VEC4"
		},
		{
			"bufferView":44,
			"componentType":5126,
			"count":2,
			"type":"VEC3"
		},
		{
			"bufferView":45,
			"componentType":5126,
			"count":2,
			"type":"VEC3"
		},
		{
			"bufferView":46,
			"componentType":5126,
			"count":2,
			"type":"VEC4"
		},
		{
			"bufferView":47,
			"componentType":5126,
			"count":2,
			"type":"VEC3"
		},
		{
			"bufferView":48,
			"componentType":5126,
			"count":2,
			"type":"VEC3"
		},
		{
			"bufferView":49,
			"componentType":5126,
			"count":2,
			"type":"VEC4"
		},
		{
			"bufferView":50,
			"componentType":5126,
			"count":2,
			"type":"VEC3"
		},
		{
			"bufferView":51,
			"componentType":5126,
			"count":2,
			"type":"VEC3"
		},
		{
			"bufferView":52,
			"componentType":5126,
			"count":2,
			"type":"VEC4"
		},
		{
			"bufferView":53,
			"componentType":5126,
			"count":2,
			"type":"VEC3"
		}
	],
	"bufferViews":[
		{
			"buffer":0,
			"byteLength":37128,
			"byteOffset":0,
			"target":34962
		},
		{
			"buffer":0,
			"byteLength":37128,
			"byteOffset":37128,
			"target":34962
		},
		{
			"buffer":0,
			"byteLength":24752,
			"byteOffset":74256,
			"target":34962
		},
		{
			"buffer":0,
			"byteLength":12376,
			"byteOffset":99008,
			"target":34962
		},
		{
			"buffer":0,
			"byteLength":49504,
			"byteOffset":111384,
			"target":34962
		},
		{
			"buffer":0,
			"byteLength":10128,
			"byteOffset":160888,
			"target":34963
		},
		{
			"buffer":0,
			"byteLength":960,
			"byteOffset":171016
		},
		{
			"buffer":0,
			"byteLength":8,
			"byteOffset":171976
		},
		{
			"buffer":0,
			"byteLength":24,
			"byteOffset":171984
		},
		{
			"buffer":0,
			"byteLength":1004,
			"byteOffset":172008
		},
		{
			"buffer":0,
			"byteLength":4016,
			"byteOffset":173012
		},
		{
			"buffer":0,
			"byteLength":24,
			"byteOffset":177028
		},
		{
			"buffer":0,
			"byteLength":24,
			"byteOffset":177052
		},
		{
			"buffer":0,
			"byteLength":32,
			"byteOffset":177076
		},
		{
			"buffer":0,
			"byteLength":24,
			"byteOffset":177108
		},
		{
			"buffer":0,
			"byteLength":24,
			"byteOffset":177132
		},
		{
			"buffer":0,
			"byteLength":32,
			"byteOffset":177156
		},
		{
			"buffer":0,
			"byteLength":24,
			"byteOffset":177188
		},
		{
			"buffer":0,
			"byteLength":24,
			"byteOffset":177212
		},
		{
			"buffer":0,
			"byteLength":4016,
			"byteOffset":177236
		},
		{
			"buffer":0,
			"byteLength":24,
			"byteOffset":181252
		},
		{
			"buffer":0,
			"byteLength":24,
			"byteOffset":181276
		},
		{
			"buffer":0,
			"byteLength":4016,
			"byteOffset":181300
		},
		{
			"buffer":0,
			"byteLength":24,
			"byteOffset":185316
		},
		{
			"buffer":0,
			"byteLength":24,
			"byteOffset":185340
		},
		{
			"buffer":0,
			"byteLength":32,
			"byteOffset":185364
		},
		{
			"buffer":0,
			"byteLength":24,
			"byteOffset":185396
		},
		{
			"buffer":0,
			"byteLength":24,
			"byteOffset":185420
		},
		{
			"buffer":0,
			"byteLength":4016,
			"byteOffset":185444
		},
		{
			"buffer":0,
			"byteLength":24,
			"byteOffset":189460
		},
		{
			"buffer":0,
			"byteLength":24,
			"byteOffset":189484
		},
		{
			"buffer":0,
			"byteLength":32,
			"byteOffset":189508
		},
		{
			"buffer":0,
			"byteLength":24,
			"byteOffset":189540
		},
		{
			"buffer":0,
			"byteLength":24,
			"byteOffset":189564
		},
		{
			"buffer":0,
			"byteLength":32,
			"byteOffset":189588
		},
		{
			"buffer":0,
			"byteLength":24,
			"byteOffset":189620
		},
		{
			"buffer":0,
			"byteLength":24,
			"byteOffset":189644
		},
		{
			"buffer":0,
			"byteLength":4016,
			"byteOffset":189668
		},
		{
			"buffer":0,
			"byteLength":24,
			"byteOffset":193684
		},
		{
			"buffer":0,
			"byteLength":24,
			"byteOffset":193708
		},
		{
			"buffer":0,
			"byteLength":4016,
			"byteOffset":193732
		},
		{
			"buffer":0,
			"byteLength":24,
			"byteOffset":197748
		},
		{
			"buffer":0,
			"byteLength":24,
			"byteOffset":197772
		},
		{
			"buffer":0,
			"byteLength":32,
			"byteOffset":197796
		},
		{
			"buffer":0,
			"byteLength":24,
			"byteOffset":197828
		},
		{
			"buffer":0,
			"byteLength":24,
			"byteOffset":197852
		},
		{
			"buffer":0,
			"byteLength":32,
			"byteOffset":197876
		},
		{
			"buffer":0,
			"byteLength":24,
			"byteOffset":197908
		},
		{
			"buffer":0,
			"byteLength":24,
			"byteOffset":197932
		},
		{
			"buffer":0,
			"byteLength":32,
			"byteOffset":197956
		},
		{
			"buffer":0,
			"byteLength":24,
			"byteOffset":197988
		},
		{
			"buffer":0,
			"byteLength":24,
			"byteOffset":198012
		},
		{
			"buffer":0,
			"byteLength":32,
			"byteOffset":198036
		},
		{
			"buffer":0,
			"byteLength":24,
			"byteOffset":198068
		}
	],
	"buffers":[
		{
			"byteLength":198092,
			"uri":"Enemy_01_idle.bin"
		}
	]
}
