# Blender 4.4.3
# www.blender.org
mtllib Arrow.mtl
o 立方体.001
v 0.000000 0.000000 -1.458893
v 0.000000 -0.082929 0.076883
v 0.195466 -0.195466 0.076883
v 0.082929 0.000000 0.076883
v 0.195466 0.195466 0.076883
v 0.000000 0.082929 0.076883
v -0.195466 0.195466 0.076883
v -0.082929 0.000000 0.076883
v -0.195466 -0.195466 0.076883
v 0.000000 -0.000000 0.843831
vn -0.4984 -0.8657 -0.0467
vn 0.4984 -0.8657 -0.0467
vn 0.8657 0.4984 -0.0467
vn 0.8657 -0.4984 -0.0467
vn -0.4984 0.8657 -0.0467
vn 0.4984 0.8657 -0.0467
vn -0.8657 -0.4984 -0.0467
vn -0.8657 0.4984 -0.0467
vn -0.8629 0.4968 0.0933
vn 0.4968 -0.8629 0.0933
vn -0.4968 -0.8629 0.0933
vn 0.8629 0.4968 0.0933
vn 0.4968 0.8629 0.0933
vn -0.8629 -0.4968 0.0933
vn -0.4968 0.8629 0.0933
vn 0.8629 -0.4968 0.0933
vt 0.250000 0.490000
vt 0.250000 0.250000
vt 0.419706 0.419706
vt 0.080294 0.419706
vt 0.490000 0.250000
vt 0.419706 0.080294
vt 0.250000 0.010000
vt 0.080294 0.080294
vt 0.010000 0.250000
s 0
f 2/1/1 1/2/1 3/3/1
f 9/4/2 1/2/2 2/1/2
f 3/3/3 1/2/3 4/5/3
f 4/5/4 1/2/4 5/6/4
f 5/6/5 1/2/5 6/7/5
f 6/7/6 1/2/6 7/8/6
f 7/8/7 1/2/7 8/9/7
f 8/9/8 1/2/8 9/4/8
f 8/9/9 9/4/9 10/9/9
f 9/4/10 2/1/10 10/4/10
f 2/1/11 3/3/11 10/1/11
f 3/3/12 4/5/12 10/3/12
f 6/7/13 7/8/13 10/7/13
f 7/8/14 8/9/14 10/8/14
f 5/6/15 6/7/15 10/6/15
f 4/5/16 5/6/16 10/5/16
