# Blender 4.4.3
# www.blender.org
mtllib Door.mtl
o 立方体.001
v -0.386797 -0.057877 -5.685530
v -0.261676 6.545008 -5.810651
v -0.386797 -0.057877 -6.459125
v -0.261676 6.545008 -6.334003
v 0.386797 -0.057877 -5.685530
v 0.261676 6.545008 -5.810651
v 0.386797 -0.057877 -6.459125
v 0.261676 6.545008 -6.334003
v -0.261676 4.056458 -5.810651
v -0.261676 4.056458 -6.334003
v 0.261676 4.056458 -6.334003
v 0.261676 4.056458 -5.810651
v -0.261676 1.999291 -6.334003
v 0.261676 1.999291 -6.334003
v 0.261676 1.999291 -5.810651
v -0.261676 1.999291 -5.810651
v -0.261676 0.970707 -6.334003
v 0.261676 0.970707 -6.334003
v 0.261676 0.970707 -5.810651
v -0.261676 0.970707 -5.810651
v -0.261676 0.456415 -6.334003
v 0.261676 0.456415 -6.334003
v 0.261676 0.456415 -5.810651
v -0.261676 0.456415 -5.810651
v -0.386797 0.199269 -6.459125
v 0.386797 0.199269 -6.459125
v 0.386797 0.199269 -5.685530
v -0.386797 0.199269 -5.685530
v -0.386797 -0.057876 5.685530
v -0.261676 6.545008 5.810651
v -0.386797 -0.057876 6.459125
v -0.261676 6.545008 6.334003
v 0.386797 -0.057876 5.685530
v 0.261676 6.545008 5.810651
v 0.386797 -0.057876 6.459125
v 0.261676 6.545008 6.334003
v -0.261676 4.056458 5.810651
v -0.261676 4.056458 6.334003
v 0.261676 4.056458 6.334003
v 0.261676 4.056458 5.810651
v -0.261676 1.999291 6.334003
v 0.261676 1.999291 6.334003
v 0.261676 1.999291 5.810651
v -0.261676 1.999291 5.810651
v -0.261676 0.970707 6.334003
v 0.261676 0.970707 6.334003
v 0.261676 0.970707 5.810651
v -0.261676 0.970707 5.810651
v -0.261676 0.456416 6.334003
v 0.261676 0.456416 6.334003
v 0.261676 0.456416 5.810651
v -0.261676 0.456416 5.810651
v -0.386797 0.199270 6.459125
v 0.386797 0.199270 6.459125
v 0.386797 0.199270 5.685530
v -0.386797 0.199270 5.685530
v -0.271509 1.517229 -1.631030
v 0.271509 1.517229 -1.631030
v -0.271509 1.517229 -1.088012
v -0.132068 2.351261 -0.809854
v 0.264136 2.351260 -0.809854
v -0.264136 2.351261 -0.809854
v -0.132068 2.703693 0.000000
v 0.264136 2.703693 0.000000
v -0.271509 1.517229 1.631030
v 0.271509 1.517229 1.631030
v -0.264136 2.737313 1.195906
v 0.264136 2.737313 1.195906
v -0.264136 3.205328 0.000000
v 0.264136 3.205328 0.000000
v -0.264136 2.737313 -1.195906
v 0.264136 2.737313 -1.195906
v -0.000000 1.517229 -1.631030
v -0.264136 2.703693 0.000000
v -0.132068 2.351261 0.809854
v 0.271509 1.517229 1.088012
v -0.000000 1.517229 1.631030
v -0.000000 2.737313 1.195906
v -0.000000 3.205328 0.000000
v -0.000000 2.737313 -1.195906
v 0.264136 2.351260 0.809854
v -0.264136 2.351261 0.809854
v -0.271509 1.517229 1.088012
v -0.135754 1.517229 1.631030
v -0.132068 2.737313 1.195906
v -0.132068 3.205328 0.000000
v -0.132068 2.737313 -1.195906
v -0.135754 1.517229 -1.631030
v 0.135754 1.517229 -1.631030
v -0.135754 1.517229 1.088012
v 0.271509 1.517229 -1.088012
v 0.135754 1.517229 -1.088012
v 0.135754 1.517229 1.631030
v 0.132068 2.737313 1.195906
v 0.132068 3.205328 0.000000
v 0.132068 2.737313 -1.195906
v -0.135754 1.517229 -1.088012
v -0.000000 1.517229 -1.088012
v 0.135754 1.517229 1.088012
v -0.000000 1.517229 1.088012
v 0.132068 2.351260 0.809854
v -0.000000 2.351261 0.809854
v 0.132068 2.703693 0.000000
v -0.000000 2.703693 0.000000
v 0.132068 2.351260 -0.809854
v -0.000000 2.351261 -0.809854
v -0.386050 -0.084447 1.745211
v -0.386050 -0.084447 0.973111
v 0.386050 -0.084447 1.745211
v 0.386050 -0.084447 0.973111
v -0.271509 0.517229 1.631030
v -0.271509 0.517229 1.088012
v 0.271509 0.517229 1.088012
v 0.271509 0.517229 1.631030
v -0.386050 -0.084447 1.359160
v -0.271509 1.517229 1.359521
v 0.386050 -0.084447 1.359160
v 0.271509 1.517229 1.359521
v 0.271509 0.517229 1.359521
v -0.271509 0.517229 1.359521
v -0.271509 1.017229 1.631030
v -0.271509 1.017229 1.088012
v 0.271509 1.017229 1.088012
v 0.271509 1.017229 1.631030
v 0.271509 1.017229 1.359521
v -0.271509 1.017229 1.359521
v -0.386050 0.209747 0.973111
v 0.386050 0.209747 0.973111
v 0.386050 0.209747 1.745211
v -0.386050 0.209747 1.745211
v -0.386050 0.209747 1.359160
v 0.386050 0.209747 1.359160
v -0.386050 -0.084447 1.552186
v 0.271509 1.517229 1.495275
v 0.271509 0.517229 1.495275
v -0.271509 1.517229 1.495275
v 0.386050 -0.084447 1.552186
v -0.271509 0.517229 1.495275
v -0.271509 1.017229 1.495275
v 0.271509 1.017229 1.495275
v -0.386050 0.209747 1.552186
v 0.386050 0.209747 1.552186
v -0.271509 1.517229 1.228767
v 0.386050 -0.084447 1.173245
v -0.271509 0.517229 1.228767
v -0.386050 -0.084447 1.173245
v 0.271509 1.517229 1.228767
v 0.271509 0.517229 1.228767
v 0.271509 1.017229 1.228767
v -0.271509 1.017229 1.228767
v 0.386050 0.209747 1.173245
v -0.386050 0.209747 1.173245
v -0.000000 -0.084447 0.973111
v -0.000000 -0.084447 1.745211
v -0.000000 0.517229 1.631030
v -0.000000 0.517229 1.088012
v -0.000000 1.517229 1.359521
v -0.000000 -0.084447 1.359160
v -0.000000 1.017229 1.631030
v -0.000000 1.017229 1.088012
v -0.000000 0.209747 0.973111
v -0.000000 0.209747 1.745211
v -0.000000 1.517229 1.495275
v -0.000000 -0.084447 1.552186
v -0.000000 -0.084447 1.173245
v -0.000000 1.517229 1.228767
v -0.193025 -0.084447 0.973111
v -0.135754 0.517229 1.631030
v -0.193025 -0.084447 1.359160
v -0.135754 1.017229 1.631030
v -0.193025 0.209747 1.745211
v -0.193025 -0.084447 1.552186
v -0.193025 -0.084447 1.173245
v -0.193025 -0.084447 1.745211
v -0.135754 0.517229 1.088012
v -0.135754 1.517229 1.359521
v -0.135754 1.017229 1.088012
v -0.193025 0.209747 0.973111
v -0.135754 1.517229 1.495275
v -0.135754 1.517229 1.228767
v 0.193025 -0.084447 1.745211
v 0.135754 0.517229 1.088012
v 0.135754 1.517229 1.359521
v 0.135754 1.017229 1.088012
v 0.193025 0.209747 0.973111
v 0.135754 1.517229 1.495275
v 0.135754 1.517229 1.228767
v 0.193025 -0.084447 0.973111
v 0.135754 0.517229 1.631030
v 0.193025 -0.084447 1.359160
v 0.135754 1.017229 1.631030
v 0.193025 0.209747 1.745211
v 0.193025 -0.084447 1.552186
v 0.193025 -0.084447 1.173245
v -0.386050 -0.084447 -1.745210
v -0.386050 -0.084447 -0.973111
v 0.386050 -0.084447 -1.745210
v 0.386050 -0.084447 -0.973111
v -0.271509 0.517229 -1.631030
v -0.271509 0.517229 -1.088012
v 0.271509 0.517229 -1.088012
v 0.271509 0.517229 -1.631030
v -0.386050 -0.084447 -1.359160
v -0.271509 1.517229 -1.359521
v 0.386050 -0.084447 -1.359160
v 0.271509 1.517229 -1.359521
v 0.271509 0.517229 -1.359521
v -0.271509 0.517229 -1.359521
v -0.271509 1.017229 -1.631030
v -0.271509 1.017229 -1.088012
v 0.271509 1.017229 -1.088012
v 0.271509 1.017229 -1.631030
v 0.271509 1.017229 -1.359521
v -0.271509 1.017229 -1.359521
v -0.386050 0.209747 -0.973111
v 0.386050 0.209747 -0.973111
v 0.386050 0.209747 -1.745210
v -0.386050 0.209747 -1.745210
v -0.386050 0.209747 -1.359160
v 0.386050 0.209747 -1.359160
v -0.386050 -0.084447 -1.552186
v 0.271509 1.517229 -1.495275
v 0.271509 0.517229 -1.495275
v -0.271509 1.517229 -1.495275
v 0.386050 -0.084447 -1.552186
v -0.271509 0.517229 -1.495275
v -0.271509 1.017229 -1.495275
v 0.271509 1.017229 -1.495275
v -0.386050 0.209747 -1.552186
v 0.386050 0.209747 -1.552186
v -0.271509 1.517229 -1.228767
v 0.386050 -0.084447 -1.173246
v -0.271509 0.517229 -1.228767
v -0.386050 -0.084447 -1.173246
v 0.271509 1.517229 -1.228767
v 0.271509 0.517229 -1.228767
v 0.271509 1.017229 -1.228767
v -0.271509 1.017229 -1.228767
v 0.386050 0.209747 -1.173246
v -0.386050 0.209747 -1.173246
v -0.000000 -0.084447 -0.973111
v -0.000000 -0.084447 -1.745210
v -0.000000 0.517229 -1.631030
v -0.000000 0.517229 -1.088012
v -0.000000 1.517229 -1.359521
v -0.000000 -0.084447 -1.359160
v -0.000000 1.017229 -1.631030
v -0.000000 1.017229 -1.088012
v -0.000000 0.209747 -0.973111
v -0.000000 0.209747 -1.745210
v -0.000000 1.517229 -1.495275
v -0.000000 -0.084447 -1.552186
v -0.000000 -0.084447 -1.173246
v -0.000000 1.517229 -1.228767
v -0.193025 -0.084447 -0.973111
v -0.135754 0.517229 -1.631030
v -0.193025 -0.084447 -1.359160
v -0.135754 1.017229 -1.631030
v -0.193025 0.209747 -1.745210
v -0.193025 -0.084447 -1.552186
v -0.193025 -0.084447 -1.173246
v -0.193025 -0.084447 -1.745210
v -0.135754 0.517229 -1.088012
v -0.135754 1.517229 -1.359521
v -0.135754 1.017229 -1.088012
v -0.193025 0.209747 -0.973111
v -0.135754 1.517229 -1.495275
v -0.135754 1.517229 -1.228767
v 0.193025 -0.084447 -1.745210
v 0.135754 0.517229 -1.088012
v 0.135754 1.517229 -1.359521
v 0.135754 1.017229 -1.088012
v 0.193025 0.209747 -0.973111
v 0.135754 1.517229 -1.495275
v 0.135754 1.517229 -1.228767
v 0.193025 -0.084447 -0.973111
v 0.135754 0.517229 -1.631030
v 0.193025 -0.084447 -1.359160
v 0.135754 1.017229 -1.631030
v 0.193025 0.209747 -1.745210
v 0.193025 -0.084447 -1.552186
v 0.193025 -0.084447 -1.173246
v -0.138949 -0.079005 6.102979
v -0.138949 6.516621 6.102979
v -0.138949 -0.079005 -6.102979
v -0.138949 6.516621 -6.102979
v 0.138949 -0.079005 6.102979
v 0.138949 6.516621 6.102979
v 0.138949 -0.079005 -6.102979
v 0.138949 6.516621 -6.102979
v -0.138949 2.842977 0.000000
v -0.138949 6.516621 0.000000
v 0.138949 2.842977 0.000000
v 0.138949 6.516621 0.000000
v -0.138949 -0.079005 3.051490
v 0.138949 6.516621 3.051490
v -0.138949 6.516621 3.051490
v 0.138949 -0.079005 3.051490
v -0.138949 6.516621 -3.051489
v 0.138949 -0.079005 -3.051489
v -0.138949 -0.079005 -3.051489
v 0.138949 6.516621 -3.051489
v -0.138949 -0.079005 -1.525744
v 0.138949 6.516621 -1.525744
v -0.138949 6.516621 -1.525744
v 0.138949 -0.079005 -1.525744
v -0.138949 6.516621 1.525744
v 0.138949 -0.079005 1.525744
v -0.138949 -0.079005 1.525744
v 0.138949 6.516621 1.525744
v -0.138949 6.516621 0.762872
v 0.138949 2.602334 0.992577
v -0.138949 2.602334 0.992577
v 0.138949 6.516621 0.762872
v -0.138949 2.602334 -0.992577
v 0.138949 6.516621 -0.762872
v -0.138949 6.516621 -0.762872
v 0.138949 2.602334 -0.992577
v -0.261676 6.978450 -5.810651
v -0.261676 6.978450 -6.334003
v 0.261676 6.978450 -6.334003
v 0.261676 6.978450 -5.810651
v 0.261676 6.545008 5.770566
v -0.261676 6.545008 5.770566
v 0.261676 6.978450 5.770566
v -0.261676 6.978450 5.770566
v 0.261676 6.545008 6.331229
v -0.261676 6.545008 6.331229
v 0.261676 6.978450 6.331229
v -0.261676 6.978450 6.331229
vn -1.0000 -0.0000 -0.0000
vn -0.0000 -0.0000 -1.0000
vn 1.0000 -0.0000 -0.0000
vn -0.0000 -0.0000 1.0000
vn -0.0000 -1.0000 -0.0000
vn -0.8992 0.4375 -0.0000
vn -0.0000 0.4375 -0.8992
vn 0.8992 0.4375 -0.0000
vn -0.0000 0.4375 0.8992
vn -0.0000 1.0000 -0.0000
vn -0.0000 -0.9169 0.3990
vn -0.0000 -0.3164 0.9486
vn -0.0000 -0.3164 -0.9486
vn -0.0000 0.3359 0.9419
vn -0.0000 0.9312 0.3644
vn -0.0000 -0.9169 -0.3990
vn -0.0000 0.9312 -0.3644
vn -0.0000 0.3359 -0.9419
vn -1.0000 0.0045 -0.0045
vn 1.0000 0.0045 -0.0045
vn -1.0000 0.0045 0.0045
vn 1.0000 0.0045 0.0045
vn -0.0000 0.3481 0.9375
vn 0.9371 0.3491 -0.0000
vn -0.0000 0.3500 -0.9367
vn -0.9371 0.3491 -0.0000
vn -0.0000 0.3481 -0.9375
vn -0.0000 0.3500 0.9367
vn -0.0000 -0.9718 0.2356
vn -0.0000 -0.1950 -0.9808
vn -0.0000 -0.9718 -0.2356
vn -0.0000 -0.1950 0.9808
vn -1.0000 0.0088 -0.0000
vn 1.0000 0.0088 -0.0000
vt 0.625000 0.000000
vt 0.500000 0.250000
vt 0.500000 0.000000
vt 0.625000 0.250000
vt 0.500000 0.500000
vt 0.625000 0.500000
vt 0.500000 0.750000
vt 0.625000 0.750000
vt 0.500000 1.000000
vt 0.375000 0.500000
vt 0.125000 0.750000
vt 0.125000 0.500000
vt 0.437500 1.000000
vt 0.437500 0.750000
vt 0.437500 0.500000
vt 0.437500 0.250000
vt 0.437500 0.000000
vt 0.406250 0.250000
vt 0.406250 0.000000
vt 0.406250 0.500000
vt 0.406250 0.750000
vt 0.406250 1.000000
vt 0.390625 1.000000
vt 0.390625 0.750000
vt 0.390625 0.500000
vt 0.390625 0.250000
vt 0.390625 0.000000
vt 0.382812 0.250000
vt 0.382812 0.000000
vt 0.382812 0.500000
vt 0.382812 0.750000
vt 0.382812 1.000000
vt 0.375000 1.000000
vt 0.375000 0.750000
vt 0.375000 0.250000
vt 0.375000 0.000000
vt 0.875000 0.500000
vt 0.125000 0.750000
vt 0.250000 0.875000
vt 0.250000 0.750000
vt 0.000000 0.750000
vt 0.125000 0.875000
vt 0.250000 0.625000
vt 0.250000 0.500000
vt 0.500000 0.625000
vt 0.500000 0.875000
vt 0.375000 0.875000
vt 0.375000 0.750000
vt 0.250000 1.000000
vt 0.125000 1.000000
vt 0.000000 0.875000
vt 0.000000 1.000000
vt 0.125000 0.625000
vt 0.000000 0.625000
vt 0.375000 0.625000
vt 0.000000 0.500000
vt 0.625000 0.185198
vt 0.562500 0.250000
vt 0.562500 0.185198
vt 0.625000 0.437500
vt 0.562500 0.500000
vt 0.562500 0.437500
vt 0.625000 0.687500
vt 0.562500 0.750000
vt 0.562500 0.687500
vt 0.625000 0.937500
vt 0.562500 1.000000
vt 0.562500 0.937500
vt 0.375000 0.687500
vt 0.312500 0.750000
vt 0.312500 0.687500
vt 0.875000 0.687500
vt 0.812500 0.750000
vt 0.812500 0.687500
vt 0.437500 0.937500
vt 0.437500 0.687500
vt 0.437500 0.437500
vt 0.437500 0.185198
vt 0.500000 0.062500
vt 0.437500 0.125000
vt 0.437500 0.062500
vt 0.500000 0.564802
vt 0.437500 0.625000
vt 0.437500 0.564802
vt 0.875000 0.564802
vt 0.812500 0.625000
vt 0.812500 0.564802
vt 0.375000 0.564802
vt 0.312500 0.625000
vt 0.312500 0.564802
vt 0.625000 0.564802
vt 0.562500 0.625000
vt 0.562500 0.564802
vt 0.625000 0.062500
vt 0.562500 0.125000
vt 0.562500 0.062500
vt 0.500000 0.125000
vt 0.500000 0.937500
vt 0.500000 0.687500
vt 0.500000 0.437500
vt 0.500000 0.185198
vt 0.375000 0.625000
vt 0.375000 0.125000
vt 0.375000 0.062500
vt 0.375000 0.185198
vt 0.375000 0.437500
vt 0.375000 0.937500
vt 0.562500 0.000000
vt 0.875000 0.625000
vt 0.625000 0.625000
vt 0.312500 0.500000
vt 0.812500 0.500000
vt 0.625000 0.125000
vt 0.750000 0.500000
vt 0.687500 0.564802
vt 0.687500 0.500000
vt 0.187500 0.564802
vt 0.187500 0.500000
vt 0.250000 0.625000
vt 0.187500 0.687500
vt 0.187500 0.625000
vt 0.750000 0.625000
vt 0.687500 0.687500
vt 0.687500 0.625000
vt 0.437500 0.812500
vt 0.375000 0.812500
vt 0.437500 0.312500
vt 0.375000 0.375000
vt 0.375000 0.312500
vt 0.562500 0.312500
vt 0.500000 0.375000
vt 0.500000 0.312500
vt 0.562500 0.812500
vt 0.500000 0.875000
vt 0.500000 0.812500
vt 0.250000 0.564802
vt 0.750000 0.564802
vt 0.437500 0.375000
vt 0.437500 0.875000
vt 0.750000 0.687500
vt 0.687500 0.750000
vt 0.250000 0.687500
vt 0.187500 0.750000
vt 0.625000 0.812500
vt 0.562500 0.875000
vt 0.625000 0.312500
vt 0.562500 0.375000
vt 0.125000 0.687500
vt 0.125000 0.625000
vt 0.125000 0.564802
vt 0.750000 0.750000
vt 0.625000 0.875000
vt 0.250000 0.750000
vt 0.625000 0.375000
vt 0.625000 0.187500
vt 0.375000 0.187500
vt 0.875000 0.609375
vt 0.625000 0.609375
vt 0.375000 0.609375
vt 0.125000 0.609375
vt 0.625000 0.109375
vt 0.375000 0.109375
vt 0.875000 0.656250
vt 0.625000 0.656250
vt 0.375000 0.656250
vt 0.125000 0.656250
vt 0.375000 0.562500
vt 0.125000 0.562500
vt 0.625000 0.562500
vt 0.625000 0.156250
vt 0.375000 0.156250
vt 0.375000 0.140625
vt 0.375000 0.593750
vt 0.125000 0.593750
vt 0.875000 0.562500
vt 0.625000 0.593750
vt 0.375000 0.640625
vt 0.125000 0.640625
vt 0.875000 0.640625
vt 0.625000 0.640625
vt 0.375000 0.093750
vt 0.625000 0.093750
vt 0.625000 0.140625
vt 0.875000 0.593750
vt 0.875000 0.750000
vt 0.625000 1.000000
s 0
f 2/1/1 10/2/1 9/3/1
f 4/4/2 11/5/2 10/2/2
f 8/6/3 12/7/3 11/5/3
f 6/8/4 9/9/4 12/7/4
f 7/10/5 1/11/5 3/12/5
f 4/4/2 321/6/2 8/6/2
f 12/7/4 16/13/4 15/14/4
f 11/5/3 15/14/3 14/15/3
f 10/2/2 14/15/2 13/16/2
f 9/3/1 13/16/1 16/17/1
f 16/17/1 17/18/1 20/19/1
f 13/16/2 18/20/2 17/18/2
f 14/15/3 19/21/3 18/20/3
f 15/14/4 20/22/4 19/21/4
f 19/21/4 24/23/4 23/24/4
f 18/20/3 23/24/3 22/25/3
f 17/18/2 22/25/2 21/26/2
f 20/19/1 21/26/1 24/27/1
f 24/27/6 25/28/6 28/29/6
f 21/26/7 26/30/7 25/28/7
f 22/25/8 27/31/8 26/30/8
f 23/24/9 28/32/9 27/31/9
f 27/31/4 1/33/4 5/34/4
f 26/30/3 5/34/3 7/10/3
f 25/28/2 7/10/2 3/35/2
f 28/29/1 3/35/1 1/36/1
f 38/2/1 30/1/1 37/3/1
f 39/5/4 32/4/4 38/2/4
f 40/7/3 36/6/3 39/5/3
f 37/9/2 34/8/2 40/7/2
f 29/11/5 35/10/5 31/12/5
f 34/8/10 32/37/10 36/6/10
f 44/13/2 40/7/2 43/14/2
f 43/14/3 39/5/3 42/15/3
f 42/15/4 38/2/4 41/16/4
f 41/16/1 37/3/1 44/17/1
f 45/18/1 44/17/1 48/19/1
f 46/20/4 41/16/4 45/18/4
f 47/21/3 42/15/3 46/20/3
f 48/22/2 43/14/2 47/21/2
f 52/23/2 47/21/2 51/24/2
f 51/24/3 46/20/3 50/25/3
f 50/25/4 45/18/4 49/26/4
f 49/26/1 48/19/1 52/27/1
f 53/28/6 52/27/6 56/29/6
f 54/30/9 49/26/9 53/28/9
f 55/31/8 50/25/8 54/30/8
f 56/32/7 51/24/7 55/31/7
f 29/33/2 55/31/2 33/34/2
f 33/34/3 54/30/3 35/10/3
f 35/10/4 53/28/4 31/35/4
f 31/35/1 56/29/1 29/36/1
f 106/38/11 103/39/11 104/40/11
f 98/41/12 105/42/12 106/38/12
f 62/12/11 63/43/11 74/44/11
f 82/10/13 90/45/13 83/5/13
f 93/46/14 68/33/14 94/47/14
f 68/33/15 95/39/15 94/47/15
f 102/48/16 103/39/16 101/47/16
f 70/49/17 96/42/17 95/39/17
f 72/50/18 89/51/18 96/42/18
f 91/52/5 89/51/5 58/52/5
f 87/53/18 73/41/18 88/54/18
f 79/40/17 87/53/17 86/43/17
f 78/48/15 86/43/15 85/55/15
f 77/7/14 85/55/14 84/45/14
f 99/46/13 81/33/13 76/9/13
f 105/42/11 64/49/11 103/39/11
f 60/53/11 104/40/11 63/43/11
f 60/53/12 98/41/12 106/38/12
f 98/41/5 88/54/5 73/41/5
f 100/7/13 101/47/13 99/46/13
f 62/12/12 97/54/12 60/53/12
f 74/44/16 75/55/16 82/10/16
f 84/45/14 67/10/14 65/5/14
f 85/55/15 69/44/15 67/10/15
f 86/43/17 71/12/17 69/44/17
f 71/12/18 88/54/18 57/56/18
f 96/42/18 73/41/18 80/38/18
f 95/39/17 80/38/17 79/40/17
f 94/47/15 79/40/15 78/48/15
f 77/7/14 94/47/14 78/48/14
f 103/39/16 81/33/16 101/47/16
f 92/51/12 61/50/12 105/42/12
f 75/55/13 100/7/13 90/45/13
f 63/43/16 102/48/16 75/55/16
f 81/33/3 70/49/3 68/33/3
f 97/54/5 57/56/5 88/54/5
f 92/51/5 73/41/5 89/51/5
f 62/12/1 69/44/1 71/12/1
f 83/5/5 84/45/5 65/5/5
f 70/49/3 61/50/3 72/50/3
f 82/10/19 65/5/19 67/10/19
f 100/7/5 93/46/5 77/7/5
f 90/45/5 77/7/5 84/45/5
f 66/9/20 81/33/20 68/33/20
f 57/56/21 62/12/21 71/12/21
f 99/46/5 66/9/5 93/46/5
f 61/50/22 58/52/22 72/50/22
f 69/44/1 82/10/1 67/10/1
f 143/57/1 122/58/1 150/59/1
f 99/60/2 123/61/2 184/62/2
f 134/63/3 124/64/3 140/65/3
f 84/66/4 121/67/4 170/68/4
f 137/69/5 181/70/5 193/71/5
f 136/72/10 84/73/10 179/74/10
f 171/75/23 111/9/23 130/13/23
f 142/76/24 114/7/24 129/14/24
f 185/77/25 113/5/25 128/15/25
f 152/78/26 112/2/26 127/16/26
f 138/79/26 131/80/26 141/81/26
f 148/82/24 132/83/24 151/84/24
f 143/85/10 176/86/10 180/87/10
f 144/88/5 190/89/5 194/90/5
f 147/91/3 125/92/3 149/93/3
f 136/94/1 126/95/1 139/96/1
f 139/96/1 120/97/1 138/79/1
f 149/93/3 119/45/3 148/82/3
f 170/68/4 111/9/4 168/98/4
f 140/65/3 114/7/3 135/99/3
f 184/62/2 113/5/2 182/100/2
f 150/59/1 112/2/1 145/101/1
f 151/84/3 117/102/3 144/88/3
f 141/81/1 115/103/1 133/104/1
f 152/78/1 108/35/1 146/105/1
f 185/77/2 110/10/2 188/106/2
f 142/76/3 109/34/3 137/69/3
f 171/75/4 107/33/4 174/107/4
f 132/83/3 137/69/3 117/102/3
f 130/17/1 133/104/1 107/36/1
f 125/92/3 135/99/3 119/45/3
f 121/108/1 138/79/1 111/3/1
f 65/1/1 139/96/1 121/108/1
f 111/3/26 141/81/26 130/17/26
f 132/83/24 135/99/24 142/76/24
f 116/109/10 179/74/10 176/86/10
f 117/102/5 193/71/5 190/89/5
f 118/110/3 140/65/3 125/92/3
f 131/80/1 146/105/1 115/103/1
f 128/15/3 144/88/3 110/10/3
f 126/95/1 145/101/1 120/97/1
f 123/61/3 148/82/3 113/5/3
f 76/6/3 149/93/3 123/61/3
f 110/10/5 194/90/5 188/111/5
f 83/37/10 180/87/10 90/112/10
f 113/5/24 151/84/24 128/15/24
f 131/80/26 145/101/26 152/78/26
f 116/113/1 150/59/1 126/95/1
f 100/114/10 187/115/10 99/116/10
f 153/44/5 173/117/5 167/118/5
f 158/119/5 172/120/5 169/121/5
f 157/122/10 186/123/10 183/124/10
f 192/125/4 154/47/4 181/126/4
f 178/127/2 153/128/2 167/129/2
f 177/130/2 156/131/2 175/132/2
f 191/133/4 155/134/4 189/135/4
f 165/136/5 169/121/5 173/117/5
f 166/137/10 183/124/10 187/115/10
f 175/132/25 161/138/25 178/127/25
f 189/135/23 162/139/23 192/125/23
f 163/140/10 93/141/10 186/123/10
f 164/142/5 174/143/5 172/120/5
f 93/144/4 159/145/4 191/133/4
f 90/146/2 160/147/2 177/130/2
f 83/4/2 177/130/2 122/58/2
f 172/120/5 107/11/5 133/148/5
f 112/2/25 178/127/25 127/16/25
f 173/117/5 115/149/5 146/150/5
f 122/58/2 175/132/2 112/2/2
f 127/16/2 167/129/2 108/35/2
f 169/121/5 133/148/5 115/149/5
f 167/118/5 146/150/5 108/12/5
f 90/112/10 166/137/10 100/114/10
f 176/86/10 163/140/10 157/122/10
f 162/139/4 174/107/4 154/47/4
f 159/145/4 168/98/4 155/134/4
f 180/87/10 157/122/10 166/137/10
f 162/139/23 168/98/23 171/75/23
f 179/74/10 77/151/10 163/140/10
f 77/152/4 170/68/4 159/145/4
f 66/8/4 191/133/4 124/64/4
f 186/123/10 66/8/10 134/63/10
f 114/7/23 192/125/23 129/14/23
f 187/115/10 118/110/10 147/91/10
f 124/64/4 189/135/4 114/7/4
f 129/14/4 181/126/4 109/34/4
f 183/124/10 134/63/10 118/110/10
f 99/116/10 147/91/10 76/6/10
f 188/111/5 165/136/5 153/44/5
f 190/89/5 164/142/5 158/119/5
f 161/138/2 188/106/2 153/128/2
f 160/147/2 182/100/2 156/131/2
f 194/90/5 158/119/5 165/136/5
f 161/138/25 182/100/25 185/77/25
f 193/71/5 154/153/5 164/142/5
f 100/154/2 184/62/2 160/147/2
f 210/58/1 231/57/1 238/59/1
f 211/61/4 92/60/4 272/62/4
f 212/64/3 222/63/3 228/65/3
f 209/67/2 88/66/2 258/68/2
f 269/70/5 225/69/5 281/71/5
f 88/73/10 224/72/10 267/74/10
f 259/75/27 199/9/27 256/98/27
f 230/76/24 202/7/24 223/99/24
f 273/77/28 201/5/28 270/100/28
f 240/78/26 200/2/26 233/101/26
f 219/80/26 226/79/26 229/81/26
f 220/83/24 236/82/24 239/84/24
f 264/86/10 231/85/10 268/87/10
f 278/89/5 232/88/5 282/90/5
f 213/92/3 235/91/3 237/93/3
f 214/95/1 224/94/1 227/96/1
f 208/97/1 227/96/1 226/79/1
f 207/45/3 237/93/3 236/82/3
f 199/9/2 258/68/2 256/98/2
f 202/7/3 228/65/3 223/99/3
f 201/5/4 272/62/4 270/100/4
f 200/2/1 238/59/1 233/101/1
f 205/102/3 239/84/3 232/88/3
f 203/103/1 229/81/1 221/104/1
f 196/35/1 240/78/1 234/105/1
f 198/10/4 273/77/4 276/106/4
f 197/34/3 230/76/3 225/69/3
f 195/33/2 259/75/2 262/107/2
f 225/69/3 220/83/3 205/102/3
f 221/104/1 218/17/1 195/36/1
f 223/99/3 213/92/3 207/45/3
f 226/79/1 209/108/1 199/3/1
f 227/96/1 57/1/1 209/108/1
f 229/81/26 199/3/26 218/17/26
f 220/83/24 223/99/24 207/45/24
f 267/74/10 204/109/10 264/86/10
f 281/71/5 205/102/5 278/89/5
f 228/65/3 206/110/3 213/92/3
f 234/105/1 219/80/1 203/103/1
f 232/88/3 216/15/3 198/10/3
f 233/101/1 214/95/1 208/97/1
f 236/82/3 211/61/3 201/5/3
f 237/93/3 91/6/3 211/61/3
f 282/90/5 198/10/5 276/111/5
f 268/87/10 59/37/10 97/112/10
f 239/84/24 201/5/24 216/15/24
f 219/80/26 233/101/26 208/97/26
f 238/59/1 204/113/1 214/95/1
f 275/115/10 98/114/10 92/116/10
f 261/117/5 241/44/5 255/118/5
f 260/120/5 246/119/5 257/121/5
f 274/123/10 245/122/10 271/124/10
f 242/47/2 280/125/2 269/126/2
f 241/128/4 266/127/4 255/129/4
f 244/131/4 265/130/4 263/132/4
f 243/134/2 279/133/2 277/135/2
f 257/121/5 253/136/5 261/117/5
f 271/124/10 254/137/10 275/115/10
f 249/138/28 263/132/28 266/127/28
f 250/139/27 277/135/27 280/125/27
f 89/141/10 251/140/10 274/123/10
f 262/143/5 252/142/5 260/120/5
f 247/145/2 89/144/2 279/133/2
f 248/147/4 97/146/4 265/130/4
f 265/130/4 59/4/4 210/58/4
f 195/11/5 260/120/5 221/148/5
f 266/127/28 200/2/28 215/16/28
f 203/149/5 261/117/5 234/150/5
f 263/132/4 210/58/4 200/2/4
f 255/129/4 215/16/4 196/35/4
f 221/148/5 257/121/5 203/149/5
f 234/150/5 255/118/5 196/12/5
f 254/137/10 97/112/10 98/114/10
f 251/140/10 264/86/10 245/122/10
f 262/107/2 250/139/2 242/47/2
f 256/98/2 247/145/2 243/134/2
f 245/122/10 268/87/10 254/137/10
f 250/139/27 256/98/27 243/134/27
f 73/151/10 267/74/10 251/140/10
f 258/68/2 73/152/2 247/145/2
f 279/133/2 58/8/2 212/64/2
f 58/8/10 274/123/10 222/63/10
f 280/125/27 202/7/27 217/14/27
f 206/110/10 275/115/10 235/91/10
f 277/135/2 212/64/2 202/7/2
f 269/126/2 217/14/2 197/34/2
f 222/63/10 271/124/10 206/110/10
f 235/91/10 92/116/10 91/6/10
f 253/136/5 276/111/5 241/44/5
f 252/142/5 278/89/5 246/119/5
f 276/106/4 249/138/4 241/128/4
f 270/100/4 248/147/4 244/131/4
f 246/119/5 282/90/5 253/136/5
f 249/138/28 270/100/28 244/131/28
f 242/153/5 281/71/5 252/142/5
f 272/62/4 98/154/4 248/147/4
f 299/155/1 285/35/1 301/156/1
f 286/4/2 289/10/2 285/35/2
f 296/63/3 287/34/3 298/69/3
f 288/8/4 283/33/4 287/34/4
f 298/69/5 283/11/5 295/148/5
f 297/72/10 288/8/10 296/63/10
f 317/157/10 294/110/10 316/158/10
f 318/159/29 291/149/29 315/160/29
f 316/158/3 293/102/3 318/159/3
f 311/161/1 291/103/1 313/162/1
f 284/1/1 295/104/1 283/36/1
f 307/163/10 296/63/10 310/164/10
f 308/165/5 295/148/5 309/166/5
f 310/164/3 298/69/3 308/165/3
f 290/6/3 300/167/3 289/10/3
f 289/10/5 301/168/5 285/12/5
f 286/37/10 302/169/10 290/6/10
f 305/170/1 301/156/1 303/171/1
f 315/172/1 305/170/1 303/171/1
f 302/169/3 306/173/3 300/167/3
f 300/167/5 303/174/5 301/168/5
f 299/175/10 304/176/10 302/169/10
f 312/177/3 310/164/3 308/165/3
f 312/177/30 309/166/30 313/178/30
f 311/179/10 310/164/10 314/180/10
f 297/94/1 309/181/1 295/104/1
f 292/109/10 314/180/10 294/110/10
f 293/102/31 313/178/31 291/149/31
f 293/102/3 314/180/3 312/177/3
f 307/182/1 313/162/1 309/181/1
f 291/103/1 317/183/1 315/172/1
f 304/176/3 318/159/3 306/173/3
f 306/173/32 315/160/32 303/174/32
f 305/184/10 316/158/10 304/176/10
f 320/37/10 322/8/10 321/6/10
f 8/6/3 322/8/3 6/8/3
f 2/1/1 320/4/1 4/4/1
f 2/1/1 326/1/1 319/1/1
f 325/8/3 327/8/3 323/8/3
f 319/185/10 325/8/10 322/8/10
f 322/8/3 323/8/3 6/8/3
f 6/8/5 324/186/5 2/186/5
f 327/8/4 330/186/4 328/186/4
f 323/8/5 328/186/5 324/186/5
f 324/1/1 330/1/1 326/1/1
f 326/185/10 329/8/10 325/8/10
f 2/1/1 4/4/1 10/2/1
f 4/4/2 8/6/2 11/5/2
f 8/6/3 6/8/3 12/7/3
f 6/8/4 2/186/4 9/9/4
f 7/10/5 5/34/5 1/11/5
f 4/4/2 320/4/2 321/6/2
f 12/7/4 9/9/4 16/13/4
f 11/5/3 12/7/3 15/14/3
f 10/2/2 11/5/2 14/15/2
f 9/3/1 10/2/1 13/16/1
f 16/17/1 13/16/1 17/18/1
f 13/16/2 14/15/2 18/20/2
f 14/15/3 15/14/3 19/21/3
f 15/14/4 16/13/4 20/22/4
f 19/21/4 20/22/4 24/23/4
f 18/20/3 19/21/3 23/24/3
f 17/18/2 18/20/2 22/25/2
f 20/19/1 17/18/1 21/26/1
f 24/27/6 21/26/6 25/28/6
f 21/26/7 22/25/7 26/30/7
f 22/25/8 23/24/8 27/31/8
f 23/24/9 24/23/9 28/32/9
f 27/31/4 28/32/4 1/33/4
f 26/30/3 27/31/3 5/34/3
f 25/28/2 26/30/2 7/10/2
f 28/29/1 25/28/1 3/35/1
f 38/2/1 32/4/1 30/1/1
f 39/5/4 36/6/4 32/4/4
f 40/7/3 34/8/3 36/6/3
f 37/9/2 30/186/2 34/8/2
f 29/11/5 33/34/5 35/10/5
f 34/8/10 30/185/10 32/37/10
f 44/13/2 37/9/2 40/7/2
f 43/14/3 40/7/3 39/5/3
f 42/15/4 39/5/4 38/2/4
f 41/16/1 38/2/1 37/3/1
f 45/18/1 41/16/1 44/17/1
f 46/20/4 42/15/4 41/16/4
f 47/21/3 43/14/3 42/15/3
f 48/22/2 44/13/2 43/14/2
f 52/23/2 48/22/2 47/21/2
f 51/24/3 47/21/3 46/20/3
f 50/25/4 46/20/4 45/18/4
f 49/26/1 45/18/1 48/19/1
f 53/28/6 49/26/6 52/27/6
f 54/30/9 50/25/9 49/26/9
f 55/31/8 51/24/8 50/25/8
f 56/32/7 52/23/7 51/24/7
f 29/33/2 56/32/2 55/31/2
f 33/34/3 55/31/3 54/30/3
f 35/10/4 54/30/4 53/28/4
f 31/35/1 53/28/1 56/29/1
f 106/38/11 105/42/11 103/39/11
f 98/41/12 92/51/12 105/42/12
f 62/12/11 60/53/11 63/43/11
f 82/10/13 75/55/13 90/45/13
f 93/46/14 66/9/14 68/33/14
f 68/33/15 70/49/15 95/39/15
f 102/48/16 104/40/16 103/39/16
f 70/49/17 72/50/17 96/42/17
f 72/50/18 58/52/18 89/51/18
f 91/52/5 92/51/5 89/51/5
f 87/53/18 80/38/18 73/41/18
f 79/40/17 80/38/17 87/53/17
f 78/48/15 79/40/15 86/43/15
f 77/7/14 78/48/14 85/55/14
f 99/46/13 101/47/13 81/33/13
f 105/42/11 61/50/11 64/49/11
f 60/53/11 106/38/11 104/40/11
f 60/53/12 97/54/12 98/41/12
f 98/41/5 97/54/5 88/54/5
f 100/7/13 102/48/13 101/47/13
f 62/12/12 59/56/12 97/54/12
f 74/44/16 63/43/16 75/55/16
f 84/45/14 85/55/14 67/10/14
f 85/55/15 86/43/15 69/44/15
f 86/43/17 87/53/17 71/12/17
f 71/12/18 87/53/18 88/54/18
f 96/42/18 89/51/18 73/41/18
f 95/39/17 96/42/17 80/38/17
f 94/47/15 95/39/15 79/40/15
f 77/7/14 93/46/14 94/47/14
f 103/39/16 64/49/16 81/33/16
f 92/51/12 91/52/12 61/50/12
f 75/55/13 102/48/13 100/7/13
f 63/43/16 104/40/16 102/48/16
f 81/33/3 64/49/3 70/49/3
f 97/54/5 59/56/5 57/56/5
f 92/51/5 98/41/5 73/41/5
f 62/12/1 74/44/1 69/44/1
f 83/5/5 90/45/5 84/45/5
f 70/49/3 64/49/3 61/50/3
f 82/10/33 83/5/33 65/5/33
f 100/7/5 99/46/5 93/46/5
f 90/45/5 100/7/5 77/7/5
f 66/9/34 76/9/34 81/33/34
f 57/56/33 59/56/33 62/12/33
f 99/46/5 76/9/5 66/9/5
f 61/50/34 91/52/34 58/52/34
f 69/44/1 74/44/1 82/10/1
f 143/57/1 83/4/1 122/58/1
f 99/60/2 76/6/2 123/61/2
f 134/63/3 66/8/3 124/64/3
f 84/66/4 65/186/4 121/67/4
f 137/69/5 109/34/5 181/70/5
f 136/72/10 65/185/10 84/73/10
f 171/75/23 168/98/23 111/9/23
f 142/76/24 135/99/24 114/7/24
f 185/77/25 182/100/25 113/5/25
f 152/78/26 145/101/26 112/2/26
f 138/79/26 120/97/26 131/80/26
f 148/82/24 119/45/24 132/83/24
f 143/85/10 116/109/10 176/86/10
f 144/88/5 117/102/5 190/89/5
f 147/91/3 118/110/3 125/92/3
f 136/94/1 116/113/1 126/95/1
f 139/96/1 126/95/1 120/97/1
f 149/93/3 125/92/3 119/45/3
f 170/68/4 121/67/4 111/9/4
f 140/65/3 124/64/3 114/7/3
f 184/62/2 123/61/2 113/5/2
f 150/59/1 122/58/1 112/2/1
f 151/84/3 132/83/3 117/102/3
f 141/81/1 131/80/1 115/103/1
f 152/78/1 127/16/1 108/35/1
f 185/77/2 128/15/2 110/10/2
f 142/76/3 129/14/3 109/34/3
f 171/75/4 130/13/4 107/33/4
f 132/83/3 142/76/3 137/69/3
f 130/17/1 141/81/1 133/104/1
f 125/92/3 140/65/3 135/99/3
f 121/108/1 139/96/1 138/79/1
f 65/1/1 136/94/1 139/96/1
f 111/3/26 138/79/26 141/81/26
f 132/83/24 119/45/24 135/99/24
f 116/109/10 136/72/10 179/74/10
f 117/102/5 137/69/5 193/71/5
f 118/110/3 134/63/3 140/65/3
f 131/80/1 152/78/1 146/105/1
f 128/15/3 151/84/3 144/88/3
f 126/95/1 150/59/1 145/101/1
f 123/61/3 149/93/3 148/82/3
f 76/6/3 147/91/3 149/93/3
f 110/10/5 144/88/5 194/90/5
f 83/37/10 143/85/10 180/87/10
f 113/5/24 148/82/24 151/84/24
f 131/80/26 120/97/26 145/101/26
f 116/113/1 143/57/1 150/59/1
f 100/114/10 166/137/10 187/115/10
f 153/44/5 165/136/5 173/117/5
f 158/119/5 164/142/5 172/120/5
f 157/122/10 163/140/10 186/123/10
f 192/125/4 162/139/4 154/47/4
f 178/127/2 161/138/2 153/128/2
f 177/130/2 160/147/2 156/131/2
f 191/133/4 159/145/4 155/134/4
f 165/136/5 158/119/5 169/121/5
f 166/137/10 157/122/10 183/124/10
f 175/132/25 156/131/25 161/138/25
f 189/135/23 155/134/23 162/139/23
f 163/140/10 77/151/10 93/141/10
f 164/142/5 154/153/5 174/143/5
f 93/144/4 77/152/4 159/145/4
f 90/146/2 100/154/2 160/147/2
f 83/4/2 90/146/2 177/130/2
f 172/120/5 174/143/5 107/11/5
f 112/2/25 175/132/25 178/127/25
f 173/117/5 169/121/5 115/149/5
f 122/58/2 177/130/2 175/132/2
f 127/16/2 178/127/2 167/129/2
f 169/121/5 172/120/5 133/148/5
f 167/118/5 173/117/5 146/150/5
f 90/112/10 180/87/10 166/137/10
f 176/86/10 179/74/10 163/140/10
f 162/139/4 171/75/4 174/107/4
f 159/145/4 170/68/4 168/98/4
f 180/87/10 176/86/10 157/122/10
f 162/139/23 155/134/23 168/98/23
f 179/74/10 84/73/10 77/151/10
f 77/152/4 84/66/4 170/68/4
f 66/8/4 93/144/4 191/133/4
f 186/123/10 93/141/10 66/8/10
f 114/7/23 189/135/23 192/125/23
f 187/115/10 183/124/10 118/110/10
f 124/64/4 191/133/4 189/135/4
f 129/14/4 192/125/4 181/126/4
f 183/124/10 186/123/10 134/63/10
f 99/116/10 187/115/10 147/91/10
f 188/111/5 194/90/5 165/136/5
f 190/89/5 193/71/5 164/142/5
f 161/138/2 185/77/2 188/106/2
f 160/147/2 184/62/2 182/100/2
f 194/90/5 190/89/5 158/119/5
f 161/138/25 156/131/25 182/100/25
f 193/71/5 181/70/5 154/153/5
f 100/154/2 99/60/2 184/62/2
f 210/58/1 59/4/1 231/57/1
f 211/61/4 91/6/4 92/60/4
f 212/64/3 58/8/3 222/63/3
f 209/67/2 57/186/2 88/66/2
f 269/70/5 197/34/5 225/69/5
f 88/73/10 57/185/10 224/72/10
f 259/75/27 218/13/27 199/9/27
f 230/76/24 217/14/24 202/7/24
f 273/77/28 216/15/28 201/5/28
f 240/78/26 215/16/26 200/2/26
f 219/80/26 208/97/26 226/79/26
f 220/83/24 207/45/24 236/82/24
f 264/86/10 204/109/10 231/85/10
f 278/89/5 205/102/5 232/88/5
f 213/92/3 206/110/3 235/91/3
f 214/95/1 204/113/1 224/94/1
f 208/97/1 214/95/1 227/96/1
f 207/45/3 213/92/3 237/93/3
f 199/9/2 209/67/2 258/68/2
f 202/7/3 212/64/3 228/65/3
f 201/5/4 211/61/4 272/62/4
f 200/2/1 210/58/1 238/59/1
f 205/102/3 220/83/3 239/84/3
f 203/103/1 219/80/1 229/81/1
f 196/35/1 215/16/1 240/78/1
f 198/10/4 216/15/4 273/77/4
f 197/34/3 217/14/3 230/76/3
f 195/33/2 218/13/2 259/75/2
f 225/69/3 230/76/3 220/83/3
f 221/104/1 229/81/1 218/17/1
f 223/99/3 228/65/3 213/92/3
f 226/79/1 227/96/1 209/108/1
f 227/96/1 224/94/1 57/1/1
f 229/81/26 226/79/26 199/3/26
f 220/83/24 230/76/24 223/99/24
f 267/74/10 224/72/10 204/109/10
f 281/71/5 225/69/5 205/102/5
f 228/65/3 222/63/3 206/110/3
f 234/105/1 240/78/1 219/80/1
f 232/88/3 239/84/3 216/15/3
f 233/101/1 238/59/1 214/95/1
f 236/82/3 237/93/3 211/61/3
f 237/93/3 235/91/3 91/6/3
f 282/90/5 232/88/5 198/10/5
f 268/87/10 231/85/10 59/37/10
f 239/84/24 236/82/24 201/5/24
f 219/80/26 240/78/26 233/101/26
f 238/59/1 231/57/1 204/113/1
f 275/115/10 254/137/10 98/114/10
f 261/117/5 253/136/5 241/44/5
f 260/120/5 252/142/5 246/119/5
f 274/123/10 251/140/10 245/122/10
f 242/47/2 250/139/2 280/125/2
f 241/128/4 249/138/4 266/127/4
f 244/131/4 248/147/4 265/130/4
f 243/134/2 247/145/2 279/133/2
f 257/121/5 246/119/5 253/136/5
f 271/124/10 245/122/10 254/137/10
f 249/138/28 244/131/28 263/132/28
f 250/139/27 243/134/27 277/135/27
f 89/141/10 73/151/10 251/140/10
f 262/143/5 242/153/5 252/142/5
f 247/145/2 73/152/2 89/144/2
f 248/147/4 98/154/4 97/146/4
f 265/130/4 97/146/4 59/4/4
f 195/11/5 262/143/5 260/120/5
f 266/127/28 263/132/28 200/2/28
f 203/149/5 257/121/5 261/117/5
f 263/132/4 265/130/4 210/58/4
f 255/129/4 266/127/4 215/16/4
f 221/148/5 260/120/5 257/121/5
f 234/150/5 261/117/5 255/118/5
f 254/137/10 268/87/10 97/112/10
f 251/140/10 267/74/10 264/86/10
f 262/107/2 259/75/2 250/139/2
f 256/98/2 258/68/2 247/145/2
f 245/122/10 264/86/10 268/87/10
f 250/139/27 259/75/27 256/98/27
f 73/151/10 88/73/10 267/74/10
f 258/68/2 88/66/2 73/152/2
f 279/133/2 89/144/2 58/8/2
f 58/8/10 89/141/10 274/123/10
f 280/125/27 277/135/27 202/7/27
f 206/110/10 271/124/10 275/115/10
f 277/135/2 279/133/2 212/64/2
f 269/126/2 280/125/2 217/14/2
f 222/63/10 274/123/10 271/124/10
f 235/91/10 275/115/10 92/116/10
f 253/136/5 282/90/5 276/111/5
f 252/142/5 281/71/5 278/89/5
f 276/106/4 273/77/4 249/138/4
f 270/100/4 272/62/4 248/147/4
f 246/119/5 278/89/5 282/90/5
f 249/138/28 273/77/28 270/100/28
f 242/153/5 269/70/5 281/71/5
f 272/62/4 92/60/4 98/154/4
f 299/155/1 286/4/1 285/35/1
f 286/4/2 290/6/2 289/10/2
f 296/63/3 288/8/3 287/34/3
f 288/8/4 284/186/4 283/33/4
f 298/69/5 287/34/5 283/11/5
f 297/72/10 284/185/10 288/8/10
f 317/157/10 292/109/10 294/110/10
f 318/159/29 293/102/29 291/149/29
f 316/158/3 294/110/3 293/102/3
f 311/161/1 292/113/1 291/103/1
f 284/1/1 297/94/1 295/104/1
f 307/163/10 297/72/10 296/63/10
f 308/165/5 298/69/5 295/148/5
f 310/164/3 296/63/3 298/69/3
f 290/6/3 302/169/3 300/167/3
f 289/10/5 300/167/5 301/168/5
f 286/37/10 299/175/10 302/169/10
f 305/170/1 299/155/1 301/156/1
f 315/172/1 317/183/1 305/170/1
f 302/169/3 304/176/3 306/173/3
f 300/167/5 306/173/5 303/174/5
f 299/175/10 305/184/10 304/176/10
f 312/177/3 314/180/3 310/164/3
f 312/177/30 308/165/30 309/166/30
f 311/179/10 307/163/10 310/164/10
f 297/94/1 307/182/1 309/181/1
f 292/109/10 311/179/10 314/180/10
f 293/102/31 312/177/31 313/178/31
f 293/102/3 294/110/3 314/180/3
f 307/182/1 311/161/1 313/162/1
f 291/103/1 292/113/1 317/183/1
f 304/176/3 316/158/3 318/159/3
f 306/173/32 318/159/32 315/160/32
f 305/184/10 317/157/10 316/158/10
f 320/37/10 319/185/10 322/8/10
f 8/6/3 321/6/3 322/8/3
f 2/1/1 319/1/1 320/4/1
f 2/1/1 324/1/1 326/1/1
f 325/8/3 329/8/3 327/8/3
f 319/185/10 326/185/10 325/8/10
f 322/8/3 325/8/3 323/8/3
f 6/8/5 323/8/5 324/186/5
f 327/8/4 329/8/4 330/186/4
f 323/8/5 327/8/5 328/186/5
f 324/1/1 328/1/1 330/1/1
f 326/185/10 330/185/10 329/8/10
