{
	"asset":{
		"generator":"Khronos glTF Blender I/O v4.4.56",
		"version":"2.0"
	},
	"scene":0,
	"scenes":[
		{
			"name":"Scene",
			"nodes":[
				4,
				5
			]
		}
	],
	"nodes":[
		{
			"name":"\u30dc\u30fc\u30f3",
			"translation":[
				-5.551115123125783e-17,
				-1.3473157878252096e-07,
				7.796717937935682e-09
			]
		},
		{
			"name":"\u30dc\u30fc\u30f3.001",
			"rotation":[
				1.6413197976303598e-14,
				1,
				9.664292122124607e-08,
				1.9470718370939721e-07
			],
			"scale":[
				1,
				0.9999997019767761,
				0.9999999403953552
			],
			"translation":[
				-7.714348049248088e-10,
				-0.05504608154296875,
				2.3740813732147217
			]
		},
		{
			"name":"neutral_bone",
			"rotation":[
				-0.7071067690849304,
				0,
				0,
				0.7071067690849304
			]
		},
		{
			"mesh":0,
			"name":"\u7acb\u65b9\u4f53",
			"skin":0
		},
		{
			"children":[
				3,
				0,
				1,
				2
			],
			"name":"\u30a2\u30fc\u30de\u30c1\u30e5\u30a2",
			"rotation":[
				-0.7071068286895752,
				0,
				0,
				0.7071067690849304
			],
			"scale":[
				0.7071331739425659,
				0.7071331739425659,
				0.7071331739425659
			],
			"translation":[
				0,
				0.2511090040206909,
				0.8381133675575256
			]
		},
		{
			"mesh":1,
			"name":"\u7acb\u65b9\u4f53.007"
		}
	],
	"animations":[
		{
			"channels":[
				{
					"sampler":0,
					"target":{
						"node":0,
						"path":"translation"
					}
				},
				{
					"sampler":1,
					"target":{
						"node":0,
						"path":"rotation"
					}
				},
				{
					"sampler":2,
					"target":{
						"node":0,
						"path":"scale"
					}
				},
				{
					"sampler":3,
					"target":{
						"node":1,
						"path":"translation"
					}
				},
				{
					"sampler":4,
					"target":{
						"node":1,
						"path":"rotation"
					}
				},
				{
					"sampler":5,
					"target":{
						"node":1,
						"path":"scale"
					}
				}
			],
			"name":"aim",
			"samplers":[
				{
					"input":11,
					"interpolation":"STEP",
					"output":12
				},
				{
					"input":11,
					"interpolation":"STEP",
					"output":13
				},
				{
					"input":11,
					"interpolation":"STEP",
					"output":14
				},
				{
					"input":15,
					"interpolation":"LINEAR",
					"output":16
				},
				{
					"input":11,
					"interpolation":"STEP",
					"output":17
				},
				{
					"input":11,
					"interpolation":"STEP",
					"output":18
				}
			]
		},
		{
			"channels":[
				{
					"sampler":0,
					"target":{
						"node":0,
						"path":"translation"
					}
				},
				{
					"sampler":1,
					"target":{
						"node":0,
						"path":"rotation"
					}
				},
				{
					"sampler":2,
					"target":{
						"node":0,
						"path":"scale"
					}
				},
				{
					"sampler":3,
					"target":{
						"node":1,
						"path":"translation"
					}
				},
				{
					"sampler":4,
					"target":{
						"node":1,
						"path":"rotation"
					}
				},
				{
					"sampler":5,
					"target":{
						"node":1,
						"path":"scale"
					}
				}
			],
			"name":"aim.001",
			"samplers":[
				{
					"input":11,
					"interpolation":"STEP",
					"output":19
				},
				{
					"input":11,
					"interpolation":"STEP",
					"output":20
				},
				{
					"input":11,
					"interpolation":"STEP",
					"output":21
				},
				{
					"input":15,
					"interpolation":"LINEAR",
					"output":22
				},
				{
					"input":11,
					"interpolation":"STEP",
					"output":23
				},
				{
					"input":11,
					"interpolation":"STEP",
					"output":24
				}
			]
		},
		{
			"channels":[
				{
					"sampler":0,
					"target":{
						"node":0,
						"path":"translation"
					}
				},
				{
					"sampler":1,
					"target":{
						"node":0,
						"path":"rotation"
					}
				},
				{
					"sampler":2,
					"target":{
						"node":0,
						"path":"scale"
					}
				},
				{
					"sampler":3,
					"target":{
						"node":1,
						"path":"translation"
					}
				},
				{
					"sampler":4,
					"target":{
						"node":1,
						"path":"rotation"
					}
				},
				{
					"sampler":5,
					"target":{
						"node":1,
						"path":"scale"
					}
				}
			],
			"name":"idle",
			"samplers":[
				{
					"input":25,
					"interpolation":"LINEAR",
					"output":26
				},
				{
					"input":25,
					"interpolation":"LINEAR",
					"output":27
				},
				{
					"input":25,
					"interpolation":"LINEAR",
					"output":28
				},
				{
					"input":25,
					"interpolation":"LINEAR",
					"output":29
				},
				{
					"input":25,
					"interpolation":"LINEAR",
					"output":30
				},
				{
					"input":25,
					"interpolation":"LINEAR",
					"output":31
				}
			]
		},
		{
			"channels":[
				{
					"sampler":0,
					"target":{
						"node":0,
						"path":"translation"
					}
				},
				{
					"sampler":1,
					"target":{
						"node":0,
						"path":"rotation"
					}
				},
				{
					"sampler":2,
					"target":{
						"node":0,
						"path":"scale"
					}
				},
				{
					"sampler":3,
					"target":{
						"node":1,
						"path":"translation"
					}
				},
				{
					"sampler":4,
					"target":{
						"node":1,
						"path":"rotation"
					}
				},
				{
					"sampler":5,
					"target":{
						"node":1,
						"path":"scale"
					}
				}
			],
			"name":"idle.001",
			"samplers":[
				{
					"input":25,
					"interpolation":"LINEAR",
					"output":32
				},
				{
					"input":25,
					"interpolation":"LINEAR",
					"output":33
				},
				{
					"input":25,
					"interpolation":"LINEAR",
					"output":34
				},
				{
					"input":25,
					"interpolation":"LINEAR",
					"output":35
				},
				{
					"input":25,
					"interpolation":"LINEAR",
					"output":36
				},
				{
					"input":25,
					"interpolation":"LINEAR",
					"output":37
				}
			]
		}
	],
	"meshes":[
		{
			"name":"\u7acb\u65b9\u4f53",
			"primitives":[
				{
					"attributes":{
						"POSITION":0,
						"NORMAL":1,
						"TEXCOORD_0":2,
						"JOINTS_0":3,
						"WEIGHTS_0":4
					},
					"indices":5
				}
			]
		},
		{
			"name":"\u7acb\u65b9\u4f53.011",
			"primitives":[
				{
					"attributes":{
						"POSITION":7,
						"NORMAL":8,
						"TEXCOORD_0":9
					},
					"indices":10
				}
			]
		}
	],
	"skins":[
		{
			"inverseBindMatrices":6,
			"joints":[
				0,
				1,
				2
			],
			"name":"\u30a2\u30fc\u30de\u30c1\u30e5\u30a2"
		}
	],
	"accessors":[
		{
			"bufferView":0,
			"componentType":5126,
			"count":1603,
			"max":[
				2.3627688884735107,
				2.127779960632324,
				1.4392461776733398
			],
			"min":[
				-2.3627688884735107,
				-0.7786438465118408,
				-0.9728485345840454
			],
			"type":"VEC3"
		},
		{
			"bufferView":1,
			"componentType":5126,
			"count":1603,
			"type":"VEC3"
		},
		{
			"bufferView":2,
			"componentType":5126,
			"count":1603,
			"type":"VEC2"
		},
		{
			"bufferView":3,
			"componentType":5121,
			"count":1603,
			"type":"VEC4"
		},
		{
			"bufferView":4,
			"componentType":5126,
			"count":1603,
			"type":"VEC4"
		},
		{
			"bufferView":5,
			"componentType":5123,
			"count":3918,
			"type":"SCALAR"
		},
		{
			"bufferView":6,
			"componentType":5126,
			"count":3,
			"type":"MAT4"
		},
		{
			"bufferView":7,
			"componentType":5126,
			"count":48,
			"max":[
				0.19546619057655334,
				0.19546616077423096,
				0.8438310027122498
			],
			"min":[
				-0.19546619057655334,
				-0.19546616077423096,
				-1.4588935375213623
			],
			"type":"VEC3"
		},
		{
			"bufferView":8,
			"componentType":5126,
			"count":48,
			"type":"VEC3"
		},
		{
			"bufferView":9,
			"componentType":5126,
			"count":48,
			"type":"VEC2"
		},
		{
			"bufferView":10,
			"componentType":5123,
			"count":48,
			"type":"SCALAR"
		},
		{
			"bufferView":11,
			"componentType":5126,
			"count":2,
			"max":[
				1
			],
			"min":[
				0
			],
			"type":"SCALAR"
		},
		{
			"bufferView":12,
			"componentType":5126,
			"count":2,
			"type":"VEC3"
		},
		{
			"bufferView":13,
			"componentType":5126,
			"count":2,
			"type":"VEC4"
		},
		{
			"bufferView":14,
			"componentType":5126,
			"count":2,
			"type":"VEC3"
		},
		{
			"bufferView":15,
			"componentType":5126,
			"count":61,
			"max":[
				1
			],
			"min":[
				0
			],
			"type":"SCALAR"
		},
		{
			"bufferView":16,
			"componentType":5126,
			"count":61,
			"type":"VEC3"
		},
		{
			"bufferView":17,
			"componentType":5126,
			"count":2,
			"type":"VEC4"
		},
		{
			"bufferView":18,
			"componentType":5126,
			"count":2,
			"type":"VEC3"
		},
		{
			"bufferView":19,
			"componentType":5126,
			"count":2,
			"type":"VEC3"
		},
		{
			"bufferView":20,
			"componentType":5126,
			"count":2,
			"type":"VEC4"
		},
		{
			"bufferView":21,
			"componentType":5126,
			"count":2,
			"type":"VEC3"
		},
		{
			"bufferView":22,
			"componentType":5126,
			"count":61,
			"type":"VEC3"
		},
		{
			"bufferView":23,
			"componentType":5126,
			"count":2,
			"type":"VEC4"
		},
		{
			"bufferView":24,
			"componentType":5126,
			"count":2,
			"type":"VEC3"
		},
		{
			"bufferView":25,
			"componentType":5126,
			"count":1,
			"max":[
				0
			],
			"min":[
				0
			],
			"type":"SCALAR"
		},
		{
			"bufferView":26,
			"componentType":5126,
			"count":1,
			"type":"VEC3"
		},
		{
			"bufferView":27,
			"componentType":5126,
			"count":1,
			"type":"VEC4"
		},
		{
			"bufferView":28,
			"componentType":5126,
			"count":1,
			"type":"VEC3"
		},
		{
			"bufferView":29,
			"componentType":5126,
			"count":1,
			"type":"VEC3"
		},
		{
			"bufferView":30,
			"componentType":5126,
			"count":1,
			"type":"VEC4"
		},
		{
			"bufferView":31,
			"componentType":5126,
			"count":1,
			"type":"VEC3"
		},
		{
			"bufferView":32,
			"componentType":5126,
			"count":1,
			"type":"VEC3"
		},
		{
			"bufferView":33,
			"componentType":5126,
			"count":1,
			"type":"VEC4"
		},
		{
			"bufferView":34,
			"componentType":5126,
			"count":1,
			"type":"VEC3"
		},
		{
			"bufferView":35,
			"componentType":5126,
			"count":1,
			"type":"VEC3"
		},
		{
			"bufferView":36,
			"componentType":5126,
			"count":1,
			"type":"VEC4"
		},
		{
			"bufferView":37,
			"componentType":5126,
			"count":1,
			"type":"VEC3"
		}
	],
	"bufferViews":[
		{
			"buffer":0,
			"byteLength":19236,
			"byteOffset":0,
			"target":34962
		},
		{
			"buffer":0,
			"byteLength":19236,
			"byteOffset":19236,
			"target":34962
		},
		{
			"buffer":0,
			"byteLength":12824,
			"byteOffset":38472,
			"target":34962
		},
		{
			"buffer":0,
			"byteLength":6412,
			"byteOffset":51296,
			"target":34962
		},
		{
			"buffer":0,
			"byteLength":25648,
			"byteOffset":57708,
			"target":34962
		},
		{
			"buffer":0,
			"byteLength":7836,
			"byteOffset":83356,
			"target":34963
		},
		{
			"buffer":0,
			"byteLength":192,
			"byteOffset":91192
		},
		{
			"buffer":0,
			"byteLength":576,
			"byteOffset":91384,
			"target":34962
		},
		{
			"buffer":0,
			"byteLength":576,
			"byteOffset":91960,
			"target":34962
		},
		{
			"buffer":0,
			"byteLength":384,
			"byteOffset":92536,
			"target":34962
		},
		{
			"buffer":0,
			"byteLength":96,
			"byteOffset":92920,
			"target":34963
		},
		{
			"buffer":0,
			"byteLength":8,
			"byteOffset":93016
		},
		{
			"buffer":0,
			"byteLength":24,
			"byteOffset":93024
		},
		{
			"buffer":0,
			"byteLength":32,
			"byteOffset":93048
		},
		{
			"buffer":0,
			"byteLength":24,
			"byteOffset":93080
		},
		{
			"buffer":0,
			"byteLength":244,
			"byteOffset":93104
		},
		{
			"buffer":0,
			"byteLength":732,
			"byteOffset":93348
		},
		{
			"buffer":0,
			"byteLength":32,
			"byteOffset":94080
		},
		{
			"buffer":0,
			"byteLength":24,
			"byteOffset":94112
		},
		{
			"buffer":0,
			"byteLength":24,
			"byteOffset":94136
		},
		{
			"buffer":0,
			"byteLength":32,
			"byteOffset":94160
		},
		{
			"buffer":0,
			"byteLength":24,
			"byteOffset":94192
		},
		{
			"buffer":0,
			"byteLength":732,
			"byteOffset":94216
		},
		{
			"buffer":0,
			"byteLength":32,
			"byteOffset":94948
		},
		{
			"buffer":0,
			"byteLength":24,
			"byteOffset":94980
		},
		{
			"buffer":0,
			"byteLength":4,
			"byteOffset":95004
		},
		{
			"buffer":0,
			"byteLength":12,
			"byteOffset":95008
		},
		{
			"buffer":0,
			"byteLength":16,
			"byteOffset":95020
		},
		{
			"buffer":0,
			"byteLength":12,
			"byteOffset":95036
		},
		{
			"buffer":0,
			"byteLength":12,
			"byteOffset":95048
		},
		{
			"buffer":0,
			"byteLength":16,
			"byteOffset":95060
		},
		{
			"buffer":0,
			"byteLength":12,
			"byteOffset":95076
		},
		{
			"buffer":0,
			"byteLength":12,
			"byteOffset":95088
		},
		{
			"buffer":0,
			"byteLength":16,
			"byteOffset":95100
		},
		{
			"buffer":0,
			"byteLength":12,
			"byteOffset":95116
		},
		{
			"buffer":0,
			"byteLength":12,
			"byteOffset":95128
		},
		{
			"buffer":0,
			"byteLength":16,
			"byteOffset":95140
		},
		{
			"buffer":0,
			"byteLength":12,
			"byteOffset":95156
		}
	],
	"buffers":[
		{
			"byteLength":95168,
			"uri":"Enemy06.bin"
		}
	]
}
