# Blender 4.4.3
# www.blender.org
mtllib tentative_enemy.mtl
o 立方体
v -0.296928 -0.764172 1.000000
v -0.296928 0.764172 1.000000
v -1.000000 -0.764172 -1.000000
v -1.000000 0.764172 -1.000000
v 0.296928 -0.764172 1.000000
v 0.296928 0.764172 1.000000
v 1.000000 -0.764172 -1.000000
v 1.000000 0.764172 -1.000000
v -1.000000 -0.764172 0.000000
v -1.000000 0.764172 0.000000
v 1.000000 -0.764172 0.000000
v 1.000000 0.764172 0.000000
vn -1.0000 -0.0000 -0.0000
vn -0.0000 -0.0000 -1.0000
vn 0.8180 -0.0000 0.5751
vn -0.0000 -0.0000 1.0000
vn -0.0000 -1.0000 -0.0000
vn -0.0000 1.0000 -0.0000
vn 1.0000 -0.0000 -0.0000
vn -0.8180 -0.0000 0.5751
vt 0.625000 0.125000
vt 0.375000 0.250000
vt 0.375000 0.125000
vt 0.625000 0.250000
vt 0.375000 0.500000
vt 0.625000 0.625000
vt 0.375000 0.750000
vt 0.375000 0.625000
vt 0.625000 0.750000
vt 0.375000 1.000000
vt 0.125000 0.750000
vt 0.125000 0.625000
vt 0.875000 0.625000
vt 0.875000 0.500000
vt 0.625000 0.500000
vt 0.125000 0.500000
vt 0.625000 0.000000
vt 0.375000 0.000000
vt 0.625000 1.000000
vt 0.875000 0.750000
s 0
f 10/1/1 3/2/1 9/3/1
f 4/4/2 7/5/2 3/2/2
f 12/6/3 5/7/3 11/8/3
f 6/9/4 1/10/4 5/7/4
f 11/8/5 1/11/5 9/12/5
f 10/13/6 6/9/6 12/6/6
f 4/14/6 12/6/6 8/15/6
f 7/5/5 9/12/5 3/16/5
f 8/15/7 11/8/7 7/5/7
f 2/17/8 9/3/8 1/18/8
f 10/1/1 4/4/1 3/2/1
f 4/4/2 8/15/2 7/5/2
f 12/6/3 6/9/3 5/7/3
f 6/9/4 2/19/4 1/10/4
f 11/8/5 5/7/5 1/11/5
f 10/13/6 2/20/6 6/9/6
f 4/14/6 10/13/6 12/6/6
f 7/5/5 11/8/5 9/12/5
f 8/15/7 12/6/7 11/8/7
f 2/17/8 10/1/8 9/3/8
