{
	"asset":{
		"generator":"Khronos glTF Blender I/O v4.4.56",
		"version":"2.0"
	},
	"scene":0,
	"scenes":[
		{
			"name":"Scene",
			"nodes":[
				8
			]
		}
	],
	"nodes":[
		{
			"name":"\u30dc\u30fc\u30f3.006",
			"translation":[
				0,
				0.3081369400024414,
				0
			]
		},
		{
			"children":[
				0
			],
			"name":"\u30dc\u30fc\u30f3.005",
			"translation":[
				0,
				0.3915258049964905,
				0
			]
		},
		{
			"children":[
				1
			],
			"name":"\u30dc\u30fc\u30f3.004",
			"translation":[
				0,
				0.3819859027862549,
				0
			]
		},
		{
			"children":[
				2
			],
			"name":"\u30dc\u30fc\u30f3.003",
			"translation":[
				0,
				0.3676598072052002,
				0
			]
		},
		{
			"children":[
				3
			],
			"name":"\u30dc\u30fc\u30f3.002",
			"rotation":[
				0,
				1.1920928955078125e-07,
				0,
				1
			],
			"translation":[
				0,
				0.36772146821022034,
				0
			]
		},
		{
			"children":[
				4
			],
			"name":"\u30dc\u30fc\u30f3.001",
			"translation":[
				0,
				0.47105589509010315,
				0
			]
		},
		{
			"children":[
				5
			],
			"name":"\u30dc\u30fc\u30f3",
			"translation":[
				0,
				-0.14139503240585327,
				0
			]
		},
		{
			"mesh":0,
			"name":"\u7403",
			"skin":0
		},
		{
			"children":[
				7,
				6
			],
			"name":"\u30a2\u30fc\u30de\u30c1\u30e5\u30a2",
			"translation":[
				0,
				-0.5633506178855896,
				0
			]
		}
	],
	"animations":[
		{
			"channels":[
				{
					"sampler":0,
					"target":{
						"node":6,
						"path":"translation"
					}
				},
				{
					"sampler":1,
					"target":{
						"node":6,
						"path":"rotation"
					}
				},
				{
					"sampler":2,
					"target":{
						"node":6,
						"path":"scale"
					}
				},
				{
					"sampler":3,
					"target":{
						"node":5,
						"path":"translation"
					}
				},
				{
					"sampler":4,
					"target":{
						"node":5,
						"path":"rotation"
					}
				},
				{
					"sampler":5,
					"target":{
						"node":5,
						"path":"scale"
					}
				},
				{
					"sampler":6,
					"target":{
						"node":4,
						"path":"translation"
					}
				},
				{
					"sampler":7,
					"target":{
						"node":4,
						"path":"rotation"
					}
				},
				{
					"sampler":8,
					"target":{
						"node":4,
						"path":"scale"
					}
				},
				{
					"sampler":9,
					"target":{
						"node":3,
						"path":"translation"
					}
				},
				{
					"sampler":10,
					"target":{
						"node":3,
						"path":"rotation"
					}
				},
				{
					"sampler":11,
					"target":{
						"node":3,
						"path":"scale"
					}
				},
				{
					"sampler":12,
					"target":{
						"node":2,
						"path":"translation"
					}
				},
				{
					"sampler":13,
					"target":{
						"node":2,
						"path":"rotation"
					}
				},
				{
					"sampler":14,
					"target":{
						"node":2,
						"path":"scale"
					}
				},
				{
					"sampler":15,
					"target":{
						"node":1,
						"path":"translation"
					}
				},
				{
					"sampler":16,
					"target":{
						"node":1,
						"path":"rotation"
					}
				},
				{
					"sampler":17,
					"target":{
						"node":1,
						"path":"scale"
					}
				},
				{
					"sampler":18,
					"target":{
						"node":0,
						"path":"translation"
					}
				},
				{
					"sampler":19,
					"target":{
						"node":0,
						"path":"rotation"
					}
				},
				{
					"sampler":20,
					"target":{
						"node":0,
						"path":"scale"
					}
				}
			],
			"name":"idle",
			"samplers":[
				{
					"input":7,
					"interpolation":"LINEAR",
					"output":8
				},
				{
					"input":9,
					"interpolation":"STEP",
					"output":10
				},
				{
					"input":7,
					"interpolation":"LINEAR",
					"output":11
				},
				{
					"input":9,
					"interpolation":"STEP",
					"output":12
				},
				{
					"input":9,
					"interpolation":"STEP",
					"output":13
				},
				{
					"input":9,
					"interpolation":"STEP",
					"output":14
				},
				{
					"input":9,
					"interpolation":"STEP",
					"output":15
				},
				{
					"input":9,
					"interpolation":"STEP",
					"output":16
				},
				{
					"input":9,
					"interpolation":"STEP",
					"output":17
				},
				{
					"input":9,
					"interpolation":"STEP",
					"output":18
				},
				{
					"input":9,
					"interpolation":"STEP",
					"output":19
				},
				{
					"input":9,
					"interpolation":"STEP",
					"output":20
				},
				{
					"input":9,
					"interpolation":"STEP",
					"output":21
				},
				{
					"input":9,
					"interpolation":"STEP",
					"output":22
				},
				{
					"input":9,
					"interpolation":"STEP",
					"output":23
				},
				{
					"input":9,
					"interpolation":"STEP",
					"output":24
				},
				{
					"input":9,
					"interpolation":"STEP",
					"output":25
				},
				{
					"input":9,
					"interpolation":"STEP",
					"output":26
				},
				{
					"input":9,
					"interpolation":"STEP",
					"output":27
				},
				{
					"input":9,
					"interpolation":"STEP",
					"output":28
				},
				{
					"input":9,
					"interpolation":"STEP",
					"output":29
				}
			]
		}
	],
	"meshes":[
		{
			"name":"\u7403",
			"primitives":[
				{
					"attributes":{
						"POSITION":0,
						"NORMAL":1,
						"TEXCOORD_0":2,
						"JOINTS_0":3,
						"WEIGHTS_0":4
					},
					"indices":5
				}
			]
		}
	],
	"skins":[
		{
			"inverseBindMatrices":6,
			"joints":[
				6,
				5,
				4,
				3,
				2,
				1,
				0
			],
			"name":"\u30a2\u30fc\u30de\u30c1\u30e5\u30a2"
		}
	],
	"accessors":[
		{
			"bufferView":0,
			"componentType":5126,
			"count":236,
			"max":[
				1.0370240211486816,
				2.038306474685669,
				0.9080458879470825
			],
			"min":[
				-1.0370240211486816,
				-0.7514711022377014,
				-0.9080459475517273
			],
			"type":"VEC3"
		},
		{
			"bufferView":1,
			"componentType":5126,
			"count":236,
			"type":"VEC3"
		},
		{
			"bufferView":2,
			"componentType":5126,
			"count":236,
			"type":"VEC2"
		},
		{
			"bufferView":3,
			"componentType":5121,
			"count":236,
			"type":"VEC4"
		},
		{
			"bufferView":4,
			"componentType":5126,
			"count":236,
			"type":"VEC4"
		},
		{
			"bufferView":5,
			"componentType":5123,
			"count":1152,
			"type":"SCALAR"
		},
		{
			"bufferView":6,
			"componentType":5126,
			"count":7,
			"type":"MAT4"
		},
		{
			"bufferView":7,
			"componentType":5126,
			"count":91,
			"max":[
				1.5
			],
			"min":[
				0
			],
			"type":"SCALAR"
		},
		{
			"bufferView":8,
			"componentType":5126,
			"count":91,
			"type":"VEC3"
		},
		{
			"bufferView":9,
			"componentType":5126,
			"count":2,
			"max":[
				1.5
			],
			"min":[
				0
			],
			"type":"SCALAR"
		},
		{
			"bufferView":10,
			"componentType":5126,
			"count":2,
			"type":"VEC4"
		},
		{
			"bufferView":11,
			"componentType":5126,
			"count":91,
			"type":"VEC3"
		},
		{
			"bufferView":12,
			"componentType":5126,
			"count":2,
			"type":"VEC3"
		},
		{
			"bufferView":13,
			"componentType":5126,
			"count":2,
			"type":"VEC4"
		},
		{
			"bufferView":14,
			"componentType":5126,
			"count":2,
			"type":"VEC3"
		},
		{
			"bufferView":15,
			"componentType":5126,
			"count":2,
			"type":"VEC3"
		},
		{
			"bufferView":16,
			"componentType":5126,
			"count":2,
			"type":"VEC4"
		},
		{
			"bufferView":17,
			"componentType":5126,
			"count":2,
			"type":"VEC3"
		},
		{
			"bufferView":18,
			"componentType":5126,
			"count":2,
			"type":"VEC3"
		},
		{
			"bufferView":19,
			"componentType":5126,
			"count":2,
			"type":"VEC4"
		},
		{
			"bufferView":20,
			"componentType":5126,
			"count":2,
			"type":"VEC3"
		},
		{
			"bufferView":21,
			"componentType":5126,
			"count":2,
			"type":"VEC3"
		},
		{
			"bufferView":22,
			"componentType":5126,
			"count":2,
			"type":"VEC4"
		},
		{
			"bufferView":23,
			"componentType":5126,
			"count":2,
			"type":"VEC3"
		},
		{
			"bufferView":24,
			"componentType":5126,
			"count":2,
			"type":"VEC3"
		},
		{
			"bufferView":25,
			"componentType":5126,
			"count":2,
			"type":"VEC4"
		},
		{
			"bufferView":26,
			"componentType":5126,
			"count":2,
			"type":"VEC3"
		},
		{
			"bufferView":27,
			"componentType":5126,
			"count":2,
			"type":"VEC3"
		},
		{
			"bufferView":28,
			"componentType":5126,
			"count":2,
			"type":"VEC4"
		},
		{
			"bufferView":29,
			"componentType":5126,
			"count":2,
			"type":"VEC3"
		}
	],
	"bufferViews":[
		{
			"buffer":0,
			"byteLength":2832,
			"byteOffset":0,
			"target":34962
		},
		{
			"buffer":0,
			"byteLength":2832,
			"byteOffset":2832,
			"target":34962
		},
		{
			"buffer":0,
			"byteLength":1888,
			"byteOffset":5664,
			"target":34962
		},
		{
			"buffer":0,
			"byteLength":944,
			"byteOffset":7552,
			"target":34962
		},
		{
			"buffer":0,
			"byteLength":3776,
			"byteOffset":8496,
			"target":34962
		},
		{
			"buffer":0,
			"byteLength":2304,
			"byteOffset":12272,
			"target":34963
		},
		{
			"buffer":0,
			"byteLength":448,
			"byteOffset":14576
		},
		{
			"buffer":0,
			"byteLength":364,
			"byteOffset":15024
		},
		{
			"buffer":0,
			"byteLength":1092,
			"byteOffset":15388
		},
		{
			"buffer":0,
			"byteLength":8,
			"byteOffset":16480
		},
		{
			"buffer":0,
			"byteLength":32,
			"byteOffset":16488
		},
		{
			"buffer":0,
			"byteLength":1092,
			"byteOffset":16520
		},
		{
			"buffer":0,
			"byteLength":24,
			"byteOffset":17612
		},
		{
			"buffer":0,
			"byteLength":32,
			"byteOffset":17636
		},
		{
			"buffer":0,
			"byteLength":24,
			"byteOffset":17668
		},
		{
			"buffer":0,
			"byteLength":24,
			"byteOffset":17692
		},
		{
			"buffer":0,
			"byteLength":32,
			"byteOffset":17716
		},
		{
			"buffer":0,
			"byteLength":24,
			"byteOffset":17748
		},
		{
			"buffer":0,
			"byteLength":24,
			"byteOffset":17772
		},
		{
			"buffer":0,
			"byteLength":32,
			"byteOffset":17796
		},
		{
			"buffer":0,
			"byteLength":24,
			"byteOffset":17828
		},
		{
			"buffer":0,
			"byteLength":24,
			"byteOffset":17852
		},
		{
			"buffer":0,
			"byteLength":32,
			"byteOffset":17876
		},
		{
			"buffer":0,
			"byteLength":24,
			"byteOffset":17908
		},
		{
			"buffer":0,
			"byteLength":24,
			"byteOffset":17932
		},
		{
			"buffer":0,
			"byteLength":32,
			"byteOffset":17956
		},
		{
			"buffer":0,
			"byteLength":24,
			"byteOffset":17988
		},
		{
			"buffer":0,
			"byteLength":24,
			"byteOffset":18012
		},
		{
			"buffer":0,
			"byteLength":32,
			"byteOffset":18036
		},
		{
			"buffer":0,
			"byteLength":24,
			"byteOffset":18068
		}
	],
	"buffers":[
		{
			"byteLength":18092,
			"uri":"Enemy_02_idle.bin"
		}
	]
}
