# Blender 4.4.3
# www.blender.org
mtllib RockJagged.mtl
o Rock_Jagged
v 0.000000 0.034760 0.000000
v 0.675321 0.124440 0.415980
v -0.248415 0.128261 0.648211
v -0.740005 0.280805 0.000000
v -0.262960 0.122429 -0.686163
v 0.581463 0.298378 -0.358166
v 0.298232 1.559761 0.651667
v -0.681060 1.643264 0.453121
v -0.627938 1.584676 -0.417778
v 0.309155 1.584215 -0.675536
v 0.949958 1.632449 0.000000
v 0.115443 2.481544 0.000000
v -0.154670 0.027165 0.403595
v 0.438180 0.010690 0.269907
v 0.267148 0.095464 0.697066
v 0.726638 0.116580 0.000000
v 0.459746 0.000000 -0.283192
v -0.513911 0.021802 0.000000
v -0.582565 0.117583 0.358848
v -0.169091 0.008452 -0.441224
v -0.675546 0.099979 -0.416122
v 0.263954 0.097047 -0.688733
v 0.894053 0.892117 0.246286
v 0.840893 0.892117 -0.231642
v 0.000000 0.892117 0.835369
v 0.509037 0.892117 0.594011
v -0.828377 0.892117 0.228194
v -0.532485 0.892117 0.621373
v -0.594835 0.892117 -0.694131
v -0.798276 0.892117 -0.219902
v 0.517645 0.892117 -0.604056
v 0.000000 0.892117 -0.844357
v 0.740737 1.748537 0.417963
v -0.181899 1.682981 0.624509
v -0.758732 1.728930 0.000000
v -0.192788 1.730327 -0.661896
v 0.670503 1.667335 -0.378333
v 0.238203 2.157652 0.381714
v 0.540064 2.101115 0.000000
v -0.257109 2.009997 0.208386
v -0.293323 2.167453 -0.237737
v 0.226906 2.097632 -0.363611
vn -0.0350 -0.9989 -0.0322
vn 0.3980 -0.9150 0.0664
vn 0.0252 -0.9996 -0.0092
vn 0.0252 -0.9984 0.0499
vn -0.0314 -0.9970 0.0715
vn 0.9612 -0.2466 0.1232
vn -0.1052 -0.2042 0.9732
vn -0.9241 -0.2436 0.2946
vn -0.5235 -0.2342 -0.8192
vn 0.7614 -0.1765 -0.6238
vn 0.6700 -0.0269 0.7419
vn -0.3708 -0.1055 0.9227
vn -0.9907 -0.1184 -0.0666
vn -0.2432 -0.1149 -0.9631
vn 0.7419 -0.1869 -0.6439
vn 0.2782 0.4183 0.8646
vn -0.2726 0.7319 0.6245
vn -0.7271 0.5460 -0.4162
vn 0.1315 0.5300 -0.8377
vn 0.6745 0.5899 -0.4438
vn 0.5768 0.6438 -0.5029
vn 0.5888 0.6246 -0.5131
vn 0.4725 0.5117 -0.7176
vn -0.0879 0.6714 -0.7359
vn -0.0835 0.6840 -0.7247
vn -0.5439 0.5166 -0.6613
vn -0.6837 0.6690 0.2916
vn -0.5603 0.7658 0.3158
vn -0.5494 0.7988 0.2452
vn -0.4173 0.6223 0.6623
vn -0.4146 0.6776 0.6074
vn 0.0553 0.4155 0.9079
vn 0.6158 0.6873 0.3852
vn 0.5770 0.7395 0.3468
vn 0.7390 0.6463 0.1904
vn 0.8055 0.0656 -0.5889
vn 0.7545 0.0419 -0.6549
vn 0.6171 0.1054 -0.7798
vn 0.0378 0.2208 -0.9746
vn -0.2420 0.1529 -0.9582
vn -0.5402 0.2895 -0.7902
vn -0.9319 0.1327 -0.3376
vn -0.9957 0.0646 -0.0669
vn -0.9723 0.1332 0.1919
vn -0.3316 0.1433 0.9325
vn -0.3681 0.1596 0.9160
vn 0.0122 0.2602 0.9655
vn 0.4448 0.0633 0.8934
vn 0.6700 -0.0288 0.7418
vn 0.8999 0.0750 0.4296
vn 0.4208 0.0331 -0.9065
vn 0.4208 -0.0377 -0.9064
vn -0.0143 -0.1966 -0.9804
vn -0.9132 0.1127 -0.3917
vn -0.9181 -0.0447 -0.3939
vn -0.9869 -0.1289 -0.0969
vn -0.7988 -0.0233 0.6011
vn -0.7899 -0.1504 0.5945
vn -0.6361 -0.2105 0.7423
vn 0.4277 0.0571 0.9021
vn 0.4284 -0.0132 0.9035
vn 0.5691 -0.0668 0.8195
vn 0.9877 -0.1111 -0.1099
vn 0.9782 -0.1766 -0.1088
vn 0.8391 -0.2654 -0.4748
vn 0.7673 -0.4321 -0.4739
vn 0.0513 -0.9654 -0.2558
vn -0.0459 -0.9123 -0.4069
vn -0.1832 -0.9163 -0.3561
vn -0.1821 -0.9768 -0.1128
vn -0.7428 -0.6484 0.1667
vn -0.7530 -0.6573 0.0314
vn -0.2232 -0.9516 0.2113
vn -0.2270 -0.9277 0.2964
vn 0.7384 -0.4314 -0.5183
vn 0.3710 -0.9281 0.0324
vn -0.0651 -0.9977 0.0167
vn -0.0925 -0.9322 0.3498
vn 0.0183 -0.9793 0.2017
vn 0.2639 -0.9204 0.2883
vt 0.181819 0.000000
vt 0.227273 0.078731
vt 0.136365 0.078731
vt 0.272728 0.157461
vt 0.318182 0.078731
vt 0.363637 0.157461
vt 0.909091 0.000000
vt 0.954545 0.078731
vt 0.863636 0.078731
vt 0.727273 0.000000
vt 0.772727 0.078731
vt 0.681818 0.078731
vt 0.545455 0.000000
vt 0.590909 0.078731
vt 0.500000 0.078731
vt 0.318182 0.236191
vt 0.090910 0.157461
vt 0.181819 0.157461
vt 0.136365 0.236191
vt 0.818182 0.157461
vt 0.909091 0.157461
vt 0.863636 0.236191
vt 0.636364 0.157461
vt 0.727273 0.157461
vt 0.681818 0.236191
vt 0.454546 0.157461
vt 0.545455 0.157461
vt 0.500000 0.236191
vt 0.227273 0.236191
vt 0.045455 0.236191
vt 0.772727 0.236191
vt 0.590909 0.236191
vt 0.409092 0.236191
vt 0.181819 0.314921
vt 0.272728 0.314921
vt 0.227273 0.393651
vt 0.000000 0.314921
vt 0.090910 0.314921
vt 0.045455 0.393651
vt 0.727273 0.314921
vt 0.818182 0.314921
vt 0.772727 0.393651
vt 0.545455 0.314921
vt 0.636364 0.314921
vt 0.590909 0.393651
vt 0.363637 0.314921
vt 0.454546 0.314921
vt 0.409092 0.393651
vt 0.500000 0.393651
vt 0.454546 0.472382
vt 0.681818 0.393651
vt 0.636364 0.472382
vt 0.863636 0.393651
vt 0.818182 0.472382
vt 0.909091 0.314921
vt 0.136365 0.393651
vt 0.090910 0.472382
vt 0.318182 0.393651
vt 0.272728 0.472382
vt 0.954545 0.236191
vt 1.000000 0.157461
vt 0.409092 0.078731
vt 0.363637 0.000000
s 0
usemtl Rock_Gray
f 1/1/1 14/2/1 13/3/1
f 2/4/2 14/5/2 16/6/2
f 1/7/3 13/8/3 18/9/3
f 1/10/4 18/11/4 20/12/4
f 1/13/5 20/14/5 17/15/5
f 2/4/6 16/6/6 23/16/6
f 3/17/7 15/18/7 25/19/7
f 4/20/8 19/21/8 27/22/8
f 5/23/9 21/24/9 29/25/9
f 6/26/10 22/27/10 31/28/10
f 2/4/11 23/16/11 26/29/11
f 3/17/12 25/19/12 28/30/12
f 4/20/13 27/22/13 30/31/13
f 5/23/14 29/25/14 32/32/14
f 6/26/15 31/28/15 24/33/15
f 7/34/16 33/35/16 38/36/16
f 8/37/17 34/38/17 40/39/17
f 9/40/18 35/41/18 41/42/18
f 10/43/19 36/44/19 42/45/19
f 11/46/20 37/47/20 39/48/20
f 39/48/21 42/49/21 12/50/21
f 39/48/22 37/47/22 42/49/22
f 37/47/23 10/43/23 42/49/23
f 42/45/24 41/51/24 12/52/24
f 42/45/25 36/44/25 41/51/25
f 36/44/26 9/40/26 41/51/26
f 41/42/27 40/53/27 12/54/27
f 41/42/28 35/41/28 40/53/28
f 35/41/29 8/55/29 40/53/29
f 40/39/30 38/56/30 12/57/30
f 40/39/31 34/38/31 38/56/31
f 34/38/32 7/34/32 38/56/32
f 38/36/33 39/58/33 12/59/33
f 38/36/34 33/35/34 39/58/34
f 33/35/35 11/46/35 39/58/35
f 24/33/36 37/47/36 11/46/36
f 24/33/37 31/28/37 37/47/37
f 31/28/38 10/43/38 37/47/38
f 32/32/39 36/44/39 10/43/39
f 32/32/40 29/25/40 36/44/40
f 29/25/41 9/40/41 36/44/41
f 30/31/42 35/41/42 9/40/42
f 30/31/43 27/22/43 35/41/43
f 27/22/44 8/55/44 35/41/44
f 28/30/45 34/38/45 8/37/45
f 28/30/46 25/19/46 34/38/46
f 25/19/47 7/34/47 34/38/47
f 26/29/48 33/35/48 7/34/48
f 26/29/49 23/16/49 33/35/49
f 23/16/50 11/46/50 33/35/50
f 31/28/51 32/32/51 10/43/51
f 31/28/52 22/27/52 32/32/52
f 22/27/53 5/23/53 32/32/53
f 29/25/54 30/31/54 9/40/54
f 29/25/55 21/24/55 30/31/55
f 21/24/56 4/20/56 30/31/56
f 27/22/57 28/60/57 8/55/57
f 27/22/58 19/21/58 28/60/58
f 19/21/59 3/61/59 28/60/59
f 25/19/60 26/29/60 7/34/60
f 25/19/61 15/18/61 26/29/61
f 15/18/62 2/4/62 26/29/62
f 23/16/63 24/33/63 11/46/63
f 23/16/64 16/6/64 24/33/64
f 16/6/65 6/26/65 24/33/65
f 17/15/66 22/27/66 6/26/66
f 17/15/67 20/14/67 22/27/67
f 20/14/68 5/23/68 22/27/68
f 20/12/69 21/24/69 5/23/69
f 20/12/70 18/11/70 21/24/70
f 18/11/71 4/20/71 21/24/71
f 18/9/72 19/21/72 4/20/72
f 18/9/73 13/8/73 19/21/73
f 13/8/74 3/61/74 19/21/74
f 16/6/75 17/62/75 6/26/75
f 16/6/76 14/5/76 17/62/76
f 14/5/77 1/63/77 17/62/77
f 13/3/78 15/18/78 3/17/78
f 13/3/79 14/2/79 15/18/79
f 14/2/80 2/4/80 15/18/80
