{
	"asset":{
		"generator":"Khronos glTF Blender I/O v5.1.20",
		"version":"2.0"
	},
	"scene":0,
	"scenes":[
		{
			"name":"Scene",
			"nodes":[
				9
			]
		}
	],
	"nodes":[
		{
			"name":"\u30dc\u30fc\u30f3.002",
			"rotation":[
				4.4911990793039536e-15,
				3.925019243555121e-24,
				-1.2808313420699336e-16,
				1
			],
			"translation":[
				-9.520367431368843e-18,
				0.10102830827236176,
				-6.678685382510707e-17
			]
		},
		{
			"name":"\u30dc\u30fc\u30f3.007",
			"rotation":[
				-0.42948630452156067,
				0.06313981115818024,
				-0.10261914134025574,
				0.8949995636940002
			],
			"translation":[
				5.587935447692871e-09,
				0.09909231960773468,
				1.4901161193847656e-08
			]
		},
		{
			"children":[
				1
			],
			"name":"\u30dc\u30fc\u30f3.006",
			"rotation":[
				-0.061049409210681915,
				-0.00476932292804122,
				0.12120967358350754,
				0.9907363653182983
			],
			"scale":[
				0.9999999403953552,
				1,
				1
			],
			"translation":[
				1.1670636013150215e-08,
				0.09881275147199631,
				-5.587935447692871e-09
			]
		},
		{
			"children":[
				2
			],
			"name":"\u30dc\u30fc\u30f3.003",
			"rotation":[
				-0.15816131234169006,
				0.21580611169338226,
				-0.7751129865646362,
				0.5723745226860046
			],
			"scale":[
				1.0000001192092896,
				1.0000001192092896,
				1.0000001192092896
			],
			"translation":[
				2.804939058798084e-10,
				0.10102830827236176,
				-2.723515857283587e-16
			]
		},
		{
			"name":"\u30dc\u30fc\u30f3.005",
			"rotation":[
				-0.023536574095487595,
				-1.7145583797173458e-07,
				-0.13941136002540588,
				0.9899548292160034
			],
			"scale":[
				1,
				1,
				0.9999999403953552
			],
			"translation":[
				-7.916241884231567e-09,
				0.09731115400791168,
				0
			]
		},
		{
			"children":[
				4
			],
			"name":"\u30dc\u30fc\u30f3.004",
			"rotation":[
				-0.1603858321905136,
				-0.2212466597557068,
				0.7759076952934265,
				0.5685890913009644
			],
			"scale":[
				0.9999998807907104,
				0.9999999403953552,
				1
			],
			"translation":[
				2.855189140671399e-10,
				0.10102829337120056,
				1.717376241217039e-16
			]
		},
		{
			"children":[
				0,
				3,
				5
			],
			"name":"\u30dc\u30fc\u30f3.001",
			"rotation":[
				-8.396061623727746e-16,
				-2.42781784621559e-24,
				-1.7700826016621418e-16,
				1
			],
			"translation":[
				-1.008866532761115e-17,
				0.09429460018873215,
				4.391018798566293e-16
			]
		},
		{
			"children":[
				6
			],
			"name":"\u30dc\u30fc\u30f3",
			"rotation":[
				-2.655997644041008e-10,
				-0.9998795986175537,
				4.139650400247774e-09,
				0.015519188717007637
			],
			"translation":[
				0,
				0.03142523765563965,
				0
			]
		},
		{
			"mesh":0,
			"name":"\u7acb\u65b9\u4f53",
			"skin":0
		},
		{
			"children":[
				8,
				7
			],
			"name":"\u30a2\u30fc\u30de\u30c1\u30e5\u30a2"
		}
	],
	"animations":[
		{
			"channels":[
				{
					"sampler":0,
					"target":{
						"node":7,
						"path":"translation"
					}
				},
				{
					"sampler":1,
					"target":{
						"node":7,
						"path":"rotation"
					}
				},
				{
					"sampler":2,
					"target":{
						"node":7,
						"path":"scale"
					}
				},
				{
					"sampler":3,
					"target":{
						"node":6,
						"path":"translation"
					}
				},
				{
					"sampler":4,
					"target":{
						"node":6,
						"path":"rotation"
					}
				},
				{
					"sampler":5,
					"target":{
						"node":6,
						"path":"scale"
					}
				},
				{
					"sampler":6,
					"target":{
						"node":0,
						"path":"translation"
					}
				},
				{
					"sampler":7,
					"target":{
						"node":0,
						"path":"rotation"
					}
				},
				{
					"sampler":8,
					"target":{
						"node":0,
						"path":"scale"
					}
				},
				{
					"sampler":9,
					"target":{
						"node":3,
						"path":"translation"
					}
				},
				{
					"sampler":10,
					"target":{
						"node":3,
						"path":"rotation"
					}
				},
				{
					"sampler":11,
					"target":{
						"node":3,
						"path":"scale"
					}
				},
				{
					"sampler":12,
					"target":{
						"node":2,
						"path":"translation"
					}
				},
				{
					"sampler":13,
					"target":{
						"node":2,
						"path":"rotation"
					}
				},
				{
					"sampler":14,
					"target":{
						"node":2,
						"path":"scale"
					}
				},
				{
					"sampler":15,
					"target":{
						"node":1,
						"path":"translation"
					}
				},
				{
					"sampler":16,
					"target":{
						"node":1,
						"path":"rotation"
					}
				},
				{
					"sampler":17,
					"target":{
						"node":1,
						"path":"scale"
					}
				},
				{
					"sampler":18,
					"target":{
						"node":5,
						"path":"translation"
					}
				},
				{
					"sampler":19,
					"target":{
						"node":5,
						"path":"rotation"
					}
				},
				{
					"sampler":20,
					"target":{
						"node":5,
						"path":"scale"
					}
				},
				{
					"sampler":21,
					"target":{
						"node":4,
						"path":"translation"
					}
				},
				{
					"sampler":22,
					"target":{
						"node":4,
						"path":"rotation"
					}
				},
				{
					"sampler":23,
					"target":{
						"node":4,
						"path":"scale"
					}
				}
			],
			"name":"Armature|mixamo.com|Layer0",
			"samplers":[
				{
					"input":7,
					"interpolation":"STEP",
					"output":8
				},
				{
					"input":7,
					"interpolation":"STEP",
					"output":9
				},
				{
					"input":7,
					"interpolation":"STEP",
					"output":10
				},
				{
					"input":7,
					"interpolation":"STEP",
					"output":11
				},
				{
					"input":7,
					"interpolation":"STEP",
					"output":12
				},
				{
					"input":7,
					"interpolation":"STEP",
					"output":10
				},
				{
					"input":7,
					"interpolation":"STEP",
					"output":13
				},
				{
					"input":7,
					"interpolation":"STEP",
					"output":14
				},
				{
					"input":7,
					"interpolation":"STEP",
					"output":10
				},
				{
					"input":7,
					"interpolation":"STEP",
					"output":15
				},
				{
					"input":7,
					"interpolation":"STEP",
					"output":16
				},
				{
					"input":7,
					"interpolation":"STEP",
					"output":17
				},
				{
					"input":7,
					"interpolation":"STEP",
					"output":18
				},
				{
					"input":7,
					"interpolation":"STEP",
					"output":19
				},
				{
					"input":7,
					"interpolation":"STEP",
					"output":20
				},
				{
					"input":7,
					"interpolation":"STEP",
					"output":21
				},
				{
					"input":7,
					"interpolation":"STEP",
					"output":22
				},
				{
					"input":7,
					"interpolation":"STEP",
					"output":23
				},
				{
					"input":7,
					"interpolation":"STEP",
					"output":24
				},
				{
					"input":7,
					"interpolation":"STEP",
					"output":25
				},
				{
					"input":7,
					"interpolation":"STEP",
					"output":26
				},
				{
					"input":7,
					"interpolation":"STEP",
					"output":27
				},
				{
					"input":7,
					"interpolation":"STEP",
					"output":28
				},
				{
					"input":7,
					"interpolation":"STEP",
					"output":23
				}
			]
		},
		{
			"channels":[
				{
					"sampler":0,
					"target":{
						"node":7,
						"path":"translation"
					}
				},
				{
					"sampler":1,
					"target":{
						"node":7,
						"path":"rotation"
					}
				},
				{
					"sampler":2,
					"target":{
						"node":7,
						"path":"scale"
					}
				},
				{
					"sampler":3,
					"target":{
						"node":6,
						"path":"translation"
					}
				},
				{
					"sampler":4,
					"target":{
						"node":6,
						"path":"rotation"
					}
				},
				{
					"sampler":5,
					"target":{
						"node":6,
						"path":"scale"
					}
				},
				{
					"sampler":6,
					"target":{
						"node":0,
						"path":"translation"
					}
				},
				{
					"sampler":7,
					"target":{
						"node":0,
						"path":"rotation"
					}
				},
				{
					"sampler":8,
					"target":{
						"node":0,
						"path":"scale"
					}
				},
				{
					"sampler":9,
					"target":{
						"node":3,
						"path":"translation"
					}
				},
				{
					"sampler":10,
					"target":{
						"node":3,
						"path":"rotation"
					}
				},
				{
					"sampler":11,
					"target":{
						"node":3,
						"path":"scale"
					}
				},
				{
					"sampler":12,
					"target":{
						"node":2,
						"path":"translation"
					}
				},
				{
					"sampler":13,
					"target":{
						"node":2,
						"path":"rotation"
					}
				},
				{
					"sampler":14,
					"target":{
						"node":2,
						"path":"scale"
					}
				},
				{
					"sampler":15,
					"target":{
						"node":1,
						"path":"translation"
					}
				},
				{
					"sampler":16,
					"target":{
						"node":1,
						"path":"rotation"
					}
				},
				{
					"sampler":17,
					"target":{
						"node":1,
						"path":"scale"
					}
				},
				{
					"sampler":18,
					"target":{
						"node":5,
						"path":"translation"
					}
				},
				{
					"sampler":19,
					"target":{
						"node":5,
						"path":"rotation"
					}
				},
				{
					"sampler":20,
					"target":{
						"node":5,
						"path":"scale"
					}
				},
				{
					"sampler":21,
					"target":{
						"node":4,
						"path":"translation"
					}
				},
				{
					"sampler":22,
					"target":{
						"node":4,
						"path":"rotation"
					}
				},
				{
					"sampler":23,
					"target":{
						"node":4,
						"path":"scale"
					}
				}
			],
			"name":"walk",
			"samplers":[
				{
					"input":29,
					"interpolation":"STEP",
					"output":8
				},
				{
					"input":29,
					"interpolation":"STEP",
					"output":9
				},
				{
					"input":29,
					"interpolation":"STEP",
					"output":10
				},
				{
					"input":29,
					"interpolation":"STEP",
					"output":11
				},
				{
					"input":29,
					"interpolation":"STEP",
					"output":12
				},
				{
					"input":29,
					"interpolation":"STEP",
					"output":10
				},
				{
					"input":29,
					"interpolation":"STEP",
					"output":13
				},
				{
					"input":29,
					"interpolation":"STEP",
					"output":14
				},
				{
					"input":29,
					"interpolation":"STEP",
					"output":10
				},
				{
					"input":29,
					"interpolation":"STEP",
					"output":30
				},
				{
					"input":29,
					"interpolation":"STEP",
					"output":31
				},
				{
					"input":29,
					"interpolation":"STEP",
					"output":32
				},
				{
					"input":29,
					"interpolation":"STEP",
					"output":33
				},
				{
					"input":34,
					"interpolation":"LINEAR",
					"output":35
				},
				{
					"input":29,
					"interpolation":"STEP",
					"output":36
				},
				{
					"input":29,
					"interpolation":"STEP",
					"output":37
				},
				{
					"input":34,
					"interpolation":"LINEAR",
					"output":38
				},
				{
					"input":29,
					"interpolation":"STEP",
					"output":39
				},
				{
					"input":29,
					"interpolation":"STEP",
					"output":40
				},
				{
					"input":29,
					"interpolation":"STEP",
					"output":41
				},
				{
					"input":29,
					"interpolation":"STEP",
					"output":42
				},
				{
					"input":29,
					"interpolation":"STEP",
					"output":43
				},
				{
					"input":34,
					"interpolation":"LINEAR",
					"output":44
				},
				{
					"input":29,
					"interpolation":"STEP",
					"output":45
				}
			]
		}
	],
	"meshes":[
		{
			"name":"\u7acb\u65b9\u4f53.001",
			"primitives":[
				{
					"attributes":{
						"POSITION":0,
						"NORMAL":1,
						"TEXCOORD_0":2,
						"JOINTS_0":3,
						"WEIGHTS_0":4
					},
					"indices":5
				}
			]
		}
	],
	"skins":[
		{
			"inverseBindMatrices":6,
			"joints":[
				7,
				6,
				0,
				3,
				2,
				1,
				5,
				4
			],
			"name":"\u30a2\u30fc\u30de\u30c1\u30e5\u30a2"
		}
	],
	"accessors":[
		{
			"bufferView":0,
			"componentType":5126,
			"count":875,
			"max":[
				0.893525242805481,
				1.5479768514633179,
				2.3647758960723877
			],
			"min":[
				-0.9624426364898682,
				-0.052886635065078735,
				-0.4379204511642456
			],
			"type":"VEC3"
		},
		{
			"bufferView":1,
			"componentType":5126,
			"count":875,
			"type":"VEC3"
		},
		{
			"bufferView":2,
			"componentType":5126,
			"count":875,
			"type":"VEC2"
		},
		{
			"bufferView":3,
			"componentType":5121,
			"count":875,
			"type":"VEC4"
		},
		{
			"bufferView":4,
			"componentType":5126,
			"count":875,
			"type":"VEC4"
		},
		{
			"bufferView":5,
			"componentType":5123,
			"count":3132,
			"type":"SCALAR"
		},
		{
			"bufferView":6,
			"componentType":5126,
			"count":8,
			"type":"MAT4"
		},
		{
			"bufferView":7,
			"componentType":5126,
			"count":2,
			"max":[
				0.5416666666666666
			],
			"min":[
				0
			],
			"type":"SCALAR"
		},
		{
			"bufferView":8,
			"componentType":5126,
			"count":2,
			"type":"VEC3"
		},
		{
			"bufferView":9,
			"componentType":5126,
			"count":2,
			"type":"VEC4"
		},
		{
			"bufferView":10,
			"componentType":5126,
			"count":2,
			"type":"VEC3"
		},
		{
			"bufferView":11,
			"componentType":5126,
			"count":2,
			"type":"VEC3"
		},
		{
			"bufferView":12,
			"componentType":5126,
			"count":2,
			"type":"VEC4"
		},
		{
			"bufferView":13,
			"componentType":5126,
			"count":2,
			"type":"VEC3"
		},
		{
			"bufferView":14,
			"componentType":5126,
			"count":2,
			"type":"VEC4"
		},
		{
			"bufferView":15,
			"componentType":5126,
			"count":2,
			"type":"VEC3"
		},
		{
			"bufferView":16,
			"componentType":5126,
			"count":2,
			"type":"VEC4"
		},
		{
			"bufferView":17,
			"componentType":5126,
			"count":2,
			"type":"VEC3"
		},
		{
			"bufferView":18,
			"componentType":5126,
			"count":2,
			"type":"VEC3"
		},
		{
			"bufferView":19,
			"componentType":5126,
			"count":2,
			"type":"VEC4"
		},
		{
			"bufferView":20,
			"componentType":5126,
			"count":2,
			"type":"VEC3"
		},
		{
			"bufferView":21,
			"componentType":5126,
			"count":2,
			"type":"VEC3"
		},
		{
			"bufferView":22,
			"componentType":5126,
			"count":2,
			"type":"VEC4"
		},
		{
			"bufferView":23,
			"componentType":5126,
			"count":2,
			"type":"VEC3"
		},
		{
			"bufferView":24,
			"componentType":5126,
			"count":2,
			"type":"VEC3"
		},
		{
			"bufferView":25,
			"componentType":5126,
			"count":2,
			"type":"VEC4"
		},
		{
			"bufferView":26,
			"componentType":5126,
			"count":2,
			"type":"VEC3"
		},
		{
			"bufferView":27,
			"componentType":5126,
			"count":2,
			"type":"VEC3"
		},
		{
			"bufferView":28,
			"componentType":5126,
			"count":2,
			"type":"VEC4"
		},
		{
			"bufferView":29,
			"componentType":5126,
			"count":2,
			"max":[
				1
			],
			"min":[
				0
			],
			"type":"SCALAR"
		},
		{
			"bufferView":30,
			"componentType":5126,
			"count":2,
			"type":"VEC3"
		},
		{
			"bufferView":31,
			"componentType":5126,
			"count":2,
			"type":"VEC4"
		},
		{
			"bufferView":32,
			"componentType":5126,
			"count":2,
			"type":"VEC3"
		},
		{
			"bufferView":33,
			"componentType":5126,
			"count":2,
			"type":"VEC3"
		},
		{
			"bufferView":34,
			"componentType":5126,
			"count":25,
			"max":[
				1
			],
			"min":[
				0
			],
			"type":"SCALAR"
		},
		{
			"bufferView":35,
			"componentType":5126,
			"count":25,
			"type":"VEC4"
		},
		{
			"bufferView":36,
			"componentType":5126,
			"count":2,
			"type":"VEC3"
		},
		{
			"bufferView":37,
			"componentType":5126,
			"count":2,
			"type":"VEC3"
		},
		{
			"bufferView":38,
			"componentType":5126,
			"count":25,
			"type":"VEC4"
		},
		{
			"bufferView":39,
			"componentType":5126,
			"count":2,
			"type":"VEC3"
		},
		{
			"bufferView":40,
			"componentType":5126,
			"count":2,
			"type":"VEC3"
		},
		{
			"bufferView":41,
			"componentType":5126,
			"count":2,
			"type":"VEC4"
		},
		{
			"bufferView":42,
			"componentType":5126,
			"count":2,
			"type":"VEC3"
		},
		{
			"bufferView":43,
			"componentType":5126,
			"count":2,
			"type":"VEC3"
		},
		{
			"bufferView":44,
			"componentType":5126,
			"count":25,
			"type":"VEC4"
		},
		{
			"bufferView":45,
			"componentType":5126,
			"count":2,
			"type":"VEC3"
		}
	],
	"bufferViews":[
		{
			"buffer":0,
			"byteLength":10500,
			"byteOffset":0,
			"target":34962
		},
		{
			"buffer":0,
			"byteLength":10500,
			"byteOffset":10500,
			"target":34962
		},
		{
			"buffer":0,
			"byteLength":7000,
			"byteOffset":21000,
			"target":34962
		},
		{
			"buffer":0,
			"byteLength":3500,
			"byteOffset":28000,
			"target":34962
		},
		{
			"buffer":0,
			"byteLength":14000,
			"byteOffset":31500,
			"target":34962
		},
		{
			"buffer":0,
			"byteLength":6264,
			"byteOffset":45500,
			"target":34963
		},
		{
			"buffer":0,
			"byteLength":512,
			"byteOffset":51764
		},
		{
			"buffer":0,
			"byteLength":8,
			"byteOffset":52276
		},
		{
			"buffer":0,
			"byteLength":24,
			"byteOffset":52284
		},
		{
			"buffer":0,
			"byteLength":32,
			"byteOffset":52308
		},
		{
			"buffer":0,
			"byteLength":24,
			"byteOffset":52340
		},
		{
			"buffer":0,
			"byteLength":24,
			"byteOffset":52364
		},
		{
			"buffer":0,
			"byteLength":32,
			"byteOffset":52388
		},
		{
			"buffer":0,
			"byteLength":24,
			"byteOffset":52420
		},
		{
			"buffer":0,
			"byteLength":32,
			"byteOffset":52444
		},
		{
			"buffer":0,
			"byteLength":24,
			"byteOffset":52476
		},
		{
			"buffer":0,
			"byteLength":32,
			"byteOffset":52500
		},
		{
			"buffer":0,
			"byteLength":24,
			"byteOffset":52532
		},
		{
			"buffer":0,
			"byteLength":24,
			"byteOffset":52556
		},
		{
			"buffer":0,
			"byteLength":32,
			"byteOffset":52580
		},
		{
			"buffer":0,
			"byteLength":24,
			"byteOffset":52612
		},
		{
			"buffer":0,
			"byteLength":24,
			"byteOffset":52636
		},
		{
			"buffer":0,
			"byteLength":32,
			"byteOffset":52660
		},
		{
			"buffer":0,
			"byteLength":24,
			"byteOffset":52692
		},
		{
			"buffer":0,
			"byteLength":24,
			"byteOffset":52716
		},
		{
			"buffer":0,
			"byteLength":32,
			"byteOffset":52740
		},
		{
			"buffer":0,
			"byteLength":24,
			"byteOffset":52772
		},
		{
			"buffer":0,
			"byteLength":24,
			"byteOffset":52796
		},
		{
			"buffer":0,
			"byteLength":32,
			"byteOffset":52820
		},
		{
			"buffer":0,
			"byteLength":8,
			"byteOffset":52852
		},
		{
			"buffer":0,
			"byteLength":24,
			"byteOffset":52860
		},
		{
			"buffer":0,
			"byteLength":32,
			"byteOffset":52884
		},
		{
			"buffer":0,
			"byteLength":24,
			"byteOffset":52916
		},
		{
			"buffer":0,
			"byteLength":24,
			"byteOffset":52940
		},
		{
			"buffer":0,
			"byteLength":100,
			"byteOffset":52964
		},
		{
			"buffer":0,
			"byteLength":400,
			"byteOffset":53064
		},
		{
			"buffer":0,
			"byteLength":24,
			"byteOffset":53464
		},
		{
			"buffer":0,
			"byteLength":24,
			"byteOffset":53488
		},
		{
			"buffer":0,
			"byteLength":400,
			"byteOffset":53512
		},
		{
			"buffer":0,
			"byteLength":24,
			"byteOffset":53912
		},
		{
			"buffer":0,
			"byteLength":24,
			"byteOffset":53936
		},
		{
			"buffer":0,
			"byteLength":32,
			"byteOffset":53960
		},
		{
			"buffer":0,
			"byteLength":24,
			"byteOffset":53992
		},
		{
			"buffer":0,
			"byteLength":24,
			"byteOffset":54016
		},
		{
			"buffer":0,
			"byteLength":400,
			"byteOffset":54040
		},
		{
			"buffer":0,
			"byteLength":24,
			"byteOffset":54440
		}
	],
	"buffers":[
		{
			"byteLength":54464,
			"uri":"PlayerWalk.bin"
		}
	]
}
