{
	"asset":{
		"generator":"Khronos glTF Blender I/O v4.4.56",
		"version":"2.0"
	},
	"scene":0,
	"scenes":[
		{
			"name":"Scene",
			"nodes":[
				16
			]
		}
	],
	"nodes":[
		{
			"name":"\u30dc\u30fc\u30f3.004",
			"rotation":[
				1.1857978599039143e-08,
				6.443752909035538e-08,
				-0.04271664470434189,
				0.9990872740745544
			],
			"scale":[
				0.9999999403953552,
				0.9999998807907104,
				1
			],
			"translation":[
				5.867485342037071e-08,
				0.5690717697143555,
				2.9895375064370455e-10
			]
		},
		{
			"children":[
				0
			],
			"name":"\u30dc\u30fc\u30f3.003",
			"rotation":[
				4.047665669304479e-08,
				2.7297524241021165e-08,
				-0.2186441421508789,
				0.9758046269416809
			],
			"translation":[
				-3.9382925365316623e-07,
				0.8039423823356628,
				-2.67174948831439e-10
			]
		},
		{
			"children":[
				1
			],
			"name":"\u30dc\u30fc\u30f3.002",
			"rotation":[
				-1.8699306281177996e-07,
				1.8470409202109295e-08,
				0.7043175101280212,
				0.7098851203918457
			],
			"translation":[
				-6.634052751586239e-10,
				0.3924809694290161,
				-7.469225238310173e-11
			]
		},
		{
			"name":"\u30dc\u30fc\u30f3.014",
			"rotation":[
				-0.0019701889250427485,
				-5.757552767882146e-10,
				0.7065249681472778,
				0.7076854109764099
			],
			"scale":[
				0.9999999403953552,
				0.9999998807907104,
				1
			],
			"translation":[
				-6.202570546065544e-08,
				0.513515830039978,
				4.757794158649631e-11
			]
		},
		{
			"children":[
				3
			],
			"name":"\u30dc\u30fc\u30f3.007",
			"rotation":[
				-3.5720887581192073e-08,
				4.2925030641072226e-08,
				0.037876155227422714,
				0.9992824792861938
			],
			"scale":[
				1,
				1.0000001192092896,
				1
			],
			"translation":[
				8.723830546841782e-08,
				0.5916829109191895,
				1.7419665709894616e-10
			]
		},
		{
			"children":[
				4
			],
			"name":"\u30dc\u30fc\u30f3.006",
			"rotation":[
				-1.626106609364797e-07,
				1.3647368746205757e-07,
				0.21383874118328094,
				0.9768689870834351
			],
			"scale":[
				1,
				0.9999998807907104,
				1
			],
			"translation":[
				1.318256863669376e-07,
				0.8231267929077148,
				-1.0000844596902425e-10
			]
		},
		{
			"children":[
				5
			],
			"name":"\u30dc\u30fc\u30f3.005",
			"rotation":[
				2.5218292876161286e-07,
				8.976628862455982e-08,
				-0.698902428150177,
				0.7152170538902283
			],
			"scale":[
				1,
				0.9999999403953552,
				1
			],
			"translation":[
				-6.634052751586239e-10,
				0.3924809694290161,
				-7.469225238310173e-11
			]
		},
		{
			"name":"\u30dc\u30fc\u30f3.009",
			"translation":[
				-6.634053306697751e-10,
				0.38613343238830566,
				-7.470646323781693e-11
			]
		},
		{
			"children":[
				7
			],
			"name":"\u30dc\u30fc\u30f3.008",
			"rotation":[
				0,
				1.4210854715202004e-14,
				0,
				1
			],
			"translation":[
				-6.634052751586239e-10,
				0.3924809694290161,
				-7.469225238310173e-11
			]
		},
		{
			"children":[
				2,
				6,
				8
			],
			"name":"\u30dc\u30fc\u30f3.001",
			"rotation":[
				0,
				1.1920927533992653e-07,
				0,
				1
			],
			"scale":[
				1,
				0.9999999403953552,
				1
			],
			"translation":[
				0,
				0.9999999403953552,
				0
			]
		},
		{
			"children":[
				9
			],
			"name":"\u30dc\u30fc\u30f3"
		},
		{
			"name":"\u30dc\u30fc\u30f3.011",
			"rotation":[
				-0.5577096939086914,
				-3.708443330197042e-08,
				9.515041199392726e-08,
				0.8300361037254333
			],
			"scale":[
				1,
				0.9999999403953552,
				1
			],
			"translation":[
				-6.679545805354792e-12,
				0.35589343309402466,
				-2.2349189165993266e-08
			]
		},
		{
			"children":[
				11
			],
			"name":"\u30dc\u30fc\u30f3.010",
			"rotation":[
				-0.5217595100402832,
				0.4772494435310364,
				0.5217595100402832,
				0.477249413728714
			]
		},
		{
			"name":"\u30dc\u30fc\u30f3.013",
			"rotation":[
				-0.5537907481193542,
				-2.2545971756215977e-09,
				-5.197639652010366e-08,
				0.8326559066772461
			],
			"scale":[
				1,
				0.9999999403953552,
				0.9999999403953552
			],
			"translation":[
				6.532108187684571e-12,
				0.3680155277252197,
				-4.4821167222153235e-08
			]
		},
		{
			"children":[
				13
			],
			"name":"\u30dc\u30fc\u30f3.012",
			"rotation":[
				-0.5169144868850708,
				-0.48249301314353943,
				-0.5169143676757812,
				0.48249298334121704
			],
			"scale":[
				1,
				0.9999999403953552,
				0.9999999403953552
			]
		},
		{
			"mesh":0,
			"name":"\u7acb\u65b9\u4f53.001",
			"skin":0
		},
		{
			"children":[
				15,
				10,
				12,
				14
			],
			"name":"\u30a2\u30fc\u30de\u30c1\u30e5\u30a2",
			"translation":[
				-0.48371177911758423,
				0.7479010224342346,
				0.0027825236320495605
			]
		}
	],
	"animations":[
		{
			"channels":[
				{
					"sampler":0,
					"target":{
						"node":10,
						"path":"translation"
					}
				},
				{
					"sampler":1,
					"target":{
						"node":10,
						"path":"rotation"
					}
				},
				{
					"sampler":2,
					"target":{
						"node":10,
						"path":"scale"
					}
				},
				{
					"sampler":3,
					"target":{
						"node":9,
						"path":"translation"
					}
				},
				{
					"sampler":4,
					"target":{
						"node":9,
						"path":"rotation"
					}
				},
				{
					"sampler":5,
					"target":{
						"node":9,
						"path":"scale"
					}
				},
				{
					"sampler":6,
					"target":{
						"node":2,
						"path":"translation"
					}
				},
				{
					"sampler":7,
					"target":{
						"node":2,
						"path":"rotation"
					}
				},
				{
					"sampler":8,
					"target":{
						"node":2,
						"path":"scale"
					}
				},
				{
					"sampler":9,
					"target":{
						"node":1,
						"path":"translation"
					}
				},
				{
					"sampler":10,
					"target":{
						"node":1,
						"path":"rotation"
					}
				},
				{
					"sampler":11,
					"target":{
						"node":1,
						"path":"scale"
					}
				},
				{
					"sampler":12,
					"target":{
						"node":0,
						"path":"translation"
					}
				},
				{
					"sampler":13,
					"target":{
						"node":0,
						"path":"rotation"
					}
				},
				{
					"sampler":14,
					"target":{
						"node":0,
						"path":"scale"
					}
				},
				{
					"sampler":15,
					"target":{
						"node":6,
						"path":"translation"
					}
				},
				{
					"sampler":16,
					"target":{
						"node":6,
						"path":"rotation"
					}
				},
				{
					"sampler":17,
					"target":{
						"node":6,
						"path":"scale"
					}
				},
				{
					"sampler":18,
					"target":{
						"node":5,
						"path":"translation"
					}
				},
				{
					"sampler":19,
					"target":{
						"node":5,
						"path":"rotation"
					}
				},
				{
					"sampler":20,
					"target":{
						"node":5,
						"path":"scale"
					}
				},
				{
					"sampler":21,
					"target":{
						"node":4,
						"path":"translation"
					}
				},
				{
					"sampler":22,
					"target":{
						"node":4,
						"path":"rotation"
					}
				},
				{
					"sampler":23,
					"target":{
						"node":4,
						"path":"scale"
					}
				},
				{
					"sampler":24,
					"target":{
						"node":3,
						"path":"translation"
					}
				},
				{
					"sampler":25,
					"target":{
						"node":3,
						"path":"rotation"
					}
				},
				{
					"sampler":26,
					"target":{
						"node":3,
						"path":"scale"
					}
				},
				{
					"sampler":27,
					"target":{
						"node":8,
						"path":"translation"
					}
				},
				{
					"sampler":28,
					"target":{
						"node":8,
						"path":"rotation"
					}
				},
				{
					"sampler":29,
					"target":{
						"node":8,
						"path":"scale"
					}
				},
				{
					"sampler":30,
					"target":{
						"node":7,
						"path":"translation"
					}
				},
				{
					"sampler":31,
					"target":{
						"node":7,
						"path":"rotation"
					}
				},
				{
					"sampler":32,
					"target":{
						"node":7,
						"path":"scale"
					}
				},
				{
					"sampler":33,
					"target":{
						"node":12,
						"path":"translation"
					}
				},
				{
					"sampler":34,
					"target":{
						"node":12,
						"path":"rotation"
					}
				},
				{
					"sampler":35,
					"target":{
						"node":12,
						"path":"scale"
					}
				},
				{
					"sampler":36,
					"target":{
						"node":11,
						"path":"translation"
					}
				},
				{
					"sampler":37,
					"target":{
						"node":11,
						"path":"rotation"
					}
				},
				{
					"sampler":38,
					"target":{
						"node":11,
						"path":"scale"
					}
				},
				{
					"sampler":39,
					"target":{
						"node":14,
						"path":"translation"
					}
				},
				{
					"sampler":40,
					"target":{
						"node":14,
						"path":"rotation"
					}
				},
				{
					"sampler":41,
					"target":{
						"node":14,
						"path":"scale"
					}
				},
				{
					"sampler":42,
					"target":{
						"node":13,
						"path":"translation"
					}
				},
				{
					"sampler":43,
					"target":{
						"node":13,
						"path":"rotation"
					}
				},
				{
					"sampler":44,
					"target":{
						"node":13,
						"path":"scale"
					}
				}
			],
			"name":"damage",
			"samplers":[
				{
					"input":7,
					"interpolation":"STEP",
					"output":8
				},
				{
					"input":9,
					"interpolation":"LINEAR",
					"output":10
				},
				{
					"input":7,
					"interpolation":"STEP",
					"output":11
				},
				{
					"input":7,
					"interpolation":"LINEAR",
					"output":12
				},
				{
					"input":7,
					"interpolation":"LINEAR",
					"output":13
				},
				{
					"input":7,
					"interpolation":"STEP",
					"output":14
				},
				{
					"input":7,
					"interpolation":"LINEAR",
					"output":15
				},
				{
					"input":7,
					"interpolation":"LINEAR",
					"output":16
				},
				{
					"input":7,
					"interpolation":"STEP",
					"output":17
				},
				{
					"input":7,
					"interpolation":"LINEAR",
					"output":18
				},
				{
					"input":7,
					"interpolation":"LINEAR",
					"output":19
				},
				{
					"input":7,
					"interpolation":"STEP",
					"output":20
				},
				{
					"input":7,
					"interpolation":"LINEAR",
					"output":21
				},
				{
					"input":7,
					"interpolation":"LINEAR",
					"output":22
				},
				{
					"input":7,
					"interpolation":"LINEAR",
					"output":23
				},
				{
					"input":7,
					"interpolation":"LINEAR",
					"output":24
				},
				{
					"input":7,
					"interpolation":"LINEAR",
					"output":25
				},
				{
					"input":7,
					"interpolation":"STEP",
					"output":26
				},
				{
					"input":7,
					"interpolation":"LINEAR",
					"output":27
				},
				{
					"input":7,
					"interpolation":"LINEAR",
					"output":28
				},
				{
					"input":7,
					"interpolation":"LINEAR",
					"output":29
				},
				{
					"input":7,
					"interpolation":"LINEAR",
					"output":30
				},
				{
					"input":7,
					"interpolation":"LINEAR",
					"output":31
				},
				{
					"input":7,
					"interpolation":"LINEAR",
					"output":32
				},
				{
					"input":7,
					"interpolation":"LINEAR",
					"output":33
				},
				{
					"input":7,
					"interpolation":"LINEAR",
					"output":34
				},
				{
					"input":7,
					"interpolation":"STEP",
					"output":35
				},
				{
					"input":7,
					"interpolation":"LINEAR",
					"output":36
				},
				{
					"input":7,
					"interpolation":"LINEAR",
					"output":37
				},
				{
					"input":7,
					"interpolation":"STEP",
					"output":38
				},
				{
					"input":7,
					"interpolation":"LINEAR",
					"output":39
				},
				{
					"input":9,
					"interpolation":"LINEAR",
					"output":40
				},
				{
					"input":7,
					"interpolation":"STEP",
					"output":41
				},
				{
					"input":7,
					"interpolation":"STEP",
					"output":42
				},
				{
					"input":7,
					"interpolation":"STEP",
					"output":43
				},
				{
					"input":7,
					"interpolation":"STEP",
					"output":44
				},
				{
					"input":7,
					"interpolation":"STEP",
					"output":45
				},
				{
					"input":7,
					"interpolation":"STEP",
					"output":46
				},
				{
					"input":7,
					"interpolation":"STEP",
					"output":47
				},
				{
					"input":7,
					"interpolation":"STEP",
					"output":48
				},
				{
					"input":7,
					"interpolation":"STEP",
					"output":49
				},
				{
					"input":7,
					"interpolation":"STEP",
					"output":50
				},
				{
					"input":7,
					"interpolation":"STEP",
					"output":51
				},
				{
					"input":7,
					"interpolation":"STEP",
					"output":52
				},
				{
					"input":7,
					"interpolation":"STEP",
					"output":53
				}
			]
		}
	],
	"meshes":[
		{
			"name":"\u7acb\u65b9\u4f53.001",
			"primitives":[
				{
					"attributes":{
						"POSITION":0,
						"NORMAL":1,
						"TEXCOORD_0":2,
						"JOINTS_0":3,
						"WEIGHTS_0":4
					},
					"indices":5
				}
			]
		}
	],
	"skins":[
		{
			"inverseBindMatrices":6,
			"joints":[
				10,
				9,
				2,
				1,
				0,
				6,
				5,
				4,
				3,
				8,
				7,
				12,
				11,
				14,
				13
			],
			"name":"\u30a2\u30fc\u30de\u30c1\u30e5\u30a2"
		}
	],
	"accessors":[
		{
			"bufferView":0,
			"componentType":5126,
			"count":3094,
			"max":[
				1.6007311344146729,
				5.084989547729492,
				0.8504744172096252
			],
			"min":[
				-2.4443647861480713,
				0,
				-1.1677346229553223
			],
			"type":"VEC3"
		},
		{
			"bufferView":1,
			"componentType":5126,
			"count":3094,
			"type":"VEC3"
		},
		{
			"bufferView":2,
			"componentType":5126,
			"count":3094,
			"type":"VEC2"
		},
		{
			"bufferView":3,
			"componentType":5121,
			"count":3094,
			"type":"VEC4"
		},
		{
			"bufferView":4,
			"componentType":5126,
			"count":3094,
			"type":"VEC4"
		},
		{
			"bufferView":5,
			"componentType":5123,
			"count":5064,
			"type":"SCALAR"
		},
		{
			"bufferView":6,
			"componentType":5126,
			"count":15,
			"type":"MAT4"
		},
		{
			"bufferView":7,
			"componentType":5126,
			"count":2,
			"max":[
				0.06666666666666667
			],
			"min":[
				0
			],
			"type":"SCALAR"
		},
		{
			"bufferView":8,
			"componentType":5126,
			"count":2,
			"type":"VEC3"
		},
		{
			"bufferView":9,
			"componentType":5126,
			"count":5,
			"max":[
				0.06666666666666667
			],
			"min":[
				0
			],
			"type":"SCALAR"
		},
		{
			"bufferView":10,
			"componentType":5126,
			"count":5,
			"type":"VEC4"
		},
		{
			"bufferView":11,
			"componentType":5126,
			"count":2,
			"type":"VEC3"
		},
		{
			"bufferView":12,
			"componentType":5126,
			"count":2,
			"type":"VEC3"
		},
		{
			"bufferView":13,
			"componentType":5126,
			"count":2,
			"type":"VEC4"
		},
		{
			"bufferView":14,
			"componentType":5126,
			"count":2,
			"type":"VEC3"
		},
		{
			"bufferView":15,
			"componentType":5126,
			"count":2,
			"type":"VEC3"
		},
		{
			"bufferView":16,
			"componentType":5126,
			"count":2,
			"type":"VEC4"
		},
		{
			"bufferView":17,
			"componentType":5126,
			"count":2,
			"type":"VEC3"
		},
		{
			"bufferView":18,
			"componentType":5126,
			"count":2,
			"type":"VEC3"
		},
		{
			"bufferView":19,
			"componentType":5126,
			"count":2,
			"type":"VEC4"
		},
		{
			"bufferView":20,
			"componentType":5126,
			"count":2,
			"type":"VEC3"
		},
		{
			"bufferView":21,
			"componentType":5126,
			"count":2,
			"type":"VEC3"
		},
		{
			"bufferView":22,
			"componentType":5126,
			"count":2,
			"type":"VEC4"
		},
		{
			"bufferView":23,
			"componentType":5126,
			"count":2,
			"type":"VEC3"
		},
		{
			"bufferView":24,
			"componentType":5126,
			"count":2,
			"type":"VEC3"
		},
		{
			"bufferView":25,
			"componentType":5126,
			"count":2,
			"type":"VEC4"
		},
		{
			"bufferView":26,
			"componentType":5126,
			"count":2,
			"type":"VEC3"
		},
		{
			"bufferView":27,
			"componentType":5126,
			"count":2,
			"type":"VEC3"
		},
		{
			"bufferView":28,
			"componentType":5126,
			"count":2,
			"type":"VEC4"
		},
		{
			"bufferView":29,
			"componentType":5126,
			"count":2,
			"type":"VEC3"
		},
		{
			"bufferView":30,
			"componentType":5126,
			"count":2,
			"type":"VEC3"
		},
		{
			"bufferView":31,
			"componentType":5126,
			"count":2,
			"type":"VEC4"
		},
		{
			"bufferView":32,
			"componentType":5126,
			"count":2,
			"type":"VEC3"
		},
		{
			"bufferView":33,
			"componentType":5126,
			"count":2,
			"type":"VEC3"
		},
		{
			"bufferView":34,
			"componentType":5126,
			"count":2,
			"type":"VEC4"
		},
		{
			"bufferView":35,
			"componentType":5126,
			"count":2,
			"type":"VEC3"
		},
		{
			"bufferView":36,
			"componentType":5126,
			"count":2,
			"type":"VEC3"
		},
		{
			"bufferView":37,
			"componentType":5126,
			"count":2,
			"type":"VEC4"
		},
		{
			"bufferView":38,
			"componentType":5126,
			"count":2,
			"type":"VEC3"
		},
		{
			"bufferView":39,
			"componentType":5126,
			"count":2,
			"type":"VEC3"
		},
		{
			"bufferView":40,
			"componentType":5126,
			"count":5,
			"type":"VEC4"
		},
		{
			"bufferView":41,
			"componentType":5126,
			"count":2,
			"type":"VEC3"
		},
		{
			"bufferView":42,
			"componentType":5126,
			"count":2,
			"type":"VEC3"
		},
		{
			"bufferView":43,
			"componentType":5126,
			"count":2,
			"type":"VEC4"
		},
		{
			"bufferView":44,
			"componentType":5126,
			"count":2,
			"type":"VEC3"
		},
		{
			"bufferView":45,
			"componentType":5126,
			"count":2,
			"type":"VEC3"
		},
		{
			"bufferView":46,
			"componentType":5126,
			"count":2,
			"type":"VEC4"
		},
		{
			"bufferView":47,
			"componentType":5126,
			"count":2,
			"type":"VEC3"
		},
		{
			"bufferView":48,
			"componentType":5126,
			"count":2,
			"type":"VEC3"
		},
		{
			"bufferView":49,
			"componentType":5126,
			"count":2,
			"type":"VEC4"
		},
		{
			"bufferView":50,
			"componentType":5126,
			"count":2,
			"type":"VEC3"
		},
		{
			"bufferView":51,
			"componentType":5126,
			"count":2,
			"type":"VEC3"
		},
		{
			"bufferView":52,
			"componentType":5126,
			"count":2,
			"type":"VEC4"
		},
		{
			"bufferView":53,
			"componentType":5126,
			"count":2,
			"type":"VEC3"
		}
	],
	"bufferViews":[
		{
			"buffer":0,
			"byteLength":37128,
			"byteOffset":0,
			"target":34962
		},
		{
			"buffer":0,
			"byteLength":37128,
			"byteOffset":37128,
			"target":34962
		},
		{
			"buffer":0,
			"byteLength":24752,
			"byteOffset":74256,
			"target":34962
		},
		{
			"buffer":0,
			"byteLength":12376,
			"byteOffset":99008,
			"target":34962
		},
		{
			"buffer":0,
			"byteLength":49504,
			"byteOffset":111384,
			"target":34962
		},
		{
			"buffer":0,
			"byteLength":10128,
			"byteOffset":160888,
			"target":34963
		},
		{
			"buffer":0,
			"byteLength":960,
			"byteOffset":171016
		},
		{
			"buffer":0,
			"byteLength":8,
			"byteOffset":171976
		},
		{
			"buffer":0,
			"byteLength":24,
			"byteOffset":171984
		},
		{
			"buffer":0,
			"byteLength":20,
			"byteOffset":172008
		},
		{
			"buffer":0,
			"byteLength":80,
			"byteOffset":172028
		},
		{
			"buffer":0,
			"byteLength":24,
			"byteOffset":172108
		},
		{
			"buffer":0,
			"byteLength":24,
			"byteOffset":172132
		},
		{
			"buffer":0,
			"byteLength":32,
			"byteOffset":172156
		},
		{
			"buffer":0,
			"byteLength":24,
			"byteOffset":172188
		},
		{
			"buffer":0,
			"byteLength":24,
			"byteOffset":172212
		},
		{
			"buffer":0,
			"byteLength":32,
			"byteOffset":172236
		},
		{
			"buffer":0,
			"byteLength":24,
			"byteOffset":172268
		},
		{
			"buffer":0,
			"byteLength":24,
			"byteOffset":172292
		},
		{
			"buffer":0,
			"byteLength":32,
			"byteOffset":172316
		},
		{
			"buffer":0,
			"byteLength":24,
			"byteOffset":172348
		},
		{
			"buffer":0,
			"byteLength":24,
			"byteOffset":172372
		},
		{
			"buffer":0,
			"byteLength":32,
			"byteOffset":172396
		},
		{
			"buffer":0,
			"byteLength":24,
			"byteOffset":172428
		},
		{
			"buffer":0,
			"byteLength":24,
			"byteOffset":172452
		},
		{
			"buffer":0,
			"byteLength":32,
			"byteOffset":172476
		},
		{
			"buffer":0,
			"byteLength":24,
			"byteOffset":172508
		},
		{
			"buffer":0,
			"byteLength":24,
			"byteOffset":172532
		},
		{
			"buffer":0,
			"byteLength":32,
			"byteOffset":172556
		},
		{
			"buffer":0,
			"byteLength":24,
			"byteOffset":172588
		},
		{
			"buffer":0,
			"byteLength":24,
			"byteOffset":172612
		},
		{
			"buffer":0,
			"byteLength":32,
			"byteOffset":172636
		},
		{
			"buffer":0,
			"byteLength":24,
			"byteOffset":172668
		},
		{
			"buffer":0,
			"byteLength":24,
			"byteOffset":172692
		},
		{
			"buffer":0,
			"byteLength":32,
			"byteOffset":172716
		},
		{
			"buffer":0,
			"byteLength":24,
			"byteOffset":172748
		},
		{
			"buffer":0,
			"byteLength":24,
			"byteOffset":172772
		},
		{
			"buffer":0,
			"byteLength":32,
			"byteOffset":172796
		},
		{
			"buffer":0,
			"byteLength":24,
			"byteOffset":172828
		},
		{
			"buffer":0,
			"byteLength":24,
			"byteOffset":172852
		},
		{
			"buffer":0,
			"byteLength":80,
			"byteOffset":172876
		},
		{
			"buffer":0,
			"byteLength":24,
			"byteOffset":172956
		},
		{
			"buffer":0,
			"byteLength":24,
			"byteOffset":172980
		},
		{
			"buffer":0,
			"byteLength":32,
			"byteOffset":173004
		},
		{
			"buffer":0,
			"byteLength":24,
			"byteOffset":173036
		},
		{
			"buffer":0,
			"byteLength":24,
			"byteOffset":173060
		},
		{
			"buffer":0,
			"byteLength":32,
			"byteOffset":173084
		},
		{
			"buffer":0,
			"byteLength":24,
			"byteOffset":173116
		},
		{
			"buffer":0,
			"byteLength":24,
			"byteOffset":173140
		},
		{
			"buffer":0,
			"byteLength":32,
			"byteOffset":173164
		},
		{
			"buffer":0,
			"byteLength":24,
			"byteOffset":173196
		},
		{
			"buffer":0,
			"byteLength":24,
			"byteOffset":173220
		},
		{
			"buffer":0,
			"byteLength":32,
			"byteOffset":173244
		},
		{
			"buffer":0,
			"byteLength":24,
			"byteOffset":173276
		}
	],
	"buffers":[
		{
			"byteLength":173300,
			"uri":"Enemy_01_damage.bin"
		}
	]
}
