# Blender 4.4.0
# www.blender.org
mtllib Darwbridge.mtl
o 立方体
v 0.923730 -0.058071 1.986817
v 0.923730 0.058071 1.986817
v -0.923730 -0.058071 1.986817
v -0.923730 0.058071 1.986817
v 0.923730 -0.058071 1.797204
v 0.923730 0.058071 1.797204
v -0.923730 -0.058071 1.797204
v -0.923730 0.058071 1.797204
v 0.923730 -0.058071 1.778243
v 0.923730 0.058071 1.778243
v -0.923730 -0.058071 1.778243
v -0.923730 0.058071 1.778243
v 0.923730 -0.058071 1.588630
v 0.923730 0.058071 1.588630
v -0.923730 -0.058071 1.588630
v -0.923730 0.058071 1.588630
v 0.923730 -0.058071 1.569669
v 0.923730 0.058071 1.569669
v -0.923730 -0.058071 1.569669
v -0.923730 0.058071 1.569669
v 0.923730 -0.058071 1.380056
v 0.923730 0.058071 1.380056
v -0.923730 -0.058071 1.380056
v -0.923730 0.058071 1.380056
v 0.923730 -0.058071 1.361095
v 0.923730 0.058071 1.361095
v -0.923730 -0.058071 1.361095
v -0.923730 0.058071 1.361095
v 0.923730 -0.058071 1.171482
v 0.923730 0.058071 1.171482
v -0.923730 -0.058071 1.171482
v -0.923730 0.058071 1.171482
v 0.923730 -0.058071 1.152521
v 0.923730 0.058071 1.152521
v -0.923730 -0.058071 1.152521
v -0.923730 0.058071 1.152521
v 0.923730 -0.058071 0.962908
v 0.923730 0.058071 0.962908
v -0.923730 -0.058071 0.962908
v -0.923730 0.058071 0.962908
v 0.923730 -0.058071 0.943947
v 0.923730 0.058071 0.943947
v -0.923730 -0.058071 0.943947
v -0.923730 0.058071 0.943947
v 0.923730 -0.058071 0.754334
v 0.923730 0.058071 0.754334
v -0.923730 -0.058071 0.754334
v -0.923730 0.058071 0.754334
v 0.923730 -0.058071 0.735373
v 0.923730 0.058071 0.735373
v -0.923730 -0.058071 0.735373
v -0.923730 0.058071 0.735373
v 0.923730 -0.058071 0.545760
v 0.923730 0.058071 0.545760
v -0.923730 -0.058071 0.545760
v -0.923730 0.058071 0.545760
v 0.923730 -0.058071 0.526799
v 0.923730 0.058071 0.526799
v -0.923730 -0.058071 0.526799
v -0.923730 0.058071 0.526799
v 0.923730 -0.058071 0.337186
v 0.923730 0.058071 0.337186
v -0.923730 -0.058071 0.337186
v -0.923730 0.058071 0.337186
v 0.923730 -0.058071 0.318225
v 0.923730 0.058071 0.318225
v -0.923730 -0.058071 0.318225
v -0.923730 0.058071 0.318225
v 0.923730 -0.058071 0.128612
v 0.923730 0.058071 0.128612
v -0.923730 -0.058071 0.128612
v -0.923730 0.058071 0.128612
v 0.923730 -0.058071 0.109650
v 0.923730 0.058071 0.109650
v -0.923730 -0.058071 0.109650
v -0.923730 0.058071 0.109650
v 0.923730 -0.058071 -0.079962
v 0.923730 0.058071 -0.079962
v -0.923730 -0.058071 -0.079962
v -0.923730 0.058071 -0.079962
vn -0.0000 -0.0000 1.0000
vn -1.0000 -0.0000 -0.0000
vn -0.0000 -0.0000 -1.0000
vn 1.0000 -0.0000 -0.0000
vn -0.0000 -1.0000 -0.0000
vn -0.0000 1.0000 -0.0000
vt 0.625000 0.000000
vt 0.375000 0.250000
vt 0.375000 0.000000
vt 0.625000 0.250000
vt 0.375000 0.500000
vt 0.625000 0.500000
vt 0.375000 0.750000
vt 0.625000 0.750000
vt 0.375000 1.000000
vt 0.125000 0.750000
vt 0.125000 0.500000
vt 0.875000 0.500000
vt 0.875000 0.750000
vt 0.625000 1.000000
s 0
usemtl マテリアル
f 2/1/1 3/2/1 1/3/1
f 4/4/2 7/5/2 3/2/2
f 8/6/3 5/7/3 7/5/3
f 6/8/4 1/9/4 5/7/4
f 7/5/5 1/10/5 3/11/5
f 4/12/6 6/8/6 8/6/6
f 10/1/1 11/2/1 9/3/1
f 12/4/2 15/5/2 11/2/2
f 16/6/3 13/7/3 15/5/3
f 14/8/4 9/9/4 13/7/4
f 15/5/5 9/10/5 11/11/5
f 12/12/6 14/8/6 16/6/6
f 18/1/1 19/2/1 17/3/1
f 20/4/2 23/5/2 19/2/2
f 24/6/3 21/7/3 23/5/3
f 22/8/4 17/9/4 21/7/4
f 23/5/5 17/10/5 19/11/5
f 20/12/6 22/8/6 24/6/6
f 26/1/1 27/2/1 25/3/1
f 28/4/2 31/5/2 27/2/2
f 32/6/3 29/7/3 31/5/3
f 30/8/4 25/9/4 29/7/4
f 31/5/5 25/10/5 27/11/5
f 28/12/6 30/8/6 32/6/6
f 34/1/1 35/2/1 33/3/1
f 36/4/2 39/5/2 35/2/2
f 40/6/3 37/7/3 39/5/3
f 38/8/4 33/9/4 37/7/4
f 35/11/5 37/7/5 33/10/5
f 40/6/6 34/13/6 38/8/6
f 42/1/1 43/2/1 41/3/1
f 44/4/2 47/5/2 43/2/2
f 48/6/3 45/7/3 47/5/3
f 46/8/4 41/9/4 45/7/4
f 47/5/5 41/10/5 43/11/5
f 44/12/6 46/8/6 48/6/6
f 50/1/1 51/2/1 49/3/1
f 52/4/2 55/5/2 51/2/2
f 56/6/3 53/7/3 55/5/3
f 54/8/4 49/9/4 53/7/4
f 55/5/5 49/10/5 51/11/5
f 52/12/6 54/8/6 56/6/6
f 58/1/1 59/2/1 57/3/1
f 60/4/2 63/5/2 59/2/2
f 64/6/3 61/7/3 63/5/3
f 62/8/4 57/9/4 61/7/4
f 63/5/5 57/10/5 59/11/5
f 60/12/6 62/8/6 64/6/6
f 66/1/1 67/2/1 65/3/1
f 68/4/2 71/5/2 67/2/2
f 72/6/3 69/7/3 71/5/3
f 70/8/4 65/9/4 69/7/4
f 71/5/5 65/10/5 67/11/5
f 68/12/6 70/8/6 72/6/6
f 74/1/1 75/2/1 73/3/1
f 76/4/2 79/5/2 75/2/2
f 80/6/3 77/7/3 79/5/3
f 78/8/4 73/9/4 77/7/4
f 79/5/5 73/10/5 75/11/5
f 76/12/6 78/8/6 80/6/6
f 2/1/1 4/4/1 3/2/1
f 4/4/2 8/6/2 7/5/2
f 8/6/3 6/8/3 5/7/3
f 6/8/4 2/14/4 1/9/4
f 7/5/5 5/7/5 1/10/5
f 4/12/6 2/13/6 6/8/6
f 10/1/1 12/4/1 11/2/1
f 12/4/2 16/6/2 15/5/2
f 16/6/3 14/8/3 13/7/3
f 14/8/4 10/14/4 9/9/4
f 15/5/5 13/7/5 9/10/5
f 12/12/6 10/13/6 14/8/6
f 18/1/1 20/4/1 19/2/1
f 20/4/2 24/6/2 23/5/2
f 24/6/3 22/8/3 21/7/3
f 22/8/4 18/14/4 17/9/4
f 23/5/5 21/7/5 17/10/5
f 20/12/6 18/13/6 22/8/6
f 26/1/1 28/4/1 27/2/1
f 28/4/2 32/6/2 31/5/2
f 32/6/3 30/8/3 29/7/3
f 30/8/4 26/14/4 25/9/4
f 31/5/5 29/7/5 25/10/5
f 28/12/6 26/13/6 30/8/6
f 34/1/1 36/4/1 35/2/1
f 36/4/2 40/6/2 39/5/2
f 40/6/3 38/8/3 37/7/3
f 38/8/4 34/14/4 33/9/4
f 35/11/5 39/5/5 37/7/5
f 40/6/6 36/12/6 34/13/6
f 42/1/1 44/4/1 43/2/1
f 44/4/2 48/6/2 47/5/2
f 48/6/3 46/8/3 45/7/3
f 46/8/4 42/14/4 41/9/4
f 47/5/5 45/7/5 41/10/5
f 44/12/6 42/13/6 46/8/6
f 50/1/1 52/4/1 51/2/1
f 52/4/2 56/6/2 55/5/2
f 56/6/3 54/8/3 53/7/3
f 54/8/4 50/14/4 49/9/4
f 55/5/5 53/7/5 49/10/5
f 52/12/6 50/13/6 54/8/6
f 58/1/1 60/4/1 59/2/1
f 60/4/2 64/6/2 63/5/2
f 64/6/3 62/8/3 61/7/3
f 62/8/4 58/14/4 57/9/4
f 63/5/5 61/7/5 57/10/5
f 60/12/6 58/13/6 62/8/6
f 66/1/1 68/4/1 67/2/1
f 68/4/2 72/6/2 71/5/2
f 72/6/3 70/8/3 69/7/3
f 70/8/4 66/14/4 65/9/4
f 71/5/5 69/7/5 65/10/5
f 68/12/6 66/13/6 70/8/6
f 74/1/1 76/4/1 75/2/1
f 76/4/2 80/6/2 79/5/2
f 80/6/3 78/8/3 77/7/3
f 78/8/4 74/14/4 73/9/4
f 79/5/5 77/7/5 73/10/5
f 76/12/6 74/13/6 78/8/6
