{
	"asset":{
		"generator":"Khronos glTF Blender I/O v4.4.55",
		"version":"2.0"
	},
	"scene":0,
	"scenes":[
		{
			"name":"Scene",
			"nodes":[
				9
			]
		}
	],
	"nodes":[
		{
			"name":"\u30dc\u30fc\u30f3.002",
			"rotation":[
				2.2509773518340943e-14,
				-6.094328514978098e-23,
				-6.572994728934684e-16,
				1
			],
			"scale":[
				1,
				0.9999999403953552,
				1
			],
			"translation":[
				-2.760277087194424e-16,
				0.5445544719696045,
				2.220446049250313e-16
			]
		},
		{
			"name":"\u30dc\u30fc\u30f3.007",
			"rotation":[
				-0.42948630452156067,
				0.06313980370759964,
				-0.10261911898851395,
				0.8949995636940002
			],
			"translation":[
				-1.1920928955078125e-07,
				0.5341193079948425,
				-5.960464477539063e-08
			]
		},
		{
			"children":[
				1
			],
			"name":"\u30dc\u30fc\u30f3.006",
			"rotation":[
				-0.06104935705661774,
				-0.00476932292804122,
				0.12120947986841202,
				0.9907363653182983
			],
			"scale":[
				1,
				1,
				0.9999999403953552
			],
			"translation":[
				-2.514570951461792e-08,
				0.5326124429702759,
				-2.9802322387695312e-08
			]
		},
		{
			"children":[
				2
			],
			"name":"\u30dc\u30fc\u30f3.003",
			"rotation":[
				-0.1581612229347229,
				0.21580621600151062,
				-0.7751129865646362,
				0.5723745822906494
			],
			"scale":[
				0.9999998807907104,
				0.9999999403953552,
				1.0000001192092896
			],
			"translation":[
				1.5118957197302052e-09,
				0.5445544719696045,
				4.9960036108132044e-15
			]
		},
		{
			"name":"\u30dc\u30fc\u30f3.005",
			"rotation":[
				-0.02353667840361595,
				-1.554627004907161e-07,
				-0.13941147923469543,
				0.9899548292160034
			],
			"scale":[
				1,
				1,
				1.0000001192092896
			],
			"translation":[
				-1.648440957069397e-07,
				0.5245187282562256,
				1.4901161193847656e-08
			]
		},
		{
			"children":[
				4
			],
			"name":"\u30dc\u30fc\u30f3.004",
			"rotation":[
				-0.16038581728935242,
				-0.2212466597557068,
				0.7759077548980713,
				0.5685890316963196
			],
			"scale":[
				0.9999998211860657,
				1,
				1
			],
			"translation":[
				1.5389816088173802e-09,
				0.5445544719696045,
				8.215650382226158e-15
			]
		},
		{
			"children":[
				0,
				3,
				5
			],
			"name":"\u30dc\u30fc\u30f3.001",
			"rotation":[
				-5.315192730392937e-15,
				-7.040904172169412e-23,
				6.33367298122627e-17,
				1
			],
			"translation":[
				-1.5676123458130062e-16,
				0.508259117603302,
				1.8596235662471372e-15
			]
		},
		{
			"children":[
				6
			],
			"name":"\u30dc\u30fc\u30f3",
			"rotation":[
				-1.3229676243398103e-09,
				0.9970077276229858,
				-4.348459370362434e-09,
				0.07730209827423096
			],
			"translation":[
				0,
				0.11949151754379272,
				0
			]
		},
		{
			"mesh":0,
			"name":"\u7acb\u65b9\u4f53",
			"skin":0
		},
		{
			"children":[
				8,
				7
			],
			"name":"\u30a2\u30fc\u30de\u30c1\u30e5\u30a2"
		}
	],
	"animations":[
		{
			"channels":[
				{
					"sampler":0,
					"target":{
						"node":7,
						"path":"translation"
					}
				},
				{
					"sampler":1,
					"target":{
						"node":7,
						"path":"rotation"
					}
				},
				{
					"sampler":2,
					"target":{
						"node":7,
						"path":"scale"
					}
				},
				{
					"sampler":3,
					"target":{
						"node":6,
						"path":"translation"
					}
				},
				{
					"sampler":4,
					"target":{
						"node":6,
						"path":"rotation"
					}
				},
				{
					"sampler":5,
					"target":{
						"node":6,
						"path":"scale"
					}
				},
				{
					"sampler":6,
					"target":{
						"node":0,
						"path":"translation"
					}
				},
				{
					"sampler":7,
					"target":{
						"node":0,
						"path":"rotation"
					}
				},
				{
					"sampler":8,
					"target":{
						"node":0,
						"path":"scale"
					}
				},
				{
					"sampler":9,
					"target":{
						"node":3,
						"path":"translation"
					}
				},
				{
					"sampler":10,
					"target":{
						"node":3,
						"path":"rotation"
					}
				},
				{
					"sampler":11,
					"target":{
						"node":3,
						"path":"scale"
					}
				},
				{
					"sampler":12,
					"target":{
						"node":2,
						"path":"translation"
					}
				},
				{
					"sampler":13,
					"target":{
						"node":2,
						"path":"rotation"
					}
				},
				{
					"sampler":14,
					"target":{
						"node":2,
						"path":"scale"
					}
				},
				{
					"sampler":15,
					"target":{
						"node":1,
						"path":"translation"
					}
				},
				{
					"sampler":16,
					"target":{
						"node":1,
						"path":"rotation"
					}
				},
				{
					"sampler":17,
					"target":{
						"node":1,
						"path":"scale"
					}
				},
				{
					"sampler":18,
					"target":{
						"node":5,
						"path":"translation"
					}
				},
				{
					"sampler":19,
					"target":{
						"node":5,
						"path":"rotation"
					}
				},
				{
					"sampler":20,
					"target":{
						"node":5,
						"path":"scale"
					}
				},
				{
					"sampler":21,
					"target":{
						"node":4,
						"path":"translation"
					}
				},
				{
					"sampler":22,
					"target":{
						"node":4,
						"path":"rotation"
					}
				},
				{
					"sampler":23,
					"target":{
						"node":4,
						"path":"scale"
					}
				}
			],
			"name":"none",
			"samplers":[
				{
					"input":7,
					"interpolation":"LINEAR",
					"output":8
				},
				{
					"input":7,
					"interpolation":"LINEAR",
					"output":9
				},
				{
					"input":7,
					"interpolation":"LINEAR",
					"output":10
				},
				{
					"input":7,
					"interpolation":"LINEAR",
					"output":11
				},
				{
					"input":7,
					"interpolation":"LINEAR",
					"output":12
				},
				{
					"input":7,
					"interpolation":"LINEAR",
					"output":13
				},
				{
					"input":7,
					"interpolation":"LINEAR",
					"output":14
				},
				{
					"input":7,
					"interpolation":"LINEAR",
					"output":15
				},
				{
					"input":7,
					"interpolation":"LINEAR",
					"output":16
				},
				{
					"input":7,
					"interpolation":"LINEAR",
					"output":17
				},
				{
					"input":7,
					"interpolation":"LINEAR",
					"output":18
				},
				{
					"input":7,
					"interpolation":"LINEAR",
					"output":19
				},
				{
					"input":7,
					"interpolation":"LINEAR",
					"output":20
				},
				{
					"input":7,
					"interpolation":"LINEAR",
					"output":21
				},
				{
					"input":7,
					"interpolation":"LINEAR",
					"output":22
				},
				{
					"input":7,
					"interpolation":"LINEAR",
					"output":23
				},
				{
					"input":7,
					"interpolation":"LINEAR",
					"output":24
				},
				{
					"input":7,
					"interpolation":"LINEAR",
					"output":25
				},
				{
					"input":7,
					"interpolation":"LINEAR",
					"output":26
				},
				{
					"input":7,
					"interpolation":"LINEAR",
					"output":27
				},
				{
					"input":7,
					"interpolation":"LINEAR",
					"output":28
				},
				{
					"input":7,
					"interpolation":"LINEAR",
					"output":29
				},
				{
					"input":7,
					"interpolation":"LINEAR",
					"output":30
				},
				{
					"input":7,
					"interpolation":"LINEAR",
					"output":31
				}
			]
		}
	],
	"meshes":[
		{
			"name":"\u7acb\u65b9\u4f53",
			"primitives":[
				{
					"attributes":{
						"POSITION":0,
						"NORMAL":1,
						"TEXCOORD_0":2,
						"JOINTS_0":3,
						"WEIGHTS_0":4
					},
					"indices":5
				}
			]
		}
	],
	"skins":[
		{
			"inverseBindMatrices":6,
			"joints":[
				7,
				6,
				0,
				3,
				2,
				1,
				5,
				4
			],
			"name":"\u30a2\u30fc\u30de\u30c1\u30e5\u30a2"
		}
	],
	"accessors":[
		{
			"bufferView":0,
			"componentType":5126,
			"count":892,
			"max":[
				0.8777808547019958,
				1.806233525276184,
				2.435328960418701
			],
			"min":[
				-1.330536961555481,
				0.025717973709106445,
				-0.4814753830432892
			],
			"type":"VEC3"
		},
		{
			"bufferView":1,
			"componentType":5126,
			"count":892,
			"type":"VEC3"
		},
		{
			"bufferView":2,
			"componentType":5126,
			"count":892,
			"type":"VEC2"
		},
		{
			"bufferView":3,
			"componentType":5121,
			"count":892,
			"type":"VEC4"
		},
		{
			"bufferView":4,
			"componentType":5126,
			"count":892,
			"type":"VEC4"
		},
		{
			"bufferView":5,
			"componentType":5123,
			"count":3132,
			"type":"SCALAR"
		},
		{
			"bufferView":6,
			"componentType":5126,
			"count":8,
			"type":"MAT4"
		},
		{
			"bufferView":7,
			"componentType":5126,
			"count":1,
			"max":[
				0
			],
			"min":[
				0
			],
			"type":"SCALAR"
		},
		{
			"bufferView":8,
			"componentType":5126,
			"count":1,
			"type":"VEC3"
		},
		{
			"bufferView":9,
			"componentType":5126,
			"count":1,
			"type":"VEC4"
		},
		{
			"bufferView":10,
			"componentType":5126,
			"count":1,
			"type":"VEC3"
		},
		{
			"bufferView":11,
			"componentType":5126,
			"count":1,
			"type":"VEC3"
		},
		{
			"bufferView":12,
			"componentType":5126,
			"count":1,
			"type":"VEC4"
		},
		{
			"bufferView":13,
			"componentType":5126,
			"count":1,
			"type":"VEC3"
		},
		{
			"bufferView":14,
			"componentType":5126,
			"count":1,
			"type":"VEC3"
		},
		{
			"bufferView":15,
			"componentType":5126,
			"count":1,
			"type":"VEC4"
		},
		{
			"bufferView":16,
			"componentType":5126,
			"count":1,
			"type":"VEC3"
		},
		{
			"bufferView":17,
			"componentType":5126,
			"count":1,
			"type":"VEC3"
		},
		{
			"bufferView":18,
			"componentType":5126,
			"count":1,
			"type":"VEC4"
		},
		{
			"bufferView":19,
			"componentType":5126,
			"count":1,
			"type":"VEC3"
		},
		{
			"bufferView":20,
			"componentType":5126,
			"count":1,
			"type":"VEC3"
		},
		{
			"bufferView":21,
			"componentType":5126,
			"count":1,
			"type":"VEC4"
		},
		{
			"bufferView":22,
			"componentType":5126,
			"count":1,
			"type":"VEC3"
		},
		{
			"bufferView":23,
			"componentType":5126,
			"count":1,
			"type":"VEC3"
		},
		{
			"bufferView":24,
			"componentType":5126,
			"count":1,
			"type":"VEC4"
		},
		{
			"bufferView":25,
			"componentType":5126,
			"count":1,
			"type":"VEC3"
		},
		{
			"bufferView":26,
			"componentType":5126,
			"count":1,
			"type":"VEC3"
		},
		{
			"bufferView":27,
			"componentType":5126,
			"count":1,
			"type":"VEC4"
		},
		{
			"bufferView":28,
			"componentType":5126,
			"count":1,
			"type":"VEC3"
		},
		{
			"bufferView":29,
			"componentType":5126,
			"count":1,
			"type":"VEC3"
		},
		{
			"bufferView":30,
			"componentType":5126,
			"count":1,
			"type":"VEC4"
		},
		{
			"bufferView":31,
			"componentType":5126,
			"count":1,
			"type":"VEC3"
		}
	],
	"bufferViews":[
		{
			"buffer":0,
			"byteLength":10704,
			"byteOffset":0,
			"target":34962
		},
		{
			"buffer":0,
			"byteLength":10704,
			"byteOffset":10704,
			"target":34962
		},
		{
			"buffer":0,
			"byteLength":7136,
			"byteOffset":21408,
			"target":34962
		},
		{
			"buffer":0,
			"byteLength":3568,
			"byteOffset":28544,
			"target":34962
		},
		{
			"buffer":0,
			"byteLength":14272,
			"byteOffset":32112,
			"target":34962
		},
		{
			"buffer":0,
			"byteLength":6264,
			"byteOffset":46384,
			"target":34963
		},
		{
			"buffer":0,
			"byteLength":512,
			"byteOffset":52648
		},
		{
			"buffer":0,
			"byteLength":4,
			"byteOffset":53160
		},
		{
			"buffer":0,
			"byteLength":12,
			"byteOffset":53164
		},
		{
			"buffer":0,
			"byteLength":16,
			"byteOffset":53176
		},
		{
			"buffer":0,
			"byteLength":12,
			"byteOffset":53192
		},
		{
			"buffer":0,
			"byteLength":12,
			"byteOffset":53204
		},
		{
			"buffer":0,
			"byteLength":16,
			"byteOffset":53216
		},
		{
			"buffer":0,
			"byteLength":12,
			"byteOffset":53232
		},
		{
			"buffer":0,
			"byteLength":12,
			"byteOffset":53244
		},
		{
			"buffer":0,
			"byteLength":16,
			"byteOffset":53256
		},
		{
			"buffer":0,
			"byteLength":12,
			"byteOffset":53272
		},
		{
			"buffer":0,
			"byteLength":12,
			"byteOffset":53284
		},
		{
			"buffer":0,
			"byteLength":16,
			"byteOffset":53296
		},
		{
			"buffer":0,
			"byteLength":12,
			"byteOffset":53312
		},
		{
			"buffer":0,
			"byteLength":12,
			"byteOffset":53324
		},
		{
			"buffer":0,
			"byteLength":16,
			"byteOffset":53336
		},
		{
			"buffer":0,
			"byteLength":12,
			"byteOffset":53352
		},
		{
			"buffer":0,
			"byteLength":12,
			"byteOffset":53364
		},
		{
			"buffer":0,
			"byteLength":16,
			"byteOffset":53376
		},
		{
			"buffer":0,
			"byteLength":12,
			"byteOffset":53392
		},
		{
			"buffer":0,
			"byteLength":12,
			"byteOffset":53404
		},
		{
			"buffer":0,
			"byteLength":16,
			"byteOffset":53416
		},
		{
			"buffer":0,
			"byteLength":12,
			"byteOffset":53432
		},
		{
			"buffer":0,
			"byteLength":12,
			"byteOffset":53444
		},
		{
			"buffer":0,
			"byteLength":16,
			"byteOffset":53456
		},
		{
			"buffer":0,
			"byteLength":12,
			"byteOffset":53472
		}
	],
	"buffers":[
		{
			"byteLength":53484,
			"uri":"PlayerIdle.bin"
		}
	]
}
