# Blender 4.4.3
# www.blender.org
mtllib RockRound.mtl
o Rock_Round
v 0.000000 0.000000 0.000000
v 0.903201 0.118470 0.531435
v -0.410239 0.106156 1.022533
v -1.145033 0.116802 0.000000
v -0.397635 0.108535 -0.991118
v 1.106354 0.103827 -0.650968
v 0.398205 0.966262 0.992538
v -0.997978 0.948420 0.587200
v -1.081494 0.981862 -0.636340
v 0.357315 0.923395 -0.890618
v 1.311279 0.973591 0.000000
v 0.000000 1.535195 0.000000
v -0.248028 0.032111 0.618218
v 0.591904 0.045512 0.348271
v 0.366344 0.098123 0.913091
v 1.287755 0.090753 0.000000
v 0.663639 0.028780 -0.390478
v -0.722062 0.047319 0.000000
v -0.992571 0.095140 0.584024
v -0.249984 0.030917 -0.623092
v -1.083102 0.087074 -0.637292
v 0.326339 0.107454 -0.813380
v 1.243642 0.548809 0.327246
v 1.486425 0.548809 -0.391131
v 0.000000 0.548809 1.280984
v 0.751614 0.548809 0.837805
v -1.232124 0.548809 0.324215
v -0.851880 0.548809 0.949568
v -0.901090 0.548809 -1.004421
v -1.438492 0.548809 -0.378518
v 0.775305 0.548809 -0.864212
v 0.000000 0.548809 -1.057291
v 0.933348 1.010767 0.549177
v -0.398993 1.065814 0.994468
v -1.178827 1.020836 0.000000
v -0.370011 1.028259 -0.922231
v 1.057988 1.072457 -0.622515
v 0.231474 1.334083 0.576958
v 0.824921 1.413580 0.000000
v -0.611468 1.341142 0.359782
v -0.671403 1.418804 -0.395047
v 0.207798 1.253761 -0.517944
vn 0.0374 -0.9971 0.0668
vn 0.1398 -0.9784 0.1522
vn -0.0654 -0.9975 0.0256
vn -0.0654 -0.9976 -0.0233
vn 0.0114 -0.9985 -0.0541
vn 0.7564 -0.3305 0.5645
vn 0.1084 -0.5743 0.8115
vn -0.9089 -0.3515 0.2242
vn -0.3925 -0.4726 -0.7890
vn 0.1929 -0.3037 -0.9331
vn 0.7001 -0.2337 0.6747
vn -0.3550 -0.2038 0.9124
vn -0.8894 -0.3753 0.2612
vn -0.0583 -0.0967 -0.9936
vn 0.5538 0.0131 -0.8325
vn 0.3728 0.7640 0.5266
vn -0.4709 0.7408 0.4790
vn -0.6791 0.7190 -0.1479
vn 0.1379 0.7680 -0.6255
vn 0.6629 0.7328 -0.1534
vn 0.1315 0.8922 -0.4320
vn 0.1360 0.8894 -0.4365
vn 0.0835 0.7621 -0.6421
vn 0.1055 0.8909 -0.4418
vn 0.0751 0.8213 -0.5655
vn -0.3146 0.6678 -0.6746
vn -0.2366 0.9644 0.1180
vn -0.5481 0.8265 0.1286
vn -0.5996 0.7507 0.2773
vn -0.0845 0.9299 0.3580
vn -0.1018 0.8997 0.4244
vn 0.0970 0.7643 0.6375
vn 0.1402 0.9511 0.2753
vn 0.3791 0.7803 0.4975
vn 0.6204 0.6858 0.3805
vn 0.8006 0.5497 -0.2385
vn 0.5519 0.0850 -0.8296
vn 0.2950 0.2645 -0.9181
vn 0.0888 0.3330 -0.9387
vn -0.0570 0.2297 -0.9716
vn -0.3476 0.5189 -0.7809
vn -0.8061 0.5703 -0.1582
vn -0.9185 0.2890 0.2697
vn -0.8947 0.3171 0.3147
vn -0.5634 0.4324 0.7040
vn -0.3528 0.2303 0.9069
vn 0.0674 0.5229 0.8497
vn 0.6086 0.2342 0.7581
vn 0.7121 0.1486 0.6862
vn 0.7992 0.2818 0.5309
vn 0.2369 0.1973 -0.9513
vn 0.2275 -0.3367 -0.9137
vn 0.2238 -0.3394 -0.9136
vn -0.7382 0.2312 -0.6338
vn -0.7412 -0.2138 -0.6364
vn -0.8050 -0.5912 -0.0506
vn -0.8439 0.1568 0.5131
vn -0.8445 -0.1519 0.5135
vn -0.5410 -0.4196 0.7289
vn 0.5048 0.1100 0.8562
vn 0.4878 -0.2788 0.8273
vn 0.5524 -0.3455 0.7586
vn 0.9430 0.0954 0.3187
vn 0.9385 -0.1362 0.3172
vn 0.8026 -0.5485 -0.2347
vn 0.0399 -0.9761 -0.2134
vn 0.0550 -0.9728 -0.2248
vn 0.0542 -0.9724 -0.2268
vn -0.0631 -0.9813 -0.1817
vn -0.0668 -0.9975 -0.0244
vn -0.1620 -0.9863 0.0303
vn -0.1621 -0.9868 0.0057
vn -0.0862 -0.9954 0.0416
vn -0.0900 -0.9854 0.1443
vn 0.1340 -0.9893 -0.0572
vn 0.0800 -0.9963 0.0303
vn 0.0600 -0.9978 0.0284
vn 0.0161 -0.9823 0.1864
vn 0.0522 -0.9922 0.1133
vn 0.1423 -0.9787 0.1480
vt 0.181819 0.000000
vt 0.227273 0.078731
vt 0.136365 0.078731
vt 0.272728 0.157461
vt 0.318182 0.078731
vt 0.363637 0.157461
vt 0.909091 0.000000
vt 0.954545 0.078731
vt 0.863636 0.078731
vt 0.727273 0.000000
vt 0.772727 0.078731
vt 0.681818 0.078731
vt 0.545455 0.000000
vt 0.590909 0.078731
vt 0.500000 0.078731
vt 0.318182 0.236191
vt 0.090910 0.157461
vt 0.181819 0.157461
vt 0.136365 0.236191
vt 0.818182 0.157461
vt 0.909091 0.157461
vt 0.863636 0.236191
vt 0.636364 0.157461
vt 0.727273 0.157461
vt 0.681818 0.236191
vt 0.454546 0.157461
vt 0.545455 0.157461
vt 0.500000 0.236191
vt 0.227273 0.236191
vt 0.045455 0.236191
vt 0.772727 0.236191
vt 0.590909 0.236191
vt 0.409092 0.236191
vt 0.181819 0.314921
vt 0.272728 0.314921
vt 0.227273 0.393651
vt 0.000000 0.314921
vt 0.090910 0.314921
vt 0.045455 0.393651
vt 0.727273 0.314921
vt 0.818182 0.314921
vt 0.772727 0.393651
vt 0.545455 0.314921
vt 0.636364 0.314921
vt 0.590909 0.393651
vt 0.363637 0.314921
vt 0.454546 0.314921
vt 0.409092 0.393651
vt 0.500000 0.393651
vt 0.454546 0.472382
vt 0.681818 0.393651
vt 0.636364 0.472382
vt 0.863636 0.393651
vt 0.818182 0.472382
vt 0.909091 0.314921
vt 0.136365 0.393651
vt 0.090910 0.472382
vt 0.318182 0.393651
vt 0.272728 0.472382
vt 0.954545 0.236191
vt 1.000000 0.157461
vt 0.409092 0.078731
vt 0.363637 0.000000
s 0
usemtl Rock_Gray
f 1/1/1 14/2/1 13/3/1
f 2/4/2 14/5/2 16/6/2
f 1/7/3 13/8/3 18/9/3
f 1/10/4 18/11/4 20/12/4
f 1/13/5 20/14/5 17/15/5
f 2/4/6 16/6/6 23/16/6
f 3/17/7 15/18/7 25/19/7
f 4/20/8 19/21/8 27/22/8
f 5/23/9 21/24/9 29/25/9
f 6/26/10 22/27/10 31/28/10
f 2/4/11 23/16/11 26/29/11
f 3/17/12 25/19/12 28/30/12
f 4/20/13 27/22/13 30/31/13
f 5/23/14 29/25/14 32/32/14
f 6/26/15 31/28/15 24/33/15
f 7/34/16 33/35/16 38/36/16
f 8/37/17 34/38/17 40/39/17
f 9/40/18 35/41/18 41/42/18
f 10/43/19 36/44/19 42/45/19
f 11/46/20 37/47/20 39/48/20
f 39/48/21 42/49/21 12/50/21
f 39/48/22 37/47/22 42/49/22
f 37/47/23 10/43/23 42/49/23
f 42/45/24 41/51/24 12/52/24
f 42/45/25 36/44/25 41/51/25
f 36/44/26 9/40/26 41/51/26
f 41/42/27 40/53/27 12/54/27
f 41/42/28 35/41/28 40/53/28
f 35/41/29 8/55/29 40/53/29
f 40/39/30 38/56/30 12/57/30
f 40/39/31 34/38/31 38/56/31
f 34/38/32 7/34/32 38/56/32
f 38/36/33 39/58/33 12/59/33
f 38/36/34 33/35/34 39/58/34
f 33/35/35 11/46/35 39/58/35
f 24/33/36 37/47/36 11/46/36
f 24/33/37 31/28/37 37/47/37
f 31/28/38 10/43/38 37/47/38
f 32/32/39 36/44/39 10/43/39
f 32/32/40 29/25/40 36/44/40
f 29/25/41 9/40/41 36/44/41
f 30/31/42 35/41/42 9/40/42
f 30/31/43 27/22/43 35/41/43
f 27/22/44 8/55/44 35/41/44
f 28/30/45 34/38/45 8/37/45
f 28/30/46 25/19/46 34/38/46
f 25/19/47 7/34/47 34/38/47
f 26/29/48 33/35/48 7/34/48
f 26/29/49 23/16/49 33/35/49
f 23/16/50 11/46/50 33/35/50
f 31/28/51 32/32/51 10/43/51
f 31/28/52 22/27/52 32/32/52
f 22/27/53 5/23/53 32/32/53
f 29/25/54 30/31/54 9/40/54
f 29/25/55 21/24/55 30/31/55
f 21/24/56 4/20/56 30/31/56
f 27/22/57 28/60/57 8/55/57
f 27/22/58 19/21/58 28/60/58
f 19/21/59 3/61/59 28/60/59
f 25/19/60 26/29/60 7/34/60
f 25/19/61 15/18/61 26/29/61
f 15/18/62 2/4/62 26/29/62
f 23/16/63 24/33/63 11/46/63
f 23/16/64 16/6/64 24/33/64
f 16/6/65 6/26/65 24/33/65
f 17/15/66 22/27/66 6/26/66
f 17/15/67 20/14/67 22/27/67
f 20/14/68 5/23/68 22/27/68
f 20/12/69 21/24/69 5/23/69
f 20/12/70 18/11/70 21/24/70
f 18/11/71 4/20/71 21/24/71
f 18/9/72 19/21/72 4/20/72
f 18/9/73 13/8/73 19/21/73
f 13/8/74 3/61/74 19/21/74
f 16/6/75 17/62/75 6/26/75
f 16/6/76 14/5/76 17/62/76
f 14/5/77 1/63/77 17/62/77
f 13/3/78 15/18/78 3/17/78
f 13/3/79 14/2/79 15/18/79
f 14/2/80 2/4/80 15/18/80
