{
	"asset":{
		"generator":"Khronos glTF Blender I/O v4.4.56",
		"version":"2.0"
	},
	"scene":0,
	"scenes":[
		{
			"name":"Scene",
			"nodes":[
				16
			]
		}
	],
	"nodes":[
		{
			"name":"\u30dc\u30fc\u30f3.005",
			"rotation":[
				8.437393717031227e-08,
				4.660876484763321e-08,
				-0.4645255506038666,
				0.8855597376823425
			],
			"scale":[
				1,
				0.9999999403953552,
				1
			],
			"translation":[
				-2.3841853646899835e-07,
				0.2596830129623413,
				-5.684341886080802e-14
			]
		},
		{
			"children":[
				0
			],
			"name":"\u30dc\u30fc\u30f3.004",
			"rotation":[
				-5.925671331397098e-08,
				9.245488818976355e-09,
				0.5008124709129333,
				0.8655558228492737
			],
			"scale":[
				1.0000001192092896,
				1,
				1
			],
			"translation":[
				-2.980232238769531e-07,
				0.3050123453140259,
				5.684341886080802e-14
			]
		},
		{
			"children":[
				1
			],
			"name":"\u30dc\u30fc\u30f3.003",
			"rotation":[
				1.2525538828356275e-08,
				5.913150857850269e-08,
				-0.2710684537887573,
				0.9625600576400757
			],
			"scale":[
				0.9999998807907104,
				1,
				1
			],
			"translation":[
				1.1920928955078125e-07,
				0.5250757932662964,
				5.3290705182007514e-14
			]
		},
		{
			"children":[
				2
			],
			"name":"\u30dc\u30fc\u30f3.002",
			"rotation":[
				-3.690790562060897e-09,
				1.7224627057998987e-08,
				-0.11335501074790955,
				0.9935545921325684
			],
			"scale":[
				1.0000001192092896,
				1.0000001192092896,
				1
			],
			"translation":[
				2.384185791015625e-07,
				0.4406645894050598,
				1.7763568394002505e-14
			]
		},
		{
			"children":[
				3
			],
			"name":"\u30dc\u30fc\u30f3.001",
			"rotation":[
				-6.084850667775754e-08,
				-1.1038045144573516e-08,
				0.19958585500717163,
				0.9798803329467773
			],
			"translation":[
				0,
				0.6321868896484375,
				0
			]
		},
		{
			"children":[
				4
			],
			"name":"\u30dc\u30fc\u30f3"
		},
		{
			"name":"\u30dc\u30fc\u30f3.013",
			"rotation":[
				0.5437909364700317,
				6.892593606977471e-09,
				-4.191813047782489e-07,
				0.8392207026481628
			],
			"scale":[
				1,
				1.0000001192092896,
				1
			],
			"translation":[
				2.842170943040401e-14,
				0.26361215114593506,
				-2.5331937081318756e-07
			]
		},
		{
			"children":[
				6
			],
			"name":"\u30dc\u30fc\u30f3.012",
			"rotation":[
				-0.05025714635848999,
				-2.9537179369043542e-09,
				3.9004873997328104e-08,
				0.9987363219261169
			],
			"scale":[
				1,
				0.9999998807907104,
				0.9999999403953552
			],
			"translation":[
				-2.1316282072803006e-13,
				0.3496093451976776,
				-8.940662610257277e-08
			]
		},
		{
			"children":[
				7
			],
			"name":"\u30dc\u30fc\u30f3.011",
			"rotation":[
				-0.17254102230072021,
				-3.0653097837785026e-08,
				1.2803033655472973e-07,
				0.985002338886261
			],
			"translation":[
				-2.4158453015843406e-13,
				0.3858126401901245,
				-1.0430786545612136e-07
			]
		},
		{
			"children":[
				8
			],
			"name":"\u30dc\u30fc\u30f3.010",
			"rotation":[
				0.04412674158811569,
				3.955499394692197e-08,
				-3.311718899112748e-08,
				0.9990259408950806
			],
			"translation":[
				2.4158453015843406e-13,
				0.8522136807441711,
				2.682211572846427e-07
			]
		},
		{
			"children":[
				9
			],
			"name":"\u30dc\u30fc\u30f3.009",
			"rotation":[
				-0.08071794360876083,
				9.982877635650311e-09,
				6.458331824887864e-08,
				0.996737003326416
			],
			"translation":[
				-1.2079226507921703e-13,
				0.8073675632476807,
				5.960480820021985e-08
			]
		},
		{
			"children":[
				10
			],
			"name":"\u30dc\u30fc\u30f3.008",
			"rotation":[
				-0.009006301872432232,
				-7.586476868937098e-08,
				6.612962177854342e-09,
				0.9999594688415527
			],
			"scale":[
				1,
				0.9999998807907104,
				0.9999999403953552
			],
			"translation":[
				2.2026824808563106e-13,
				0.7068952918052673,
				1.192093463942001e-07
			]
		},
		{
			"children":[
				11
			],
			"name":"\u30dc\u30fc\u30f3.007",
			"rotation":[
				0.007453728001564741,
				-1.2133135385283822e-07,
				6.261985419087068e-08,
				0.9999722242355347
			],
			"scale":[
				1,
				0.9999999403953552,
				0.9999999403953552
			],
			"translation":[
				-2.842170943040401e-14,
				0.709235668182373,
				-2.9802322387695312e-08
			]
		},
		{
			"children":[
				12
			],
			"name":"\u30dc\u30fc\u30f3.006",
			"rotation":[
				-0.7056359052658081,
				0.04558306559920311,
				0.7056361436843872,
				0.04558306932449341
			],
			"scale":[
				1,
				1,
				0.9999999403953552
			],
			"translation":[
				0.1318061351776123,
				-0.6151647567749023,
				0
			]
		},
		{
			"name":"\u30dc\u30fc\u30f3.014",
			"rotation":[
				1.867565089241907e-07,
				7.701300042128878e-09,
				-0.9674447774887085,
				0.2530822455883026
			],
			"scale":[
				0.9999999403953552,
				0.9999998807907104,
				0.9999999403953552
			],
			"translation":[
				1.5799005031585693,
				-1.1714730262756348,
				0
			]
		},
		{
			"mesh":0,
			"name":"\u5e73\u9762.001",
			"skin":0
		},
		{
			"children":[
				15,
				5,
				13,
				14
			],
			"name":"\u30a2\u30fc\u30de\u30c1\u30e5\u30a2",
			"translation":[
				2.4240939617156982,
				5.000720977783203,
				0
			]
		}
	],
	"animations":[
		{
			"channels":[
				{
					"sampler":0,
					"target":{
						"node":5,
						"path":"translation"
					}
				},
				{
					"sampler":1,
					"target":{
						"node":5,
						"path":"rotation"
					}
				},
				{
					"sampler":2,
					"target":{
						"node":5,
						"path":"scale"
					}
				},
				{
					"sampler":3,
					"target":{
						"node":4,
						"path":"translation"
					}
				},
				{
					"sampler":4,
					"target":{
						"node":4,
						"path":"rotation"
					}
				},
				{
					"sampler":5,
					"target":{
						"node":4,
						"path":"scale"
					}
				},
				{
					"sampler":6,
					"target":{
						"node":3,
						"path":"translation"
					}
				},
				{
					"sampler":7,
					"target":{
						"node":3,
						"path":"rotation"
					}
				},
				{
					"sampler":8,
					"target":{
						"node":3,
						"path":"scale"
					}
				},
				{
					"sampler":9,
					"target":{
						"node":2,
						"path":"translation"
					}
				},
				{
					"sampler":10,
					"target":{
						"node":2,
						"path":"rotation"
					}
				},
				{
					"sampler":11,
					"target":{
						"node":2,
						"path":"scale"
					}
				},
				{
					"sampler":12,
					"target":{
						"node":1,
						"path":"translation"
					}
				},
				{
					"sampler":13,
					"target":{
						"node":1,
						"path":"rotation"
					}
				},
				{
					"sampler":14,
					"target":{
						"node":1,
						"path":"scale"
					}
				},
				{
					"sampler":15,
					"target":{
						"node":0,
						"path":"translation"
					}
				},
				{
					"sampler":16,
					"target":{
						"node":0,
						"path":"rotation"
					}
				},
				{
					"sampler":17,
					"target":{
						"node":0,
						"path":"scale"
					}
				},
				{
					"sampler":18,
					"target":{
						"node":13,
						"path":"translation"
					}
				},
				{
					"sampler":19,
					"target":{
						"node":13,
						"path":"rotation"
					}
				},
				{
					"sampler":20,
					"target":{
						"node":13,
						"path":"scale"
					}
				},
				{
					"sampler":21,
					"target":{
						"node":12,
						"path":"translation"
					}
				},
				{
					"sampler":22,
					"target":{
						"node":12,
						"path":"rotation"
					}
				},
				{
					"sampler":23,
					"target":{
						"node":12,
						"path":"scale"
					}
				},
				{
					"sampler":24,
					"target":{
						"node":11,
						"path":"translation"
					}
				},
				{
					"sampler":25,
					"target":{
						"node":11,
						"path":"rotation"
					}
				},
				{
					"sampler":26,
					"target":{
						"node":11,
						"path":"scale"
					}
				},
				{
					"sampler":27,
					"target":{
						"node":10,
						"path":"translation"
					}
				},
				{
					"sampler":28,
					"target":{
						"node":10,
						"path":"rotation"
					}
				},
				{
					"sampler":29,
					"target":{
						"node":10,
						"path":"scale"
					}
				},
				{
					"sampler":30,
					"target":{
						"node":9,
						"path":"translation"
					}
				},
				{
					"sampler":31,
					"target":{
						"node":9,
						"path":"rotation"
					}
				},
				{
					"sampler":32,
					"target":{
						"node":9,
						"path":"scale"
					}
				},
				{
					"sampler":33,
					"target":{
						"node":8,
						"path":"translation"
					}
				},
				{
					"sampler":34,
					"target":{
						"node":8,
						"path":"rotation"
					}
				},
				{
					"sampler":35,
					"target":{
						"node":8,
						"path":"scale"
					}
				},
				{
					"sampler":36,
					"target":{
						"node":7,
						"path":"translation"
					}
				},
				{
					"sampler":37,
					"target":{
						"node":7,
						"path":"rotation"
					}
				},
				{
					"sampler":38,
					"target":{
						"node":7,
						"path":"scale"
					}
				},
				{
					"sampler":39,
					"target":{
						"node":6,
						"path":"translation"
					}
				},
				{
					"sampler":40,
					"target":{
						"node":6,
						"path":"rotation"
					}
				},
				{
					"sampler":41,
					"target":{
						"node":6,
						"path":"scale"
					}
				},
				{
					"sampler":42,
					"target":{
						"node":14,
						"path":"translation"
					}
				},
				{
					"sampler":43,
					"target":{
						"node":14,
						"path":"rotation"
					}
				},
				{
					"sampler":44,
					"target":{
						"node":14,
						"path":"scale"
					}
				}
			],
			"name":"attack2",
			"samplers":[
				{
					"input":7,
					"interpolation":"LINEAR",
					"output":8
				},
				{
					"input":9,
					"interpolation":"STEP",
					"output":10
				},
				{
					"input":9,
					"interpolation":"STEP",
					"output":11
				},
				{
					"input":9,
					"interpolation":"STEP",
					"output":12
				},
				{
					"input":9,
					"interpolation":"STEP",
					"output":13
				},
				{
					"input":9,
					"interpolation":"STEP",
					"output":14
				},
				{
					"input":9,
					"interpolation":"STEP",
					"output":15
				},
				{
					"input":7,
					"interpolation":"LINEAR",
					"output":16
				},
				{
					"input":9,
					"interpolation":"STEP",
					"output":17
				},
				{
					"input":9,
					"interpolation":"STEP",
					"output":18
				},
				{
					"input":9,
					"interpolation":"STEP",
					"output":19
				},
				{
					"input":9,
					"interpolation":"STEP",
					"output":20
				},
				{
					"input":9,
					"interpolation":"STEP",
					"output":21
				},
				{
					"input":7,
					"interpolation":"LINEAR",
					"output":22
				},
				{
					"input":9,
					"interpolation":"STEP",
					"output":23
				},
				{
					"input":9,
					"interpolation":"STEP",
					"output":24
				},
				{
					"input":9,
					"interpolation":"STEP",
					"output":25
				},
				{
					"input":9,
					"interpolation":"STEP",
					"output":26
				},
				{
					"input":7,
					"interpolation":"LINEAR",
					"output":27
				},
				{
					"input":7,
					"interpolation":"LINEAR",
					"output":28
				},
				{
					"input":9,
					"interpolation":"STEP",
					"output":29
				},
				{
					"input":9,
					"interpolation":"STEP",
					"output":30
				},
				{
					"input":9,
					"interpolation":"STEP",
					"output":31
				},
				{
					"input":9,
					"interpolation":"STEP",
					"output":32
				},
				{
					"input":9,
					"interpolation":"STEP",
					"output":33
				},
				{
					"input":7,
					"interpolation":"LINEAR",
					"output":34
				},
				{
					"input":9,
					"interpolation":"STEP",
					"output":35
				},
				{
					"input":9,
					"interpolation":"STEP",
					"output":36
				},
				{
					"input":7,
					"interpolation":"LINEAR",
					"output":37
				},
				{
					"input":9,
					"interpolation":"STEP",
					"output":38
				},
				{
					"input":9,
					"interpolation":"STEP",
					"output":39
				},
				{
					"input":7,
					"interpolation":"LINEAR",
					"output":40
				},
				{
					"input":9,
					"interpolation":"STEP",
					"output":41
				},
				{
					"input":9,
					"interpolation":"STEP",
					"output":42
				},
				{
					"input":9,
					"interpolation":"STEP",
					"output":43
				},
				{
					"input":9,
					"interpolation":"STEP",
					"output":44
				},
				{
					"input":9,
					"interpolation":"STEP",
					"output":45
				},
				{
					"input":9,
					"interpolation":"STEP",
					"output":46
				},
				{
					"input":9,
					"interpolation":"STEP",
					"output":47
				},
				{
					"input":9,
					"interpolation":"STEP",
					"output":48
				},
				{
					"input":9,
					"interpolation":"STEP",
					"output":49
				},
				{
					"input":9,
					"interpolation":"STEP",
					"output":50
				},
				{
					"input":7,
					"interpolation":"LINEAR",
					"output":51
				},
				{
					"input":7,
					"interpolation":"LINEAR",
					"output":52
				},
				{
					"input":9,
					"interpolation":"STEP",
					"output":53
				}
			]
		}
	],
	"meshes":[
		{
			"name":"\u5e73\u9762.001",
			"primitives":[
				{
					"attributes":{
						"POSITION":0,
						"NORMAL":1,
						"TEXCOORD_0":2,
						"JOINTS_0":3,
						"WEIGHTS_0":4
					},
					"indices":5
				}
			]
		}
	],
	"skins":[
		{
			"inverseBindMatrices":6,
			"joints":[
				5,
				4,
				3,
				2,
				1,
				0,
				13,
				12,
				11,
				10,
				9,
				8,
				7,
				6,
				14
			],
			"name":"\u30a2\u30fc\u30de\u30c1\u30e5\u30a2"
		}
	],
	"accessors":[
		{
			"bufferView":0,
			"componentType":5126,
			"count":852,
			"max":[
				6.078904151916504,
				7.289924621582031,
				1.0158408880233765
			],
			"min":[
				1.3084161281585693,
				0,
				-1.0158408880233765
			],
			"type":"VEC3"
		},
		{
			"bufferView":1,
			"componentType":5126,
			"count":852,
			"type":"VEC3"
		},
		{
			"bufferView":2,
			"componentType":5126,
			"count":852,
			"type":"VEC2"
		},
		{
			"bufferView":3,
			"componentType":5121,
			"count":852,
			"type":"VEC4"
		},
		{
			"bufferView":4,
			"componentType":5126,
			"count":852,
			"type":"VEC4"
		},
		{
			"bufferView":5,
			"componentType":5123,
			"count":2610,
			"type":"SCALAR"
		},
		{
			"bufferView":6,
			"componentType":5126,
			"count":15,
			"type":"MAT4"
		},
		{
			"bufferView":7,
			"componentType":5126,
			"count":26,
			"max":[
				0.4166666666666667
			],
			"min":[
				0
			],
			"type":"SCALAR"
		},
		{
			"bufferView":8,
			"componentType":5126,
			"count":26,
			"type":"VEC3"
		},
		{
			"bufferView":9,
			"componentType":5126,
			"count":2,
			"max":[
				0.4166666666666667
			],
			"min":[
				0
			],
			"type":"SCALAR"
		},
		{
			"bufferView":10,
			"componentType":5126,
			"count":2,
			"type":"VEC4"
		},
		{
			"bufferView":11,
			"componentType":5126,
			"count":2,
			"type":"VEC3"
		},
		{
			"bufferView":12,
			"componentType":5126,
			"count":2,
			"type":"VEC3"
		},
		{
			"bufferView":13,
			"componentType":5126,
			"count":2,
			"type":"VEC4"
		},
		{
			"bufferView":14,
			"componentType":5126,
			"count":2,
			"type":"VEC3"
		},
		{
			"bufferView":15,
			"componentType":5126,
			"count":2,
			"type":"VEC3"
		},
		{
			"bufferView":16,
			"componentType":5126,
			"count":26,
			"type":"VEC4"
		},
		{
			"bufferView":17,
			"componentType":5126,
			"count":2,
			"type":"VEC3"
		},
		{
			"bufferView":18,
			"componentType":5126,
			"count":2,
			"type":"VEC3"
		},
		{
			"bufferView":19,
			"componentType":5126,
			"count":2,
			"type":"VEC4"
		},
		{
			"bufferView":20,
			"componentType":5126,
			"count":2,
			"type":"VEC3"
		},
		{
			"bufferView":21,
			"componentType":5126,
			"count":2,
			"type":"VEC3"
		},
		{
			"bufferView":22,
			"componentType":5126,
			"count":26,
			"type":"VEC4"
		},
		{
			"bufferView":23,
			"componentType":5126,
			"count":2,
			"type":"VEC3"
		},
		{
			"bufferView":24,
			"componentType":5126,
			"count":2,
			"type":"VEC3"
		},
		{
			"bufferView":25,
			"componentType":5126,
			"count":2,
			"type":"VEC4"
		},
		{
			"bufferView":26,
			"componentType":5126,
			"count":2,
			"type":"VEC3"
		},
		{
			"bufferView":27,
			"componentType":5126,
			"count":26,
			"type":"VEC3"
		},
		{
			"bufferView":28,
			"componentType":5126,
			"count":26,
			"type":"VEC4"
		},
		{
			"bufferView":29,
			"componentType":5126,
			"count":2,
			"type":"VEC3"
		},
		{
			"bufferView":30,
			"componentType":5126,
			"count":2,
			"type":"VEC3"
		},
		{
			"bufferView":31,
			"componentType":5126,
			"count":2,
			"type":"VEC4"
		},
		{
			"bufferView":32,
			"componentType":5126,
			"count":2,
			"type":"VEC3"
		},
		{
			"bufferView":33,
			"componentType":5126,
			"count":2,
			"type":"VEC3"
		},
		{
			"bufferView":34,
			"componentType":5126,
			"count":26,
			"type":"VEC4"
		},
		{
			"bufferView":35,
			"componentType":5126,
			"count":2,
			"type":"VEC3"
		},
		{
			"bufferView":36,
			"componentType":5126,
			"count":2,
			"type":"VEC3"
		},
		{
			"bufferView":37,
			"componentType":5126,
			"count":26,
			"type":"VEC4"
		},
		{
			"bufferView":38,
			"componentType":5126,
			"count":2,
			"type":"VEC3"
		},
		{
			"bufferView":39,
			"componentType":5126,
			"count":2,
			"type":"VEC3"
		},
		{
			"bufferView":40,
			"componentType":5126,
			"count":26,
			"type":"VEC4"
		},
		{
			"bufferView":41,
			"componentType":5126,
			"count":2,
			"type":"VEC3"
		},
		{
			"bufferView":42,
			"componentType":5126,
			"count":2,
			"type":"VEC3"
		},
		{
			"bufferView":43,
			"componentType":5126,
			"count":2,
			"type":"VEC4"
		},
		{
			"bufferView":44,
			"componentType":5126,
			"count":2,
			"type":"VEC3"
		},
		{
			"bufferView":45,
			"componentType":5126,
			"count":2,
			"type":"VEC3"
		},
		{
			"bufferView":46,
			"componentType":5126,
			"count":2,
			"type":"VEC4"
		},
		{
			"bufferView":47,
			"componentType":5126,
			"count":2,
			"type":"VEC3"
		},
		{
			"bufferView":48,
			"componentType":5126,
			"count":2,
			"type":"VEC3"
		},
		{
			"bufferView":49,
			"componentType":5126,
			"count":2,
			"type":"VEC4"
		},
		{
			"bufferView":50,
			"componentType":5126,
			"count":2,
			"type":"VEC3"
		},
		{
			"bufferView":51,
			"componentType":5126,
			"count":26,
			"type":"VEC3"
		},
		{
			"bufferView":52,
			"componentType":5126,
			"count":26,
			"type":"VEC4"
		},
		{
			"bufferView":53,
			"componentType":5126,
			"count":2,
			"type":"VEC3"
		}
	],
	"bufferViews":[
		{
			"buffer":0,
			"byteLength":10224,
			"byteOffset":0,
			"target":34962
		},
		{
			"buffer":0,
			"byteLength":10224,
			"byteOffset":10224,
			"target":34962
		},
		{
			"buffer":0,
			"byteLength":6816,
			"byteOffset":20448,
			"target":34962
		},
		{
			"buffer":0,
			"byteLength":3408,
			"byteOffset":27264,
			"target":34962
		},
		{
			"buffer":0,
			"byteLength":13632,
			"byteOffset":30672,
			"target":34962
		},
		{
			"buffer":0,
			"byteLength":5220,
			"byteOffset":44304,
			"target":34963
		},
		{
			"buffer":0,
			"byteLength":960,
			"byteOffset":49524
		},
		{
			"buffer":0,
			"byteLength":104,
			"byteOffset":50484
		},
		{
			"buffer":0,
			"byteLength":312,
			"byteOffset":50588
		},
		{
			"buffer":0,
			"byteLength":8,
			"byteOffset":50900
		},
		{
			"buffer":0,
			"byteLength":32,
			"byteOffset":50908
		},
		{
			"buffer":0,
			"byteLength":24,
			"byteOffset":50940
		},
		{
			"buffer":0,
			"byteLength":24,
			"byteOffset":50964
		},
		{
			"buffer":0,
			"byteLength":32,
			"byteOffset":50988
		},
		{
			"buffer":0,
			"byteLength":24,
			"byteOffset":51020
		},
		{
			"buffer":0,
			"byteLength":24,
			"byteOffset":51044
		},
		{
			"buffer":0,
			"byteLength":416,
			"byteOffset":51068
		},
		{
			"buffer":0,
			"byteLength":24,
			"byteOffset":51484
		},
		{
			"buffer":0,
			"byteLength":24,
			"byteOffset":51508
		},
		{
			"buffer":0,
			"byteLength":32,
			"byteOffset":51532
		},
		{
			"buffer":0,
			"byteLength":24,
			"byteOffset":51564
		},
		{
			"buffer":0,
			"byteLength":24,
			"byteOffset":51588
		},
		{
			"buffer":0,
			"byteLength":416,
			"byteOffset":51612
		},
		{
			"buffer":0,
			"byteLength":24,
			"byteOffset":52028
		},
		{
			"buffer":0,
			"byteLength":24,
			"byteOffset":52052
		},
		{
			"buffer":0,
			"byteLength":32,
			"byteOffset":52076
		},
		{
			"buffer":0,
			"byteLength":24,
			"byteOffset":52108
		},
		{
			"buffer":0,
			"byteLength":312,
			"byteOffset":52132
		},
		{
			"buffer":0,
			"byteLength":416,
			"byteOffset":52444
		},
		{
			"buffer":0,
			"byteLength":24,
			"byteOffset":52860
		},
		{
			"buffer":0,
			"byteLength":24,
			"byteOffset":52884
		},
		{
			"buffer":0,
			"byteLength":32,
			"byteOffset":52908
		},
		{
			"buffer":0,
			"byteLength":24,
			"byteOffset":52940
		},
		{
			"buffer":0,
			"byteLength":24,
			"byteOffset":52964
		},
		{
			"buffer":0,
			"byteLength":416,
			"byteOffset":52988
		},
		{
			"buffer":0,
			"byteLength":24,
			"byteOffset":53404
		},
		{
			"buffer":0,
			"byteLength":24,
			"byteOffset":53428
		},
		{
			"buffer":0,
			"byteLength":416,
			"byteOffset":53452
		},
		{
			"buffer":0,
			"byteLength":24,
			"byteOffset":53868
		},
		{
			"buffer":0,
			"byteLength":24,
			"byteOffset":53892
		},
		{
			"buffer":0,
			"byteLength":416,
			"byteOffset":53916
		},
		{
			"buffer":0,
			"byteLength":24,
			"byteOffset":54332
		},
		{
			"buffer":0,
			"byteLength":24,
			"byteOffset":54356
		},
		{
			"buffer":0,
			"byteLength":32,
			"byteOffset":54380
		},
		{
			"buffer":0,
			"byteLength":24,
			"byteOffset":54412
		},
		{
			"buffer":0,
			"byteLength":24,
			"byteOffset":54436
		},
		{
			"buffer":0,
			"byteLength":32,
			"byteOffset":54460
		},
		{
			"buffer":0,
			"byteLength":24,
			"byteOffset":54492
		},
		{
			"buffer":0,
			"byteLength":24,
			"byteOffset":54516
		},
		{
			"buffer":0,
			"byteLength":32,
			"byteOffset":54540
		},
		{
			"buffer":0,
			"byteLength":24,
			"byteOffset":54572
		},
		{
			"buffer":0,
			"byteLength":312,
			"byteOffset":54596
		},
		{
			"buffer":0,
			"byteLength":416,
			"byteOffset":54908
		},
		{
			"buffer":0,
			"byteLength":24,
			"byteOffset":55324
		}
	],
	"buffers":[
		{
			"byteLength":55348,
			"uri":"Spirit_attack2.bin"
		}
	]
}
