{
	"asset":{
		"generator":"Khronos glTF Blender I/O v4.4.56",
		"version":"2.0"
	},
	"scene":0,
	"scenes":[
		{
			"name":"Scene",
			"nodes":[
				4,
				5
			]
		}
	],
	"nodes":[
		{
			"name":"\u30dc\u30fc\u30f3",
			"translation":[
				-5.551115123125783e-17,
				-9.239933973503867e-08,
				7.51896322981338e-11
			]
		},
		{
			"name":"\u30dc\u30fc\u30f3.001",
			"rotation":[
				1.6413199670369492e-14,
				1,
				9.664293543210078e-08,
				1.9470718370939721e-07
			],
			"scale":[
				1,
				0.9999997019767761,
				0.9999999403953552
			],
			"translation":[
				-7.714348049248088e-10,
				-0.055045995861291885,
				2.3740813732147217
			]
		},
		{
			"name":"neutral_bone",
			"rotation":[
				-0.7071067690849304,
				0,
				0,
				0.7071067690849304
			]
		},
		{
			"mesh":0,
			"name":"\u7acb\u65b9\u4f53",
			"skin":0
		},
		{
			"children":[
				3,
				0,
				1,
				2
			],
			"name":"\u30a2\u30fc\u30de\u30c1\u30e5\u30a2",
			"rotation":[
				-0.7071067690849304,
				0,
				0,
				0.7071068286895752
			],
			"scale":[
				0.7071331739425659,
				0.7071331739425659,
				0.7071331739425659
			],
			"translation":[
				0,
				0.2511090040206909,
				0.8381133675575256
			]
		},
		{
			"mesh":1,
			"name":"\u7acb\u65b9\u4f53.007"
		}
	],
	"animations":[
		{
			"channels":[
				{
					"sampler":0,
					"target":{
						"node":0,
						"path":"translation"
					}
				},
				{
					"sampler":1,
					"target":{
						"node":0,
						"path":"rotation"
					}
				},
				{
					"sampler":2,
					"target":{
						"node":0,
						"path":"scale"
					}
				},
				{
					"sampler":3,
					"target":{
						"node":1,
						"path":"translation"
					}
				},
				{
					"sampler":4,
					"target":{
						"node":1,
						"path":"rotation"
					}
				},
				{
					"sampler":5,
					"target":{
						"node":1,
						"path":"scale"
					}
				}
			],
			"name":"idle",
			"samplers":[
				{
					"input":11,
					"interpolation":"LINEAR",
					"output":12
				},
				{
					"input":11,
					"interpolation":"LINEAR",
					"output":13
				},
				{
					"input":11,
					"interpolation":"LINEAR",
					"output":14
				},
				{
					"input":11,
					"interpolation":"LINEAR",
					"output":15
				},
				{
					"input":11,
					"interpolation":"LINEAR",
					"output":16
				},
				{
					"input":11,
					"interpolation":"LINEAR",
					"output":17
				}
			]
		}
	],
	"meshes":[
		{
			"name":"\u7acb\u65b9\u4f53",
			"primitives":[
				{
					"attributes":{
						"POSITION":0,
						"NORMAL":1,
						"TEXCOORD_0":2,
						"JOINTS_0":3,
						"WEIGHTS_0":4
					},
					"indices":5
				}
			]
		},
		{
			"name":"\u7acb\u65b9\u4f53.011",
			"primitives":[
				{
					"attributes":{
						"POSITION":7,
						"NORMAL":8,
						"TEXCOORD_0":9
					},
					"indices":10
				}
			]
		}
	],
	"skins":[
		{
			"inverseBindMatrices":6,
			"joints":[
				0,
				1,
				2
			],
			"name":"\u30a2\u30fc\u30de\u30c1\u30e5\u30a2"
		}
	],
	"accessors":[
		{
			"bufferView":0,
			"componentType":5126,
			"count":1603,
			"max":[
				2.3627688884735107,
				2.127779960632324,
				1.4392460584640503
			],
			"min":[
				-2.3627688884735107,
				-0.7786439061164856,
				-0.9728483557701111
			],
			"type":"VEC3"
		},
		{
			"bufferView":1,
			"componentType":5126,
			"count":1603,
			"type":"VEC3"
		},
		{
			"bufferView":2,
			"componentType":5126,
			"count":1603,
			"type":"VEC2"
		},
		{
			"bufferView":3,
			"componentType":5121,
			"count":1603,
			"type":"VEC4"
		},
		{
			"bufferView":4,
			"componentType":5126,
			"count":1603,
			"type":"VEC4"
		},
		{
			"bufferView":5,
			"componentType":5123,
			"count":3918,
			"type":"SCALAR"
		},
		{
			"bufferView":6,
			"componentType":5126,
			"count":3,
			"type":"MAT4"
		},
		{
			"bufferView":7,
			"componentType":5126,
			"count":48,
			"max":[
				0.19546619057655334,
				0.19546616077423096,
				0.8438310027122498
			],
			"min":[
				-0.19546619057655334,
				-0.19546616077423096,
				-1.4588935375213623
			],
			"type":"VEC3"
		},
		{
			"bufferView":8,
			"componentType":5126,
			"count":48,
			"type":"VEC3"
		},
		{
			"bufferView":9,
			"componentType":5126,
			"count":48,
			"type":"VEC2"
		},
		{
			"bufferView":10,
			"componentType":5123,
			"count":48,
			"type":"SCALAR"
		},
		{
			"bufferView":11,
			"componentType":5126,
			"count":1,
			"max":[
				0
			],
			"min":[
				0
			],
			"type":"SCALAR"
		},
		{
			"bufferView":12,
			"componentType":5126,
			"count":1,
			"type":"VEC3"
		},
		{
			"bufferView":13,
			"componentType":5126,
			"count":1,
			"type":"VEC4"
		},
		{
			"bufferView":14,
			"componentType":5126,
			"count":1,
			"type":"VEC3"
		},
		{
			"bufferView":15,
			"componentType":5126,
			"count":1,
			"type":"VEC3"
		},
		{
			"bufferView":16,
			"componentType":5126,
			"count":1,
			"type":"VEC4"
		},
		{
			"bufferView":17,
			"componentType":5126,
			"count":1,
			"type":"VEC3"
		}
	],
	"bufferViews":[
		{
			"buffer":0,
			"byteLength":19236,
			"byteOffset":0,
			"target":34962
		},
		{
			"buffer":0,
			"byteLength":19236,
			"byteOffset":19236,
			"target":34962
		},
		{
			"buffer":0,
			"byteLength":12824,
			"byteOffset":38472,
			"target":34962
		},
		{
			"buffer":0,
			"byteLength":6412,
			"byteOffset":51296,
			"target":34962
		},
		{
			"buffer":0,
			"byteLength":25648,
			"byteOffset":57708,
			"target":34962
		},
		{
			"buffer":0,
			"byteLength":7836,
			"byteOffset":83356,
			"target":34963
		},
		{
			"buffer":0,
			"byteLength":192,
			"byteOffset":91192
		},
		{
			"buffer":0,
			"byteLength":576,
			"byteOffset":91384,
			"target":34962
		},
		{
			"buffer":0,
			"byteLength":576,
			"byteOffset":91960,
			"target":34962
		},
		{
			"buffer":0,
			"byteLength":384,
			"byteOffset":92536,
			"target":34962
		},
		{
			"buffer":0,
			"byteLength":96,
			"byteOffset":92920,
			"target":34963
		},
		{
			"buffer":0,
			"byteLength":4,
			"byteOffset":93016
		},
		{
			"buffer":0,
			"byteLength":12,
			"byteOffset":93020
		},
		{
			"buffer":0,
			"byteLength":16,
			"byteOffset":93032
		},
		{
			"buffer":0,
			"byteLength":12,
			"byteOffset":93048
		},
		{
			"buffer":0,
			"byteLength":12,
			"byteOffset":93060
		},
		{
			"buffer":0,
			"byteLength":16,
			"byteOffset":93072
		},
		{
			"buffer":0,
			"byteLength":12,
			"byteOffset":93088
		}
	],
	"buffers":[
		{
			"byteLength":93100,
			"uri":"Enemy_06_idle.bin"
		}
	]
}
