{
	"asset":{
		"generator":"Khronos glTF Blender I/O v4.4.56",
		"version":"2.0"
	},
	"scene":0,
	"scenes":[
		{
			"name":"Scene",
			"nodes":[
				16
			]
		}
	],
	"nodes":[
		{
			"name":"\u30dc\u30fc\u30f3.005",
			"rotation":[
				8.437384479975663e-08,
				4.660882524376575e-08,
				-0.4645256996154785,
				0.8855596780776978
			],
			"scale":[
				0.9999998807907104,
				0.9999999403953552,
				1
			],
			"translation":[
				3.2782557468635787e-07,
				0.25968319177627563,
				-1.7763568394002505e-15
			]
		},
		{
			"children":[
				0
			],
			"name":"\u30dc\u30fc\u30f3.004",
			"rotation":[
				-5.9256684892261546e-08,
				9.245511911615267e-09,
				0.5008123517036438,
				0.8655558824539185
			],
			"scale":[
				1,
				1.0000001192092896,
				1
			],
			"translation":[
				5.960463056453591e-08,
				0.3050116002559662,
				-7.904787935331115e-14
			]
		},
		{
			"children":[
				1
			],
			"name":"\u30dc\u30fc\u30f3.003",
			"rotation":[
				1.2525591230883037e-08,
				5.913150502578901e-08,
				-0.2710684537887573,
				0.9625600576400757
			],
			"scale":[
				0.9999998211860657,
				0.9999998807907104,
				1
			],
			"translation":[
				2.98022992950564e-08,
				0.5250747799873352,
				7.105427357601002e-14
			]
		},
		{
			"children":[
				2
			],
			"name":"\u30dc\u30fc\u30f3.002",
			"rotation":[
				-3.6907918943285267e-09,
				1.7224630610712666e-08,
				-0.1133551076054573,
				0.9935545921325684
			],
			"scale":[
				0.9999998807907104,
				0.9999999403953552,
				1
			],
			"translation":[
				-1.4901171851988693e-08,
				0.4406644105911255,
				3.197442310920451e-14
			]
		},
		{
			"children":[
				3
			],
			"name":"\u30dc\u30fc\u30f3.001",
			"rotation":[
				-6.084853509946697e-08,
				-1.1038044256395096e-08,
				0.1995859593153,
				0.9798803329467773
			],
			"translation":[
				0,
				0.6321868896484375,
				0
			]
		},
		{
			"children":[
				4
			],
			"name":"\u30dc\u30fc\u30f3",
			"translation":[
				0,
				4.821955680847168,
				0
			]
		},
		{
			"name":"\u30dc\u30fc\u30f3.013",
			"rotation":[
				0.5437909960746765,
				-6.860564200072972e-11,
				-4.0843823967406934e-07,
				0.8392207026481628
			],
			"scale":[
				1,
				0.9999999403953552,
				0.9999999403953552
			],
			"translation":[
				0,
				0.26361221075057983,
				7.450884353943366e-09
			]
		},
		{
			"children":[
				6
			],
			"name":"\u30dc\u30fc\u30f3.012",
			"rotation":[
				-0.05025718733668327,
				-3.0248690219281116e-09,
				3.7591544099768726e-08,
				0.9987363219261169
			],
			"scale":[
				1,
				0.9999999403953552,
				1
			],
			"translation":[
				-2.1316282072803006e-14,
				0.34960946440696716,
				1.8626712616764962e-08
			]
		},
		{
			"children":[
				7
			],
			"name":"\u30dc\u30fc\u30f3.011",
			"rotation":[
				-0.17254100739955902,
				-3.153212091433488e-08,
				1.2301190110974858e-07,
				0.985002338886261
			],
			"translation":[
				7.105427357601002e-15,
				0.3858127295970917,
				1.8016144132104728e-13
			]
		},
		{
			"children":[
				8
			],
			"name":"\u30dc\u30fc\u30f3.010",
			"rotation":[
				0.044126734137535095,
				3.949643812006798e-08,
				-3.179176388812266e-08,
				0.9990259408950806
			],
			"translation":[
				2.842170943040401e-14,
				0.8522136211395264,
				3.725472375037953e-09
			]
		},
		{
			"children":[
				9
			],
			"name":"\u30dc\u30fc\u30f3.009",
			"rotation":[
				-0.08071793615818024,
				9.78485381608607e-09,
				6.213807068888855e-08,
				0.996737003326416
			],
			"translation":[
				0,
				0.8073673844337463,
				-1.4901052836080453e-08
			]
		},
		{
			"children":[
				10
			],
			"name":"\u30dc\u30fc\u30f3.008",
			"rotation":[
				-0.009006294421851635,
				-7.586721295638199e-08,
				6.338313429665732e-09,
				0.9999594688415527
			],
			"scale":[
				1,
				0.9999999403953552,
				0.9999999403953552
			],
			"translation":[
				-5.861977570020827e-14,
				0.7068954706192017,
				-5.215402509861633e-08
			]
		},
		{
			"children":[
				11
			],
			"name":"\u30dc\u30fc\u30f3.007",
			"rotation":[
				0.007453757803887129,
				-1.2133303073369461e-07,
				6.284717102289505e-08,
				0.9999722242355347
			],
			"scale":[
				1,
				0.9999999403953552,
				0.9999999403953552
			],
			"translation":[
				5.329070518200751e-15,
				0.7092353105545044,
				-1.1175869119028903e-08
			]
		},
		{
			"children":[
				12
			],
			"name":"\u30dc\u30fc\u30f3.006",
			"rotation":[
				-0.7056359052658081,
				0.045583050698041916,
				0.7056361436843872,
				0.045583050698041916
			],
			"scale":[
				0.9999999403953552,
				1,
				0.9999999403953552
			],
			"translation":[
				0.13180610537528992,
				4.206790924072266,
				0
			]
		},
		{
			"name":"\u30dc\u30fc\u30f3.014",
			"rotation":[
				1.867565089241907e-07,
				7.701298265772039e-09,
				-0.9674447774887085,
				0.2530822455883026
			],
			"scale":[
				0.9999999403953552,
				0.9999998807907104,
				0.9999999403953552
			],
			"translation":[
				1.5799005031585693,
				3.650482654571533,
				0
			]
		},
		{
			"mesh":0,
			"name":"\u5e73\u9762.001",
			"skin":0
		},
		{
			"children":[
				15,
				5,
				13,
				14
			],
			"name":"\u30a2\u30fc\u30de\u30c1\u30e5\u30a2",
			"rotation":[
				0,
				1,
				0,
				7.549790126404332e-08
			]
		}
	],
	"animations":[
		{
			"channels":[
				{
					"sampler":0,
					"target":{
						"node":5,
						"path":"translation"
					}
				},
				{
					"sampler":1,
					"target":{
						"node":5,
						"path":"rotation"
					}
				},
				{
					"sampler":2,
					"target":{
						"node":5,
						"path":"scale"
					}
				},
				{
					"sampler":3,
					"target":{
						"node":4,
						"path":"translation"
					}
				},
				{
					"sampler":4,
					"target":{
						"node":4,
						"path":"rotation"
					}
				},
				{
					"sampler":5,
					"target":{
						"node":4,
						"path":"scale"
					}
				},
				{
					"sampler":6,
					"target":{
						"node":3,
						"path":"translation"
					}
				},
				{
					"sampler":7,
					"target":{
						"node":3,
						"path":"rotation"
					}
				},
				{
					"sampler":8,
					"target":{
						"node":3,
						"path":"scale"
					}
				},
				{
					"sampler":9,
					"target":{
						"node":2,
						"path":"translation"
					}
				},
				{
					"sampler":10,
					"target":{
						"node":2,
						"path":"rotation"
					}
				},
				{
					"sampler":11,
					"target":{
						"node":2,
						"path":"scale"
					}
				},
				{
					"sampler":12,
					"target":{
						"node":1,
						"path":"translation"
					}
				},
				{
					"sampler":13,
					"target":{
						"node":1,
						"path":"rotation"
					}
				},
				{
					"sampler":14,
					"target":{
						"node":1,
						"path":"scale"
					}
				},
				{
					"sampler":15,
					"target":{
						"node":0,
						"path":"translation"
					}
				},
				{
					"sampler":16,
					"target":{
						"node":0,
						"path":"rotation"
					}
				},
				{
					"sampler":17,
					"target":{
						"node":0,
						"path":"scale"
					}
				},
				{
					"sampler":18,
					"target":{
						"node":13,
						"path":"translation"
					}
				},
				{
					"sampler":19,
					"target":{
						"node":13,
						"path":"rotation"
					}
				},
				{
					"sampler":20,
					"target":{
						"node":13,
						"path":"scale"
					}
				},
				{
					"sampler":21,
					"target":{
						"node":12,
						"path":"translation"
					}
				},
				{
					"sampler":22,
					"target":{
						"node":12,
						"path":"rotation"
					}
				},
				{
					"sampler":23,
					"target":{
						"node":12,
						"path":"scale"
					}
				},
				{
					"sampler":24,
					"target":{
						"node":11,
						"path":"translation"
					}
				},
				{
					"sampler":25,
					"target":{
						"node":11,
						"path":"rotation"
					}
				},
				{
					"sampler":26,
					"target":{
						"node":11,
						"path":"scale"
					}
				},
				{
					"sampler":27,
					"target":{
						"node":10,
						"path":"translation"
					}
				},
				{
					"sampler":28,
					"target":{
						"node":10,
						"path":"rotation"
					}
				},
				{
					"sampler":29,
					"target":{
						"node":10,
						"path":"scale"
					}
				},
				{
					"sampler":30,
					"target":{
						"node":9,
						"path":"translation"
					}
				},
				{
					"sampler":31,
					"target":{
						"node":9,
						"path":"rotation"
					}
				},
				{
					"sampler":32,
					"target":{
						"node":9,
						"path":"scale"
					}
				},
				{
					"sampler":33,
					"target":{
						"node":8,
						"path":"translation"
					}
				},
				{
					"sampler":34,
					"target":{
						"node":8,
						"path":"rotation"
					}
				},
				{
					"sampler":35,
					"target":{
						"node":8,
						"path":"scale"
					}
				},
				{
					"sampler":36,
					"target":{
						"node":7,
						"path":"translation"
					}
				},
				{
					"sampler":37,
					"target":{
						"node":7,
						"path":"rotation"
					}
				},
				{
					"sampler":38,
					"target":{
						"node":7,
						"path":"scale"
					}
				},
				{
					"sampler":39,
					"target":{
						"node":6,
						"path":"translation"
					}
				},
				{
					"sampler":40,
					"target":{
						"node":6,
						"path":"rotation"
					}
				},
				{
					"sampler":41,
					"target":{
						"node":6,
						"path":"scale"
					}
				},
				{
					"sampler":42,
					"target":{
						"node":14,
						"path":"translation"
					}
				},
				{
					"sampler":43,
					"target":{
						"node":14,
						"path":"rotation"
					}
				},
				{
					"sampler":44,
					"target":{
						"node":14,
						"path":"scale"
					}
				}
			],
			"name":"idle",
			"samplers":[
				{
					"input":7,
					"interpolation":"STEP",
					"output":8
				},
				{
					"input":9,
					"interpolation":"LINEAR",
					"output":10
				},
				{
					"input":9,
					"interpolation":"LINEAR",
					"output":11
				},
				{
					"input":7,
					"interpolation":"STEP",
					"output":12
				},
				{
					"input":7,
					"interpolation":"STEP",
					"output":13
				},
				{
					"input":7,
					"interpolation":"STEP",
					"output":14
				},
				{
					"input":7,
					"interpolation":"STEP",
					"output":15
				},
				{
					"input":7,
					"interpolation":"STEP",
					"output":16
				},
				{
					"input":7,
					"interpolation":"STEP",
					"output":17
				},
				{
					"input":7,
					"interpolation":"STEP",
					"output":18
				},
				{
					"input":7,
					"interpolation":"STEP",
					"output":19
				},
				{
					"input":7,
					"interpolation":"STEP",
					"output":20
				},
				{
					"input":7,
					"interpolation":"STEP",
					"output":21
				},
				{
					"input":7,
					"interpolation":"STEP",
					"output":22
				},
				{
					"input":7,
					"interpolation":"STEP",
					"output":23
				},
				{
					"input":7,
					"interpolation":"STEP",
					"output":24
				},
				{
					"input":7,
					"interpolation":"STEP",
					"output":25
				},
				{
					"input":7,
					"interpolation":"STEP",
					"output":26
				},
				{
					"input":7,
					"interpolation":"LINEAR",
					"output":27
				},
				{
					"input":9,
					"interpolation":"LINEAR",
					"output":28
				},
				{
					"input":9,
					"interpolation":"LINEAR",
					"output":29
				},
				{
					"input":7,
					"interpolation":"LINEAR",
					"output":30
				},
				{
					"input":9,
					"interpolation":"LINEAR",
					"output":31
				},
				{
					"input":7,
					"interpolation":"STEP",
					"output":32
				},
				{
					"input":7,
					"interpolation":"LINEAR",
					"output":33
				},
				{
					"input":9,
					"interpolation":"LINEAR",
					"output":34
				},
				{
					"input":7,
					"interpolation":"STEP",
					"output":35
				},
				{
					"input":7,
					"interpolation":"LINEAR",
					"output":36
				},
				{
					"input":9,
					"interpolation":"LINEAR",
					"output":37
				},
				{
					"input":7,
					"interpolation":"LINEAR",
					"output":38
				},
				{
					"input":7,
					"interpolation":"LINEAR",
					"output":39
				},
				{
					"input":7,
					"interpolation":"LINEAR",
					"output":40
				},
				{
					"input":7,
					"interpolation":"LINEAR",
					"output":41
				},
				{
					"input":7,
					"interpolation":"LINEAR",
					"output":42
				},
				{
					"input":9,
					"interpolation":"LINEAR",
					"output":43
				},
				{
					"input":7,
					"interpolation":"STEP",
					"output":44
				},
				{
					"input":7,
					"interpolation":"LINEAR",
					"output":45
				},
				{
					"input":7,
					"interpolation":"LINEAR",
					"output":46
				},
				{
					"input":7,
					"interpolation":"STEP",
					"output":47
				},
				{
					"input":7,
					"interpolation":"LINEAR",
					"output":48
				},
				{
					"input":7,
					"interpolation":"LINEAR",
					"output":49
				},
				{
					"input":7,
					"interpolation":"STEP",
					"output":50
				},
				{
					"input":9,
					"interpolation":"LINEAR",
					"output":51
				},
				{
					"input":9,
					"interpolation":"LINEAR",
					"output":52
				},
				{
					"input":7,
					"interpolation":"STEP",
					"output":53
				}
			]
		}
	],
	"meshes":[
		{
			"name":"\u5e73\u9762.001",
			"primitives":[
				{
					"attributes":{
						"POSITION":0,
						"NORMAL":1,
						"TEXCOORD_0":2,
						"JOINTS_0":3,
						"WEIGHTS_0":4
					},
					"indices":5
				}
			]
		}
	],
	"skins":[
		{
			"inverseBindMatrices":6,
			"joints":[
				5,
				4,
				3,
				2,
				1,
				0,
				13,
				12,
				11,
				10,
				9,
				8,
				7,
				6,
				14
			],
			"name":"\u30a2\u30fc\u30de\u30c1\u30e5\u30a2"
		}
	],
	"accessors":[
		{
			"bufferView":0,
			"componentType":5126,
			"count":852,
			"max":[
				1.115677833557129,
				7.111159324645996,
				1.0158408880233765
			],
			"min":[
				-3.6548099517822266,
				-0.17876529693603516,
				-1.0158408880233765
			],
			"type":"VEC3"
		},
		{
			"bufferView":1,
			"componentType":5126,
			"count":852,
			"type":"VEC3"
		},
		{
			"bufferView":2,
			"componentType":5126,
			"count":852,
			"type":"VEC2"
		},
		{
			"bufferView":3,
			"componentType":5121,
			"count":852,
			"type":"VEC4"
		},
		{
			"bufferView":4,
			"componentType":5126,
			"count":852,
			"type":"VEC4"
		},
		{
			"bufferView":5,
			"componentType":5123,
			"count":2610,
			"type":"SCALAR"
		},
		{
			"bufferView":6,
			"componentType":5126,
			"count":15,
			"type":"MAT4"
		},
		{
			"bufferView":7,
			"componentType":5126,
			"count":2,
			"max":[
				5.133333333333334
			],
			"min":[
				0
			],
			"type":"SCALAR"
		},
		{
			"bufferView":8,
			"componentType":5126,
			"count":2,
			"type":"VEC3"
		},
		{
			"bufferView":9,
			"componentType":5126,
			"count":309,
			"max":[
				5.133333333333334
			],
			"min":[
				0
			],
			"type":"SCALAR"
		},
		{
			"bufferView":10,
			"componentType":5126,
			"count":309,
			"type":"VEC4"
		},
		{
			"bufferView":11,
			"componentType":5126,
			"count":309,
			"type":"VEC3"
		},
		{
			"bufferView":12,
			"componentType":5126,
			"count":2,
			"type":"VEC3"
		},
		{
			"bufferView":13,
			"componentType":5126,
			"count":2,
			"type":"VEC4"
		},
		{
			"bufferView":14,
			"componentType":5126,
			"count":2,
			"type":"VEC3"
		},
		{
			"bufferView":15,
			"componentType":5126,
			"count":2,
			"type":"VEC3"
		},
		{
			"bufferView":16,
			"componentType":5126,
			"count":2,
			"type":"VEC4"
		},
		{
			"bufferView":17,
			"componentType":5126,
			"count":2,
			"type":"VEC3"
		},
		{
			"bufferView":18,
			"componentType":5126,
			"count":2,
			"type":"VEC3"
		},
		{
			"bufferView":19,
			"componentType":5126,
			"count":2,
			"type":"VEC4"
		},
		{
			"bufferView":20,
			"componentType":5126,
			"count":2,
			"type":"VEC3"
		},
		{
			"bufferView":21,
			"componentType":5126,
			"count":2,
			"type":"VEC3"
		},
		{
			"bufferView":22,
			"componentType":5126,
			"count":2,
			"type":"VEC4"
		},
		{
			"bufferView":23,
			"componentType":5126,
			"count":2,
			"type":"VEC3"
		},
		{
			"bufferView":24,
			"componentType":5126,
			"count":2,
			"type":"VEC3"
		},
		{
			"bufferView":25,
			"componentType":5126,
			"count":2,
			"type":"VEC4"
		},
		{
			"bufferView":26,
			"componentType":5126,
			"count":2,
			"type":"VEC3"
		},
		{
			"bufferView":27,
			"componentType":5126,
			"count":2,
			"type":"VEC3"
		},
		{
			"bufferView":28,
			"componentType":5126,
			"count":309,
			"type":"VEC4"
		},
		{
			"bufferView":29,
			"componentType":5126,
			"count":309,
			"type":"VEC3"
		},
		{
			"bufferView":30,
			"componentType":5126,
			"count":2,
			"type":"VEC3"
		},
		{
			"bufferView":31,
			"componentType":5126,
			"count":309,
			"type":"VEC4"
		},
		{
			"bufferView":32,
			"componentType":5126,
			"count":2,
			"type":"VEC3"
		},
		{
			"bufferView":33,
			"componentType":5126,
			"count":2,
			"type":"VEC3"
		},
		{
			"bufferView":34,
			"componentType":5126,
			"count":309,
			"type":"VEC4"
		},
		{
			"bufferView":35,
			"componentType":5126,
			"count":2,
			"type":"VEC3"
		},
		{
			"bufferView":36,
			"componentType":5126,
			"count":2,
			"type":"VEC3"
		},
		{
			"bufferView":37,
			"componentType":5126,
			"count":309,
			"type":"VEC4"
		},
		{
			"bufferView":38,
			"componentType":5126,
			"count":2,
			"type":"VEC3"
		},
		{
			"bufferView":39,
			"componentType":5126,
			"count":2,
			"type":"VEC3"
		},
		{
			"bufferView":40,
			"componentType":5126,
			"count":2,
			"type":"VEC4"
		},
		{
			"bufferView":41,
			"componentType":5126,
			"count":2,
			"type":"VEC3"
		},
		{
			"bufferView":42,
			"componentType":5126,
			"count":2,
			"type":"VEC3"
		},
		{
			"bufferView":43,
			"componentType":5126,
			"count":309,
			"type":"VEC4"
		},
		{
			"bufferView":44,
			"componentType":5126,
			"count":2,
			"type":"VEC3"
		},
		{
			"bufferView":45,
			"componentType":5126,
			"count":2,
			"type":"VEC3"
		},
		{
			"bufferView":46,
			"componentType":5126,
			"count":2,
			"type":"VEC4"
		},
		{
			"bufferView":47,
			"componentType":5126,
			"count":2,
			"type":"VEC3"
		},
		{
			"bufferView":48,
			"componentType":5126,
			"count":2,
			"type":"VEC3"
		},
		{
			"bufferView":49,
			"componentType":5126,
			"count":2,
			"type":"VEC4"
		},
		{
			"bufferView":50,
			"componentType":5126,
			"count":2,
			"type":"VEC3"
		},
		{
			"bufferView":51,
			"componentType":5126,
			"count":309,
			"type":"VEC3"
		},
		{
			"bufferView":52,
			"componentType":5126,
			"count":309,
			"type":"VEC4"
		},
		{
			"bufferView":53,
			"componentType":5126,
			"count":2,
			"type":"VEC3"
		}
	],
	"bufferViews":[
		{
			"buffer":0,
			"byteLength":10224,
			"byteOffset":0,
			"target":34962
		},
		{
			"buffer":0,
			"byteLength":10224,
			"byteOffset":10224,
			"target":34962
		},
		{
			"buffer":0,
			"byteLength":6816,
			"byteOffset":20448,
			"target":34962
		},
		{
			"buffer":0,
			"byteLength":3408,
			"byteOffset":27264,
			"target":34962
		},
		{
			"buffer":0,
			"byteLength":13632,
			"byteOffset":30672,
			"target":34962
		},
		{
			"buffer":0,
			"byteLength":5220,
			"byteOffset":44304,
			"target":34963
		},
		{
			"buffer":0,
			"byteLength":960,
			"byteOffset":49524
		},
		{
			"buffer":0,
			"byteLength":8,
			"byteOffset":50484
		},
		{
			"buffer":0,
			"byteLength":24,
			"byteOffset":50492
		},
		{
			"buffer":0,
			"byteLength":1236,
			"byteOffset":50516
		},
		{
			"buffer":0,
			"byteLength":4944,
			"byteOffset":51752
		},
		{
			"buffer":0,
			"byteLength":3708,
			"byteOffset":56696
		},
		{
			"buffer":0,
			"byteLength":24,
			"byteOffset":60404
		},
		{
			"buffer":0,
			"byteLength":32,
			"byteOffset":60428
		},
		{
			"buffer":0,
			"byteLength":24,
			"byteOffset":60460
		},
		{
			"buffer":0,
			"byteLength":24,
			"byteOffset":60484
		},
		{
			"buffer":0,
			"byteLength":32,
			"byteOffset":60508
		},
		{
			"buffer":0,
			"byteLength":24,
			"byteOffset":60540
		},
		{
			"buffer":0,
			"byteLength":24,
			"byteOffset":60564
		},
		{
			"buffer":0,
			"byteLength":32,
			"byteOffset":60588
		},
		{
			"buffer":0,
			"byteLength":24,
			"byteOffset":60620
		},
		{
			"buffer":0,
			"byteLength":24,
			"byteOffset":60644
		},
		{
			"buffer":0,
			"byteLength":32,
			"byteOffset":60668
		},
		{
			"buffer":0,
			"byteLength":24,
			"byteOffset":60700
		},
		{
			"buffer":0,
			"byteLength":24,
			"byteOffset":60724
		},
		{
			"buffer":0,
			"byteLength":32,
			"byteOffset":60748
		},
		{
			"buffer":0,
			"byteLength":24,
			"byteOffset":60780
		},
		{
			"buffer":0,
			"byteLength":24,
			"byteOffset":60804
		},
		{
			"buffer":0,
			"byteLength":4944,
			"byteOffset":60828
		},
		{
			"buffer":0,
			"byteLength":3708,
			"byteOffset":65772
		},
		{
			"buffer":0,
			"byteLength":24,
			"byteOffset":69480
		},
		{
			"buffer":0,
			"byteLength":4944,
			"byteOffset":69504
		},
		{
			"buffer":0,
			"byteLength":24,
			"byteOffset":74448
		},
		{
			"buffer":0,
			"byteLength":24,
			"byteOffset":74472
		},
		{
			"buffer":0,
			"byteLength":4944,
			"byteOffset":74496
		},
		{
			"buffer":0,
			"byteLength":24,
			"byteOffset":79440
		},
		{
			"buffer":0,
			"byteLength":24,
			"byteOffset":79464
		},
		{
			"buffer":0,
			"byteLength":4944,
			"byteOffset":79488
		},
		{
			"buffer":0,
			"byteLength":24,
			"byteOffset":84432
		},
		{
			"buffer":0,
			"byteLength":24,
			"byteOffset":84456
		},
		{
			"buffer":0,
			"byteLength":32,
			"byteOffset":84480
		},
		{
			"buffer":0,
			"byteLength":24,
			"byteOffset":84512
		},
		{
			"buffer":0,
			"byteLength":24,
			"byteOffset":84536
		},
		{
			"buffer":0,
			"byteLength":4944,
			"byteOffset":84560
		},
		{
			"buffer":0,
			"byteLength":24,
			"byteOffset":89504
		},
		{
			"buffer":0,
			"byteLength":24,
			"byteOffset":89528
		},
		{
			"buffer":0,
			"byteLength":32,
			"byteOffset":89552
		},
		{
			"buffer":0,
			"byteLength":24,
			"byteOffset":89584
		},
		{
			"buffer":0,
			"byteLength":24,
			"byteOffset":89608
		},
		{
			"buffer":0,
			"byteLength":32,
			"byteOffset":89632
		},
		{
			"buffer":0,
			"byteLength":24,
			"byteOffset":89664
		},
		{
			"buffer":0,
			"byteLength":3708,
			"byteOffset":89688
		},
		{
			"buffer":0,
			"byteLength":4944,
			"byteOffset":93396
		},
		{
			"buffer":0,
			"byteLength":24,
			"byteOffset":98340
		}
	],
	"buffers":[
		{
			"byteLength":98364,
			"uri":"Spirit_idle.bin"
		}
	]
}
