{
	"asset":{
		"generator":"Khronos glTF Blender I/O v4.4.56",
		"version":"2.0"
	},
	"scene":0,
	"scenes":[
		{
			"name":"Scene",
			"nodes":[
				17
			]
		}
	],
	"nodes":[
		{
			"name":"\u30dc\u30fc\u30f3.002",
			"translation":[
				0,
				0.8406198024749756,
				0
			]
		},
		{
			"name":"\u30dc\u30fc\u30f3.015",
			"rotation":[
				-0.7030434012413025,
				1.2629581647161103e-07,
				-0.0022903243079781532,
				0.7111433148384094
			],
			"scale":[
				1,
				0.9999999403953552,
				0.9999999403953552
			],
			"translation":[
				-8.43769498715119e-15,
				1.3192020654678345,
				2.1316282072803006e-14
			]
		},
		{
			"children":[
				1
			],
			"name":"\u30dc\u30fc\u30f3.005",
			"rotation":[
				-2.646224572799838e-09,
				8.276466445522601e-08,
				0.03302770480513573,
				0.9994544982910156
			],
			"translation":[
				-1.1920928244535389e-07,
				0.9396860599517822,
				0
			]
		},
		{
			"children":[
				2
			],
			"name":"\u30dc\u30fc\u30f3.004",
			"rotation":[
				1.8065428264435468e-08,
				-3.3612295169405115e-08,
				-0.5000691413879395,
				0.8659855127334595
			],
			"scale":[
				0.9999999403953552,
				0.9999998807907104,
				1
			],
			"translation":[
				-2.384185791015625e-07,
				1.103479266166687,
				2.4868995751603507e-14
			]
		},
		{
			"children":[
				3
			],
			"name":"\u30dc\u30fc\u30f3.003",
			"rotation":[
				1.6456397133879364e-08,
				-5.096870125953501e-08,
				-0.8084837794303894,
				0.588518500328064
			],
			"scale":[
				0.9999998807907104,
				0.9999999403953552,
				1
			],
			"translation":[
				0,
				0.8406198024749756,
				0
			]
		},
		{
			"name":"\u30dc\u30fc\u30f3.008",
			"rotation":[
				2.930136799861316e-09,
				9.144663692950417e-09,
				0.006741111166775227,
				0.9999772906303406
			],
			"translation":[
				-5.960450977227083e-08,
				0.9555944800376892,
				1.3500311979441904e-13
			]
		},
		{
			"children":[
				5
			],
			"name":"\u30dc\u30fc\u30f3.007",
			"rotation":[
				1.7372380511915253e-07,
				-6.02028933371912e-08,
				0.46212509274482727,
				0.8868147730827332
			],
			"scale":[
				0.9999999403953552,
				0.9999998807907104,
				1
			],
			"translation":[
				1.49011640360186e-07,
				1.0412194728851318,
				4.263256414560601e-14
			]
		},
		{
			"children":[
				6
			],
			"name":"\u30dc\u30fc\u30f3.006",
			"rotation":[
				6.050633061249755e-08,
				-5.3195865490351935e-08,
				0.8141457438468933,
				0.5806605815887451
			],
			"translation":[
				0,
				0.8406198024749756,
				0
			]
		},
		{
			"children":[
				0,
				4,
				7
			],
			"name":"\u30dc\u30fc\u30f3.001",
			"translation":[
				0,
				1,
				0
			]
		},
		{
			"children":[
				8
			],
			"name":"\u30dc\u30fc\u30f3",
			"rotation":[
				0,
				-1,
				0,
				7.549790126404332e-08
			],
			"translation":[
				0,
				2.5890190601348877,
				0
			]
		},
		{
			"name":"\u30dc\u30fc\u30f3.012",
			"rotation":[
				-0.0049078697338700294,
				-6.984389244735212e-08,
				1.479277367266718e-09,
				0.9999879598617554
			],
			"scale":[
				1,
				0.9999999403953552,
				0.9999999403953552
			],
			"translation":[
				-5.684341886080802e-14,
				0.9526476263999939,
				-5.2154035756757366e-08
			]
		},
		{
			"children":[
				10
			],
			"name":"\u30dc\u30fc\u30f3.011",
			"rotation":[
				-0.42231929302215576,
				1.3472384097212853e-08,
				1.0519954685150879e-07,
				0.906447172164917
			],
			"scale":[
				1,
				1,
				0.9999998807907104
			],
			"translation":[
				-1.4210854715202004e-14,
				0.936369001865387,
				5.960465898624534e-08
			]
		},
		{
			"children":[
				11
			],
			"name":"\u30dc\u30fc\u30f3.009",
			"rotation":[
				-0.6339263319969177,
				-0.3132689893245697,
				-0.6339263319969177,
				0.3132689595222473
			],
			"scale":[
				1,
				1.0000001192092896,
				1
			],
			"translation":[
				0,
				2.5890190601348877,
				0
			]
		},
		{
			"name":"\u30dc\u30fc\u30f3.014",
			"rotation":[
				-0.020939406007528305,
				9.2375820770485e-08,
				-7.158214909708249e-09,
				0.9997807741165161
			],
			"translation":[
				1.4210854715202004e-14,
				0.9866424798965454,
				1.8318679906315083e-14
			]
		},
		{
			"children":[
				13
			],
			"name":"\u30dc\u30fc\u30f3.013",
			"rotation":[
				-0.4215035140514374,
				1.1004012634430183e-07,
				-5.905040367792935e-08,
				0.9068267345428467
			],
			"scale":[
				1,
				1.0000001192092896,
				1.0000001192092896
			],
			"translation":[
				0,
				0.9232436418533325,
				5.960464477539063e-08
			]
		},
		{
			"children":[
				14
			],
			"name":"\u30dc\u30fc\u30f3.010",
			"rotation":[
				-0.6309497356414795,
				0.31922146677970886,
				0.630949854850769,
				0.319221556186676
			],
			"scale":[
				0.9999999403953552,
				1,
				1
			],
			"translation":[
				0,
				2.5890190601348877,
				0
			]
		},
		{
			"mesh":0,
			"name":"\u7acb\u65b9\u4f53.022",
			"skin":0
		},
		{
			"children":[
				16,
				9,
				12,
				15
			],
			"name":"\u30a2\u30fc\u30de\u30c1\u30e5\u30a2.001"
		}
	],
	"animations":[
		{
			"channels":[
				{
					"sampler":0,
					"target":{
						"node":9,
						"path":"translation"
					}
				},
				{
					"sampler":1,
					"target":{
						"node":9,
						"path":"rotation"
					}
				},
				{
					"sampler":2,
					"target":{
						"node":9,
						"path":"scale"
					}
				},
				{
					"sampler":3,
					"target":{
						"node":8,
						"path":"translation"
					}
				},
				{
					"sampler":4,
					"target":{
						"node":8,
						"path":"rotation"
					}
				},
				{
					"sampler":5,
					"target":{
						"node":8,
						"path":"scale"
					}
				},
				{
					"sampler":6,
					"target":{
						"node":0,
						"path":"translation"
					}
				},
				{
					"sampler":7,
					"target":{
						"node":0,
						"path":"rotation"
					}
				},
				{
					"sampler":8,
					"target":{
						"node":0,
						"path":"scale"
					}
				},
				{
					"sampler":9,
					"target":{
						"node":4,
						"path":"translation"
					}
				},
				{
					"sampler":10,
					"target":{
						"node":4,
						"path":"rotation"
					}
				},
				{
					"sampler":11,
					"target":{
						"node":4,
						"path":"scale"
					}
				},
				{
					"sampler":12,
					"target":{
						"node":3,
						"path":"translation"
					}
				},
				{
					"sampler":13,
					"target":{
						"node":3,
						"path":"rotation"
					}
				},
				{
					"sampler":14,
					"target":{
						"node":3,
						"path":"scale"
					}
				},
				{
					"sampler":15,
					"target":{
						"node":2,
						"path":"translation"
					}
				},
				{
					"sampler":16,
					"target":{
						"node":2,
						"path":"rotation"
					}
				},
				{
					"sampler":17,
					"target":{
						"node":2,
						"path":"scale"
					}
				},
				{
					"sampler":18,
					"target":{
						"node":1,
						"path":"translation"
					}
				},
				{
					"sampler":19,
					"target":{
						"node":1,
						"path":"rotation"
					}
				},
				{
					"sampler":20,
					"target":{
						"node":1,
						"path":"scale"
					}
				},
				{
					"sampler":21,
					"target":{
						"node":7,
						"path":"translation"
					}
				},
				{
					"sampler":22,
					"target":{
						"node":7,
						"path":"rotation"
					}
				},
				{
					"sampler":23,
					"target":{
						"node":7,
						"path":"scale"
					}
				},
				{
					"sampler":24,
					"target":{
						"node":6,
						"path":"translation"
					}
				},
				{
					"sampler":25,
					"target":{
						"node":6,
						"path":"rotation"
					}
				},
				{
					"sampler":26,
					"target":{
						"node":6,
						"path":"scale"
					}
				},
				{
					"sampler":27,
					"target":{
						"node":5,
						"path":"translation"
					}
				},
				{
					"sampler":28,
					"target":{
						"node":5,
						"path":"rotation"
					}
				},
				{
					"sampler":29,
					"target":{
						"node":5,
						"path":"scale"
					}
				},
				{
					"sampler":30,
					"target":{
						"node":12,
						"path":"translation"
					}
				},
				{
					"sampler":31,
					"target":{
						"node":12,
						"path":"rotation"
					}
				},
				{
					"sampler":32,
					"target":{
						"node":12,
						"path":"scale"
					}
				},
				{
					"sampler":33,
					"target":{
						"node":11,
						"path":"translation"
					}
				},
				{
					"sampler":34,
					"target":{
						"node":11,
						"path":"rotation"
					}
				},
				{
					"sampler":35,
					"target":{
						"node":11,
						"path":"scale"
					}
				},
				{
					"sampler":36,
					"target":{
						"node":10,
						"path":"translation"
					}
				},
				{
					"sampler":37,
					"target":{
						"node":10,
						"path":"rotation"
					}
				},
				{
					"sampler":38,
					"target":{
						"node":10,
						"path":"scale"
					}
				},
				{
					"sampler":39,
					"target":{
						"node":15,
						"path":"translation"
					}
				},
				{
					"sampler":40,
					"target":{
						"node":15,
						"path":"rotation"
					}
				},
				{
					"sampler":41,
					"target":{
						"node":15,
						"path":"scale"
					}
				},
				{
					"sampler":42,
					"target":{
						"node":14,
						"path":"translation"
					}
				},
				{
					"sampler":43,
					"target":{
						"node":14,
						"path":"rotation"
					}
				},
				{
					"sampler":44,
					"target":{
						"node":14,
						"path":"scale"
					}
				},
				{
					"sampler":45,
					"target":{
						"node":13,
						"path":"translation"
					}
				},
				{
					"sampler":46,
					"target":{
						"node":13,
						"path":"rotation"
					}
				},
				{
					"sampler":47,
					"target":{
						"node":13,
						"path":"scale"
					}
				}
			],
			"name":"attack1",
			"samplers":[
				{
					"input":8,
					"interpolation":"STEP",
					"output":9
				},
				{
					"input":10,
					"interpolation":"LINEAR",
					"output":11
				},
				{
					"input":8,
					"interpolation":"STEP",
					"output":12
				},
				{
					"input":8,
					"interpolation":"STEP",
					"output":13
				},
				{
					"input":10,
					"interpolation":"LINEAR",
					"output":14
				},
				{
					"input":8,
					"interpolation":"STEP",
					"output":15
				},
				{
					"input":8,
					"interpolation":"LINEAR",
					"output":16
				},
				{
					"input":10,
					"interpolation":"LINEAR",
					"output":17
				},
				{
					"input":8,
					"interpolation":"STEP",
					"output":18
				},
				{
					"input":8,
					"interpolation":"LINEAR",
					"output":19
				},
				{
					"input":8,
					"interpolation":"LINEAR",
					"output":20
				},
				{
					"input":8,
					"interpolation":"STEP",
					"output":21
				},
				{
					"input":8,
					"interpolation":"LINEAR",
					"output":22
				},
				{
					"input":10,
					"interpolation":"LINEAR",
					"output":23
				},
				{
					"input":8,
					"interpolation":"LINEAR",
					"output":24
				},
				{
					"input":8,
					"interpolation":"LINEAR",
					"output":25
				},
				{
					"input":10,
					"interpolation":"LINEAR",
					"output":26
				},
				{
					"input":8,
					"interpolation":"STEP",
					"output":27
				},
				{
					"input":8,
					"interpolation":"LINEAR",
					"output":28
				},
				{
					"input":10,
					"interpolation":"LINEAR",
					"output":29
				},
				{
					"input":8,
					"interpolation":"STEP",
					"output":30
				},
				{
					"input":8,
					"interpolation":"LINEAR",
					"output":31
				},
				{
					"input":8,
					"interpolation":"LINEAR",
					"output":32
				},
				{
					"input":8,
					"interpolation":"STEP",
					"output":33
				},
				{
					"input":8,
					"interpolation":"LINEAR",
					"output":34
				},
				{
					"input":10,
					"interpolation":"LINEAR",
					"output":35
				},
				{
					"input":8,
					"interpolation":"LINEAR",
					"output":36
				},
				{
					"input":8,
					"interpolation":"LINEAR",
					"output":37
				},
				{
					"input":10,
					"interpolation":"LINEAR",
					"output":38
				},
				{
					"input":8,
					"interpolation":"LINEAR",
					"output":39
				},
				{
					"input":8,
					"interpolation":"STEP",
					"output":40
				},
				{
					"input":10,
					"interpolation":"LINEAR",
					"output":41
				},
				{
					"input":8,
					"interpolation":"STEP",
					"output":42
				},
				{
					"input":8,
					"interpolation":"LINEAR",
					"output":43
				},
				{
					"input":8,
					"interpolation":"LINEAR",
					"output":44
				},
				{
					"input":8,
					"interpolation":"LINEAR",
					"output":45
				},
				{
					"input":8,
					"interpolation":"LINEAR",
					"output":46
				},
				{
					"input":8,
					"interpolation":"LINEAR",
					"output":47
				},
				{
					"input":8,
					"interpolation":"STEP",
					"output":48
				},
				{
					"input":8,
					"interpolation":"STEP",
					"output":49
				},
				{
					"input":10,
					"interpolation":"LINEAR",
					"output":50
				},
				{
					"input":8,
					"interpolation":"STEP",
					"output":51
				},
				{
					"input":8,
					"interpolation":"LINEAR",
					"output":52
				},
				{
					"input":8,
					"interpolation":"LINEAR",
					"output":53
				},
				{
					"input":8,
					"interpolation":"LINEAR",
					"output":54
				},
				{
					"input":8,
					"interpolation":"LINEAR",
					"output":55
				},
				{
					"input":8,
					"interpolation":"LINEAR",
					"output":56
				},
				{
					"input":8,
					"interpolation":"LINEAR",
					"output":57
				}
			]
		}
	],
	"meshes":[
		{
			"name":"\u7acb\u65b9\u4f53.022",
			"primitives":[
				{
					"attributes":{
						"POSITION":0,
						"NORMAL":1,
						"TEXCOORD_0":2,
						"COLOR_0":3,
						"JOINTS_0":4,
						"WEIGHTS_0":5
					},
					"indices":6
				}
			]
		}
	],
	"skins":[
		{
			"inverseBindMatrices":7,
			"joints":[
				9,
				8,
				0,
				4,
				3,
				2,
				1,
				7,
				6,
				5,
				12,
				11,
				10,
				15,
				14,
				13
			],
			"name":"\u30a2\u30fc\u30de\u30c1\u30e5\u30a2.001"
		}
	],
	"accessors":[
		{
			"bufferView":0,
			"componentType":5126,
			"count":14859,
			"max":[
				1.93930983543396,
				6.989575386047363,
				5.375356197357178
			],
			"min":[
				-1.9393095970153809,
				0.007058382034301758,
				-1.1810697317123413
			],
			"type":"VEC3"
		},
		{
			"bufferView":1,
			"componentType":5126,
			"count":14859,
			"type":"VEC3"
		},
		{
			"bufferView":2,
			"componentType":5126,
			"count":14859,
			"type":"VEC2"
		},
		{
			"bufferView":3,
			"componentType":5123,
			"count":14859,
			"normalized":true,
			"type":"VEC4"
		},
		{
			"bufferView":4,
			"componentType":5121,
			"count":14859,
			"type":"VEC4"
		},
		{
			"bufferView":5,
			"componentType":5126,
			"count":14859,
			"type":"VEC4"
		},
		{
			"bufferView":6,
			"componentType":5123,
			"count":24162,
			"type":"SCALAR"
		},
		{
			"bufferView":7,
			"componentType":5126,
			"count":16,
			"type":"MAT4"
		},
		{
			"bufferView":8,
			"componentType":5126,
			"count":2,
			"max":[
				0.3
			],
			"min":[
				0
			],
			"type":"SCALAR"
		},
		{
			"bufferView":9,
			"componentType":5126,
			"count":2,
			"type":"VEC3"
		},
		{
			"bufferView":10,
			"componentType":5126,
			"count":19,
			"max":[
				0.3
			],
			"min":[
				0
			],
			"type":"SCALAR"
		},
		{
			"bufferView":11,
			"componentType":5126,
			"count":19,
			"type":"VEC4"
		},
		{
			"bufferView":12,
			"componentType":5126,
			"count":2,
			"type":"VEC3"
		},
		{
			"bufferView":13,
			"componentType":5126,
			"count":2,
			"type":"VEC3"
		},
		{
			"bufferView":14,
			"componentType":5126,
			"count":19,
			"type":"VEC4"
		},
		{
			"bufferView":15,
			"componentType":5126,
			"count":2,
			"type":"VEC3"
		},
		{
			"bufferView":16,
			"componentType":5126,
			"count":2,
			"type":"VEC3"
		},
		{
			"bufferView":17,
			"componentType":5126,
			"count":19,
			"type":"VEC4"
		},
		{
			"bufferView":18,
			"componentType":5126,
			"count":2,
			"type":"VEC3"
		},
		{
			"bufferView":19,
			"componentType":5126,
			"count":2,
			"type":"VEC3"
		},
		{
			"bufferView":20,
			"componentType":5126,
			"count":2,
			"type":"VEC4"
		},
		{
			"bufferView":21,
			"componentType":5126,
			"count":2,
			"type":"VEC3"
		},
		{
			"bufferView":22,
			"componentType":5126,
			"count":2,
			"type":"VEC3"
		},
		{
			"bufferView":23,
			"componentType":5126,
			"count":19,
			"type":"VEC4"
		},
		{
			"bufferView":24,
			"componentType":5126,
			"count":2,
			"type":"VEC3"
		},
		{
			"bufferView":25,
			"componentType":5126,
			"count":2,
			"type":"VEC3"
		},
		{
			"bufferView":26,
			"componentType":5126,
			"count":19,
			"type":"VEC4"
		},
		{
			"bufferView":27,
			"componentType":5126,
			"count":2,
			"type":"VEC3"
		},
		{
			"bufferView":28,
			"componentType":5126,
			"count":2,
			"type":"VEC3"
		},
		{
			"bufferView":29,
			"componentType":5126,
			"count":19,
			"type":"VEC4"
		},
		{
			"bufferView":30,
			"componentType":5126,
			"count":2,
			"type":"VEC3"
		},
		{
			"bufferView":31,
			"componentType":5126,
			"count":2,
			"type":"VEC3"
		},
		{
			"bufferView":32,
			"componentType":5126,
			"count":2,
			"type":"VEC4"
		},
		{
			"bufferView":33,
			"componentType":5126,
			"count":2,
			"type":"VEC3"
		},
		{
			"bufferView":34,
			"componentType":5126,
			"count":2,
			"type":"VEC3"
		},
		{
			"bufferView":35,
			"componentType":5126,
			"count":19,
			"type":"VEC4"
		},
		{
			"bufferView":36,
			"componentType":5126,
			"count":2,
			"type":"VEC3"
		},
		{
			"bufferView":37,
			"componentType":5126,
			"count":2,
			"type":"VEC3"
		},
		{
			"bufferView":38,
			"componentType":5126,
			"count":19,
			"type":"VEC4"
		},
		{
			"bufferView":39,
			"componentType":5126,
			"count":2,
			"type":"VEC3"
		},
		{
			"bufferView":40,
			"componentType":5126,
			"count":2,
			"type":"VEC3"
		},
		{
			"bufferView":41,
			"componentType":5126,
			"count":19,
			"type":"VEC4"
		},
		{
			"bufferView":42,
			"componentType":5126,
			"count":2,
			"type":"VEC3"
		},
		{
			"bufferView":43,
			"componentType":5126,
			"count":2,
			"type":"VEC3"
		},
		{
			"bufferView":44,
			"componentType":5126,
			"count":2,
			"type":"VEC4"
		},
		{
			"bufferView":45,
			"componentType":5126,
			"count":2,
			"type":"VEC3"
		},
		{
			"bufferView":46,
			"componentType":5126,
			"count":2,
			"type":"VEC3"
		},
		{
			"bufferView":47,
			"componentType":5126,
			"count":2,
			"type":"VEC4"
		},
		{
			"bufferView":48,
			"componentType":5126,
			"count":2,
			"type":"VEC3"
		},
		{
			"bufferView":49,
			"componentType":5126,
			"count":2,
			"type":"VEC3"
		},
		{
			"bufferView":50,
			"componentType":5126,
			"count":19,
			"type":"VEC4"
		},
		{
			"bufferView":51,
			"componentType":5126,
			"count":2,
			"type":"VEC3"
		},
		{
			"bufferView":52,
			"componentType":5126,
			"count":2,
			"type":"VEC3"
		},
		{
			"bufferView":53,
			"componentType":5126,
			"count":2,
			"type":"VEC4"
		},
		{
			"bufferView":54,
			"componentType":5126,
			"count":2,
			"type":"VEC3"
		},
		{
			"bufferView":55,
			"componentType":5126,
			"count":2,
			"type":"VEC3"
		},
		{
			"bufferView":56,
			"componentType":5126,
			"count":2,
			"type":"VEC4"
		},
		{
			"bufferView":57,
			"componentType":5126,
			"count":2,
			"type":"VEC3"
		}
	],
	"bufferViews":[
		{
			"buffer":0,
			"byteLength":178308,
			"byteOffset":0,
			"target":34962
		},
		{
			"buffer":0,
			"byteLength":178308,
			"byteOffset":178308,
			"target":34962
		},
		{
			"buffer":0,
			"byteLength":118872,
			"byteOffset":356616,
			"target":34962
		},
		{
			"buffer":0,
			"byteLength":118872,
			"byteOffset":475488,
			"target":34962
		},
		{
			"buffer":0,
			"byteLength":59436,
			"byteOffset":594360,
			"target":34962
		},
		{
			"buffer":0,
			"byteLength":237744,
			"byteOffset":653796,
			"target":34962
		},
		{
			"buffer":0,
			"byteLength":48324,
			"byteOffset":891540,
			"target":34963
		},
		{
			"buffer":0,
			"byteLength":1024,
			"byteOffset":939864
		},
		{
			"buffer":0,
			"byteLength":8,
			"byteOffset":940888
		},
		{
			"buffer":0,
			"byteLength":24,
			"byteOffset":940896
		},
		{
			"buffer":0,
			"byteLength":76,
			"byteOffset":940920
		},
		{
			"buffer":0,
			"byteLength":304,
			"byteOffset":940996
		},
		{
			"buffer":0,
			"byteLength":24,
			"byteOffset":941300
		},
		{
			"buffer":0,
			"byteLength":24,
			"byteOffset":941324
		},
		{
			"buffer":0,
			"byteLength":304,
			"byteOffset":941348
		},
		{
			"buffer":0,
			"byteLength":24,
			"byteOffset":941652
		},
		{
			"buffer":0,
			"byteLength":24,
			"byteOffset":941676
		},
		{
			"buffer":0,
			"byteLength":304,
			"byteOffset":941700
		},
		{
			"buffer":0,
			"byteLength":24,
			"byteOffset":942004
		},
		{
			"buffer":0,
			"byteLength":24,
			"byteOffset":942028
		},
		{
			"buffer":0,
			"byteLength":32,
			"byteOffset":942052
		},
		{
			"buffer":0,
			"byteLength":24,
			"byteOffset":942084
		},
		{
			"buffer":0,
			"byteLength":24,
			"byteOffset":942108
		},
		{
			"buffer":0,
			"byteLength":304,
			"byteOffset":942132
		},
		{
			"buffer":0,
			"byteLength":24,
			"byteOffset":942436
		},
		{
			"buffer":0,
			"byteLength":24,
			"byteOffset":942460
		},
		{
			"buffer":0,
			"byteLength":304,
			"byteOffset":942484
		},
		{
			"buffer":0,
			"byteLength":24,
			"byteOffset":942788
		},
		{
			"buffer":0,
			"byteLength":24,
			"byteOffset":942812
		},
		{
			"buffer":0,
			"byteLength":304,
			"byteOffset":942836
		},
		{
			"buffer":0,
			"byteLength":24,
			"byteOffset":943140
		},
		{
			"buffer":0,
			"byteLength":24,
			"byteOffset":943164
		},
		{
			"buffer":0,
			"byteLength":32,
			"byteOffset":943188
		},
		{
			"buffer":0,
			"byteLength":24,
			"byteOffset":943220
		},
		{
			"buffer":0,
			"byteLength":24,
			"byteOffset":943244
		},
		{
			"buffer":0,
			"byteLength":304,
			"byteOffset":943268
		},
		{
			"buffer":0,
			"byteLength":24,
			"byteOffset":943572
		},
		{
			"buffer":0,
			"byteLength":24,
			"byteOffset":943596
		},
		{
			"buffer":0,
			"byteLength":304,
			"byteOffset":943620
		},
		{
			"buffer":0,
			"byteLength":24,
			"byteOffset":943924
		},
		{
			"buffer":0,
			"byteLength":24,
			"byteOffset":943948
		},
		{
			"buffer":0,
			"byteLength":304,
			"byteOffset":943972
		},
		{
			"buffer":0,
			"byteLength":24,
			"byteOffset":944276
		},
		{
			"buffer":0,
			"byteLength":24,
			"byteOffset":944300
		},
		{
			"buffer":0,
			"byteLength":32,
			"byteOffset":944324
		},
		{
			"buffer":0,
			"byteLength":24,
			"byteOffset":944356
		},
		{
			"buffer":0,
			"byteLength":24,
			"byteOffset":944380
		},
		{
			"buffer":0,
			"byteLength":32,
			"byteOffset":944404
		},
		{
			"buffer":0,
			"byteLength":24,
			"byteOffset":944436
		},
		{
			"buffer":0,
			"byteLength":24,
			"byteOffset":944460
		},
		{
			"buffer":0,
			"byteLength":304,
			"byteOffset":944484
		},
		{
			"buffer":0,
			"byteLength":24,
			"byteOffset":944788
		},
		{
			"buffer":0,
			"byteLength":24,
			"byteOffset":944812
		},
		{
			"buffer":0,
			"byteLength":32,
			"byteOffset":944836
		},
		{
			"buffer":0,
			"byteLength":24,
			"byteOffset":944868
		},
		{
			"buffer":0,
			"byteLength":24,
			"byteOffset":944892
		},
		{
			"buffer":0,
			"byteLength":32,
			"byteOffset":944916
		},
		{
			"buffer":0,
			"byteLength":24,
			"byteOffset":944948
		}
	],
	"buffers":[
		{
			"byteLength":944972,
			"uri":"Player_attack1.bin"
		}
	]
}
