# Blender 4.4.3
# www.blender.org
mtllib shortWall.mtl
o 立方体
v -3.658270 -0.072806 1.652488
v -3.658270 0.763893 1.652488
v -3.658270 -0.072806 -1.652488
v -3.658270 0.763893 -1.652488
v 3.658270 -0.072806 1.652488
v 3.658270 0.763893 1.652488
v 3.658270 -0.072806 -1.652488
v 3.658270 0.763893 -1.652488
v -2.219466 2.030117 1.132457
v -2.219466 2.030117 -1.132457
v 2.219466 2.030117 -1.132457
v 2.219466 2.030117 1.132457
v -2.219466 11.632372 1.132457
v -2.219466 11.632372 -1.132457
v 2.219466 11.632372 -1.132457
v 2.219466 11.632372 1.132457
v -3.399685 13.319783 1.431488
v -3.399685 13.319783 -1.431488
v 3.399685 13.319783 -1.431488
v 3.399685 13.319783 1.431488
v -3.399685 14.120634 1.431488
v -3.399685 14.120634 -1.431488
v 3.399685 14.120634 -1.431488
v 3.399685 14.120634 1.431488
v -2.689506 1.560077 -1.132457
v 2.689506 1.560077 -1.132457
v 2.689506 1.560077 1.132457
v -2.689506 1.560077 1.132457
v -2.689506 12.102412 -1.132457
v 2.689506 12.102412 -1.132457
v 2.689506 12.102412 1.132457
v -2.689506 12.102412 1.132457
v -2.219466 2.030117 -0.857524
v 2.219466 2.030117 -0.857524
v 2.219466 2.030117 0.857524
v -2.219466 2.030117 0.857524
v -2.219466 11.632372 -0.857524
v 2.219466 11.632372 -0.857524
v 2.219466 11.632372 0.857524
v -2.219466 11.632372 0.857524
vn -1.0000 -0.0000 -0.0000
vn -0.0000 -0.0000 -1.0000
vn 1.0000 -0.0000 -0.0000
vn -0.0000 -0.0000 1.0000
vn -0.0000 -1.0000 -0.0000
vn 0.6349 0.7726 -0.0000
vn -0.6349 0.7726 -0.0000
vn -0.0000 0.5468 0.8372
vn -0.0000 0.5468 -0.8372
vn 0.8638 -0.5039 -0.0000
vn -0.8638 -0.5039 -0.0000
vn -0.0000 -0.2385 0.9711
vn -0.0000 -0.2385 -0.9711
vn -0.0000 1.0000 -0.0000
vt 0.625000 0.000000
vt 0.375000 0.250000
vt 0.375000 0.000000
vt 0.625000 0.250000
vt 0.375000 0.500000
vt 0.625000 0.500000
vt 0.375000 0.750000
vt 0.625000 0.750000
vt 0.375000 1.000000
vt 0.125000 0.750000
vt 0.125000 0.500000
vt 0.625000 0.978154
vt 0.625000 0.978154
vt 0.625000 1.000000
vt 0.625000 0.478154
vt 0.625000 0.478154
vt 0.875000 0.500000
vt 0.625000 0.271846
vt 0.625000 0.771846
vt 0.625000 0.271846
vt 0.625000 0.771846
vt 0.875000 0.750000
s 0
f 2/1/1 3/2/1 1/3/1
f 4/4/2 7/5/2 3/2/2
f 8/6/3 5/7/3 7/5/3
f 6/8/4 1/9/4 5/7/4
f 7/5/5 1/10/5 3/11/5
f 8/6/6 27/8/6 6/8/6
f 9/12/3 40/13/3 13/13/3
f 2/1/7 25/4/7 4/4/7
f 6/8/8 28/14/8 2/14/8
f 4/4/9 26/6/9 8/6/9
f 30/6/10 20/8/10 31/8/10
f 11/15/1 38/16/1 15/16/1
f 26/6/3 31/8/3 27/8/3
f 28/1/1 29/4/1 25/4/1
f 20/8/4 21/14/4 17/14/4
f 32/1/11 18/4/11 29/4/11
f 31/8/12 17/14/12 32/14/12
f 29/4/13 19/6/13 30/6/13
f 22/17/14 24/8/14 23/6/14
f 18/4/2 23/6/2 19/6/2
f 19/6/3 24/8/3 20/8/3
f 17/1/1 22/4/1 18/4/1
f 11/15/2 25/4/2 10/18/2
f 9/12/4 27/8/4 12/19/4
f 14/20/2 30/6/2 15/16/2
f 16/21/4 32/14/4 13/13/4
f 12/19/4 31/8/4 16/21/4
f 13/13/4 28/14/4 9/12/4
f 10/18/2 29/4/2 14/20/2
f 15/16/2 26/6/2 11/15/2
f 35/19/4 40/13/4 36/12/4
f 33/18/2 38/16/2 34/15/2
f 13/13/5 39/21/5 16/21/5
f 12/19/14 36/12/14 9/12/14
f 14/20/3 33/18/3 10/18/3
f 16/21/1 35/19/1 12/19/1
f 15/16/5 37/20/5 14/20/5
f 10/18/14 34/15/14 11/15/14
f 2/1/1 4/4/1 3/2/1
f 4/4/2 8/6/2 7/5/2
f 8/6/3 6/8/3 5/7/3
f 6/8/4 2/14/4 1/9/4
f 7/5/5 5/7/5 1/10/5
f 8/6/6 26/6/6 27/8/6
f 9/12/3 36/12/3 40/13/3
f 2/1/7 28/1/7 25/4/7
f 6/8/8 27/8/8 28/14/8
f 4/4/9 25/4/9 26/6/9
f 30/6/10 19/6/10 20/8/10
f 11/15/1 34/15/1 38/16/1
f 26/6/3 30/6/3 31/8/3
f 28/1/1 32/1/1 29/4/1
f 20/8/4 24/8/4 21/14/4
f 32/1/11 17/1/11 18/4/11
f 31/8/12 20/8/12 17/14/12
f 29/4/13 18/4/13 19/6/13
f 22/17/14 21/22/14 24/8/14
f 18/4/2 22/4/2 23/6/2
f 19/6/3 23/6/3 24/8/3
f 17/1/1 21/1/1 22/4/1
f 11/15/2 26/6/2 25/4/2
f 9/12/4 28/14/4 27/8/4
f 14/20/2 29/4/2 30/6/2
f 16/21/4 31/8/4 32/14/4
f 12/19/4 27/8/4 31/8/4
f 13/13/4 32/14/4 28/14/4
f 10/18/2 25/4/2 29/4/2
f 15/16/2 30/6/2 26/6/2
f 35/19/4 39/21/4 40/13/4
f 33/18/2 37/20/2 38/16/2
f 13/13/5 40/13/5 39/21/5
f 12/19/14 35/19/14 36/12/14
f 14/20/3 37/20/3 33/18/3
f 16/21/1 39/21/1 35/19/1
f 15/16/5 38/16/5 37/20/5
f 10/18/14 33/18/14 34/15/14
