{
	"asset":{
		"generator":"Khronos glTF Blender I/O v4.4.56",
		"version":"2.0"
	},
	"scene":0,
	"scenes":[
		{
			"name":"Scene",
			"nodes":[
				4
			]
		}
	],
	"nodes":[
		{
			"name":"\u30dc\u30fc\u30f3",
			"rotation":[
				0,
				-4.235164736271502e-22,
				-8.077935669463161e-28,
				1
			],
			"translation":[
				7.714465177777186e-10,
				-1.1852271556854248,
				2.1698551177978516
			]
		},
		{
			"name":"\u30dc\u30fc\u30f3.001",
			"rotation":[
				-4.81095549920011e-16,
				1,
				2.980232594040899e-08,
				1.9470718370939721e-07
			],
			"scale":[
				1,
				0.9999997019767761,
				0.9999999403953552
			],
			"translation":[
				4.579934250858314e-15,
				-1.240273118019104,
				4.543936729431152
			]
		},
		{
			"name":"neutral_bone",
			"rotation":[
				-0.7071067690849304,
				0,
				0,
				0.7071067690849304
			]
		},
		{
			"mesh":0,
			"name":"\u7acb\u65b9\u4f53",
			"skin":0
		},
		{
			"children":[
				3,
				0,
				1,
				2
			],
			"name":"\u30a2\u30fc\u30de\u30c1\u30e5\u30a2",
			"rotation":[
				0,
				0.7071070075035095,
				0.7071065902709961,
				5.338509012631221e-08
			],
			"scale":[
				0.7071331739425659,
				0.7071331739425659,
				0.7071331739425659
			]
		}
	],
	"animations":[
		{
			"channels":[
				{
					"sampler":0,
					"target":{
						"node":0,
						"path":"translation"
					}
				},
				{
					"sampler":1,
					"target":{
						"node":0,
						"path":"rotation"
					}
				},
				{
					"sampler":2,
					"target":{
						"node":0,
						"path":"scale"
					}
				},
				{
					"sampler":3,
					"target":{
						"node":1,
						"path":"translation"
					}
				},
				{
					"sampler":4,
					"target":{
						"node":1,
						"path":"rotation"
					}
				},
				{
					"sampler":5,
					"target":{
						"node":1,
						"path":"scale"
					}
				}
			],
			"name":"aim",
			"samplers":[
				{
					"input":7,
					"interpolation":"STEP",
					"output":8
				},
				{
					"input":7,
					"interpolation":"STEP",
					"output":9
				},
				{
					"input":7,
					"interpolation":"STEP",
					"output":10
				},
				{
					"input":11,
					"interpolation":"LINEAR",
					"output":12
				},
				{
					"input":7,
					"interpolation":"STEP",
					"output":13
				},
				{
					"input":7,
					"interpolation":"STEP",
					"output":14
				}
			]
		}
	],
	"meshes":[
		{
			"name":"\u7acb\u65b9\u4f53",
			"primitives":[
				{
					"attributes":{
						"POSITION":0,
						"NORMAL":1,
						"TEXCOORD_0":2,
						"JOINTS_0":3,
						"WEIGHTS_0":4
					},
					"indices":5
				}
			]
		}
	],
	"skins":[
		{
			"inverseBindMatrices":6,
			"joints":[
				0,
				1,
				2
			],
			"name":"\u30a2\u30fc\u30de\u30c1\u30e5\u30a2"
		}
	],
	"accessors":[
		{
			"bufferView":0,
			"componentType":5126,
			"count":1603,
			"max":[
				2.3627688884735107,
				3.4110472202301025,
				0.972847044467926
			],
			"min":[
				-2.3627688884735107,
				0.504623293876648,
				-1.4392476081848145
			],
			"type":"VEC3"
		},
		{
			"bufferView":1,
			"componentType":5126,
			"count":1603,
			"type":"VEC3"
		},
		{
			"bufferView":2,
			"componentType":5126,
			"count":1603,
			"type":"VEC2"
		},
		{
			"bufferView":3,
			"componentType":5121,
			"count":1603,
			"type":"VEC4"
		},
		{
			"bufferView":4,
			"componentType":5126,
			"count":1603,
			"type":"VEC4"
		},
		{
			"bufferView":5,
			"componentType":5123,
			"count":3918,
			"type":"SCALAR"
		},
		{
			"bufferView":6,
			"componentType":5126,
			"count":3,
			"type":"MAT4"
		},
		{
			"bufferView":7,
			"componentType":5126,
			"count":2,
			"max":[
				1
			],
			"min":[
				0
			],
			"type":"SCALAR"
		},
		{
			"bufferView":8,
			"componentType":5126,
			"count":2,
			"type":"VEC3"
		},
		{
			"bufferView":9,
			"componentType":5126,
			"count":2,
			"type":"VEC4"
		},
		{
			"bufferView":10,
			"componentType":5126,
			"count":2,
			"type":"VEC3"
		},
		{
			"bufferView":11,
			"componentType":5126,
			"count":61,
			"max":[
				1
			],
			"min":[
				0
			],
			"type":"SCALAR"
		},
		{
			"bufferView":12,
			"componentType":5126,
			"count":61,
			"type":"VEC3"
		},
		{
			"bufferView":13,
			"componentType":5126,
			"count":2,
			"type":"VEC4"
		},
		{
			"bufferView":14,
			"componentType":5126,
			"count":2,
			"type":"VEC3"
		}
	],
	"bufferViews":[
		{
			"buffer":0,
			"byteLength":19236,
			"byteOffset":0,
			"target":34962
		},
		{
			"buffer":0,
			"byteLength":19236,
			"byteOffset":19236,
			"target":34962
		},
		{
			"buffer":0,
			"byteLength":12824,
			"byteOffset":38472,
			"target":34962
		},
		{
			"buffer":0,
			"byteLength":6412,
			"byteOffset":51296,
			"target":34962
		},
		{
			"buffer":0,
			"byteLength":25648,
			"byteOffset":57708,
			"target":34962
		},
		{
			"buffer":0,
			"byteLength":7836,
			"byteOffset":83356,
			"target":34963
		},
		{
			"buffer":0,
			"byteLength":192,
			"byteOffset":91192
		},
		{
			"buffer":0,
			"byteLength":8,
			"byteOffset":91384
		},
		{
			"buffer":0,
			"byteLength":24,
			"byteOffset":91392
		},
		{
			"buffer":0,
			"byteLength":32,
			"byteOffset":91416
		},
		{
			"buffer":0,
			"byteLength":24,
			"byteOffset":91448
		},
		{
			"buffer":0,
			"byteLength":244,
			"byteOffset":91472
		},
		{
			"buffer":0,
			"byteLength":732,
			"byteOffset":91716
		},
		{
			"buffer":0,
			"byteLength":32,
			"byteOffset":92448
		},
		{
			"buffer":0,
			"byteLength":24,
			"byteOffset":92480
		}
	],
	"buffers":[
		{
			"byteLength":92504,
			"uri":"Enemy_06_aim.bin"
		}
	]
}
