o arc-effect-2026-07-20T10-23-35
g arc-effect-2026-07-20T10-23-35
v -0.24481709560892 -0.424783855676651 0.0066917943939858865
v -0.5849716237355912 -0.7751398086547852 -0.07958793041589309
v -0.8890414829108526 -1.1254956722259521 -0.2803137028249673
v -0.312494143829679 -0.318582683801651 -0.014646696944923987
v -0.7550837276915501 -0.5081939697265625 -0.13322407076686266
v -1.1615886426020114 -0.6978052258491516 -0.36624749218799657
v -0.3362591658947107 -0.19330988824367523 -0.02213977961971081
v -0.8148191679073021 -0.19330988824367523 -0.1520585827200422
v -1.2572945009684837 -0.19330988824367523 -0.3964234334195688
v -0.312494143829679 -0.06803709268569946 -0.014646696944923987
v -0.7550837276915501 0.12157419323921204 -0.13322407076686266
v -1.1615886426020114 0.31118547916412354 -0.36624749218799657
v -0.24481709560892 0.03816407918930054 0.0066917943939858865
v -0.5849716237355912 0.3885200023651123 -0.07958793041589309
v -0.8890414829108526 0.7388759851455688 -0.2803137028249673
v -0.14353126622538667 0.10912540555000305 0.038627093729217306
v -0.3303808522180393 0.5668874979019165 0.0006842315033570023
v -0.48114574083630224 1.0246496200561523 -0.15170466935996735
v -0.024056463422637973 0.13404375314712524 0.07629735435447935
v -0.030070580398513864 0.6295218467712402 0.0953716964959717
v -2.2095504157544856e-18 1.125 7.007798614166404e-18
v 0.09541833938011071 0.10912540555000305 0.1139676149797414
v 0.2702396914210116 0.5668874979019165 0.1900591614885864
v 0.48114574083630224 1.0246496200561523 0.15170466935996735
v 0.19670416876364405 0.03816407918930054 0.14590291431497282
v 0.5248304629385635 0.3885200023651123 0.2703313234078365
v 0.8890414829108526 0.7388759851455688 0.2803137028249673
v 0.2643812169844031 -0.06803709268569946 0.16724140565388268
v 0.6949425668945224 0.12157419323921204 0.32396746375880603
v 1.1615886426020114 0.31118547916412354 0.36624749218799657
v 0.2881462390494348 -0.19330988824367523 0.1747344883286695
v 0.7546780071102744 -0.19330988824367523 0.3428019757119856
v 1.2572945009684837 -0.19330988824367523 0.3964234334195688
v 0.2643812169844031 -0.318582683801651 0.16724140565388268
v 0.6949425668945224 -0.5081939697265625 0.32396746375880603
v 1.1615886426020114 -0.6978052258491516 0.36624749218799657
v 0.19670416876364405 -0.424783855676651 0.14590291431497282
v 0.5248304629385635 -0.7751398086547852 0.2703313234078365
v 0.8890414829108526 -1.1254956722259521 0.2803137028249673
v -0.19670416876364405 -0.424783855676651 -0.14590291431497282
v -0.5248304629385635 -0.7751398086547852 -0.2703313234078365
v -0.2643812169844031 -0.318582683801651 -0.16724140565388268
v -0.6949425668945224 -0.5081939697265625 -0.32396746375880603
v -0.2881462390494348 -0.19330988824367523 -0.1747344883286695
v -0.7546780071102744 -0.19330988824367523 -0.3428019757119856
v -0.2643812169844031 -0.06803709268569946 -0.16724140565388268
v -0.6949425668945224 0.12157419323921204 -0.32396746375880603
v -0.19670416876364405 0.03816407918930054 -0.14590291431497282
v -0.5248304629385635 0.3885200023651123 -0.2703313234078365
v -0.09541833938011071 0.10912540555000305 -0.1139676149797414
v -0.2702396914210116 0.5668874979019165 -0.1900591614885864
v 0.024056463422637973 0.13404375314712524 -0.07629735435447935
v 0.030070580398513864 0.6295218467712402 -0.0953716964959717
v 0.14353126622538667 0.10912540555000305 -0.038627093729217306
v 0.3303808522180393 0.5668874979019165 -0.0006842315033570023
v 0.24481709560892 0.03816407918930054 -0.0066917943939858865
v 0.5849716237355912 0.3885200023651123 0.07958793041589309
v 0.312494143829679 -0.06803709268569946 0.014646696944923987
v 0.7550837276915501 0.12157419323921204 0.13322407076686266
v 0.3362591658947107 -0.19330988824367523 0.02213977961971081
v 0.8148191679073021 -0.19330988824367523 0.1520585827200422
v 0.312494143829679 -0.318582683801651 0.014646696944923987
v 0.7550837276915501 -0.5081939697265625 0.13322407076686266
v 0.24481709560892 -0.424783855676651 -0.0066917943939858865
v 0.5849716237355912 -0.7751398086547852 0.07958793041589309
vt 1 0
vt 0.5 0
vt 0 0
vt 1 0.08333331346511841
vt 0.5 0.08333331346511841
vt 0 0.08333331346511841
vt 1 0.1666666865348816
vt 0.5 0.1666666865348816
vt 0 0.1666666865348816
vt 1 0.25
vt 0.5 0.25
vt 0 0.25
vt 1 0.3333333730697632
vt 0.5 0.3333333730697632
vt 0 0.3333333730697632
vt 1 0.4166666269302368
vt 0.5 0.4166666269302368
vt 0 0.4166666269302368
vt 1 0.5
vt 0.5 0.5
vt 0 0.5
vt 1 0.5833333134651184
vt 0.5 0.5833333134651184
vt 0 0.5833333134651184
vt 1 0.6666666865348816
vt 0.5 0.6666666865348816
vt 0 0.6666666865348816
vt 1 0.75
vt 0.5 0.75
vt 0 0.75
vt 1 0.8333333134651184
vt 0.5 0.8333333134651184
vt 0 0.8333333134651184
vt 1 0.9166666865348816
vt 0.5 0.9166666865348816
vt 0 0.9166666865348816
vt 1 1
vt 0.5 1
vt 0 1
vt 1 0
vt 0.5 0
vt 0 0
vt 1 0.08333331346511841
vt 0.5 0.08333331346511841
vt 0 0.08333331346511841
vt 1 0.1666666865348816
vt 0.5 0.1666666865348816
vt 0 0.1666666865348816
vt 1 0.25
vt 0.5 0.25
vt 0 0.25
vt 1 0.3333333730697632
vt 0.5 0.3333333730697632
vt 0 0.3333333730697632
vt 1 0.4166666269302368
vt 0.5 0.4166666269302368
vt 0 0.4166666269302368
vt 1 0.5
vt 0.5 0.5
vt 0 0.5
vt 1 0.5833333134651184
vt 0.5 0.5833333134651184
vt 0 0.5833333134651184
vt 1 0.6666666865348816
vt 0.5 0.6666666865348816
vt 0 0.6666666865348816
vt 1 0.75
vt 0.5 0.75
vt 0 0.75
vt 1 0.8333333134651184
vt 0.5 0.8333333134651184
vt 0 0.8333333134651184
vt 1 0.9166666865348816
vt 0.5 0.9166666865348816
vt 0 0.9166666865348816
vt 1 1
vt 0.5 1
vt 0 1
vn -0.2678430191081859 0.022845630100690448 0.9631916705933011
vn -0.34906690734349344 -0.034283522515309514 0.936470466315725
vn -0.45436565216199026 -0.11197853069518901 0.8837492080894647
vn -0.26655155289678195 0.019561910420038478 0.9636221257884402
vn -0.3869953525135736 -0.05031153808303757 0.9207080678850457
vn -0.4724751169982433 -0.06705827103900731 0.8787891966238293
vn -0.2619929937798679 0.00446767626084215 0.9650594339620179
vn -0.398662566852556 -0.01119006306027491 0.9170294108038402
vn -0.48342094630716614 0.009359493583780649 0.8753379853241483
vn -0.26329039746658855 -0.011306724846679675 0.9646503639014125
vn -0.39516345612395426 0.029635007708482597 0.9181326751958508
vn -0.4656432267411685 0.08435235698717689 0.8809432815231528
vn -0.2702462540808752 -0.025359776622313767 0.9624571906765107
vn -0.3770307105405017 0.06594841016545483 0.9238499069145233
vn -0.4218484887053609 0.14650335512436155 0.8947517083047722
vn -0.2818015986092562 -0.0355520275092965 0.9588138048449478
vn -0.347024852122459 0.0922217718895734 0.933310718249251
vn -0.3587040771461434 0.1863505199214899 0.9146610676986989
vn -0.2961972255868732 -0.04033180951355499 0.9542748810987329
vn -0.30971403956139315 0.10445518549029113 0.9450747737204462
vn -0.2858231583268169 0.19782752780681787 0.9376403315802526
vn -0.3112415386719529 -0.03897143784534057 0.9495314274090045
vn -0.2707784765901989 0.10078625890100469 0.9573511093805818
vn -0.21430119415089577 0.17918708455581475 0.9601911199932477
vn -0.3246441680159757 -0.031678020012712436 0.9453055946207496
vn -0.23614577571460896 0.0817735621553835 0.9682707561134773
vn -0.1550267628194167 0.13326701246757167 0.9788802818515145
vn -0.3343646954349485 -0.019561910420038475 0.9422407240760782
vn -0.21108841839489184 0.050311534367177 0.9761713113635143
vn -0.1170238177385031 0.06705827103900731 0.9908625607858865
vn -0.3389232545547199 -0.004467676260842149 0.9408034159115626
vn -0.19942120485919787 0.01119006306027491 0.9798499709349451
vn -0.10607801485368057 -0.0093594936389616 0.9943137606628627
vn -0.3376258507248946 0.011306724846679675 0.9412124855182982
vn -0.20292032229337012 -0.02963500586972674 0.9787467033034932
vn -0.12385572149129187 -0.08435235721240571 0.9887084707266253
vn -0.33305989281553344 0.022845628236107543 0.9426288692100422
vn -0.19010473668894862 -0.07553154928056675 0.9788540106429063
vn -0.1347031541453247 -0.11197852305839412 0.9845384048562867
vn 0.33305988929091024 0.022845630100690448 -0.9426288704102103
vn 0.251198522073317 -0.034283522515309514 -0.9673282496609533
vn 0.13470316858081885 -0.11197853069518901 -0.984538402012656
vn 0.3343646954349485 0.019561910420038475 -0.9422407240760782
vn 0.2110884183553286 -0.05031153808303757 -0.9761713111805554
vn 0.1170238177385031 -0.06705827103900731 -0.9908625607858865
vn 0.3389232545547199 0.004467676260842149 -0.9408034159115626
vn 0.19942120485919787 -0.01119006306027491 -0.9798499709349451
vn 0.10607798580529508 0.009359493583780649 -0.9943137637623983
vn 0.3376258507248946 -0.011306724846679675 -0.9412124855182982
vn 0.20292031502404803 0.0296350077084826 -0.9787467047549429
vn 0.12385570694909563 0.08435235698717686 -0.9887084725675449
vn 0.3306699940768809 -0.025359776622313767 -0.9434056586362314
vn 0.22105306003229466 0.06594841016545483 -0.9730294712119504
vn 0.1676504443652438 0.14650335512436155 -0.9749000438206172
vn 0.31911464972247433 -0.03555202750929651 -0.9470490450195707
vn 0.2510589187464432 0.0922217718895734 -0.9635686608163501
vn 0.23079485759060298 0.1863505199214899 -0.9549906897110167
vn 0.3047190227477145 -0.04033180951355499 -0.9515879687748473
vn 0.28836973214412787 0.10445518549029113 -0.9518046079985708
vn 0.30367577551826624 0.19782752780681787 -0.9320114230014686
vn 0.2896747096657972 -0.03897143784534057 -0.9563314224746057
vn 0.3273052950069142 0.10078625890100469 -0.9395282719946092
vn 0.37519773953936825 0.1791870845558148 -0.90946063409745
vn 0.27627208032849065 -0.031678020012712436 -0.9605572552841617
vn 0.36193799478766947 0.0817735621553835 -0.9286086217893418
vn 0.4344721739956693 0.13326701246757167 -0.8907714821498525
vn 0.26655155289678195 -0.019561910420038478 -0.9636221257884402
vn 0.38699535258610623 0.050311534367177016 -0.9207080680576095
vn 0.4724751169982433 0.06705827103900731 -0.8787891966238293
vn 0.2619929937798679 -0.00446767626084215 -0.9650594339620179
vn 0.398662566852556 0.01119006306027491 -0.9170294108038402
vn 0.4834209207343012 -0.0093594936389616 -0.8753379994466269
vn 0.26329039746658855 0.011306724846679675 -0.9646503639014125
vn 0.39516344933675696 -0.02963500586972674 -0.9181326781764048
vn 0.4656432137729905 -0.08435235721240571 -0.8809432883562209
vn 0.2678430155325955 0.022845628236107543 -0.9631916716318218
vn 0.40572291144471423 -0.07553154928056675 -0.9108698612821163
vn 0.4543656656178944 -0.11197852305839412 -0.8837492021389713
f 1/1/1 4/4/4 2/2/2
f 40/40/40 41/41/41 42/43/43
f 2/2/2 4/4/4 5/5/5
f 41/41/41 43/44/44 42/43/43
f 2/2/2 5/5/5 3/3/3
f 41/41/41 3/42/42 43/44/44
f 3/3/3 5/5/5 6/6/6
f 3/42/42 6/45/45 43/44/44
f 4/4/4 7/7/7 5/5/5
f 42/43/43 43/44/44 44/46/46
f 5/5/5 7/7/7 8/8/8
f 43/44/44 45/47/47 44/46/46
f 5/5/5 8/8/8 6/6/6
f 43/44/44 6/45/45 45/47/47
f 6/6/6 8/8/8 9/9/9
f 6/45/45 9/48/48 45/47/47
f 7/7/7 10/10/10 8/8/8
f 44/46/46 45/47/47 46/49/49
f 8/8/8 10/10/10 11/11/11
f 45/47/47 47/50/50 46/49/49
f 8/8/8 11/11/11 9/9/9
f 45/47/47 9/48/48 47/50/50
f 9/9/9 11/11/11 12/12/12
f 9/48/48 12/51/51 47/50/50
f 10/10/10 13/13/13 11/11/11
f 46/49/49 47/50/50 48/52/52
f 11/11/11 13/13/13 14/14/14
f 47/50/50 49/53/53 48/52/52
f 11/11/11 14/14/14 12/12/12
f 47/50/50 12/51/51 49/53/53
f 12/12/12 14/14/14 15/15/15
f 12/51/51 15/54/54 49/53/53
f 13/13/13 16/16/16 14/14/14
f 48/52/52 49/53/53 50/55/55
f 14/14/14 16/16/16 17/17/17
f 49/53/53 51/56/56 50/55/55
f 14/14/14 17/17/17 15/15/15
f 49/53/53 15/54/54 51/56/56
f 15/15/15 17/17/17 18/18/18
f 15/54/54 18/57/57 51/56/56
f 16/16/16 19/19/19 17/17/17
f 50/55/55 51/56/56 52/58/58
f 17/17/17 19/19/19 20/20/20
f 51/56/56 53/59/59 52/58/58
f 17/17/17 20/20/20 18/18/18
f 51/56/56 18/57/57 53/59/59
f 18/18/18 20/20/20 21/21/21
f 18/57/57 21/60/60 53/59/59
f 19/19/19 22/22/22 20/20/20
f 52/58/58 53/59/59 54/61/61
f 20/20/20 22/22/22 23/23/23
f 53/59/59 55/62/62 54/61/61
f 20/20/20 23/23/23 21/21/21
f 53/59/59 21/60/60 55/62/62
f 21/21/21 23/23/23 24/24/24
f 21/60/60 24/63/63 55/62/62
f 22/22/22 25/25/25 23/23/23
f 54/61/61 55/62/62 56/64/64
f 23/23/23 25/25/25 26/26/26
f 55/62/62 57/65/65 56/64/64
f 23/23/23 26/26/26 24/24/24
f 55/62/62 24/63/63 57/65/65
f 24/24/24 26/26/26 27/27/27
f 24/63/63 27/66/66 57/65/65
f 25/25/25 28/28/28 26/26/26
f 56/64/64 57/65/65 58/67/67
f 26/26/26 28/28/28 29/29/29
f 57/65/65 59/68/68 58/67/67
f 26/26/26 29/29/29 27/27/27
f 57/65/65 27/66/66 59/68/68
f 27/27/27 29/29/29 30/30/30
f 27/66/66 30/69/69 59/68/68
f 28/28/28 31/31/31 29/29/29
f 58/67/67 59/68/68 60/70/70
f 29/29/29 31/31/31 32/32/32
f 59/68/68 61/71/71 60/70/70
f 29/29/29 32/32/32 30/30/30
f 59/68/68 30/69/69 61/71/71
f 30/30/30 32/32/32 33/33/33
f 30/69/69 33/72/72 61/71/71
f 31/31/31 34/34/34 32/32/32
f 60/70/70 61/71/71 62/73/73
f 32/32/32 34/34/34 35/35/35
f 61/71/71 63/74/74 62/73/73
f 32/32/32 35/35/35 33/33/33
f 61/71/71 33/72/72 63/74/74
f 33/33/33 35/35/35 36/36/36
f 33/72/72 36/75/75 63/74/74
f 34/34/34 37/37/37 35/35/35
f 62/73/73 63/74/74 64/76/76
f 35/35/35 37/37/37 38/38/38
f 63/74/74 65/77/77 64/76/76
f 35/35/35 38/38/38 36/36/36
f 63/74/74 36/75/75 65/77/77
f 36/36/36 38/38/38 39/39/39
f 36/75/75 39/78/78 65/77/77
