{
	"asset":{
		"generator":"Khronos glTF Blender I/O v4.4.56",
		"version":"2.0"
	},
	"scene":0,
	"scenes":[
		{
			"name":"Scene",
			"nodes":[
				16
			]
		}
	],
	"nodes":[
		{
			"name":"\u30dc\u30fc\u30f3.002",
			"rotation":[
				0.14574111998081207,
				-1.615975386002385e-14,
				3.474739784792291e-08,
				0.9893227815628052
			],
			"translation":[
				-3.907985046680551e-14,
				0.4162934720516205,
				5.960463056453591e-08
			]
		},
		{
			"children":[
				0
			],
			"name":"\u30dc\u30fc\u30f3.001",
			"rotation":[
				-0.21898892521858215,
				1.1631576768422747e-07,
				-2.6105512418439503e-08,
				0.975727379322052
			],
			"translation":[
				-6.167683110926397e-16,
				1.0663396120071411,
				2.7948242831143943e-08
			]
		},
		{
			"name":"\u30dc\u30fc\u30f3.011",
			"rotation":[
				0.011758907698094845,
				0.0011059530079364777,
				0.008541537448763847,
				0.9998937845230103
			],
			"scale":[
				0.9999998807907104,
				1,
				0.9999999403953552
			],
			"translation":[
				3.562308847904205e-08,
				0.6442776918411255,
				-7.450580596923828e-08
			]
		},
		{
			"children":[
				2
			],
			"name":"\u30dc\u30fc\u30f3.007",
			"rotation":[
				-0.4362305700778961,
				-0.07432947307825089,
				0.14736774563789368,
				0.8845681548118591
			],
			"scale":[
				0.9999998807907104,
				1.000000238418579,
				1
			],
			"translation":[
				-8.940696716308594e-08,
				0.7139488458633423,
				-3.552713678800501e-15
			]
		},
		{
			"children":[
				3
			],
			"name":"\u30dc\u30fc\u30f3.003",
			"rotation":[
				0.1131158247590065,
				0.13531853258609772,
				-0.7552160024642944,
				0.6313022375106812
			],
			"scale":[
				0.9999998807907104,
				0.9999999403953552,
				0.9999999403953552
			],
			"translation":[
				-6.167683110926397e-16,
				1.0663396120071411,
				2.7948242831143943e-08
			]
		},
		{
			"name":"\u30dc\u30fc\u30f3.012",
			"rotation":[
				-0.012696819379925728,
				-0.001157746883109212,
				-0.011557914316654205,
				0.9998519420623779
			],
			"scale":[
				1,
				1.0000001192092896,
				1.0000001192092896
			],
			"translation":[
				-1.51805579662323e-07,
				0.7104909420013428,
				-2.9802322387695312e-08
			]
		},
		{
			"children":[
				5
			],
			"name":"\u30dc\u30fc\u30f3.008",
			"rotation":[
				-0.43109703063964844,
				0.07492830604314804,
				-0.16812464594841003,
				0.8833318948745728
			],
			"scale":[
				0.9999999403953552,
				0.9999998807907104,
				1
			],
			"translation":[
				-1.4901070599648847e-08,
				0.6728925108909607,
				-4.263256414560601e-14
			]
		},
		{
			"children":[
				6
			],
			"name":"\u30dc\u30fc\u30f3.004",
			"rotation":[
				0.11106006801128387,
				-0.1370110958814621,
				0.7646614909172058,
				0.6198278069496155
			],
			"scale":[
				1,
				0.9999999403953552,
				1
			],
			"translation":[
				-6.167683110926397e-16,
				1.0663396120071411,
				2.7948242831143943e-08
			]
		},
		{
			"children":[
				1,
				4,
				7
			],
			"name":"\u30dc\u30fc\u30f3",
			"rotation":[
				-0.17636974155902863,
				0,
				0,
				0.984324038028717
			],
			"translation":[
				0,
				0.8772040605545044,
				0.37024372816085815
			]
		},
		{
			"name":"\u30dc\u30fc\u30f3.013",
			"rotation":[
				-0.052092544734478,
				0.014329022727906704,
				-0.01640796847641468,
				0.9984046816825867
			],
			"scale":[
				1,
				1.0000001192092896,
				1.0000001192092896
			],
			"translation":[
				-1.1175870895385742e-08,
				0.5582140684127808,
				7.846392691135406e-08
			]
		},
		{
			"children":[
				9
			],
			"name":"\u30dc\u30fc\u30f3.009",
			"rotation":[
				-0.3650394082069397,
				0.13358646631240845,
				0.17870350182056427,
				0.9038617014884949
			],
			"scale":[
				1,
				1.0000001192092896,
				1.0000001192092896
			],
			"translation":[
				-5.4016709327697754e-08,
				0.7047068476676941,
				-8.847564458847046e-08
			]
		},
		{
			"children":[
				10
			],
			"name":"\u30dc\u30fc\u30f3.005",
			"rotation":[
				-0.5225717425346375,
				-0.49289965629577637,
				-0.46869978308677673,
				0.514090895652771
			],
			"scale":[
				0.9999999403953552,
				1,
				1
			],
			"translation":[
				0,
				0.8772040605545044,
				0.37024372816085815
			]
		},
		{
			"name":"\u30dc\u30fc\u30f3.014",
			"rotation":[
				-0.03461463749408722,
				0.05963274464011192,
				0.02173111028969288,
				0.9973833560943604
			],
			"scale":[
				1,
				1.0000001192092896,
				0.9999998807907104
			],
			"translation":[
				3.725290298461914e-09,
				0.5534149408340454,
				-1.0977964848279953e-07
			]
		},
		{
			"children":[
				12
			],
			"name":"\u30dc\u30fc\u30f3.010",
			"rotation":[
				-0.3555622100830078,
				-0.09093499928712845,
				-0.14410953223705292,
				0.9189879298210144
			],
			"scale":[
				1.0000001192092896,
				0.9999999403953552,
				1.0000001192092896
			],
			"translation":[
				-6.752088665962219e-09,
				0.670983076095581,
				-5.373839684352788e-08
			]
		},
		{
			"children":[
				13
			],
			"name":"\u30dc\u30fc\u30f3.006",
			"rotation":[
				-0.530862033367157,
				0.467103511095047,
				0.4620266556739807,
				0.5352861881256104
			],
			"scale":[
				0.9999999403953552,
				1,
				0.9999999403953552
			],
			"translation":[
				0,
				0.8772040605545044,
				0.37024372816085815
			]
		},
		{
			"mesh":0,
			"name":"\u7403.001",
			"skin":0
		},
		{
			"children":[
				15,
				8,
				11,
				14
			],
			"name":"\u30a2\u30fc\u30de\u30c1\u30e5\u30a2",
			"rotation":[
				0,
				-1,
				0,
				7.549790126404332e-08
			]
		}
	],
	"animations":[
		{
			"channels":[
				{
					"sampler":0,
					"target":{
						"node":8,
						"path":"translation"
					}
				},
				{
					"sampler":1,
					"target":{
						"node":8,
						"path":"rotation"
					}
				},
				{
					"sampler":2,
					"target":{
						"node":8,
						"path":"scale"
					}
				},
				{
					"sampler":3,
					"target":{
						"node":1,
						"path":"translation"
					}
				},
				{
					"sampler":4,
					"target":{
						"node":1,
						"path":"rotation"
					}
				},
				{
					"sampler":5,
					"target":{
						"node":1,
						"path":"scale"
					}
				},
				{
					"sampler":6,
					"target":{
						"node":0,
						"path":"translation"
					}
				},
				{
					"sampler":7,
					"target":{
						"node":0,
						"path":"rotation"
					}
				},
				{
					"sampler":8,
					"target":{
						"node":0,
						"path":"scale"
					}
				},
				{
					"sampler":9,
					"target":{
						"node":4,
						"path":"translation"
					}
				},
				{
					"sampler":10,
					"target":{
						"node":4,
						"path":"rotation"
					}
				},
				{
					"sampler":11,
					"target":{
						"node":4,
						"path":"scale"
					}
				},
				{
					"sampler":12,
					"target":{
						"node":3,
						"path":"translation"
					}
				},
				{
					"sampler":13,
					"target":{
						"node":3,
						"path":"rotation"
					}
				},
				{
					"sampler":14,
					"target":{
						"node":3,
						"path":"scale"
					}
				},
				{
					"sampler":15,
					"target":{
						"node":2,
						"path":"translation"
					}
				},
				{
					"sampler":16,
					"target":{
						"node":2,
						"path":"rotation"
					}
				},
				{
					"sampler":17,
					"target":{
						"node":2,
						"path":"scale"
					}
				},
				{
					"sampler":18,
					"target":{
						"node":7,
						"path":"translation"
					}
				},
				{
					"sampler":19,
					"target":{
						"node":7,
						"path":"rotation"
					}
				},
				{
					"sampler":20,
					"target":{
						"node":7,
						"path":"scale"
					}
				},
				{
					"sampler":21,
					"target":{
						"node":6,
						"path":"translation"
					}
				},
				{
					"sampler":22,
					"target":{
						"node":6,
						"path":"rotation"
					}
				},
				{
					"sampler":23,
					"target":{
						"node":6,
						"path":"scale"
					}
				},
				{
					"sampler":24,
					"target":{
						"node":5,
						"path":"translation"
					}
				},
				{
					"sampler":25,
					"target":{
						"node":5,
						"path":"rotation"
					}
				},
				{
					"sampler":26,
					"target":{
						"node":5,
						"path":"scale"
					}
				},
				{
					"sampler":27,
					"target":{
						"node":11,
						"path":"translation"
					}
				},
				{
					"sampler":28,
					"target":{
						"node":11,
						"path":"rotation"
					}
				},
				{
					"sampler":29,
					"target":{
						"node":11,
						"path":"scale"
					}
				},
				{
					"sampler":30,
					"target":{
						"node":10,
						"path":"translation"
					}
				},
				{
					"sampler":31,
					"target":{
						"node":10,
						"path":"rotation"
					}
				},
				{
					"sampler":32,
					"target":{
						"node":10,
						"path":"scale"
					}
				},
				{
					"sampler":33,
					"target":{
						"node":9,
						"path":"translation"
					}
				},
				{
					"sampler":34,
					"target":{
						"node":9,
						"path":"rotation"
					}
				},
				{
					"sampler":35,
					"target":{
						"node":9,
						"path":"scale"
					}
				},
				{
					"sampler":36,
					"target":{
						"node":14,
						"path":"translation"
					}
				},
				{
					"sampler":37,
					"target":{
						"node":14,
						"path":"rotation"
					}
				},
				{
					"sampler":38,
					"target":{
						"node":14,
						"path":"scale"
					}
				},
				{
					"sampler":39,
					"target":{
						"node":13,
						"path":"translation"
					}
				},
				{
					"sampler":40,
					"target":{
						"node":13,
						"path":"rotation"
					}
				},
				{
					"sampler":41,
					"target":{
						"node":13,
						"path":"scale"
					}
				},
				{
					"sampler":42,
					"target":{
						"node":12,
						"path":"translation"
					}
				},
				{
					"sampler":43,
					"target":{
						"node":12,
						"path":"rotation"
					}
				},
				{
					"sampler":44,
					"target":{
						"node":12,
						"path":"scale"
					}
				}
			],
			"name":"attack1",
			"samplers":[
				{
					"input":7,
					"interpolation":"STEP",
					"output":8
				},
				{
					"input":9,
					"interpolation":"LINEAR",
					"output":10
				},
				{
					"input":7,
					"interpolation":"STEP",
					"output":11
				},
				{
					"input":7,
					"interpolation":"LINEAR",
					"output":12
				},
				{
					"input":7,
					"interpolation":"LINEAR",
					"output":13
				},
				{
					"input":7,
					"interpolation":"STEP",
					"output":14
				},
				{
					"input":7,
					"interpolation":"LINEAR",
					"output":15
				},
				{
					"input":7,
					"interpolation":"LINEAR",
					"output":16
				},
				{
					"input":7,
					"interpolation":"LINEAR",
					"output":17
				},
				{
					"input":7,
					"interpolation":"LINEAR",
					"output":18
				},
				{
					"input":7,
					"interpolation":"LINEAR",
					"output":19
				},
				{
					"input":7,
					"interpolation":"STEP",
					"output":20
				},
				{
					"input":7,
					"interpolation":"LINEAR",
					"output":21
				},
				{
					"input":9,
					"interpolation":"LINEAR",
					"output":22
				},
				{
					"input":7,
					"interpolation":"LINEAR",
					"output":23
				},
				{
					"input":7,
					"interpolation":"LINEAR",
					"output":24
				},
				{
					"input":9,
					"interpolation":"LINEAR",
					"output":25
				},
				{
					"input":7,
					"interpolation":"LINEAR",
					"output":26
				},
				{
					"input":7,
					"interpolation":"LINEAR",
					"output":27
				},
				{
					"input":7,
					"interpolation":"LINEAR",
					"output":28
				},
				{
					"input":7,
					"interpolation":"STEP",
					"output":29
				},
				{
					"input":7,
					"interpolation":"LINEAR",
					"output":30
				},
				{
					"input":9,
					"interpolation":"LINEAR",
					"output":31
				},
				{
					"input":7,
					"interpolation":"STEP",
					"output":32
				},
				{
					"input":7,
					"interpolation":"LINEAR",
					"output":33
				},
				{
					"input":9,
					"interpolation":"LINEAR",
					"output":34
				},
				{
					"input":7,
					"interpolation":"LINEAR",
					"output":35
				},
				{
					"input":7,
					"interpolation":"STEP",
					"output":36
				},
				{
					"input":9,
					"interpolation":"LINEAR",
					"output":37
				},
				{
					"input":7,
					"interpolation":"STEP",
					"output":38
				},
				{
					"input":7,
					"interpolation":"STEP",
					"output":39
				},
				{
					"input":9,
					"interpolation":"LINEAR",
					"output":40
				},
				{
					"input":7,
					"interpolation":"STEP",
					"output":41
				},
				{
					"input":7,
					"interpolation":"STEP",
					"output":42
				},
				{
					"input":9,
					"interpolation":"LINEAR",
					"output":43
				},
				{
					"input":7,
					"interpolation":"STEP",
					"output":44
				},
				{
					"input":7,
					"interpolation":"STEP",
					"output":45
				},
				{
					"input":9,
					"interpolation":"LINEAR",
					"output":46
				},
				{
					"input":7,
					"interpolation":"STEP",
					"output":47
				},
				{
					"input":7,
					"interpolation":"STEP",
					"output":48
				},
				{
					"input":9,
					"interpolation":"LINEAR",
					"output":49
				},
				{
					"input":7,
					"interpolation":"STEP",
					"output":50
				},
				{
					"input":7,
					"interpolation":"STEP",
					"output":51
				},
				{
					"input":7,
					"interpolation":"STEP",
					"output":52
				},
				{
					"input":7,
					"interpolation":"STEP",
					"output":53
				}
			]
		}
	],
	"meshes":[
		{
			"name":"\u7403.007",
			"primitives":[
				{
					"attributes":{
						"POSITION":0,
						"NORMAL":1,
						"TEXCOORD_0":2,
						"JOINTS_0":3,
						"WEIGHTS_0":4
					},
					"indices":5
				}
			]
		}
	],
	"skins":[
		{
			"inverseBindMatrices":6,
			"joints":[
				8,
				1,
				0,
				4,
				3,
				2,
				7,
				6,
				5,
				11,
				10,
				9,
				14,
				13,
				12
			],
			"name":"\u30a2\u30fc\u30de\u30c1\u30e5\u30a2"
		}
	],
	"accessors":[
		{
			"bufferView":0,
			"componentType":5126,
			"count":3340,
			"max":[
				1.5597485303878784,
				3.0992431640625,
				1.130492925643921
			],
			"min":[
				-1.559748649597168,
				-0.20023667812347412,
				-1.584183931350708
			],
			"type":"VEC3"
		},
		{
			"bufferView":1,
			"componentType":5126,
			"count":3340,
			"type":"VEC3"
		},
		{
			"bufferView":2,
			"componentType":5126,
			"count":3340,
			"type":"VEC2"
		},
		{
			"bufferView":3,
			"componentType":5121,
			"count":3340,
			"type":"VEC4"
		},
		{
			"bufferView":4,
			"componentType":5126,
			"count":3340,
			"type":"VEC4"
		},
		{
			"bufferView":5,
			"componentType":5123,
			"count":5610,
			"type":"SCALAR"
		},
		{
			"bufferView":6,
			"componentType":5126,
			"count":15,
			"type":"MAT4"
		},
		{
			"bufferView":7,
			"componentType":5126,
			"count":2,
			"max":[
				0.6333333333333333
			],
			"min":[
				0
			],
			"type":"SCALAR"
		},
		{
			"bufferView":8,
			"componentType":5126,
			"count":2,
			"type":"VEC3"
		},
		{
			"bufferView":9,
			"componentType":5126,
			"count":39,
			"max":[
				0.6333333333333333
			],
			"min":[
				0
			],
			"type":"SCALAR"
		},
		{
			"bufferView":10,
			"componentType":5126,
			"count":39,
			"type":"VEC4"
		},
		{
			"bufferView":11,
			"componentType":5126,
			"count":2,
			"type":"VEC3"
		},
		{
			"bufferView":12,
			"componentType":5126,
			"count":2,
			"type":"VEC3"
		},
		{
			"bufferView":13,
			"componentType":5126,
			"count":2,
			"type":"VEC4"
		},
		{
			"bufferView":14,
			"componentType":5126,
			"count":2,
			"type":"VEC3"
		},
		{
			"bufferView":15,
			"componentType":5126,
			"count":2,
			"type":"VEC3"
		},
		{
			"bufferView":16,
			"componentType":5126,
			"count":2,
			"type":"VEC4"
		},
		{
			"bufferView":17,
			"componentType":5126,
			"count":2,
			"type":"VEC3"
		},
		{
			"bufferView":18,
			"componentType":5126,
			"count":2,
			"type":"VEC3"
		},
		{
			"bufferView":19,
			"componentType":5126,
			"count":2,
			"type":"VEC4"
		},
		{
			"bufferView":20,
			"componentType":5126,
			"count":2,
			"type":"VEC3"
		},
		{
			"bufferView":21,
			"componentType":5126,
			"count":2,
			"type":"VEC3"
		},
		{
			"bufferView":22,
			"componentType":5126,
			"count":39,
			"type":"VEC4"
		},
		{
			"bufferView":23,
			"componentType":5126,
			"count":2,
			"type":"VEC3"
		},
		{
			"bufferView":24,
			"componentType":5126,
			"count":2,
			"type":"VEC3"
		},
		{
			"bufferView":25,
			"componentType":5126,
			"count":39,
			"type":"VEC4"
		},
		{
			"bufferView":26,
			"componentType":5126,
			"count":2,
			"type":"VEC3"
		},
		{
			"bufferView":27,
			"componentType":5126,
			"count":2,
			"type":"VEC3"
		},
		{
			"bufferView":28,
			"componentType":5126,
			"count":2,
			"type":"VEC4"
		},
		{
			"bufferView":29,
			"componentType":5126,
			"count":2,
			"type":"VEC3"
		},
		{
			"bufferView":30,
			"componentType":5126,
			"count":2,
			"type":"VEC3"
		},
		{
			"bufferView":31,
			"componentType":5126,
			"count":39,
			"type":"VEC4"
		},
		{
			"bufferView":32,
			"componentType":5126,
			"count":2,
			"type":"VEC3"
		},
		{
			"bufferView":33,
			"componentType":5126,
			"count":2,
			"type":"VEC3"
		},
		{
			"bufferView":34,
			"componentType":5126,
			"count":39,
			"type":"VEC4"
		},
		{
			"bufferView":35,
			"componentType":5126,
			"count":2,
			"type":"VEC3"
		},
		{
			"bufferView":36,
			"componentType":5126,
			"count":2,
			"type":"VEC3"
		},
		{
			"bufferView":37,
			"componentType":5126,
			"count":39,
			"type":"VEC4"
		},
		{
			"bufferView":38,
			"componentType":5126,
			"count":2,
			"type":"VEC3"
		},
		{
			"bufferView":39,
			"componentType":5126,
			"count":2,
			"type":"VEC3"
		},
		{
			"bufferView":40,
			"componentType":5126,
			"count":39,
			"type":"VEC4"
		},
		{
			"bufferView":41,
			"componentType":5126,
			"count":2,
			"type":"VEC3"
		},
		{
			"bufferView":42,
			"componentType":5126,
			"count":2,
			"type":"VEC3"
		},
		{
			"bufferView":43,
			"componentType":5126,
			"count":39,
			"type":"VEC4"
		},
		{
			"bufferView":44,
			"componentType":5126,
			"count":2,
			"type":"VEC3"
		},
		{
			"bufferView":45,
			"componentType":5126,
			"count":2,
			"type":"VEC3"
		},
		{
			"bufferView":46,
			"componentType":5126,
			"count":39,
			"type":"VEC4"
		},
		{
			"bufferView":47,
			"componentType":5126,
			"count":2,
			"type":"VEC3"
		},
		{
			"bufferView":48,
			"componentType":5126,
			"count":2,
			"type":"VEC3"
		},
		{
			"bufferView":49,
			"componentType":5126,
			"count":39,
			"type":"VEC4"
		},
		{
			"bufferView":50,
			"componentType":5126,
			"count":2,
			"type":"VEC3"
		},
		{
			"bufferView":51,
			"componentType":5126,
			"count":2,
			"type":"VEC3"
		},
		{
			"bufferView":52,
			"componentType":5126,
			"count":2,
			"type":"VEC4"
		},
		{
			"bufferView":53,
			"componentType":5126,
			"count":2,
			"type":"VEC3"
		}
	],
	"bufferViews":[
		{
			"buffer":0,
			"byteLength":40080,
			"byteOffset":0,
			"target":34962
		},
		{
			"buffer":0,
			"byteLength":40080,
			"byteOffset":40080,
			"target":34962
		},
		{
			"buffer":0,
			"byteLength":26720,
			"byteOffset":80160,
			"target":34962
		},
		{
			"buffer":0,
			"byteLength":13360,
			"byteOffset":106880,
			"target":34962
		},
		{
			"buffer":0,
			"byteLength":53440,
			"byteOffset":120240,
			"target":34962
		},
		{
			"buffer":0,
			"byteLength":11220,
			"byteOffset":173680,
			"target":34963
		},
		{
			"buffer":0,
			"byteLength":960,
			"byteOffset":184900
		},
		{
			"buffer":0,
			"byteLength":8,
			"byteOffset":185860
		},
		{
			"buffer":0,
			"byteLength":24,
			"byteOffset":185868
		},
		{
			"buffer":0,
			"byteLength":156,
			"byteOffset":185892
		},
		{
			"buffer":0,
			"byteLength":624,
			"byteOffset":186048
		},
		{
			"buffer":0,
			"byteLength":24,
			"byteOffset":186672
		},
		{
			"buffer":0,
			"byteLength":24,
			"byteOffset":186696
		},
		{
			"buffer":0,
			"byteLength":32,
			"byteOffset":186720
		},
		{
			"buffer":0,
			"byteLength":24,
			"byteOffset":186752
		},
		{
			"buffer":0,
			"byteLength":24,
			"byteOffset":186776
		},
		{
			"buffer":0,
			"byteLength":32,
			"byteOffset":186800
		},
		{
			"buffer":0,
			"byteLength":24,
			"byteOffset":186832
		},
		{
			"buffer":0,
			"byteLength":24,
			"byteOffset":186856
		},
		{
			"buffer":0,
			"byteLength":32,
			"byteOffset":186880
		},
		{
			"buffer":0,
			"byteLength":24,
			"byteOffset":186912
		},
		{
			"buffer":0,
			"byteLength":24,
			"byteOffset":186936
		},
		{
			"buffer":0,
			"byteLength":624,
			"byteOffset":186960
		},
		{
			"buffer":0,
			"byteLength":24,
			"byteOffset":187584
		},
		{
			"buffer":0,
			"byteLength":24,
			"byteOffset":187608
		},
		{
			"buffer":0,
			"byteLength":624,
			"byteOffset":187632
		},
		{
			"buffer":0,
			"byteLength":24,
			"byteOffset":188256
		},
		{
			"buffer":0,
			"byteLength":24,
			"byteOffset":188280
		},
		{
			"buffer":0,
			"byteLength":32,
			"byteOffset":188304
		},
		{
			"buffer":0,
			"byteLength":24,
			"byteOffset":188336
		},
		{
			"buffer":0,
			"byteLength":24,
			"byteOffset":188360
		},
		{
			"buffer":0,
			"byteLength":624,
			"byteOffset":188384
		},
		{
			"buffer":0,
			"byteLength":24,
			"byteOffset":189008
		},
		{
			"buffer":0,
			"byteLength":24,
			"byteOffset":189032
		},
		{
			"buffer":0,
			"byteLength":624,
			"byteOffset":189056
		},
		{
			"buffer":0,
			"byteLength":24,
			"byteOffset":189680
		},
		{
			"buffer":0,
			"byteLength":24,
			"byteOffset":189704
		},
		{
			"buffer":0,
			"byteLength":624,
			"byteOffset":189728
		},
		{
			"buffer":0,
			"byteLength":24,
			"byteOffset":190352
		},
		{
			"buffer":0,
			"byteLength":24,
			"byteOffset":190376
		},
		{
			"buffer":0,
			"byteLength":624,
			"byteOffset":190400
		},
		{
			"buffer":0,
			"byteLength":24,
			"byteOffset":191024
		},
		{
			"buffer":0,
			"byteLength":24,
			"byteOffset":191048
		},
		{
			"buffer":0,
			"byteLength":624,
			"byteOffset":191072
		},
		{
			"buffer":0,
			"byteLength":24,
			"byteOffset":191696
		},
		{
			"buffer":0,
			"byteLength":24,
			"byteOffset":191720
		},
		{
			"buffer":0,
			"byteLength":624,
			"byteOffset":191744
		},
		{
			"buffer":0,
			"byteLength":24,
			"byteOffset":192368
		},
		{
			"buffer":0,
			"byteLength":24,
			"byteOffset":192392
		},
		{
			"buffer":0,
			"byteLength":624,
			"byteOffset":192416
		},
		{
			"buffer":0,
			"byteLength":24,
			"byteOffset":193040
		},
		{
			"buffer":0,
			"byteLength":24,
			"byteOffset":193064
		},
		{
			"buffer":0,
			"byteLength":32,
			"byteOffset":193088
		},
		{
			"buffer":0,
			"byteLength":24,
			"byteOffset":193120
		}
	],
	"buffers":[
		{
			"byteLength":193144,
			"uri":"Enemy_03_attack1.bin"
		}
	]
}
