{
	"asset":{
		"generator":"Khronos glTF Blender I/O v4.4.56",
		"version":"2.0"
	},
	"scene":0,
	"scenes":[
		{
			"name":"Scene",
			"nodes":[
				0,
				1,
				2,
				3,
				20
			]
		}
	],
	"nodes":[
		{
			"mesh":0,
			"name":"\u7403",
			"rotation":[
				0,
				-1,
				0,
				7.549790126404332e-08
			],
			"translation":[
				0,
				1.2345846891403198,
				0.34088125824928284
			]
		},
		{
			"mesh":1,
			"name":"\u7403.001",
			"rotation":[
				0,
				-1,
				0,
				7.549790126404332e-08
			]
		},
		{
			"mesh":2,
			"name":"\u7403.002",
			"rotation":[
				0,
				-1,
				0,
				7.549790126404332e-08
			],
			"scale":[
				1.1159086227416992,
				1.1159086227416992,
				1.1159086227416992
			],
			"translation":[
				0,
				-0.025614600628614426,
				-0.02409311756491661
			]
		},
		{
			"mesh":3,
			"name":"\u7acb\u65b9\u4f53",
			"rotation":[
				0,
				-1,
				0,
				7.549790126404332e-08
			]
		},
		{
			"name":"\u30dc\u30fc\u30f3.004",
			"rotation":[
				7.659692435879606e-09,
				4.026953348557072e-08,
				-0.042716529220342636,
				0.9990872740745544
			],
			"scale":[
				1,
				0.9999999403953552,
				1
			],
			"translation":[
				1.1920923270736239e-07,
				0.5690720081329346,
				2.842170943040401e-14
			]
		},
		{
			"children":[
				4
			],
			"name":"\u30dc\u30fc\u30f3.003",
			"rotation":[
				1.9344216894978672e-08,
				4.931237640448671e-08,
				-0.21864424645900726,
				0.9758046269416809
			],
			"scale":[
				0.9999999403953552,
				1,
				1
			],
			"translation":[
				-4.1909537173978606e-08,
				0.8039423823356628,
				1.4210854715202004e-14
			]
		},
		{
			"children":[
				5
			],
			"name":"\u30dc\u30fc\u30f3.002",
			"rotation":[
				-1.450111568601642e-07,
				-2.384333264160432e-08,
				0.7043175101280212,
				0.7098851203918457
			],
			"translation":[
				0,
				0.39248061180114746,
				0
			]
		},
		{
			"name":"\u30dc\u30fc\u30f3.014",
			"rotation":[
				-0.0019701772835105658,
				-1.1926359455571856e-08,
				0.7065249681472778,
				0.7076854109764099
			],
			"scale":[
				0.9999998807907104,
				0.9999998211860657,
				1
			],
			"translation":[
				-1.192089627011228e-07,
				0.5135157108306885,
				-1.1368683772161603e-13
			]
		},
		{
			"children":[
				7
			],
			"name":"\u30dc\u30fc\u30f3.007",
			"rotation":[
				-3.281351013129097e-08,
				1.1963001611547952e-07,
				0.03787614777684212,
				0.9992824792861938
			],
			"translation":[
				1.674216321134736e-13,
				0.5916827917098999,
				-5.684341886080802e-14
			]
		},
		{
			"children":[
				8
			],
			"name":"\u30dc\u30fc\u30f3.006",
			"rotation":[
				-1.6133253666339442e-07,
				-7.656761447094595e-09,
				0.21383869647979736,
				0.9768689870834351
			],
			"scale":[
				0.9999998807907104,
				1,
				1
			],
			"translation":[
				1.899898904866859e-07,
				0.8231268525123596,
				-9.947598300641403e-14
			]
		},
		{
			"children":[
				9
			],
			"name":"\u30dc\u30fc\u30f3.005",
			"rotation":[
				3.0165344355737034e-07,
				1.4039162010703876e-07,
				-0.698902428150177,
				0.7152170538902283
			],
			"scale":[
				0.9999999403953552,
				0.9999999403953552,
				1
			],
			"translation":[
				0,
				0.39248061180114746,
				0
			]
		},
		{
			"name":"\u30dc\u30fc\u30f3.009",
			"translation":[
				0,
				0.38613367080688477,
				0
			]
		},
		{
			"children":[
				11
			],
			"name":"\u30dc\u30fc\u30f3.008",
			"translation":[
				0,
				0.39248061180114746,
				0
			]
		},
		{
			"children":[
				6,
				10,
				12
			],
			"name":"\u30dc\u30fc\u30f3.001",
			"rotation":[
				0,
				1.1920928244535389e-07,
				0,
				1
			],
			"translation":[
				0,
				1,
				0
			]
		},
		{
			"children":[
				13
			],
			"name":"\u30dc\u30fc\u30f3",
			"translation":[
				0,
				0.7518936991691589,
				0
			]
		},
		{
			"name":"\u30dc\u30fc\u30f3.011",
			"rotation":[
				-0.5577096343040466,
				-9.145632162699258e-08,
				1.2774017932315473e-07,
				0.8300361037254333
			],
			"translation":[
				8.881784197001252e-16,
				0.35589346289634705,
				4.440892098500626e-16
			]
		},
		{
			"children":[
				15
			],
			"name":"\u30dc\u30fc\u30f3.010",
			"rotation":[
				-0.5217595100402832,
				0.477249413728714,
				0.5217595100402832,
				0.4772494435310364
			],
			"translation":[
				0,
				0.7518936991691589,
				0
			]
		},
		{
			"name":"\u30dc\u30fc\u30f3.013",
			"rotation":[
				-0.5537907481193542,
				7.180000594075864e-09,
				-4.5981170870845745e-08,
				0.8326559066772461
			],
			"scale":[
				1,
				0.9999999403953552,
				0.9999999403953552
			],
			"translation":[
				7.105427357601002e-15,
				0.3680155277252197,
				-3.5390254282674505e-08
			]
		},
		{
			"children":[
				17
			],
			"name":"\u30dc\u30fc\u30f3.012",
			"rotation":[
				-0.5169144868850708,
				-0.48249301314353943,
				-0.5169143676757812,
				0.48249298334121704
			],
			"scale":[
				1,
				0.9999999403953552,
				0.9999999403953552
			],
			"translation":[
				0,
				0.7518936991691589,
				0
			]
		},
		{
			"mesh":4,
			"name":"\u7acb\u65b9\u4f53.001",
			"skin":0
		},
		{
			"children":[
				19,
				14,
				16,
				18
			],
			"name":"\u30a2\u30fc\u30de\u30c1\u30e5\u30a2",
			"rotation":[
				0,
				-1,
				0,
				7.549790126404332e-08
			]
		}
	],
	"animations":[
		{
			"channels":[
				{
					"sampler":0,
					"target":{
						"node":14,
						"path":"translation"
					}
				},
				{
					"sampler":1,
					"target":{
						"node":14,
						"path":"rotation"
					}
				},
				{
					"sampler":2,
					"target":{
						"node":14,
						"path":"scale"
					}
				},
				{
					"sampler":3,
					"target":{
						"node":13,
						"path":"translation"
					}
				},
				{
					"sampler":4,
					"target":{
						"node":13,
						"path":"rotation"
					}
				},
				{
					"sampler":5,
					"target":{
						"node":13,
						"path":"scale"
					}
				},
				{
					"sampler":6,
					"target":{
						"node":6,
						"path":"translation"
					}
				},
				{
					"sampler":7,
					"target":{
						"node":6,
						"path":"rotation"
					}
				},
				{
					"sampler":8,
					"target":{
						"node":6,
						"path":"scale"
					}
				},
				{
					"sampler":9,
					"target":{
						"node":5,
						"path":"translation"
					}
				},
				{
					"sampler":10,
					"target":{
						"node":5,
						"path":"rotation"
					}
				},
				{
					"sampler":11,
					"target":{
						"node":5,
						"path":"scale"
					}
				},
				{
					"sampler":12,
					"target":{
						"node":4,
						"path":"translation"
					}
				},
				{
					"sampler":13,
					"target":{
						"node":4,
						"path":"rotation"
					}
				},
				{
					"sampler":14,
					"target":{
						"node":4,
						"path":"scale"
					}
				},
				{
					"sampler":15,
					"target":{
						"node":10,
						"path":"translation"
					}
				},
				{
					"sampler":16,
					"target":{
						"node":10,
						"path":"rotation"
					}
				},
				{
					"sampler":17,
					"target":{
						"node":10,
						"path":"scale"
					}
				},
				{
					"sampler":18,
					"target":{
						"node":9,
						"path":"translation"
					}
				},
				{
					"sampler":19,
					"target":{
						"node":9,
						"path":"rotation"
					}
				},
				{
					"sampler":20,
					"target":{
						"node":9,
						"path":"scale"
					}
				},
				{
					"sampler":21,
					"target":{
						"node":8,
						"path":"translation"
					}
				},
				{
					"sampler":22,
					"target":{
						"node":8,
						"path":"rotation"
					}
				},
				{
					"sampler":23,
					"target":{
						"node":8,
						"path":"scale"
					}
				},
				{
					"sampler":24,
					"target":{
						"node":7,
						"path":"translation"
					}
				},
				{
					"sampler":25,
					"target":{
						"node":7,
						"path":"rotation"
					}
				},
				{
					"sampler":26,
					"target":{
						"node":7,
						"path":"scale"
					}
				},
				{
					"sampler":27,
					"target":{
						"node":12,
						"path":"translation"
					}
				},
				{
					"sampler":28,
					"target":{
						"node":12,
						"path":"rotation"
					}
				},
				{
					"sampler":29,
					"target":{
						"node":12,
						"path":"scale"
					}
				},
				{
					"sampler":30,
					"target":{
						"node":11,
						"path":"translation"
					}
				},
				{
					"sampler":31,
					"target":{
						"node":11,
						"path":"rotation"
					}
				},
				{
					"sampler":32,
					"target":{
						"node":11,
						"path":"scale"
					}
				},
				{
					"sampler":33,
					"target":{
						"node":16,
						"path":"translation"
					}
				},
				{
					"sampler":34,
					"target":{
						"node":16,
						"path":"rotation"
					}
				},
				{
					"sampler":35,
					"target":{
						"node":16,
						"path":"scale"
					}
				},
				{
					"sampler":36,
					"target":{
						"node":15,
						"path":"translation"
					}
				},
				{
					"sampler":37,
					"target":{
						"node":15,
						"path":"rotation"
					}
				},
				{
					"sampler":38,
					"target":{
						"node":15,
						"path":"scale"
					}
				},
				{
					"sampler":39,
					"target":{
						"node":18,
						"path":"translation"
					}
				},
				{
					"sampler":40,
					"target":{
						"node":18,
						"path":"rotation"
					}
				},
				{
					"sampler":41,
					"target":{
						"node":18,
						"path":"scale"
					}
				},
				{
					"sampler":42,
					"target":{
						"node":17,
						"path":"translation"
					}
				},
				{
					"sampler":43,
					"target":{
						"node":17,
						"path":"rotation"
					}
				},
				{
					"sampler":44,
					"target":{
						"node":17,
						"path":"scale"
					}
				}
			],
			"name":"idle",
			"samplers":[
				{
					"input":23,
					"interpolation":"STEP",
					"output":24
				},
				{
					"input":25,
					"interpolation":"LINEAR",
					"output":26
				},
				{
					"input":23,
					"interpolation":"STEP",
					"output":27
				},
				{
					"input":23,
					"interpolation":"STEP",
					"output":28
				},
				{
					"input":23,
					"interpolation":"STEP",
					"output":29
				},
				{
					"input":23,
					"interpolation":"STEP",
					"output":30
				},
				{
					"input":23,
					"interpolation":"STEP",
					"output":31
				},
				{
					"input":23,
					"interpolation":"STEP",
					"output":32
				},
				{
					"input":23,
					"interpolation":"STEP",
					"output":33
				},
				{
					"input":23,
					"interpolation":"STEP",
					"output":34
				},
				{
					"input":25,
					"interpolation":"LINEAR",
					"output":35
				},
				{
					"input":23,
					"interpolation":"STEP",
					"output":36
				},
				{
					"input":23,
					"interpolation":"STEP",
					"output":37
				},
				{
					"input":25,
					"interpolation":"LINEAR",
					"output":38
				},
				{
					"input":23,
					"interpolation":"STEP",
					"output":39
				},
				{
					"input":23,
					"interpolation":"STEP",
					"output":40
				},
				{
					"input":23,
					"interpolation":"STEP",
					"output":41
				},
				{
					"input":23,
					"interpolation":"STEP",
					"output":42
				},
				{
					"input":23,
					"interpolation":"STEP",
					"output":43
				},
				{
					"input":25,
					"interpolation":"LINEAR",
					"output":44
				},
				{
					"input":23,
					"interpolation":"STEP",
					"output":45
				},
				{
					"input":23,
					"interpolation":"STEP",
					"output":46
				},
				{
					"input":23,
					"interpolation":"STEP",
					"output":47
				},
				{
					"input":23,
					"interpolation":"STEP",
					"output":48
				},
				{
					"input":23,
					"interpolation":"STEP",
					"output":49
				},
				{
					"input":23,
					"interpolation":"STEP",
					"output":50
				},
				{
					"input":23,
					"interpolation":"STEP",
					"output":51
				},
				{
					"input":23,
					"interpolation":"STEP",
					"output":52
				},
				{
					"input":25,
					"interpolation":"LINEAR",
					"output":53
				},
				{
					"input":23,
					"interpolation":"STEP",
					"output":54
				},
				{
					"input":23,
					"interpolation":"STEP",
					"output":55
				},
				{
					"input":25,
					"interpolation":"LINEAR",
					"output":56
				},
				{
					"input":23,
					"interpolation":"STEP",
					"output":57
				},
				{
					"input":23,
					"interpolation":"STEP",
					"output":58
				},
				{
					"input":23,
					"interpolation":"STEP",
					"output":59
				},
				{
					"input":23,
					"interpolation":"STEP",
					"output":60
				},
				{
					"input":23,
					"interpolation":"STEP",
					"output":61
				},
				{
					"input":23,
					"interpolation":"STEP",
					"output":62
				},
				{
					"input":23,
					"interpolation":"STEP",
					"output":63
				},
				{
					"input":23,
					"interpolation":"STEP",
					"output":64
				},
				{
					"input":23,
					"interpolation":"STEP",
					"output":65
				},
				{
					"input":23,
					"interpolation":"STEP",
					"output":66
				},
				{
					"input":23,
					"interpolation":"STEP",
					"output":67
				},
				{
					"input":23,
					"interpolation":"STEP",
					"output":68
				},
				{
					"input":23,
					"interpolation":"STEP",
					"output":69
				}
			]
		}
	],
	"meshes":[
		{
			"name":"\u7403.001",
			"primitives":[
				{
					"attributes":{
						"POSITION":0,
						"NORMAL":1,
						"TEXCOORD_0":2
					},
					"indices":3
				}
			]
		},
		{
			"name":"\u7403.002",
			"primitives":[
				{
					"attributes":{
						"POSITION":4,
						"NORMAL":5,
						"TEXCOORD_0":6
					},
					"indices":7
				}
			]
		},
		{
			"name":"\u7403.003",
			"primitives":[
				{
					"attributes":{
						"POSITION":8,
						"NORMAL":9,
						"TEXCOORD_0":10
					},
					"indices":11
				}
			]
		},
		{
			"name":"\u7acb\u65b9\u4f53",
			"primitives":[
				{
					"attributes":{
						"POSITION":12,
						"NORMAL":13,
						"TEXCOORD_0":14
					},
					"indices":15
				}
			]
		},
		{
			"name":"\u7acb\u65b9\u4f53.001",
			"primitives":[
				{
					"attributes":{
						"POSITION":16,
						"NORMAL":17,
						"TEXCOORD_0":18,
						"JOINTS_0":19,
						"WEIGHTS_0":20
					},
					"indices":21
				}
			]
		}
	],
	"skins":[
		{
			"inverseBindMatrices":22,
			"joints":[
				14,
				13,
				6,
				5,
				4,
				10,
				9,
				8,
				7,
				12,
				11,
				16,
				15,
				18,
				17
			],
			"name":"\u30a2\u30fc\u30de\u30c1\u30e5\u30a2"
		}
	],
	"accessors":[
		{
			"bufferView":0,
			"componentType":5126,
			"count":858,
			"max":[
				0.6571192145347595,
				0.6664093732833862,
				0.23001648485660553
			],
			"min":[
				-0.6571192145347595,
				-0.45994898676872253,
				-1.0043470859527588
			],
			"type":"VEC3"
		},
		{
			"bufferView":1,
			"componentType":5126,
			"count":858,
			"type":"VEC3"
		},
		{
			"bufferView":2,
			"componentType":5126,
			"count":858,
			"type":"VEC2"
		},
		{
			"bufferView":3,
			"componentType":5123,
			"count":1320,
			"type":"SCALAR"
		},
		{
			"bufferView":4,
			"componentType":5126,
			"count":1312,
			"max":[
				1.9606530666351318,
				1.2864127159118652,
				0.7812333106994629
			],
			"min":[
				-1.9606530666351318,
				-1.5732043981552124,
				-1.0273457765579224
			],
			"type":"VEC3"
		},
		{
			"bufferView":5,
			"componentType":5126,
			"count":1312,
			"type":"VEC3"
		},
		{
			"bufferView":6,
			"componentType":5126,
			"count":1312,
			"type":"VEC2"
		},
		{
			"bufferView":7,
			"componentType":5123,
			"count":1992,
			"type":"SCALAR"
		},
		{
			"bufferView":8,
			"componentType":5126,
			"count":372,
			"max":[
				0.9870366454124451,
				0.8931084275245667,
				0.7812333106994629
			],
			"min":[
				-0.9870366454124451,
				-0.7709137201309204,
				-1.0273457765579224
			],
			"type":"VEC3"
		},
		{
			"bufferView":9,
			"componentType":5126,
			"count":372,
			"type":"VEC3"
		},
		{
			"bufferView":10,
			"componentType":5126,
			"count":372,
			"type":"VEC2"
		},
		{
			"bufferView":11,
			"componentType":5123,
			"count":564,
			"type":"SCALAR"
		},
		{
			"bufferView":12,
			"componentType":5126,
			"count":552,
			"max":[
				0.24812865257263184,
				0.1277327984571457,
				1.9145164489746094
			],
			"min":[
				-2.764742851257324,
				-0.1277327984571457,
				-6.805744171142578
			],
			"type":"VEC3"
		},
		{
			"bufferView":13,
			"componentType":5126,
			"count":552,
			"type":"VEC3"
		},
		{
			"bufferView":14,
			"componentType":5126,
			"count":552,
			"type":"VEC2"
		},
		{
			"bufferView":15,
			"componentType":5123,
			"count":1188,
			"type":"SCALAR"
		},
		{
			"bufferView":16,
			"componentType":5126,
			"count":3094,
			"max":[
				1.9606530666351318,
				5.088982105255127,
				1.1705172061920166
			],
			"min":[
				-2.0844428539276123,
				0.003992676734924316,
				-0.8476918935775757
			],
			"type":"VEC3"
		},
		{
			"bufferView":17,
			"componentType":5126,
			"count":3094,
			"type":"VEC3"
		},
		{
			"bufferView":18,
			"componentType":5126,
			"count":3094,
			"type":"VEC2"
		},
		{
			"bufferView":19,
			"componentType":5121,
			"count":3094,
			"type":"VEC4"
		},
		{
			"bufferView":20,
			"componentType":5126,
			"count":3094,
			"type":"VEC4"
		},
		{
			"bufferView":21,
			"componentType":5123,
			"count":5064,
			"type":"SCALAR"
		},
		{
			"bufferView":22,
			"componentType":5126,
			"count":15,
			"type":"MAT4"
		},
		{
			"bufferView":23,
			"componentType":5126,
			"count":2,
			"max":[
				4.166666666666667
			],
			"min":[
				0
			],
			"type":"SCALAR"
		},
		{
			"bufferView":24,
			"componentType":5126,
			"count":2,
			"type":"VEC3"
		},
		{
			"bufferView":25,
			"componentType":5126,
			"count":251,
			"max":[
				4.166666666666667
			],
			"min":[
				0
			],
			"type":"SCALAR"
		},
		{
			"bufferView":26,
			"componentType":5126,
			"count":251,
			"type":"VEC4"
		},
		{
			"bufferView":27,
			"componentType":5126,
			"count":2,
			"type":"VEC3"
		},
		{
			"bufferView":28,
			"componentType":5126,
			"count":2,
			"type":"VEC3"
		},
		{
			"bufferView":29,
			"componentType":5126,
			"count":2,
			"type":"VEC4"
		},
		{
			"bufferView":30,
			"componentType":5126,
			"count":2,
			"type":"VEC3"
		},
		{
			"bufferView":31,
			"componentType":5126,
			"count":2,
			"type":"VEC3"
		},
		{
			"bufferView":32,
			"componentType":5126,
			"count":2,
			"type":"VEC4"
		},
		{
			"bufferView":33,
			"componentType":5126,
			"count":2,
			"type":"VEC3"
		},
		{
			"bufferView":34,
			"componentType":5126,
			"count":2,
			"type":"VEC3"
		},
		{
			"bufferView":35,
			"componentType":5126,
			"count":251,
			"type":"VEC4"
		},
		{
			"bufferView":36,
			"componentType":5126,
			"count":2,
			"type":"VEC3"
		},
		{
			"bufferView":37,
			"componentType":5126,
			"count":2,
			"type":"VEC3"
		},
		{
			"bufferView":38,
			"componentType":5126,
			"count":251,
			"type":"VEC4"
		},
		{
			"bufferView":39,
			"componentType":5126,
			"count":2,
			"type":"VEC3"
		},
		{
			"bufferView":40,
			"componentType":5126,
			"count":2,
			"type":"VEC3"
		},
		{
			"bufferView":41,
			"componentType":5126,
			"count":2,
			"type":"VEC4"
		},
		{
			"bufferView":42,
			"componentType":5126,
			"count":2,
			"type":"VEC3"
		},
		{
			"bufferView":43,
			"componentType":5126,
			"count":2,
			"type":"VEC3"
		},
		{
			"bufferView":44,
			"componentType":5126,
			"count":251,
			"type":"VEC4"
		},
		{
			"bufferView":45,
			"componentType":5126,
			"count":2,
			"type":"VEC3"
		},
		{
			"bufferView":46,
			"componentType":5126,
			"count":2,
			"type":"VEC3"
		},
		{
			"bufferView":47,
			"componentType":5126,
			"count":2,
			"type":"VEC4"
		},
		{
			"bufferView":48,
			"componentType":5126,
			"count":2,
			"type":"VEC3"
		},
		{
			"bufferView":49,
			"componentType":5126,
			"count":2,
			"type":"VEC3"
		},
		{
			"bufferView":50,
			"componentType":5126,
			"count":2,
			"type":"VEC4"
		},
		{
			"bufferView":51,
			"componentType":5126,
			"count":2,
			"type":"VEC3"
		},
		{
			"bufferView":52,
			"componentType":5126,
			"count":2,
			"type":"VEC3"
		},
		{
			"bufferView":53,
			"componentType":5126,
			"count":251,
			"type":"VEC4"
		},
		{
			"bufferView":54,
			"componentType":5126,
			"count":2,
			"type":"VEC3"
		},
		{
			"bufferView":55,
			"componentType":5126,
			"count":2,
			"type":"VEC3"
		},
		{
			"bufferView":56,
			"componentType":5126,
			"count":251,
			"type":"VEC4"
		},
		{
			"bufferView":57,
			"componentType":5126,
			"count":2,
			"type":"VEC3"
		},
		{
			"bufferView":58,
			"componentType":5126,
			"count":2,
			"type":"VEC3"
		},
		{
			"bufferView":59,
			"componentType":5126,
			"count":2,
			"type":"VEC4"
		},
		{
			"bufferView":60,
			"componentType":5126,
			"count":2,
			"type":"VEC3"
		},
		{
			"bufferView":61,
			"componentType":5126,
			"count":2,
			"type":"VEC3"
		},
		{
			"bufferView":62,
			"componentType":5126,
			"count":2,
			"type":"VEC4"
		},
		{
			"bufferView":63,
			"componentType":5126,
			"count":2,
			"type":"VEC3"
		},
		{
			"bufferView":64,
			"componentType":5126,
			"count":2,
			"type":"VEC3"
		},
		{
			"bufferView":65,
			"componentType":5126,
			"count":2,
			"type":"VEC4"
		},
		{
			"bufferView":66,
			"componentType":5126,
			"count":2,
			"type":"VEC3"
		},
		{
			"bufferView":67,
			"componentType":5126,
			"count":2,
			"type":"VEC3"
		},
		{
			"bufferView":68,
			"componentType":5126,
			"count":2,
			"type":"VEC4"
		},
		{
			"bufferView":69,
			"componentType":5126,
			"count":2,
			"type":"VEC3"
		}
	],
	"bufferViews":[
		{
			"buffer":0,
			"byteLength":10296,
			"byteOffset":0,
			"target":34962
		},
		{
			"buffer":0,
			"byteLength":10296,
			"byteOffset":10296,
			"target":34962
		},
		{
			"buffer":0,
			"byteLength":6864,
			"byteOffset":20592,
			"target":34962
		},
		{
			"buffer":0,
			"byteLength":2640,
			"byteOffset":27456,
			"target":34963
		},
		{
			"buffer":0,
			"byteLength":15744,
			"byteOffset":30096,
			"target":34962
		},
		{
			"buffer":0,
			"byteLength":15744,
			"byteOffset":45840,
			"target":34962
		},
		{
			"buffer":0,
			"byteLength":10496,
			"byteOffset":61584,
			"target":34962
		},
		{
			"buffer":0,
			"byteLength":3984,
			"byteOffset":72080,
			"target":34963
		},
		{
			"buffer":0,
			"byteLength":4464,
			"byteOffset":76064,
			"target":34962
		},
		{
			"buffer":0,
			"byteLength":4464,
			"byteOffset":80528,
			"target":34962
		},
		{
			"buffer":0,
			"byteLength":2976,
			"byteOffset":84992,
			"target":34962
		},
		{
			"buffer":0,
			"byteLength":1128,
			"byteOffset":87968,
			"target":34963
		},
		{
			"buffer":0,
			"byteLength":6624,
			"byteOffset":89096,
			"target":34962
		},
		{
			"buffer":0,
			"byteLength":6624,
			"byteOffset":95720,
			"target":34962
		},
		{
			"buffer":0,
			"byteLength":4416,
			"byteOffset":102344,
			"target":34962
		},
		{
			"buffer":0,
			"byteLength":2376,
			"byteOffset":106760,
			"target":34963
		},
		{
			"buffer":0,
			"byteLength":37128,
			"byteOffset":109136,
			"target":34962
		},
		{
			"buffer":0,
			"byteLength":37128,
			"byteOffset":146264,
			"target":34962
		},
		{
			"buffer":0,
			"byteLength":24752,
			"byteOffset":183392,
			"target":34962
		},
		{
			"buffer":0,
			"byteLength":12376,
			"byteOffset":208144,
			"target":34962
		},
		{
			"buffer":0,
			"byteLength":49504,
			"byteOffset":220520,
			"target":34962
		},
		{
			"buffer":0,
			"byteLength":10128,
			"byteOffset":270024,
			"target":34963
		},
		{
			"buffer":0,
			"byteLength":960,
			"byteOffset":280152
		},
		{
			"buffer":0,
			"byteLength":8,
			"byteOffset":281112
		},
		{
			"buffer":0,
			"byteLength":24,
			"byteOffset":281120
		},
		{
			"buffer":0,
			"byteLength":1004,
			"byteOffset":281144
		},
		{
			"buffer":0,
			"byteLength":4016,
			"byteOffset":282148
		},
		{
			"buffer":0,
			"byteLength":24,
			"byteOffset":286164
		},
		{
			"buffer":0,
			"byteLength":24,
			"byteOffset":286188
		},
		{
			"buffer":0,
			"byteLength":32,
			"byteOffset":286212
		},
		{
			"buffer":0,
			"byteLength":24,
			"byteOffset":286244
		},
		{
			"buffer":0,
			"byteLength":24,
			"byteOffset":286268
		},
		{
			"buffer":0,
			"byteLength":32,
			"byteOffset":286292
		},
		{
			"buffer":0,
			"byteLength":24,
			"byteOffset":286324
		},
		{
			"buffer":0,
			"byteLength":24,
			"byteOffset":286348
		},
		{
			"buffer":0,
			"byteLength":4016,
			"byteOffset":286372
		},
		{
			"buffer":0,
			"byteLength":24,
			"byteOffset":290388
		},
		{
			"buffer":0,
			"byteLength":24,
			"byteOffset":290412
		},
		{
			"buffer":0,
			"byteLength":4016,
			"byteOffset":290436
		},
		{
			"buffer":0,
			"byteLength":24,
			"byteOffset":294452
		},
		{
			"buffer":0,
			"byteLength":24,
			"byteOffset":294476
		},
		{
			"buffer":0,
			"byteLength":32,
			"byteOffset":294500
		},
		{
			"buffer":0,
			"byteLength":24,
			"byteOffset":294532
		},
		{
			"buffer":0,
			"byteLength":24,
			"byteOffset":294556
		},
		{
			"buffer":0,
			"byteLength":4016,
			"byteOffset":294580
		},
		{
			"buffer":0,
			"byteLength":24,
			"byteOffset":298596
		},
		{
			"buffer":0,
			"byteLength":24,
			"byteOffset":298620
		},
		{
			"buffer":0,
			"byteLength":32,
			"byteOffset":298644
		},
		{
			"buffer":0,
			"byteLength":24,
			"byteOffset":298676
		},
		{
			"buffer":0,
			"byteLength":24,
			"byteOffset":298700
		},
		{
			"buffer":0,
			"byteLength":32,
			"byteOffset":298724
		},
		{
			"buffer":0,
			"byteLength":24,
			"byteOffset":298756
		},
		{
			"buffer":0,
			"byteLength":24,
			"byteOffset":298780
		},
		{
			"buffer":0,
			"byteLength":4016,
			"byteOffset":298804
		},
		{
			"buffer":0,
			"byteLength":24,
			"byteOffset":302820
		},
		{
			"buffer":0,
			"byteLength":24,
			"byteOffset":302844
		},
		{
			"buffer":0,
			"byteLength":4016,
			"byteOffset":302868
		},
		{
			"buffer":0,
			"byteLength":24,
			"byteOffset":306884
		},
		{
			"buffer":0,
			"byteLength":24,
			"byteOffset":306908
		},
		{
			"buffer":0,
			"byteLength":32,
			"byteOffset":306932
		},
		{
			"buffer":0,
			"byteLength":24,
			"byteOffset":306964
		},
		{
			"buffer":0,
			"byteLength":24,
			"byteOffset":306988
		},
		{
			"buffer":0,
			"byteLength":32,
			"byteOffset":307012
		},
		{
			"buffer":0,
			"byteLength":24,
			"byteOffset":307044
		},
		{
			"buffer":0,
			"byteLength":24,
			"byteOffset":307068
		},
		{
			"buffer":0,
			"byteLength":32,
			"byteOffset":307092
		},
		{
			"buffer":0,
			"byteLength":24,
			"byteOffset":307124
		},
		{
			"buffer":0,
			"byteLength":24,
			"byteOffset":307148
		},
		{
			"buffer":0,
			"byteLength":32,
			"byteOffset":307172
		},
		{
			"buffer":0,
			"byteLength":24,
			"byteOffset":307204
		}
	],
	"buffers":[
		{
			"byteLength":307228,
			"uri":"Enemy_01_idle.bin"
		}
	]
}
