{
	"asset":{
		"generator":"Khronos glTF Blender I/O v4.4.56",
		"version":"2.0"
	},
	"scene":0,
	"scenes":[
		{
			"name":"Scene",
			"nodes":[
				4,
				5
			]
		}
	],
	"nodes":[
		{
			"name":"\u30dc\u30fc\u30f3",
			"rotation":[
				0,
				-2.117582368135751e-22,
				1.135959703518257e-28,
				1
			],
			"translation":[
				7.714282546089635e-10,
				-1.1852270364761353,
				2.1698553562164307
			]
		},
		{
			"name":"\u30dc\u30fc\u30f3.001",
			"rotation":[
				2.3608381603676875e-15,
				1,
				2.980232594040899e-08,
				1.9470718370939721e-07
			],
			"scale":[
				1,
				0.9999997019767761,
				0.9999999403953552
			],
			"translation":[
				-1.6742578596304694e-14,
				-1.240273118019104,
				4.5439372062683105
			]
		},
		{
			"name":"neutral_bone",
			"rotation":[
				-0.7071067690849304,
				0,
				0,
				0.7071067690849304
			]
		},
		{
			"mesh":0,
			"name":"\u7acb\u65b9\u4f53",
			"skin":0
		},
		{
			"children":[
				3,
				0,
				1,
				2
			],
			"name":"\u30a2\u30fc\u30de\u30c1\u30e5\u30a2",
			"rotation":[
				0,
				0.7071069478988647,
				0.7071066498756409,
				5.338507946817117e-08
			],
			"scale":[
				0.7071331739425659,
				0.7071331739425659,
				0.7071331739425659
			]
		},
		{
			"mesh":1,
			"name":"\u7acb\u65b9\u4f53.007",
			"rotation":[
				0,
				1,
				0,
				7.549790126404332e-08
			]
		}
	],
	"animations":[
		{
			"channels":[
				{
					"sampler":0,
					"target":{
						"node":0,
						"path":"translation"
					}
				},
				{
					"sampler":1,
					"target":{
						"node":0,
						"path":"rotation"
					}
				},
				{
					"sampler":2,
					"target":{
						"node":0,
						"path":"scale"
					}
				},
				{
					"sampler":3,
					"target":{
						"node":1,
						"path":"translation"
					}
				},
				{
					"sampler":4,
					"target":{
						"node":1,
						"path":"rotation"
					}
				},
				{
					"sampler":5,
					"target":{
						"node":1,
						"path":"scale"
					}
				}
			],
			"name":"idle",
			"samplers":[
				{
					"input":11,
					"interpolation":"LINEAR",
					"output":12
				},
				{
					"input":11,
					"interpolation":"LINEAR",
					"output":13
				},
				{
					"input":11,
					"interpolation":"LINEAR",
					"output":14
				},
				{
					"input":11,
					"interpolation":"LINEAR",
					"output":15
				},
				{
					"input":11,
					"interpolation":"LINEAR",
					"output":16
				},
				{
					"input":11,
					"interpolation":"LINEAR",
					"output":17
				}
			]
		}
	],
	"meshes":[
		{
			"name":"\u7acb\u65b9\u4f53",
			"primitives":[
				{
					"attributes":{
						"POSITION":0,
						"NORMAL":1,
						"TEXCOORD_0":2,
						"JOINTS_0":3,
						"WEIGHTS_0":4
					},
					"indices":5
				}
			]
		},
		{
			"name":"\u7acb\u65b9\u4f53.011",
			"primitives":[
				{
					"attributes":{
						"POSITION":7,
						"NORMAL":8,
						"TEXCOORD_0":9
					},
					"indices":10
				}
			]
		}
	],
	"skins":[
		{
			"inverseBindMatrices":6,
			"joints":[
				0,
				1,
				2
			],
			"name":"\u30a2\u30fc\u30de\u30c1\u30e5\u30a2"
		}
	],
	"accessors":[
		{
			"bufferView":0,
			"componentType":5126,
			"count":1596,
			"max":[
				2.3627688884735107,
				3.4110474586486816,
				0.9728480577468872
			],
			"min":[
				-2.3627688884735107,
				0.5046235918998718,
				-1.439246416091919
			],
			"type":"VEC3"
		},
		{
			"bufferView":1,
			"componentType":5126,
			"count":1596,
			"type":"VEC3"
		},
		{
			"bufferView":2,
			"componentType":5126,
			"count":1596,
			"type":"VEC2"
		},
		{
			"bufferView":3,
			"componentType":5121,
			"count":1596,
			"type":"VEC4"
		},
		{
			"bufferView":4,
			"componentType":5126,
			"count":1596,
			"type":"VEC4"
		},
		{
			"bufferView":5,
			"componentType":5123,
			"count":3918,
			"type":"SCALAR"
		},
		{
			"bufferView":6,
			"componentType":5126,
			"count":3,
			"type":"MAT4"
		},
		{
			"bufferView":7,
			"componentType":5126,
			"count":48,
			"max":[
				0.19546619057655334,
				0.19546616077423096,
				0.8438310027122498
			],
			"min":[
				-0.19546619057655334,
				-0.19546616077423096,
				-1.4588935375213623
			],
			"type":"VEC3"
		},
		{
			"bufferView":8,
			"componentType":5126,
			"count":48,
			"type":"VEC3"
		},
		{
			"bufferView":9,
			"componentType":5126,
			"count":48,
			"type":"VEC2"
		},
		{
			"bufferView":10,
			"componentType":5123,
			"count":48,
			"type":"SCALAR"
		},
		{
			"bufferView":11,
			"componentType":5126,
			"count":1,
			"max":[
				0
			],
			"min":[
				0
			],
			"type":"SCALAR"
		},
		{
			"bufferView":12,
			"componentType":5126,
			"count":1,
			"type":"VEC3"
		},
		{
			"bufferView":13,
			"componentType":5126,
			"count":1,
			"type":"VEC4"
		},
		{
			"bufferView":14,
			"componentType":5126,
			"count":1,
			"type":"VEC3"
		},
		{
			"bufferView":15,
			"componentType":5126,
			"count":1,
			"type":"VEC3"
		},
		{
			"bufferView":16,
			"componentType":5126,
			"count":1,
			"type":"VEC4"
		},
		{
			"bufferView":17,
			"componentType":5126,
			"count":1,
			"type":"VEC3"
		}
	],
	"bufferViews":[
		{
			"buffer":0,
			"byteLength":19152,
			"byteOffset":0,
			"target":34962
		},
		{
			"buffer":0,
			"byteLength":19152,
			"byteOffset":19152,
			"target":34962
		},
		{
			"buffer":0,
			"byteLength":12768,
			"byteOffset":38304,
			"target":34962
		},
		{
			"buffer":0,
			"byteLength":6384,
			"byteOffset":51072,
			"target":34962
		},
		{
			"buffer":0,
			"byteLength":25536,
			"byteOffset":57456,
			"target":34962
		},
		{
			"buffer":0,
			"byteLength":7836,
			"byteOffset":82992,
			"target":34963
		},
		{
			"buffer":0,
			"byteLength":192,
			"byteOffset":90828
		},
		{
			"buffer":0,
			"byteLength":576,
			"byteOffset":91020,
			"target":34962
		},
		{
			"buffer":0,
			"byteLength":576,
			"byteOffset":91596,
			"target":34962
		},
		{
			"buffer":0,
			"byteLength":384,
			"byteOffset":92172,
			"target":34962
		},
		{
			"buffer":0,
			"byteLength":96,
			"byteOffset":92556,
			"target":34963
		},
		{
			"buffer":0,
			"byteLength":4,
			"byteOffset":92652
		},
		{
			"buffer":0,
			"byteLength":12,
			"byteOffset":92656
		},
		{
			"buffer":0,
			"byteLength":16,
			"byteOffset":92668
		},
		{
			"buffer":0,
			"byteLength":12,
			"byteOffset":92684
		},
		{
			"buffer":0,
			"byteLength":12,
			"byteOffset":92696
		},
		{
			"buffer":0,
			"byteLength":16,
			"byteOffset":92708
		},
		{
			"buffer":0,
			"byteLength":12,
			"byteOffset":92724
		}
	],
	"buffers":[
		{
			"byteLength":92736,
			"uri":"Enemy_06_idle.bin"
		}
	]
}
