{
	"asset":{
		"generator":"Khronos glTF Blender I/O v4.4.56",
		"version":"2.0"
	},
	"scene":0,
	"scenes":[
		{
			"name":"Scene",
			"nodes":[
				5
			]
		}
	],
	"nodes":[
		{
			"name":"sway_tip",
			"translation":[
				0,
				0.6699999570846558,
				0
			]
		},
		{
			"children":[
				0
			],
			"name":"sway_mid",
			"translation":[
				0,
				0.6699999570846558,
				0
			]
		},
		{
			"children":[
				1
			],
			"name":"sway_lower",
			"translation":[
				0,
				0.2800000011920929,
				0
			]
		},
		{
			"children":[
				2
			],
			"name":"root"
		},
		{
			"mesh":0,
			"name":"GrassBlades",
			"skin":0
		},
		{
			"children":[
				4,
				3
			],
			"name":"GrassRig"
		}
	],
	"animations":[
		{
			"channels":[
				{
					"sampler":0,
					"target":{
						"node":3,
						"path":"translation"
					}
				},
				{
					"sampler":1,
					"target":{
						"node":3,
						"path":"rotation"
					}
				},
				{
					"sampler":2,
					"target":{
						"node":3,
						"path":"scale"
					}
				},
				{
					"sampler":3,
					"target":{
						"node":2,
						"path":"translation"
					}
				},
				{
					"sampler":4,
					"target":{
						"node":2,
						"path":"rotation"
					}
				},
				{
					"sampler":5,
					"target":{
						"node":2,
						"path":"scale"
					}
				},
				{
					"sampler":6,
					"target":{
						"node":1,
						"path":"translation"
					}
				},
				{
					"sampler":7,
					"target":{
						"node":1,
						"path":"rotation"
					}
				},
				{
					"sampler":8,
					"target":{
						"node":1,
						"path":"scale"
					}
				},
				{
					"sampler":9,
					"target":{
						"node":0,
						"path":"translation"
					}
				},
				{
					"sampler":10,
					"target":{
						"node":0,
						"path":"rotation"
					}
				},
				{
					"sampler":11,
					"target":{
						"node":0,
						"path":"scale"
					}
				}
			],
			"name":"Grass_Sway_Loop",
			"samplers":[
				{
					"input":15,
					"interpolation":"STEP",
					"output":16
				},
				{
					"input":15,
					"interpolation":"STEP",
					"output":17
				},
				{
					"input":15,
					"interpolation":"STEP",
					"output":18
				},
				{
					"input":15,
					"interpolation":"STEP",
					"output":19
				},
				{
					"input":20,
					"interpolation":"LINEAR",
					"output":21
				},
				{
					"input":15,
					"interpolation":"STEP",
					"output":22
				},
				{
					"input":15,
					"interpolation":"STEP",
					"output":23
				},
				{
					"input":20,
					"interpolation":"LINEAR",
					"output":24
				},
				{
					"input":15,
					"interpolation":"STEP",
					"output":25
				},
				{
					"input":15,
					"interpolation":"STEP",
					"output":26
				},
				{
					"input":20,
					"interpolation":"LINEAR",
					"output":27
				},
				{
					"input":15,
					"interpolation":"STEP",
					"output":28
				}
			]
		}
	],
	"materials":[
		{
			"doubleSided":true,
			"name":"Grass_Green",
			"pbrMetallicRoughness":{
				"baseColorFactor":[
					0.11999999731779099,
					0.41999998688697815,
					0.07999999821186066,
					1
				],
				"metallicFactor":0,
				"roughnessFactor":0.8500000238418579
			}
		},
		{
			"doubleSided":true,
			"name":"Grass_Light",
			"pbrMetallicRoughness":{
				"baseColorFactor":[
					0.2199999988079071,
					0.5799999833106995,
					0.10999999940395355,
					1
				],
				"metallicFactor":0,
				"roughnessFactor":0.8500000238418579
			}
		},
		{
			"doubleSided":true,
			"name":"Grass_Dark",
			"pbrMetallicRoughness":{
				"baseColorFactor":[
					0.07000000029802322,
					0.28999999165534973,
					0.05000000074505806,
					1
				],
				"metallicFactor":0,
				"roughnessFactor":0.8500000238418579
			}
		}
	],
	"meshes":[
		{
			"name":"GrassBlades_Mesh",
			"primitives":[
				{
					"attributes":{
						"POSITION":0,
						"NORMAL":1,
						"JOINTS_0":2,
						"WEIGHTS_0":3
					},
					"indices":4,
					"material":0
				},
				{
					"attributes":{
						"POSITION":5,
						"NORMAL":6,
						"JOINTS_0":7,
						"WEIGHTS_0":8
					},
					"indices":9,
					"material":1
				},
				{
					"attributes":{
						"POSITION":10,
						"NORMAL":11,
						"JOINTS_0":12,
						"WEIGHTS_0":13
					},
					"indices":9,
					"material":2
				}
			]
		}
	],
	"skins":[
		{
			"inverseBindMatrices":14,
			"joints":[
				3,
				2,
				1,
				0
			],
			"name":"GrassRig"
		}
	],
	"accessors":[
		{
			"bufferView":0,
			"componentType":5126,
			"count":60,
			"max":[
				0.10000000149011612,
				2.25,
				0.33000001311302185
			],
			"min":[
				-0.23999999463558197,
				0,
				-0.44999998807907104
			],
			"type":"VEC3"
		},
		{
			"bufferView":1,
			"componentType":5126,
			"count":60,
			"type":"VEC3"
		},
		{
			"bufferView":2,
			"componentType":5121,
			"count":60,
			"type":"VEC4"
		},
		{
			"bufferView":3,
			"componentType":5126,
			"count":60,
			"type":"VEC4"
		},
		{
			"bufferView":4,
			"componentType":5123,
			"count":90,
			"type":"SCALAR"
		},
		{
			"bufferView":5,
			"componentType":5126,
			"count":60,
			"max":[
				0.3799999952316284,
				1.850000023841858,
				0.38999998569488525
			],
			"min":[
				-0.5299999713897705,
				0,
				-0.09563262015581131
			],
			"type":"VEC3"
		},
		{
			"bufferView":6,
			"componentType":5126,
			"count":60,
			"type":"VEC3"
		},
		{
			"bufferView":7,
			"componentType":5121,
			"count":60,
			"type":"VEC4"
		},
		{
			"bufferView":8,
			"componentType":5126,
			"count":60,
			"type":"VEC4"
		},
		{
			"bufferView":9,
			"componentType":5123,
			"count":90,
			"type":"SCALAR"
		},
		{
			"bufferView":10,
			"componentType":5126,
			"count":60,
			"max":[
				0.5299999713897705,
				2,
				0.1599999964237213
			],
			"min":[
				-0.36000001430511475,
				0,
				-0.5199999809265137
			],
			"type":"VEC3"
		},
		{
			"bufferView":11,
			"componentType":5126,
			"count":60,
			"type":"VEC3"
		},
		{
			"bufferView":12,
			"componentType":5121,
			"count":60,
			"type":"VEC4"
		},
		{
			"bufferView":13,
			"componentType":5126,
			"count":60,
			"type":"VEC4"
		},
		{
			"bufferView":14,
			"componentType":5126,
			"count":4,
			"type":"MAT4"
		},
		{
			"bufferView":15,
			"componentType":5126,
			"count":2,
			"max":[
				2.6666666666666665
			],
			"min":[
				0.041666666666666664
			],
			"type":"SCALAR"
		},
		{
			"bufferView":16,
			"componentType":5126,
			"count":2,
			"type":"VEC3"
		},
		{
			"bufferView":17,
			"componentType":5126,
			"count":2,
			"type":"VEC4"
		},
		{
			"bufferView":18,
			"componentType":5126,
			"count":2,
			"type":"VEC3"
		},
		{
			"bufferView":19,
			"componentType":5126,
			"count":2,
			"type":"VEC3"
		},
		{
			"bufferView":20,
			"componentType":5126,
			"count":64,
			"max":[
				2.6666666666666665
			],
			"min":[
				0.041666666666666664
			],
			"type":"SCALAR"
		},
		{
			"bufferView":21,
			"componentType":5126,
			"count":64,
			"type":"VEC4"
		},
		{
			"bufferView":22,
			"componentType":5126,
			"count":2,
			"type":"VEC3"
		},
		{
			"bufferView":23,
			"componentType":5126,
			"count":2,
			"type":"VEC3"
		},
		{
			"bufferView":24,
			"componentType":5126,
			"count":64,
			"type":"VEC4"
		},
		{
			"bufferView":25,
			"componentType":5126,
			"count":2,
			"type":"VEC3"
		},
		{
			"bufferView":26,
			"componentType":5126,
			"count":2,
			"type":"VEC3"
		},
		{
			"bufferView":27,
			"componentType":5126,
			"count":64,
			"type":"VEC4"
		},
		{
			"bufferView":28,
			"componentType":5126,
			"count":2,
			"type":"VEC3"
		}
	],
	"bufferViews":[
		{
			"buffer":0,
			"byteLength":720,
			"byteOffset":0,
			"target":34962
		},
		{
			"buffer":0,
			"byteLength":720,
			"byteOffset":720,
			"target":34962
		},
		{
			"buffer":0,
			"byteLength":240,
			"byteOffset":1440,
			"target":34962
		},
		{
			"buffer":0,
			"byteLength":960,
			"byteOffset":1680,
			"target":34962
		},
		{
			"buffer":0,
			"byteLength":180,
			"byteOffset":2640,
			"target":34963
		},
		{
			"buffer":0,
			"byteLength":720,
			"byteOffset":2820,
			"target":34962
		},
		{
			"buffer":0,
			"byteLength":720,
			"byteOffset":3540,
			"target":34962
		},
		{
			"buffer":0,
			"byteLength":240,
			"byteOffset":4260,
			"target":34962
		},
		{
			"buffer":0,
			"byteLength":960,
			"byteOffset":4500,
			"target":34962
		},
		{
			"buffer":0,
			"byteLength":180,
			"byteOffset":5460,
			"target":34963
		},
		{
			"buffer":0,
			"byteLength":720,
			"byteOffset":5640,
			"target":34962
		},
		{
			"buffer":0,
			"byteLength":720,
			"byteOffset":6360,
			"target":34962
		},
		{
			"buffer":0,
			"byteLength":240,
			"byteOffset":7080,
			"target":34962
		},
		{
			"buffer":0,
			"byteLength":960,
			"byteOffset":7320,
			"target":34962
		},
		{
			"buffer":0,
			"byteLength":256,
			"byteOffset":8280
		},
		{
			"buffer":0,
			"byteLength":8,
			"byteOffset":8536
		},
		{
			"buffer":0,
			"byteLength":24,
			"byteOffset":8544
		},
		{
			"buffer":0,
			"byteLength":32,
			"byteOffset":8568
		},
		{
			"buffer":0,
			"byteLength":24,
			"byteOffset":8600
		},
		{
			"buffer":0,
			"byteLength":24,
			"byteOffset":8624
		},
		{
			"buffer":0,
			"byteLength":256,
			"byteOffset":8648
		},
		{
			"buffer":0,
			"byteLength":1024,
			"byteOffset":8904
		},
		{
			"buffer":0,
			"byteLength":24,
			"byteOffset":9928
		},
		{
			"buffer":0,
			"byteLength":24,
			"byteOffset":9952
		},
		{
			"buffer":0,
			"byteLength":1024,
			"byteOffset":9976
		},
		{
			"buffer":0,
			"byteLength":24,
			"byteOffset":11000
		},
		{
			"buffer":0,
			"byteLength":24,
			"byteOffset":11024
		},
		{
			"buffer":0,
			"byteLength":1024,
			"byteOffset":11048
		},
		{
			"buffer":0,
			"byteLength":24,
			"byteOffset":12072
		}
	],
	"buffers":[
		{
			"byteLength":12096,
			"uri":"LowPoly_SwayingGrass.bin"
		}
	]
}
