{
	"asset":{
		"generator":"Khronos glTF Blender I/O v4.4.56",
		"version":"2.0"
	},
	"scene":0,
	"scenes":[
		{
			"name":"Scene",
			"nodes":[
				16
			]
		}
	],
	"nodes":[
		{
			"name":"\u30dc\u30fc\u30f3.005",
			"rotation":[
				1.1104832253749919e-07,
				7.530616130679846e-08,
				-0.4645256996154785,
				0.8855596780776978
			],
			"scale":[
				0.9999998807907104,
				0.9999999403953552,
				1
			],
			"translation":[
				3.2782557468635787e-07,
				0.25968319177627563,
				-1.4210854715202004e-13
			]
		},
		{
			"children":[
				0
			],
			"name":"\u30dc\u30fc\u30f3.004",
			"rotation":[
				-8.924266126086877e-08,
				-2.0925591925902154e-08,
				0.5008123517036438,
				0.8655558824539185
			],
			"scale":[
				1,
				1.0000001192092896,
				1
			],
			"translation":[
				5.960464477539063e-08,
				0.3050116002559662,
				-3.6415315207705135e-14
			]
		},
		{
			"children":[
				1
			],
			"name":"\u30dc\u30fc\u30f3.003",
			"rotation":[
				2.501115048403335e-08,
				1.0598086674917795e-07,
				-0.2710684537887573,
				0.9625600576400757
			],
			"scale":[
				0.9999998211860657,
				0.9999998807907104,
				1
			],
			"translation":[
				2.98022992950564e-08,
				0.5250747799873352,
				-3.552713678800501e-15
			]
		},
		{
			"children":[
				2
			],
			"name":"\u30dc\u30fc\u30f3.002",
			"rotation":[
				-5.461354035674049e-09,
				3.0149237773002824e-08,
				-0.1133551076054573,
				0.9935545921325684
			],
			"scale":[
				0.9999998807907104,
				0.9999999403953552,
				1
			],
			"translation":[
				-1.490117540470237e-08,
				0.4406644105911255,
				-4.618527782440651e-14
			]
		},
		{
			"children":[
				3
			],
			"name":"\u30dc\u30fc\u30f3.001",
			"rotation":[
				-5.7991659474510016e-08,
				-2.506405039071069e-08,
				0.1995859593153,
				0.9798803329467773
			],
			"translation":[
				0,
				0.6321868896484375,
				0
			]
		},
		{
			"children":[
				4
			],
			"name":"\u30dc\u30fc\u30f3",
			"translation":[
				0,
				4.821955680847168,
				0
			]
		},
		{
			"name":"\u30dc\u30fc\u30f3.013",
			"rotation":[
				0.5437909960746765,
				8.974049592325173e-08,
				-4.4855514147457143e-07,
				0.8392207026481628
			],
			"scale":[
				1,
				0.9999998807907104,
				0.9999999403953552
			],
			"translation":[
				-4.263256414560601e-14,
				0.26361212134361267,
				-7.450204897452295e-09
			]
		},
		{
			"children":[
				6
			],
			"name":"\u30dc\u30fc\u30f3.012",
			"rotation":[
				-0.05025713890790939,
				-1.3875502702376252e-07,
				3.984741070439668e-08,
				0.9987363219261169
			],
			"translation":[
				1.4210854715202004e-14,
				0.3496093451976776,
				7.450797312458235e-09
			]
		},
		{
			"children":[
				7
			],
			"name":"\u30dc\u30fc\u30f3.011",
			"rotation":[
				-0.1725410521030426,
				2.8057653977953123e-08,
				1.1774610442216726e-07,
				0.985002338886261
			],
			"translation":[
				2.1316282072803006e-14,
				0.3858126699924469,
				1.1176058301032299e-08
			]
		},
		{
			"children":[
				8
			],
			"name":"\u30dc\u30fc\u30f3.010",
			"rotation":[
				0.04412674158811569,
				-1.9991627908666487e-08,
				-3.048701913144214e-08,
				0.9990259408950806
			],
			"scale":[
				1,
				1.0000001192092896,
				1
			],
			"translation":[
				-2.842170943040401e-14,
				0.8522135019302368,
				3.725442176971683e-09
			]
		},
		{
			"children":[
				9
			],
			"name":"\u30dc\u30fc\u30f3.009",
			"rotation":[
				-0.08071794360876083,
				6.939299623809347e-08,
				5.977215522534607e-08,
				0.996737003326416
			],
			"scale":[
				1,
				1.0000001192092896,
				1
			],
			"translation":[
				5.684341886080802e-14,
				0.8073672652244568,
				1.490127310432854e-08
			]
		},
		{
			"children":[
				10
			],
			"name":"\u30dc\u30fc\u30f3.008",
			"rotation":[
				-0.009006292559206486,
				-1.6146131542882358e-08,
				7.150816827561357e-09,
				0.9999594688415527
			],
			"scale":[
				1,
				0.9999999403953552,
				0.9999999403953552
			],
			"translation":[
				-3.197442310920451e-14,
				0.7068952322006226,
				-5.2154014440475294e-08
			]
		},
		{
			"children":[
				11
			],
			"name":"\u30dc\u30fc\u30f3.007",
			"rotation":[
				0.007453750353306532,
				-1.3669770737578801e-07,
				6.184409784282252e-08,
				0.9999722242355347
			],
			"scale":[
				1,
				0.9999999403953552,
				0.9999999403953552
			],
			"translation":[
				-3.552713678800501e-15,
				0.7092355489730835,
				1.862645326866641e-08
			]
		},
		{
			"children":[
				12
			],
			"name":"\u30dc\u30fc\u30f3.006",
			"rotation":[
				-0.7056358456611633,
				0.04558304697275162,
				0.705636203289032,
				0.04558306559920311
			],
			"scale":[
				0.9999999403953552,
				0.9999999403953552,
				0.9999999403953552
			],
			"translation":[
				0.13180610537528992,
				4.206790924072266,
				0
			]
		},
		{
			"name":"\u30dc\u30fc\u30f3.014",
			"rotation":[
				1.867565089241907e-07,
				7.701298265772039e-09,
				-0.9674447774887085,
				0.2530822455883026
			],
			"scale":[
				0.9999999403953552,
				0.9999998807907104,
				0.9999999403953552
			],
			"translation":[
				1.5799005031585693,
				3.650482654571533,
				0
			]
		},
		{
			"mesh":0,
			"name":"\u5e73\u9762.001",
			"skin":0
		},
		{
			"children":[
				15,
				5,
				13,
				14
			],
			"name":"\u30a2\u30fc\u30de\u30c1\u30e5\u30a2",
			"rotation":[
				0,
				1,
				0,
				7.549790126404332e-08
			]
		}
	],
	"animations":[
		{
			"channels":[
				{
					"sampler":0,
					"target":{
						"node":5,
						"path":"translation"
					}
				},
				{
					"sampler":1,
					"target":{
						"node":5,
						"path":"rotation"
					}
				},
				{
					"sampler":2,
					"target":{
						"node":5,
						"path":"scale"
					}
				},
				{
					"sampler":3,
					"target":{
						"node":4,
						"path":"translation"
					}
				},
				{
					"sampler":4,
					"target":{
						"node":4,
						"path":"rotation"
					}
				},
				{
					"sampler":5,
					"target":{
						"node":4,
						"path":"scale"
					}
				},
				{
					"sampler":6,
					"target":{
						"node":3,
						"path":"translation"
					}
				},
				{
					"sampler":7,
					"target":{
						"node":3,
						"path":"rotation"
					}
				},
				{
					"sampler":8,
					"target":{
						"node":3,
						"path":"scale"
					}
				},
				{
					"sampler":9,
					"target":{
						"node":2,
						"path":"translation"
					}
				},
				{
					"sampler":10,
					"target":{
						"node":2,
						"path":"rotation"
					}
				},
				{
					"sampler":11,
					"target":{
						"node":2,
						"path":"scale"
					}
				},
				{
					"sampler":12,
					"target":{
						"node":1,
						"path":"translation"
					}
				},
				{
					"sampler":13,
					"target":{
						"node":1,
						"path":"rotation"
					}
				},
				{
					"sampler":14,
					"target":{
						"node":1,
						"path":"scale"
					}
				},
				{
					"sampler":15,
					"target":{
						"node":0,
						"path":"translation"
					}
				},
				{
					"sampler":16,
					"target":{
						"node":0,
						"path":"rotation"
					}
				},
				{
					"sampler":17,
					"target":{
						"node":0,
						"path":"scale"
					}
				},
				{
					"sampler":18,
					"target":{
						"node":13,
						"path":"translation"
					}
				},
				{
					"sampler":19,
					"target":{
						"node":13,
						"path":"rotation"
					}
				},
				{
					"sampler":20,
					"target":{
						"node":13,
						"path":"scale"
					}
				},
				{
					"sampler":21,
					"target":{
						"node":12,
						"path":"translation"
					}
				},
				{
					"sampler":22,
					"target":{
						"node":12,
						"path":"rotation"
					}
				},
				{
					"sampler":23,
					"target":{
						"node":12,
						"path":"scale"
					}
				},
				{
					"sampler":24,
					"target":{
						"node":11,
						"path":"translation"
					}
				},
				{
					"sampler":25,
					"target":{
						"node":11,
						"path":"rotation"
					}
				},
				{
					"sampler":26,
					"target":{
						"node":11,
						"path":"scale"
					}
				},
				{
					"sampler":27,
					"target":{
						"node":10,
						"path":"translation"
					}
				},
				{
					"sampler":28,
					"target":{
						"node":10,
						"path":"rotation"
					}
				},
				{
					"sampler":29,
					"target":{
						"node":10,
						"path":"scale"
					}
				},
				{
					"sampler":30,
					"target":{
						"node":9,
						"path":"translation"
					}
				},
				{
					"sampler":31,
					"target":{
						"node":9,
						"path":"rotation"
					}
				},
				{
					"sampler":32,
					"target":{
						"node":9,
						"path":"scale"
					}
				},
				{
					"sampler":33,
					"target":{
						"node":8,
						"path":"translation"
					}
				},
				{
					"sampler":34,
					"target":{
						"node":8,
						"path":"rotation"
					}
				},
				{
					"sampler":35,
					"target":{
						"node":8,
						"path":"scale"
					}
				},
				{
					"sampler":36,
					"target":{
						"node":7,
						"path":"translation"
					}
				},
				{
					"sampler":37,
					"target":{
						"node":7,
						"path":"rotation"
					}
				},
				{
					"sampler":38,
					"target":{
						"node":7,
						"path":"scale"
					}
				},
				{
					"sampler":39,
					"target":{
						"node":6,
						"path":"translation"
					}
				},
				{
					"sampler":40,
					"target":{
						"node":6,
						"path":"rotation"
					}
				},
				{
					"sampler":41,
					"target":{
						"node":6,
						"path":"scale"
					}
				},
				{
					"sampler":42,
					"target":{
						"node":14,
						"path":"translation"
					}
				},
				{
					"sampler":43,
					"target":{
						"node":14,
						"path":"rotation"
					}
				},
				{
					"sampler":44,
					"target":{
						"node":14,
						"path":"scale"
					}
				}
			],
			"name":"idle",
			"samplers":[
				{
					"input":7,
					"interpolation":"STEP",
					"output":8
				},
				{
					"input":9,
					"interpolation":"LINEAR",
					"output":10
				},
				{
					"input":9,
					"interpolation":"LINEAR",
					"output":11
				},
				{
					"input":7,
					"interpolation":"STEP",
					"output":12
				},
				{
					"input":7,
					"interpolation":"STEP",
					"output":13
				},
				{
					"input":7,
					"interpolation":"STEP",
					"output":14
				},
				{
					"input":7,
					"interpolation":"STEP",
					"output":15
				},
				{
					"input":7,
					"interpolation":"STEP",
					"output":16
				},
				{
					"input":7,
					"interpolation":"STEP",
					"output":17
				},
				{
					"input":7,
					"interpolation":"STEP",
					"output":18
				},
				{
					"input":7,
					"interpolation":"STEP",
					"output":19
				},
				{
					"input":7,
					"interpolation":"STEP",
					"output":20
				},
				{
					"input":7,
					"interpolation":"STEP",
					"output":21
				},
				{
					"input":7,
					"interpolation":"STEP",
					"output":22
				},
				{
					"input":7,
					"interpolation":"STEP",
					"output":23
				},
				{
					"input":7,
					"interpolation":"STEP",
					"output":24
				},
				{
					"input":7,
					"interpolation":"STEP",
					"output":25
				},
				{
					"input":7,
					"interpolation":"STEP",
					"output":26
				},
				{
					"input":7,
					"interpolation":"LINEAR",
					"output":27
				},
				{
					"input":9,
					"interpolation":"LINEAR",
					"output":28
				},
				{
					"input":9,
					"interpolation":"LINEAR",
					"output":29
				},
				{
					"input":7,
					"interpolation":"LINEAR",
					"output":30
				},
				{
					"input":9,
					"interpolation":"LINEAR",
					"output":31
				},
				{
					"input":7,
					"interpolation":"STEP",
					"output":32
				},
				{
					"input":7,
					"interpolation":"LINEAR",
					"output":33
				},
				{
					"input":9,
					"interpolation":"LINEAR",
					"output":34
				},
				{
					"input":7,
					"interpolation":"STEP",
					"output":35
				},
				{
					"input":7,
					"interpolation":"LINEAR",
					"output":36
				},
				{
					"input":9,
					"interpolation":"LINEAR",
					"output":37
				},
				{
					"input":7,
					"interpolation":"LINEAR",
					"output":38
				},
				{
					"input":7,
					"interpolation":"LINEAR",
					"output":39
				},
				{
					"input":7,
					"interpolation":"LINEAR",
					"output":40
				},
				{
					"input":7,
					"interpolation":"LINEAR",
					"output":41
				},
				{
					"input":7,
					"interpolation":"LINEAR",
					"output":42
				},
				{
					"input":9,
					"interpolation":"LINEAR",
					"output":43
				},
				{
					"input":7,
					"interpolation":"STEP",
					"output":44
				},
				{
					"input":7,
					"interpolation":"LINEAR",
					"output":45
				},
				{
					"input":7,
					"interpolation":"LINEAR",
					"output":46
				},
				{
					"input":7,
					"interpolation":"STEP",
					"output":47
				},
				{
					"input":7,
					"interpolation":"LINEAR",
					"output":48
				},
				{
					"input":7,
					"interpolation":"LINEAR",
					"output":49
				},
				{
					"input":7,
					"interpolation":"STEP",
					"output":50
				},
				{
					"input":9,
					"interpolation":"LINEAR",
					"output":51
				},
				{
					"input":9,
					"interpolation":"LINEAR",
					"output":52
				},
				{
					"input":7,
					"interpolation":"STEP",
					"output":53
				}
			]
		}
	],
	"meshes":[
		{
			"name":"\u5e73\u9762.001",
			"primitives":[
				{
					"attributes":{
						"POSITION":0,
						"NORMAL":1,
						"TEXCOORD_0":2,
						"JOINTS_0":3,
						"WEIGHTS_0":4
					},
					"indices":5
				}
			]
		}
	],
	"skins":[
		{
			"inverseBindMatrices":6,
			"joints":[
				5,
				4,
				3,
				2,
				1,
				0,
				13,
				12,
				11,
				10,
				9,
				8,
				7,
				6,
				14
			],
			"name":"\u30a2\u30fc\u30de\u30c1\u30e5\u30a2"
		}
	],
	"accessors":[
		{
			"bufferView":0,
			"componentType":5126,
			"count":852,
			"max":[
				1.115677833557129,
				7.111159324645996,
				1.0158408880233765
			],
			"min":[
				-3.6548099517822266,
				-0.17876529693603516,
				-1.0158408880233765
			],
			"type":"VEC3"
		},
		{
			"bufferView":1,
			"componentType":5126,
			"count":852,
			"type":"VEC3"
		},
		{
			"bufferView":2,
			"componentType":5126,
			"count":852,
			"type":"VEC2"
		},
		{
			"bufferView":3,
			"componentType":5121,
			"count":852,
			"type":"VEC4"
		},
		{
			"bufferView":4,
			"componentType":5126,
			"count":852,
			"type":"VEC4"
		},
		{
			"bufferView":5,
			"componentType":5123,
			"count":2610,
			"type":"SCALAR"
		},
		{
			"bufferView":6,
			"componentType":5126,
			"count":15,
			"type":"MAT4"
		},
		{
			"bufferView":7,
			"componentType":5126,
			"count":2,
			"max":[
				5.133333333333334
			],
			"min":[
				0
			],
			"type":"SCALAR"
		},
		{
			"bufferView":8,
			"componentType":5126,
			"count":2,
			"type":"VEC3"
		},
		{
			"bufferView":9,
			"componentType":5126,
			"count":309,
			"max":[
				5.133333333333334
			],
			"min":[
				0
			],
			"type":"SCALAR"
		},
		{
			"bufferView":10,
			"componentType":5126,
			"count":309,
			"type":"VEC4"
		},
		{
			"bufferView":11,
			"componentType":5126,
			"count":309,
			"type":"VEC3"
		},
		{
			"bufferView":12,
			"componentType":5126,
			"count":2,
			"type":"VEC3"
		},
		{
			"bufferView":13,
			"componentType":5126,
			"count":2,
			"type":"VEC4"
		},
		{
			"bufferView":14,
			"componentType":5126,
			"count":2,
			"type":"VEC3"
		},
		{
			"bufferView":15,
			"componentType":5126,
			"count":2,
			"type":"VEC3"
		},
		{
			"bufferView":16,
			"componentType":5126,
			"count":2,
			"type":"VEC4"
		},
		{
			"bufferView":17,
			"componentType":5126,
			"count":2,
			"type":"VEC3"
		},
		{
			"bufferView":18,
			"componentType":5126,
			"count":2,
			"type":"VEC3"
		},
		{
			"bufferView":19,
			"componentType":5126,
			"count":2,
			"type":"VEC4"
		},
		{
			"bufferView":20,
			"componentType":5126,
			"count":2,
			"type":"VEC3"
		},
		{
			"bufferView":21,
			"componentType":5126,
			"count":2,
			"type":"VEC3"
		},
		{
			"bufferView":22,
			"componentType":5126,
			"count":2,
			"type":"VEC4"
		},
		{
			"bufferView":23,
			"componentType":5126,
			"count":2,
			"type":"VEC3"
		},
		{
			"bufferView":24,
			"componentType":5126,
			"count":2,
			"type":"VEC3"
		},
		{
			"bufferView":25,
			"componentType":5126,
			"count":2,
			"type":"VEC4"
		},
		{
			"bufferView":26,
			"componentType":5126,
			"count":2,
			"type":"VEC3"
		},
		{
			"bufferView":27,
			"componentType":5126,
			"count":2,
			"type":"VEC3"
		},
		{
			"bufferView":28,
			"componentType":5126,
			"count":309,
			"type":"VEC4"
		},
		{
			"bufferView":29,
			"componentType":5126,
			"count":309,
			"type":"VEC3"
		},
		{
			"bufferView":30,
			"componentType":5126,
			"count":2,
			"type":"VEC3"
		},
		{
			"bufferView":31,
			"componentType":5126,
			"count":309,
			"type":"VEC4"
		},
		{
			"bufferView":32,
			"componentType":5126,
			"count":2,
			"type":"VEC3"
		},
		{
			"bufferView":33,
			"componentType":5126,
			"count":2,
			"type":"VEC3"
		},
		{
			"bufferView":34,
			"componentType":5126,
			"count":309,
			"type":"VEC4"
		},
		{
			"bufferView":35,
			"componentType":5126,
			"count":2,
			"type":"VEC3"
		},
		{
			"bufferView":36,
			"componentType":5126,
			"count":2,
			"type":"VEC3"
		},
		{
			"bufferView":37,
			"componentType":5126,
			"count":309,
			"type":"VEC4"
		},
		{
			"bufferView":38,
			"componentType":5126,
			"count":2,
			"type":"VEC3"
		},
		{
			"bufferView":39,
			"componentType":5126,
			"count":2,
			"type":"VEC3"
		},
		{
			"bufferView":40,
			"componentType":5126,
			"count":2,
			"type":"VEC4"
		},
		{
			"bufferView":41,
			"componentType":5126,
			"count":2,
			"type":"VEC3"
		},
		{
			"bufferView":42,
			"componentType":5126,
			"count":2,
			"type":"VEC3"
		},
		{
			"bufferView":43,
			"componentType":5126,
			"count":309,
			"type":"VEC4"
		},
		{
			"bufferView":44,
			"componentType":5126,
			"count":2,
			"type":"VEC3"
		},
		{
			"bufferView":45,
			"componentType":5126,
			"count":2,
			"type":"VEC3"
		},
		{
			"bufferView":46,
			"componentType":5126,
			"count":2,
			"type":"VEC4"
		},
		{
			"bufferView":47,
			"componentType":5126,
			"count":2,
			"type":"VEC3"
		},
		{
			"bufferView":48,
			"componentType":5126,
			"count":2,
			"type":"VEC3"
		},
		{
			"bufferView":49,
			"componentType":5126,
			"count":2,
			"type":"VEC4"
		},
		{
			"bufferView":50,
			"componentType":5126,
			"count":2,
			"type":"VEC3"
		},
		{
			"bufferView":51,
			"componentType":5126,
			"count":309,
			"type":"VEC3"
		},
		{
			"bufferView":52,
			"componentType":5126,
			"count":309,
			"type":"VEC4"
		},
		{
			"bufferView":53,
			"componentType":5126,
			"count":2,
			"type":"VEC3"
		}
	],
	"bufferViews":[
		{
			"buffer":0,
			"byteLength":10224,
			"byteOffset":0,
			"target":34962
		},
		{
			"buffer":0,
			"byteLength":10224,
			"byteOffset":10224,
			"target":34962
		},
		{
			"buffer":0,
			"byteLength":6816,
			"byteOffset":20448,
			"target":34962
		},
		{
			"buffer":0,
			"byteLength":3408,
			"byteOffset":27264,
			"target":34962
		},
		{
			"buffer":0,
			"byteLength":13632,
			"byteOffset":30672,
			"target":34962
		},
		{
			"buffer":0,
			"byteLength":5220,
			"byteOffset":44304,
			"target":34963
		},
		{
			"buffer":0,
			"byteLength":960,
			"byteOffset":49524
		},
		{
			"buffer":0,
			"byteLength":8,
			"byteOffset":50484
		},
		{
			"buffer":0,
			"byteLength":24,
			"byteOffset":50492
		},
		{
			"buffer":0,
			"byteLength":1236,
			"byteOffset":50516
		},
		{
			"buffer":0,
			"byteLength":4944,
			"byteOffset":51752
		},
		{
			"buffer":0,
			"byteLength":3708,
			"byteOffset":56696
		},
		{
			"buffer":0,
			"byteLength":24,
			"byteOffset":60404
		},
		{
			"buffer":0,
			"byteLength":32,
			"byteOffset":60428
		},
		{
			"buffer":0,
			"byteLength":24,
			"byteOffset":60460
		},
		{
			"buffer":0,
			"byteLength":24,
			"byteOffset":60484
		},
		{
			"buffer":0,
			"byteLength":32,
			"byteOffset":60508
		},
		{
			"buffer":0,
			"byteLength":24,
			"byteOffset":60540
		},
		{
			"buffer":0,
			"byteLength":24,
			"byteOffset":60564
		},
		{
			"buffer":0,
			"byteLength":32,
			"byteOffset":60588
		},
		{
			"buffer":0,
			"byteLength":24,
			"byteOffset":60620
		},
		{
			"buffer":0,
			"byteLength":24,
			"byteOffset":60644
		},
		{
			"buffer":0,
			"byteLength":32,
			"byteOffset":60668
		},
		{
			"buffer":0,
			"byteLength":24,
			"byteOffset":60700
		},
		{
			"buffer":0,
			"byteLength":24,
			"byteOffset":60724
		},
		{
			"buffer":0,
			"byteLength":32,
			"byteOffset":60748
		},
		{
			"buffer":0,
			"byteLength":24,
			"byteOffset":60780
		},
		{
			"buffer":0,
			"byteLength":24,
			"byteOffset":60804
		},
		{
			"buffer":0,
			"byteLength":4944,
			"byteOffset":60828
		},
		{
			"buffer":0,
			"byteLength":3708,
			"byteOffset":65772
		},
		{
			"buffer":0,
			"byteLength":24,
			"byteOffset":69480
		},
		{
			"buffer":0,
			"byteLength":4944,
			"byteOffset":69504
		},
		{
			"buffer":0,
			"byteLength":24,
			"byteOffset":74448
		},
		{
			"buffer":0,
			"byteLength":24,
			"byteOffset":74472
		},
		{
			"buffer":0,
			"byteLength":4944,
			"byteOffset":74496
		},
		{
			"buffer":0,
			"byteLength":24,
			"byteOffset":79440
		},
		{
			"buffer":0,
			"byteLength":24,
			"byteOffset":79464
		},
		{
			"buffer":0,
			"byteLength":4944,
			"byteOffset":79488
		},
		{
			"buffer":0,
			"byteLength":24,
			"byteOffset":84432
		},
		{
			"buffer":0,
			"byteLength":24,
			"byteOffset":84456
		},
		{
			"buffer":0,
			"byteLength":32,
			"byteOffset":84480
		},
		{
			"buffer":0,
			"byteLength":24,
			"byteOffset":84512
		},
		{
			"buffer":0,
			"byteLength":24,
			"byteOffset":84536
		},
		{
			"buffer":0,
			"byteLength":4944,
			"byteOffset":84560
		},
		{
			"buffer":0,
			"byteLength":24,
			"byteOffset":89504
		},
		{
			"buffer":0,
			"byteLength":24,
			"byteOffset":89528
		},
		{
			"buffer":0,
			"byteLength":32,
			"byteOffset":89552
		},
		{
			"buffer":0,
			"byteLength":24,
			"byteOffset":89584
		},
		{
			"buffer":0,
			"byteLength":24,
			"byteOffset":89608
		},
		{
			"buffer":0,
			"byteLength":32,
			"byteOffset":89632
		},
		{
			"buffer":0,
			"byteLength":24,
			"byteOffset":89664
		},
		{
			"buffer":0,
			"byteLength":3708,
			"byteOffset":89688
		},
		{
			"buffer":0,
			"byteLength":4944,
			"byteOffset":93396
		},
		{
			"buffer":0,
			"byteLength":24,
			"byteOffset":98340
		}
	],
	"buffers":[
		{
			"byteLength":98364,
			"uri":"Spirit_idle.bin"
		}
	]
}
