{
	"asset":{
		"generator":"Khronos glTF Blender I/O v4.4.56",
		"version":"2.0"
	},
	"scene":0,
	"scenes":[
		{
			"name":"Scene",
			"nodes":[
				0,
				1,
				2,
				3,
				20
			]
		}
	],
	"nodes":[
		{
			"mesh":0,
			"name":"\u7403",
			"translation":[
				0,
				1.2345846891403198,
				0.34088125824928284
			]
		},
		{
			"mesh":1,
			"name":"\u7403.001"
		},
		{
			"mesh":2,
			"name":"\u7403.002",
			"scale":[
				1.1159086227416992,
				1.1159086227416992,
				1.1159086227416992
			],
			"translation":[
				0,
				-0.025614600628614426,
				-0.02409311756491661
			]
		},
		{
			"mesh":3,
			"name":"\u7acb\u65b9\u4f53"
		},
		{
			"name":"\u30dc\u30fc\u30f3.004",
			"rotation":[
				1.1857978599039143e-08,
				6.443752909035538e-08,
				-0.04271664470434189,
				0.9990872740745544
			],
			"scale":[
				0.9999999403953552,
				0.9999998807907104,
				1
			],
			"translation":[
				1.1324274851176597e-14,
				0.5690720081329346,
				1.0658141036401503e-14
			]
		},
		{
			"children":[
				4
			],
			"name":"\u30dc\u30fc\u30f3.003",
			"rotation":[
				4.047665669304479e-08,
				2.7297524241021165e-08,
				-0.2186441421508789,
				0.9758046269416809
			],
			"translation":[
				-4.377216100692749e-08,
				0.8039423823356628,
				4.385380947269368e-15
			]
		},
		{
			"children":[
				5
			],
			"name":"\u30dc\u30fc\u30f3.002",
			"rotation":[
				-1.8699306281177996e-07,
				1.8470409202109295e-08,
				0.7043175101280212,
				0.7098851203918457
			],
			"translation":[
				0,
				0.3924807906150818,
				0
			]
		},
		{
			"name":"\u30dc\u30fc\u30f3.014",
			"rotation":[
				-0.0019701889250427485,
				-5.757552767882146e-10,
				0.7065249681472778,
				0.7076854109764099
			],
			"scale":[
				0.9999999403953552,
				0.9999998807907104,
				1
			],
			"translation":[
				6.294964549624638e-14,
				0.5135158896446228,
				-1.4921397450962104e-13
			]
		},
		{
			"children":[
				7
			],
			"name":"\u30dc\u30fc\u30f3.007",
			"rotation":[
				-3.5720887581192073e-08,
				4.2925030641072226e-08,
				0.037876155227422714,
				0.9992824792861938
			],
			"scale":[
				1,
				1.0000001192092896,
				1
			],
			"translation":[
				4.47035120032524e-08,
				0.5916828513145447,
				6.750155989720952e-14
			]
		},
		{
			"children":[
				8
			],
			"name":"\u30dc\u30fc\u30f3.006",
			"rotation":[
				-1.626106609364797e-07,
				1.3647368746205757e-07,
				0.21383874118328094,
				0.9768689870834351
			],
			"scale":[
				1,
				0.9999998807907104,
				1
			],
			"translation":[
				1.3038516932795119e-08,
				0.8231267929077148,
				-1.4876988529977098e-14
			]
		},
		{
			"children":[
				9
			],
			"name":"\u30dc\u30fc\u30f3.005",
			"rotation":[
				2.5218292876161286e-07,
				8.976628862455982e-08,
				-0.698902428150177,
				0.7152170538902283
			],
			"scale":[
				1,
				0.9999999403953552,
				1
			],
			"translation":[
				0,
				0.3924807906150818,
				0
			]
		},
		{
			"name":"\u30dc\u30fc\u30f3.009",
			"translation":[
				0,
				0.38613361120224,
				0
			]
		},
		{
			"children":[
				11
			],
			"name":"\u30dc\u30fc\u30f3.008",
			"rotation":[
				0,
				1.4210854715202004e-14,
				0,
				1
			],
			"translation":[
				0,
				0.3924807906150818,
				0
			]
		},
		{
			"children":[
				6,
				10,
				12
			],
			"name":"\u30dc\u30fc\u30f3.001",
			"rotation":[
				0,
				1.1920927533992653e-07,
				0,
				1
			],
			"scale":[
				1,
				0.9999999403953552,
				1
			],
			"translation":[
				0,
				1,
				0
			]
		},
		{
			"children":[
				13
			],
			"name":"\u30dc\u30fc\u30f3"
		},
		{
			"name":"\u30dc\u30fc\u30f3.011",
			"rotation":[
				-0.5577096939086914,
				-3.708443330197042e-08,
				9.515041199392726e-08,
				0.8300361037254333
			],
			"scale":[
				1,
				0.9999999403953552,
				1
			],
			"translation":[
				0,
				0.35589346289634705,
				-7.450580596923828e-09
			]
		},
		{
			"children":[
				15
			],
			"name":"\u30dc\u30fc\u30f3.010",
			"rotation":[
				-0.5217595100402832,
				0.4772494435310364,
				0.5217595100402832,
				0.477249413728714
			]
		},
		{
			"name":"\u30dc\u30fc\u30f3.013",
			"rotation":[
				-0.5537907481193542,
				-2.2545971756215977e-09,
				-5.197639652010366e-08,
				0.8326559066772461
			],
			"scale":[
				1,
				0.9999999403953552,
				0.9999999403953552
			],
			"translation":[
				-4.440892098500626e-16,
				0.3680155277252197,
				-2.9802322387695312e-08
			]
		},
		{
			"children":[
				17
			],
			"name":"\u30dc\u30fc\u30f3.012",
			"rotation":[
				-0.5169144868850708,
				-0.48249301314353943,
				-0.5169143676757812,
				0.48249298334121704
			],
			"scale":[
				1,
				0.9999999403953552,
				0.9999999403953552
			]
		},
		{
			"mesh":4,
			"name":"\u7acb\u65b9\u4f53.001",
			"skin":0
		},
		{
			"children":[
				19,
				14,
				16,
				18
			],
			"name":"\u30a2\u30fc\u30de\u30c1\u30e5\u30a2",
			"translation":[
				0,
				-0.8253033757209778,
				0
			]
		}
	],
	"animations":[
		{
			"channels":[
				{
					"sampler":0,
					"target":{
						"node":14,
						"path":"translation"
					}
				},
				{
					"sampler":1,
					"target":{
						"node":14,
						"path":"rotation"
					}
				},
				{
					"sampler":2,
					"target":{
						"node":14,
						"path":"scale"
					}
				},
				{
					"sampler":3,
					"target":{
						"node":13,
						"path":"translation"
					}
				},
				{
					"sampler":4,
					"target":{
						"node":13,
						"path":"rotation"
					}
				},
				{
					"sampler":5,
					"target":{
						"node":13,
						"path":"scale"
					}
				},
				{
					"sampler":6,
					"target":{
						"node":6,
						"path":"translation"
					}
				},
				{
					"sampler":7,
					"target":{
						"node":6,
						"path":"rotation"
					}
				},
				{
					"sampler":8,
					"target":{
						"node":6,
						"path":"scale"
					}
				},
				{
					"sampler":9,
					"target":{
						"node":5,
						"path":"translation"
					}
				},
				{
					"sampler":10,
					"target":{
						"node":5,
						"path":"rotation"
					}
				},
				{
					"sampler":11,
					"target":{
						"node":5,
						"path":"scale"
					}
				},
				{
					"sampler":12,
					"target":{
						"node":4,
						"path":"translation"
					}
				},
				{
					"sampler":13,
					"target":{
						"node":4,
						"path":"rotation"
					}
				},
				{
					"sampler":14,
					"target":{
						"node":4,
						"path":"scale"
					}
				},
				{
					"sampler":15,
					"target":{
						"node":10,
						"path":"translation"
					}
				},
				{
					"sampler":16,
					"target":{
						"node":10,
						"path":"rotation"
					}
				},
				{
					"sampler":17,
					"target":{
						"node":10,
						"path":"scale"
					}
				},
				{
					"sampler":18,
					"target":{
						"node":9,
						"path":"translation"
					}
				},
				{
					"sampler":19,
					"target":{
						"node":9,
						"path":"rotation"
					}
				},
				{
					"sampler":20,
					"target":{
						"node":9,
						"path":"scale"
					}
				},
				{
					"sampler":21,
					"target":{
						"node":8,
						"path":"translation"
					}
				},
				{
					"sampler":22,
					"target":{
						"node":8,
						"path":"rotation"
					}
				},
				{
					"sampler":23,
					"target":{
						"node":8,
						"path":"scale"
					}
				},
				{
					"sampler":24,
					"target":{
						"node":7,
						"path":"translation"
					}
				},
				{
					"sampler":25,
					"target":{
						"node":7,
						"path":"rotation"
					}
				},
				{
					"sampler":26,
					"target":{
						"node":7,
						"path":"scale"
					}
				},
				{
					"sampler":27,
					"target":{
						"node":12,
						"path":"translation"
					}
				},
				{
					"sampler":28,
					"target":{
						"node":12,
						"path":"rotation"
					}
				},
				{
					"sampler":29,
					"target":{
						"node":12,
						"path":"scale"
					}
				},
				{
					"sampler":30,
					"target":{
						"node":11,
						"path":"translation"
					}
				},
				{
					"sampler":31,
					"target":{
						"node":11,
						"path":"rotation"
					}
				},
				{
					"sampler":32,
					"target":{
						"node":11,
						"path":"scale"
					}
				},
				{
					"sampler":33,
					"target":{
						"node":16,
						"path":"translation"
					}
				},
				{
					"sampler":34,
					"target":{
						"node":16,
						"path":"rotation"
					}
				},
				{
					"sampler":35,
					"target":{
						"node":16,
						"path":"scale"
					}
				},
				{
					"sampler":36,
					"target":{
						"node":15,
						"path":"translation"
					}
				},
				{
					"sampler":37,
					"target":{
						"node":15,
						"path":"rotation"
					}
				},
				{
					"sampler":38,
					"target":{
						"node":15,
						"path":"scale"
					}
				},
				{
					"sampler":39,
					"target":{
						"node":18,
						"path":"translation"
					}
				},
				{
					"sampler":40,
					"target":{
						"node":18,
						"path":"rotation"
					}
				},
				{
					"sampler":41,
					"target":{
						"node":18,
						"path":"scale"
					}
				},
				{
					"sampler":42,
					"target":{
						"node":17,
						"path":"translation"
					}
				},
				{
					"sampler":43,
					"target":{
						"node":17,
						"path":"rotation"
					}
				},
				{
					"sampler":44,
					"target":{
						"node":17,
						"path":"scale"
					}
				}
			],
			"name":"attack",
			"samplers":[
				{
					"input":23,
					"interpolation":"STEP",
					"output":24
				},
				{
					"input":25,
					"interpolation":"LINEAR",
					"output":26
				},
				{
					"input":23,
					"interpolation":"STEP",
					"output":27
				},
				{
					"input":23,
					"interpolation":"LINEAR",
					"output":28
				},
				{
					"input":25,
					"interpolation":"LINEAR",
					"output":29
				},
				{
					"input":23,
					"interpolation":"LINEAR",
					"output":30
				},
				{
					"input":23,
					"interpolation":"LINEAR",
					"output":31
				},
				{
					"input":23,
					"interpolation":"LINEAR",
					"output":32
				},
				{
					"input":23,
					"interpolation":"LINEAR",
					"output":33
				},
				{
					"input":23,
					"interpolation":"LINEAR",
					"output":34
				},
				{
					"input":25,
					"interpolation":"LINEAR",
					"output":35
				},
				{
					"input":23,
					"interpolation":"LINEAR",
					"output":36
				},
				{
					"input":23,
					"interpolation":"LINEAR",
					"output":37
				},
				{
					"input":25,
					"interpolation":"LINEAR",
					"output":38
				},
				{
					"input":23,
					"interpolation":"STEP",
					"output":39
				},
				{
					"input":23,
					"interpolation":"LINEAR",
					"output":40
				},
				{
					"input":23,
					"interpolation":"LINEAR",
					"output":41
				},
				{
					"input":23,
					"interpolation":"LINEAR",
					"output":42
				},
				{
					"input":23,
					"interpolation":"LINEAR",
					"output":43
				},
				{
					"input":25,
					"interpolation":"LINEAR",
					"output":44
				},
				{
					"input":23,
					"interpolation":"LINEAR",
					"output":45
				},
				{
					"input":23,
					"interpolation":"LINEAR",
					"output":46
				},
				{
					"input":25,
					"interpolation":"LINEAR",
					"output":47
				},
				{
					"input":23,
					"interpolation":"LINEAR",
					"output":48
				},
				{
					"input":23,
					"interpolation":"LINEAR",
					"output":49
				},
				{
					"input":25,
					"interpolation":"LINEAR",
					"output":50
				},
				{
					"input":23,
					"interpolation":"LINEAR",
					"output":51
				},
				{
					"input":23,
					"interpolation":"LINEAR",
					"output":52
				},
				{
					"input":25,
					"interpolation":"LINEAR",
					"output":53
				},
				{
					"input":23,
					"interpolation":"STEP",
					"output":54
				},
				{
					"input":23,
					"interpolation":"LINEAR",
					"output":55
				},
				{
					"input":25,
					"interpolation":"LINEAR",
					"output":56
				},
				{
					"input":23,
					"interpolation":"STEP",
					"output":57
				},
				{
					"input":23,
					"interpolation":"STEP",
					"output":58
				},
				{
					"input":23,
					"interpolation":"STEP",
					"output":59
				},
				{
					"input":23,
					"interpolation":"STEP",
					"output":60
				},
				{
					"input":23,
					"interpolation":"STEP",
					"output":61
				},
				{
					"input":23,
					"interpolation":"STEP",
					"output":62
				},
				{
					"input":23,
					"interpolation":"STEP",
					"output":63
				},
				{
					"input":23,
					"interpolation":"STEP",
					"output":64
				},
				{
					"input":23,
					"interpolation":"STEP",
					"output":65
				},
				{
					"input":23,
					"interpolation":"STEP",
					"output":66
				},
				{
					"input":23,
					"interpolation":"STEP",
					"output":67
				},
				{
					"input":23,
					"interpolation":"STEP",
					"output":68
				},
				{
					"input":23,
					"interpolation":"STEP",
					"output":69
				}
			]
		},
		{
			"channels":[
				{
					"sampler":0,
					"target":{
						"node":14,
						"path":"translation"
					}
				},
				{
					"sampler":1,
					"target":{
						"node":14,
						"path":"rotation"
					}
				},
				{
					"sampler":2,
					"target":{
						"node":14,
						"path":"scale"
					}
				},
				{
					"sampler":3,
					"target":{
						"node":13,
						"path":"translation"
					}
				},
				{
					"sampler":4,
					"target":{
						"node":13,
						"path":"rotation"
					}
				},
				{
					"sampler":5,
					"target":{
						"node":13,
						"path":"scale"
					}
				},
				{
					"sampler":6,
					"target":{
						"node":6,
						"path":"translation"
					}
				},
				{
					"sampler":7,
					"target":{
						"node":6,
						"path":"rotation"
					}
				},
				{
					"sampler":8,
					"target":{
						"node":6,
						"path":"scale"
					}
				},
				{
					"sampler":9,
					"target":{
						"node":5,
						"path":"translation"
					}
				},
				{
					"sampler":10,
					"target":{
						"node":5,
						"path":"rotation"
					}
				},
				{
					"sampler":11,
					"target":{
						"node":5,
						"path":"scale"
					}
				},
				{
					"sampler":12,
					"target":{
						"node":4,
						"path":"translation"
					}
				},
				{
					"sampler":13,
					"target":{
						"node":4,
						"path":"rotation"
					}
				},
				{
					"sampler":14,
					"target":{
						"node":4,
						"path":"scale"
					}
				},
				{
					"sampler":15,
					"target":{
						"node":10,
						"path":"translation"
					}
				},
				{
					"sampler":16,
					"target":{
						"node":10,
						"path":"rotation"
					}
				},
				{
					"sampler":17,
					"target":{
						"node":10,
						"path":"scale"
					}
				},
				{
					"sampler":18,
					"target":{
						"node":9,
						"path":"translation"
					}
				},
				{
					"sampler":19,
					"target":{
						"node":9,
						"path":"rotation"
					}
				},
				{
					"sampler":20,
					"target":{
						"node":9,
						"path":"scale"
					}
				},
				{
					"sampler":21,
					"target":{
						"node":8,
						"path":"translation"
					}
				},
				{
					"sampler":22,
					"target":{
						"node":8,
						"path":"rotation"
					}
				},
				{
					"sampler":23,
					"target":{
						"node":8,
						"path":"scale"
					}
				},
				{
					"sampler":24,
					"target":{
						"node":7,
						"path":"translation"
					}
				},
				{
					"sampler":25,
					"target":{
						"node":7,
						"path":"rotation"
					}
				},
				{
					"sampler":26,
					"target":{
						"node":7,
						"path":"scale"
					}
				},
				{
					"sampler":27,
					"target":{
						"node":12,
						"path":"translation"
					}
				},
				{
					"sampler":28,
					"target":{
						"node":12,
						"path":"rotation"
					}
				},
				{
					"sampler":29,
					"target":{
						"node":12,
						"path":"scale"
					}
				},
				{
					"sampler":30,
					"target":{
						"node":11,
						"path":"translation"
					}
				},
				{
					"sampler":31,
					"target":{
						"node":11,
						"path":"rotation"
					}
				},
				{
					"sampler":32,
					"target":{
						"node":11,
						"path":"scale"
					}
				},
				{
					"sampler":33,
					"target":{
						"node":16,
						"path":"translation"
					}
				},
				{
					"sampler":34,
					"target":{
						"node":16,
						"path":"rotation"
					}
				},
				{
					"sampler":35,
					"target":{
						"node":16,
						"path":"scale"
					}
				},
				{
					"sampler":36,
					"target":{
						"node":15,
						"path":"translation"
					}
				},
				{
					"sampler":37,
					"target":{
						"node":15,
						"path":"rotation"
					}
				},
				{
					"sampler":38,
					"target":{
						"node":15,
						"path":"scale"
					}
				},
				{
					"sampler":39,
					"target":{
						"node":18,
						"path":"translation"
					}
				},
				{
					"sampler":40,
					"target":{
						"node":18,
						"path":"rotation"
					}
				},
				{
					"sampler":41,
					"target":{
						"node":18,
						"path":"scale"
					}
				},
				{
					"sampler":42,
					"target":{
						"node":17,
						"path":"translation"
					}
				},
				{
					"sampler":43,
					"target":{
						"node":17,
						"path":"rotation"
					}
				},
				{
					"sampler":44,
					"target":{
						"node":17,
						"path":"scale"
					}
				}
			],
			"name":"damage",
			"samplers":[
				{
					"input":70,
					"interpolation":"STEP",
					"output":71
				},
				{
					"input":72,
					"interpolation":"LINEAR",
					"output":73
				},
				{
					"input":70,
					"interpolation":"STEP",
					"output":74
				},
				{
					"input":70,
					"interpolation":"LINEAR",
					"output":75
				},
				{
					"input":70,
					"interpolation":"LINEAR",
					"output":76
				},
				{
					"input":70,
					"interpolation":"STEP",
					"output":77
				},
				{
					"input":70,
					"interpolation":"LINEAR",
					"output":78
				},
				{
					"input":70,
					"interpolation":"LINEAR",
					"output":79
				},
				{
					"input":70,
					"interpolation":"STEP",
					"output":80
				},
				{
					"input":70,
					"interpolation":"LINEAR",
					"output":81
				},
				{
					"input":70,
					"interpolation":"LINEAR",
					"output":82
				},
				{
					"input":70,
					"interpolation":"STEP",
					"output":83
				},
				{
					"input":70,
					"interpolation":"LINEAR",
					"output":84
				},
				{
					"input":70,
					"interpolation":"LINEAR",
					"output":85
				},
				{
					"input":70,
					"interpolation":"LINEAR",
					"output":86
				},
				{
					"input":70,
					"interpolation":"LINEAR",
					"output":87
				},
				{
					"input":70,
					"interpolation":"LINEAR",
					"output":88
				},
				{
					"input":70,
					"interpolation":"STEP",
					"output":89
				},
				{
					"input":70,
					"interpolation":"LINEAR",
					"output":90
				},
				{
					"input":70,
					"interpolation":"LINEAR",
					"output":91
				},
				{
					"input":70,
					"interpolation":"LINEAR",
					"output":92
				},
				{
					"input":70,
					"interpolation":"LINEAR",
					"output":93
				},
				{
					"input":70,
					"interpolation":"LINEAR",
					"output":94
				},
				{
					"input":70,
					"interpolation":"LINEAR",
					"output":95
				},
				{
					"input":70,
					"interpolation":"LINEAR",
					"output":96
				},
				{
					"input":70,
					"interpolation":"LINEAR",
					"output":97
				},
				{
					"input":70,
					"interpolation":"STEP",
					"output":98
				},
				{
					"input":70,
					"interpolation":"LINEAR",
					"output":99
				},
				{
					"input":70,
					"interpolation":"LINEAR",
					"output":100
				},
				{
					"input":70,
					"interpolation":"STEP",
					"output":101
				},
				{
					"input":70,
					"interpolation":"LINEAR",
					"output":102
				},
				{
					"input":72,
					"interpolation":"LINEAR",
					"output":103
				},
				{
					"input":70,
					"interpolation":"STEP",
					"output":104
				},
				{
					"input":70,
					"interpolation":"STEP",
					"output":105
				},
				{
					"input":70,
					"interpolation":"STEP",
					"output":106
				},
				{
					"input":70,
					"interpolation":"STEP",
					"output":107
				},
				{
					"input":70,
					"interpolation":"STEP",
					"output":108
				},
				{
					"input":70,
					"interpolation":"STEP",
					"output":109
				},
				{
					"input":70,
					"interpolation":"STEP",
					"output":110
				},
				{
					"input":70,
					"interpolation":"STEP",
					"output":111
				},
				{
					"input":70,
					"interpolation":"STEP",
					"output":112
				},
				{
					"input":70,
					"interpolation":"STEP",
					"output":113
				},
				{
					"input":70,
					"interpolation":"STEP",
					"output":114
				},
				{
					"input":70,
					"interpolation":"STEP",
					"output":115
				},
				{
					"input":70,
					"interpolation":"STEP",
					"output":116
				}
			]
		},
		{
			"channels":[
				{
					"sampler":0,
					"target":{
						"node":14,
						"path":"translation"
					}
				},
				{
					"sampler":1,
					"target":{
						"node":14,
						"path":"rotation"
					}
				},
				{
					"sampler":2,
					"target":{
						"node":14,
						"path":"scale"
					}
				},
				{
					"sampler":3,
					"target":{
						"node":13,
						"path":"translation"
					}
				},
				{
					"sampler":4,
					"target":{
						"node":13,
						"path":"rotation"
					}
				},
				{
					"sampler":5,
					"target":{
						"node":13,
						"path":"scale"
					}
				},
				{
					"sampler":6,
					"target":{
						"node":6,
						"path":"translation"
					}
				},
				{
					"sampler":7,
					"target":{
						"node":6,
						"path":"rotation"
					}
				},
				{
					"sampler":8,
					"target":{
						"node":6,
						"path":"scale"
					}
				},
				{
					"sampler":9,
					"target":{
						"node":5,
						"path":"translation"
					}
				},
				{
					"sampler":10,
					"target":{
						"node":5,
						"path":"rotation"
					}
				},
				{
					"sampler":11,
					"target":{
						"node":5,
						"path":"scale"
					}
				},
				{
					"sampler":12,
					"target":{
						"node":4,
						"path":"translation"
					}
				},
				{
					"sampler":13,
					"target":{
						"node":4,
						"path":"rotation"
					}
				},
				{
					"sampler":14,
					"target":{
						"node":4,
						"path":"scale"
					}
				},
				{
					"sampler":15,
					"target":{
						"node":10,
						"path":"translation"
					}
				},
				{
					"sampler":16,
					"target":{
						"node":10,
						"path":"rotation"
					}
				},
				{
					"sampler":17,
					"target":{
						"node":10,
						"path":"scale"
					}
				},
				{
					"sampler":18,
					"target":{
						"node":9,
						"path":"translation"
					}
				},
				{
					"sampler":19,
					"target":{
						"node":9,
						"path":"rotation"
					}
				},
				{
					"sampler":20,
					"target":{
						"node":9,
						"path":"scale"
					}
				},
				{
					"sampler":21,
					"target":{
						"node":8,
						"path":"translation"
					}
				},
				{
					"sampler":22,
					"target":{
						"node":8,
						"path":"rotation"
					}
				},
				{
					"sampler":23,
					"target":{
						"node":8,
						"path":"scale"
					}
				},
				{
					"sampler":24,
					"target":{
						"node":7,
						"path":"translation"
					}
				},
				{
					"sampler":25,
					"target":{
						"node":7,
						"path":"rotation"
					}
				},
				{
					"sampler":26,
					"target":{
						"node":7,
						"path":"scale"
					}
				},
				{
					"sampler":27,
					"target":{
						"node":12,
						"path":"translation"
					}
				},
				{
					"sampler":28,
					"target":{
						"node":12,
						"path":"rotation"
					}
				},
				{
					"sampler":29,
					"target":{
						"node":12,
						"path":"scale"
					}
				},
				{
					"sampler":30,
					"target":{
						"node":11,
						"path":"translation"
					}
				},
				{
					"sampler":31,
					"target":{
						"node":11,
						"path":"rotation"
					}
				},
				{
					"sampler":32,
					"target":{
						"node":11,
						"path":"scale"
					}
				},
				{
					"sampler":33,
					"target":{
						"node":16,
						"path":"translation"
					}
				},
				{
					"sampler":34,
					"target":{
						"node":16,
						"path":"rotation"
					}
				},
				{
					"sampler":35,
					"target":{
						"node":16,
						"path":"scale"
					}
				},
				{
					"sampler":36,
					"target":{
						"node":15,
						"path":"translation"
					}
				},
				{
					"sampler":37,
					"target":{
						"node":15,
						"path":"rotation"
					}
				},
				{
					"sampler":38,
					"target":{
						"node":15,
						"path":"scale"
					}
				},
				{
					"sampler":39,
					"target":{
						"node":18,
						"path":"translation"
					}
				},
				{
					"sampler":40,
					"target":{
						"node":18,
						"path":"rotation"
					}
				},
				{
					"sampler":41,
					"target":{
						"node":18,
						"path":"scale"
					}
				},
				{
					"sampler":42,
					"target":{
						"node":17,
						"path":"translation"
					}
				},
				{
					"sampler":43,
					"target":{
						"node":17,
						"path":"rotation"
					}
				},
				{
					"sampler":44,
					"target":{
						"node":17,
						"path":"scale"
					}
				}
			],
			"name":"idle",
			"samplers":[
				{
					"input":117,
					"interpolation":"STEP",
					"output":118
				},
				{
					"input":119,
					"interpolation":"LINEAR",
					"output":120
				},
				{
					"input":117,
					"interpolation":"STEP",
					"output":121
				},
				{
					"input":117,
					"interpolation":"STEP",
					"output":122
				},
				{
					"input":117,
					"interpolation":"STEP",
					"output":123
				},
				{
					"input":117,
					"interpolation":"STEP",
					"output":124
				},
				{
					"input":117,
					"interpolation":"STEP",
					"output":125
				},
				{
					"input":117,
					"interpolation":"STEP",
					"output":126
				},
				{
					"input":117,
					"interpolation":"STEP",
					"output":127
				},
				{
					"input":117,
					"interpolation":"STEP",
					"output":128
				},
				{
					"input":119,
					"interpolation":"LINEAR",
					"output":129
				},
				{
					"input":117,
					"interpolation":"STEP",
					"output":130
				},
				{
					"input":117,
					"interpolation":"STEP",
					"output":131
				},
				{
					"input":119,
					"interpolation":"LINEAR",
					"output":132
				},
				{
					"input":117,
					"interpolation":"STEP",
					"output":133
				},
				{
					"input":117,
					"interpolation":"STEP",
					"output":134
				},
				{
					"input":117,
					"interpolation":"STEP",
					"output":135
				},
				{
					"input":117,
					"interpolation":"STEP",
					"output":136
				},
				{
					"input":117,
					"interpolation":"STEP",
					"output":137
				},
				{
					"input":119,
					"interpolation":"LINEAR",
					"output":138
				},
				{
					"input":117,
					"interpolation":"STEP",
					"output":139
				},
				{
					"input":117,
					"interpolation":"STEP",
					"output":140
				},
				{
					"input":117,
					"interpolation":"STEP",
					"output":141
				},
				{
					"input":117,
					"interpolation":"STEP",
					"output":142
				},
				{
					"input":117,
					"interpolation":"STEP",
					"output":143
				},
				{
					"input":117,
					"interpolation":"STEP",
					"output":144
				},
				{
					"input":117,
					"interpolation":"STEP",
					"output":145
				},
				{
					"input":117,
					"interpolation":"STEP",
					"output":146
				},
				{
					"input":119,
					"interpolation":"LINEAR",
					"output":147
				},
				{
					"input":117,
					"interpolation":"STEP",
					"output":148
				},
				{
					"input":117,
					"interpolation":"STEP",
					"output":149
				},
				{
					"input":119,
					"interpolation":"LINEAR",
					"output":150
				},
				{
					"input":117,
					"interpolation":"STEP",
					"output":151
				},
				{
					"input":117,
					"interpolation":"STEP",
					"output":152
				},
				{
					"input":117,
					"interpolation":"STEP",
					"output":153
				},
				{
					"input":117,
					"interpolation":"STEP",
					"output":154
				},
				{
					"input":117,
					"interpolation":"STEP",
					"output":155
				},
				{
					"input":117,
					"interpolation":"STEP",
					"output":156
				},
				{
					"input":117,
					"interpolation":"STEP",
					"output":157
				},
				{
					"input":117,
					"interpolation":"STEP",
					"output":158
				},
				{
					"input":117,
					"interpolation":"STEP",
					"output":159
				},
				{
					"input":117,
					"interpolation":"STEP",
					"output":160
				},
				{
					"input":117,
					"interpolation":"STEP",
					"output":161
				},
				{
					"input":117,
					"interpolation":"STEP",
					"output":162
				},
				{
					"input":117,
					"interpolation":"STEP",
					"output":163
				}
			]
		},
		{
			"channels":[
				{
					"sampler":0,
					"target":{
						"node":14,
						"path":"translation"
					}
				},
				{
					"sampler":1,
					"target":{
						"node":14,
						"path":"rotation"
					}
				},
				{
					"sampler":2,
					"target":{
						"node":14,
						"path":"scale"
					}
				},
				{
					"sampler":3,
					"target":{
						"node":13,
						"path":"translation"
					}
				},
				{
					"sampler":4,
					"target":{
						"node":13,
						"path":"rotation"
					}
				},
				{
					"sampler":5,
					"target":{
						"node":13,
						"path":"scale"
					}
				},
				{
					"sampler":6,
					"target":{
						"node":6,
						"path":"translation"
					}
				},
				{
					"sampler":7,
					"target":{
						"node":6,
						"path":"rotation"
					}
				},
				{
					"sampler":8,
					"target":{
						"node":6,
						"path":"scale"
					}
				},
				{
					"sampler":9,
					"target":{
						"node":5,
						"path":"translation"
					}
				},
				{
					"sampler":10,
					"target":{
						"node":5,
						"path":"rotation"
					}
				},
				{
					"sampler":11,
					"target":{
						"node":5,
						"path":"scale"
					}
				},
				{
					"sampler":12,
					"target":{
						"node":4,
						"path":"translation"
					}
				},
				{
					"sampler":13,
					"target":{
						"node":4,
						"path":"rotation"
					}
				},
				{
					"sampler":14,
					"target":{
						"node":4,
						"path":"scale"
					}
				},
				{
					"sampler":15,
					"target":{
						"node":10,
						"path":"translation"
					}
				},
				{
					"sampler":16,
					"target":{
						"node":10,
						"path":"rotation"
					}
				},
				{
					"sampler":17,
					"target":{
						"node":10,
						"path":"scale"
					}
				},
				{
					"sampler":18,
					"target":{
						"node":9,
						"path":"translation"
					}
				},
				{
					"sampler":19,
					"target":{
						"node":9,
						"path":"rotation"
					}
				},
				{
					"sampler":20,
					"target":{
						"node":9,
						"path":"scale"
					}
				},
				{
					"sampler":21,
					"target":{
						"node":8,
						"path":"translation"
					}
				},
				{
					"sampler":22,
					"target":{
						"node":8,
						"path":"rotation"
					}
				},
				{
					"sampler":23,
					"target":{
						"node":8,
						"path":"scale"
					}
				},
				{
					"sampler":24,
					"target":{
						"node":7,
						"path":"translation"
					}
				},
				{
					"sampler":25,
					"target":{
						"node":7,
						"path":"rotation"
					}
				},
				{
					"sampler":26,
					"target":{
						"node":7,
						"path":"scale"
					}
				},
				{
					"sampler":27,
					"target":{
						"node":12,
						"path":"translation"
					}
				},
				{
					"sampler":28,
					"target":{
						"node":12,
						"path":"rotation"
					}
				},
				{
					"sampler":29,
					"target":{
						"node":12,
						"path":"scale"
					}
				},
				{
					"sampler":30,
					"target":{
						"node":11,
						"path":"translation"
					}
				},
				{
					"sampler":31,
					"target":{
						"node":11,
						"path":"rotation"
					}
				},
				{
					"sampler":32,
					"target":{
						"node":11,
						"path":"scale"
					}
				},
				{
					"sampler":33,
					"target":{
						"node":16,
						"path":"translation"
					}
				},
				{
					"sampler":34,
					"target":{
						"node":16,
						"path":"rotation"
					}
				},
				{
					"sampler":35,
					"target":{
						"node":16,
						"path":"scale"
					}
				},
				{
					"sampler":36,
					"target":{
						"node":15,
						"path":"translation"
					}
				},
				{
					"sampler":37,
					"target":{
						"node":15,
						"path":"rotation"
					}
				},
				{
					"sampler":38,
					"target":{
						"node":15,
						"path":"scale"
					}
				},
				{
					"sampler":39,
					"target":{
						"node":18,
						"path":"translation"
					}
				},
				{
					"sampler":40,
					"target":{
						"node":18,
						"path":"rotation"
					}
				},
				{
					"sampler":41,
					"target":{
						"node":18,
						"path":"scale"
					}
				},
				{
					"sampler":42,
					"target":{
						"node":17,
						"path":"translation"
					}
				},
				{
					"sampler":43,
					"target":{
						"node":17,
						"path":"rotation"
					}
				},
				{
					"sampler":44,
					"target":{
						"node":17,
						"path":"scale"
					}
				}
			],
			"name":"move",
			"samplers":[
				{
					"input":164,
					"interpolation":"STEP",
					"output":165
				},
				{
					"input":166,
					"interpolation":"LINEAR",
					"output":167
				},
				{
					"input":164,
					"interpolation":"STEP",
					"output":168
				},
				{
					"input":164,
					"interpolation":"STEP",
					"output":169
				},
				{
					"input":164,
					"interpolation":"STEP",
					"output":170
				},
				{
					"input":164,
					"interpolation":"STEP",
					"output":171
				},
				{
					"input":164,
					"interpolation":"STEP",
					"output":172
				},
				{
					"input":164,
					"interpolation":"STEP",
					"output":173
				},
				{
					"input":164,
					"interpolation":"STEP",
					"output":174
				},
				{
					"input":164,
					"interpolation":"STEP",
					"output":175
				},
				{
					"input":166,
					"interpolation":"LINEAR",
					"output":176
				},
				{
					"input":164,
					"interpolation":"STEP",
					"output":177
				},
				{
					"input":164,
					"interpolation":"STEP",
					"output":178
				},
				{
					"input":164,
					"interpolation":"STEP",
					"output":179
				},
				{
					"input":164,
					"interpolation":"STEP",
					"output":180
				},
				{
					"input":164,
					"interpolation":"STEP",
					"output":181
				},
				{
					"input":164,
					"interpolation":"STEP",
					"output":182
				},
				{
					"input":164,
					"interpolation":"STEP",
					"output":183
				},
				{
					"input":164,
					"interpolation":"STEP",
					"output":184
				},
				{
					"input":164,
					"interpolation":"STEP",
					"output":185
				},
				{
					"input":164,
					"interpolation":"STEP",
					"output":186
				},
				{
					"input":164,
					"interpolation":"STEP",
					"output":187
				},
				{
					"input":164,
					"interpolation":"STEP",
					"output":188
				},
				{
					"input":164,
					"interpolation":"STEP",
					"output":189
				},
				{
					"input":164,
					"interpolation":"STEP",
					"output":190
				},
				{
					"input":166,
					"interpolation":"LINEAR",
					"output":191
				},
				{
					"input":164,
					"interpolation":"STEP",
					"output":192
				},
				{
					"input":164,
					"interpolation":"STEP",
					"output":193
				},
				{
					"input":164,
					"interpolation":"STEP",
					"output":194
				},
				{
					"input":164,
					"interpolation":"STEP",
					"output":195
				},
				{
					"input":164,
					"interpolation":"STEP",
					"output":196
				},
				{
					"input":166,
					"interpolation":"LINEAR",
					"output":197
				},
				{
					"input":164,
					"interpolation":"STEP",
					"output":198
				},
				{
					"input":164,
					"interpolation":"STEP",
					"output":199
				},
				{
					"input":166,
					"interpolation":"LINEAR",
					"output":200
				},
				{
					"input":164,
					"interpolation":"STEP",
					"output":201
				},
				{
					"input":164,
					"interpolation":"STEP",
					"output":202
				},
				{
					"input":166,
					"interpolation":"LINEAR",
					"output":203
				},
				{
					"input":164,
					"interpolation":"STEP",
					"output":204
				},
				{
					"input":164,
					"interpolation":"STEP",
					"output":205
				},
				{
					"input":166,
					"interpolation":"LINEAR",
					"output":206
				},
				{
					"input":164,
					"interpolation":"STEP",
					"output":207
				},
				{
					"input":164,
					"interpolation":"STEP",
					"output":208
				},
				{
					"input":166,
					"interpolation":"LINEAR",
					"output":209
				},
				{
					"input":164,
					"interpolation":"STEP",
					"output":210
				}
			]
		}
	],
	"meshes":[
		{
			"name":"\u7403.001",
			"primitives":[
				{
					"attributes":{
						"POSITION":0,
						"NORMAL":1,
						"TEXCOORD_0":2
					},
					"indices":3
				}
			]
		},
		{
			"name":"\u7403.002",
			"primitives":[
				{
					"attributes":{
						"POSITION":4,
						"NORMAL":5,
						"TEXCOORD_0":6
					},
					"indices":7
				}
			]
		},
		{
			"name":"\u7403.003",
			"primitives":[
				{
					"attributes":{
						"POSITION":8,
						"NORMAL":9,
						"TEXCOORD_0":10
					},
					"indices":11
				}
			]
		},
		{
			"name":"\u7acb\u65b9\u4f53",
			"primitives":[
				{
					"attributes":{
						"POSITION":12,
						"NORMAL":13,
						"TEXCOORD_0":14
					},
					"indices":15
				}
			]
		},
		{
			"name":"\u7acb\u65b9\u4f53.001",
			"primitives":[
				{
					"attributes":{
						"POSITION":16,
						"NORMAL":17,
						"TEXCOORD_0":18,
						"JOINTS_0":19,
						"WEIGHTS_0":20
					},
					"indices":21
				}
			]
		}
	],
	"skins":[
		{
			"inverseBindMatrices":22,
			"joints":[
				14,
				13,
				6,
				5,
				4,
				10,
				9,
				8,
				7,
				12,
				11,
				16,
				15,
				18,
				17
			],
			"name":"\u30a2\u30fc\u30de\u30c1\u30e5\u30a2"
		}
	],
	"accessors":[
		{
			"bufferView":0,
			"componentType":5126,
			"count":858,
			"max":[
				0.6571192145347595,
				0.6664093732833862,
				0.23001648485660553
			],
			"min":[
				-0.6571192145347595,
				-0.45994898676872253,
				-1.0043470859527588
			],
			"type":"VEC3"
		},
		{
			"bufferView":1,
			"componentType":5126,
			"count":858,
			"type":"VEC3"
		},
		{
			"bufferView":2,
			"componentType":5126,
			"count":858,
			"type":"VEC2"
		},
		{
			"bufferView":3,
			"componentType":5123,
			"count":1320,
			"type":"SCALAR"
		},
		{
			"bufferView":4,
			"componentType":5126,
			"count":1312,
			"max":[
				1.9606530666351318,
				1.2864127159118652,
				0.7812333106994629
			],
			"min":[
				-1.9606530666351318,
				-1.5732043981552124,
				-1.0273457765579224
			],
			"type":"VEC3"
		},
		{
			"bufferView":5,
			"componentType":5126,
			"count":1312,
			"type":"VEC3"
		},
		{
			"bufferView":6,
			"componentType":5126,
			"count":1312,
			"type":"VEC2"
		},
		{
			"bufferView":7,
			"componentType":5123,
			"count":1992,
			"type":"SCALAR"
		},
		{
			"bufferView":8,
			"componentType":5126,
			"count":372,
			"max":[
				0.9870366454124451,
				0.8931084275245667,
				0.7812333106994629
			],
			"min":[
				-0.9870366454124451,
				-0.7709137201309204,
				-1.0273457765579224
			],
			"type":"VEC3"
		},
		{
			"bufferView":9,
			"componentType":5126,
			"count":372,
			"type":"VEC3"
		},
		{
			"bufferView":10,
			"componentType":5126,
			"count":372,
			"type":"VEC2"
		},
		{
			"bufferView":11,
			"componentType":5123,
			"count":564,
			"type":"SCALAR"
		},
		{
			"bufferView":12,
			"componentType":5126,
			"count":552,
			"max":[
				0.24812865257263184,
				0.1277327984571457,
				1.9145164489746094
			],
			"min":[
				-2.764742851257324,
				-0.1277327984571457,
				-6.805744171142578
			],
			"type":"VEC3"
		},
		{
			"bufferView":13,
			"componentType":5126,
			"count":552,
			"type":"VEC3"
		},
		{
			"bufferView":14,
			"componentType":5126,
			"count":552,
			"type":"VEC2"
		},
		{
			"bufferView":15,
			"componentType":5123,
			"count":1188,
			"type":"SCALAR"
		},
		{
			"bufferView":16,
			"componentType":5126,
			"count":3094,
			"max":[
				2.0844428539276123,
				3.5117850303649902,
				0.8476918935775757
			],
			"min":[
				-1.9606530666351318,
				-1.5732043981552124,
				-1.1705172061920166
			],
			"type":"VEC3"
		},
		{
			"bufferView":17,
			"componentType":5126,
			"count":3094,
			"type":"VEC3"
		},
		{
			"bufferView":18,
			"componentType":5126,
			"count":3094,
			"type":"VEC2"
		},
		{
			"bufferView":19,
			"componentType":5121,
			"count":3094,
			"type":"VEC4"
		},
		{
			"bufferView":20,
			"componentType":5126,
			"count":3094,
			"type":"VEC4"
		},
		{
			"bufferView":21,
			"componentType":5123,
			"count":5064,
			"type":"SCALAR"
		},
		{
			"bufferView":22,
			"componentType":5126,
			"count":15,
			"type":"MAT4"
		},
		{
			"bufferView":23,
			"componentType":5126,
			"count":2,
			"max":[
				1
			],
			"min":[
				0
			],
			"type":"SCALAR"
		},
		{
			"bufferView":24,
			"componentType":5126,
			"count":2,
			"type":"VEC3"
		},
		{
			"bufferView":25,
			"componentType":5126,
			"count":61,
			"max":[
				1
			],
			"min":[
				0
			],
			"type":"SCALAR"
		},
		{
			"bufferView":26,
			"componentType":5126,
			"count":61,
			"type":"VEC4"
		},
		{
			"bufferView":27,
			"componentType":5126,
			"count":2,
			"type":"VEC3"
		},
		{
			"bufferView":28,
			"componentType":5126,
			"count":2,
			"type":"VEC3"
		},
		{
			"bufferView":29,
			"componentType":5126,
			"count":61,
			"type":"VEC4"
		},
		{
			"bufferView":30,
			"componentType":5126,
			"count":2,
			"type":"VEC3"
		},
		{
			"bufferView":31,
			"componentType":5126,
			"count":2,
			"type":"VEC3"
		},
		{
			"bufferView":32,
			"componentType":5126,
			"count":2,
			"type":"VEC4"
		},
		{
			"bufferView":33,
			"componentType":5126,
			"count":2,
			"type":"VEC3"
		},
		{
			"bufferView":34,
			"componentType":5126,
			"count":2,
			"type":"VEC3"
		},
		{
			"bufferView":35,
			"componentType":5126,
			"count":61,
			"type":"VEC4"
		},
		{
			"bufferView":36,
			"componentType":5126,
			"count":2,
			"type":"VEC3"
		},
		{
			"bufferView":37,
			"componentType":5126,
			"count":2,
			"type":"VEC3"
		},
		{
			"bufferView":38,
			"componentType":5126,
			"count":61,
			"type":"VEC4"
		},
		{
			"bufferView":39,
			"componentType":5126,
			"count":2,
			"type":"VEC3"
		},
		{
			"bufferView":40,
			"componentType":5126,
			"count":2,
			"type":"VEC3"
		},
		{
			"bufferView":41,
			"componentType":5126,
			"count":2,
			"type":"VEC4"
		},
		{
			"bufferView":42,
			"componentType":5126,
			"count":2,
			"type":"VEC3"
		},
		{
			"bufferView":43,
			"componentType":5126,
			"count":2,
			"type":"VEC3"
		},
		{
			"bufferView":44,
			"componentType":5126,
			"count":61,
			"type":"VEC4"
		},
		{
			"bufferView":45,
			"componentType":5126,
			"count":2,
			"type":"VEC3"
		},
		{
			"bufferView":46,
			"componentType":5126,
			"count":2,
			"type":"VEC3"
		},
		{
			"bufferView":47,
			"componentType":5126,
			"count":61,
			"type":"VEC4"
		},
		{
			"bufferView":48,
			"componentType":5126,
			"count":2,
			"type":"VEC3"
		},
		{
			"bufferView":49,
			"componentType":5126,
			"count":2,
			"type":"VEC3"
		},
		{
			"bufferView":50,
			"componentType":5126,
			"count":61,
			"type":"VEC4"
		},
		{
			"bufferView":51,
			"componentType":5126,
			"count":2,
			"type":"VEC3"
		},
		{
			"bufferView":52,
			"componentType":5126,
			"count":2,
			"type":"VEC3"
		},
		{
			"bufferView":53,
			"componentType":5126,
			"count":61,
			"type":"VEC4"
		},
		{
			"bufferView":54,
			"componentType":5126,
			"count":2,
			"type":"VEC3"
		},
		{
			"bufferView":55,
			"componentType":5126,
			"count":2,
			"type":"VEC3"
		},
		{
			"bufferView":56,
			"componentType":5126,
			"count":61,
			"type":"VEC4"
		},
		{
			"bufferView":57,
			"componentType":5126,
			"count":2,
			"type":"VEC3"
		},
		{
			"bufferView":58,
			"componentType":5126,
			"count":2,
			"type":"VEC3"
		},
		{
			"bufferView":59,
			"componentType":5126,
			"count":2,
			"type":"VEC4"
		},
		{
			"bufferView":60,
			"componentType":5126,
			"count":2,
			"type":"VEC3"
		},
		{
			"bufferView":61,
			"componentType":5126,
			"count":2,
			"type":"VEC3"
		},
		{
			"bufferView":62,
			"componentType":5126,
			"count":2,
			"type":"VEC4"
		},
		{
			"bufferView":63,
			"componentType":5126,
			"count":2,
			"type":"VEC3"
		},
		{
			"bufferView":64,
			"componentType":5126,
			"count":2,
			"type":"VEC3"
		},
		{
			"bufferView":65,
			"componentType":5126,
			"count":2,
			"type":"VEC4"
		},
		{
			"bufferView":66,
			"componentType":5126,
			"count":2,
			"type":"VEC3"
		},
		{
			"bufferView":67,
			"componentType":5126,
			"count":2,
			"type":"VEC3"
		},
		{
			"bufferView":68,
			"componentType":5126,
			"count":2,
			"type":"VEC4"
		},
		{
			"bufferView":69,
			"componentType":5126,
			"count":2,
			"type":"VEC3"
		},
		{
			"bufferView":70,
			"componentType":5126,
			"count":2,
			"max":[
				0.06666666666666667
			],
			"min":[
				0
			],
			"type":"SCALAR"
		},
		{
			"bufferView":71,
			"componentType":5126,
			"count":2,
			"type":"VEC3"
		},
		{
			"bufferView":72,
			"componentType":5126,
			"count":5,
			"max":[
				0.06666666666666667
			],
			"min":[
				0
			],
			"type":"SCALAR"
		},
		{
			"bufferView":73,
			"componentType":5126,
			"count":5,
			"type":"VEC4"
		},
		{
			"bufferView":74,
			"componentType":5126,
			"count":2,
			"type":"VEC3"
		},
		{
			"bufferView":75,
			"componentType":5126,
			"count":2,
			"type":"VEC3"
		},
		{
			"bufferView":76,
			"componentType":5126,
			"count":2,
			"type":"VEC4"
		},
		{
			"bufferView":77,
			"componentType":5126,
			"count":2,
			"type":"VEC3"
		},
		{
			"bufferView":78,
			"componentType":5126,
			"count":2,
			"type":"VEC3"
		},
		{
			"bufferView":79,
			"componentType":5126,
			"count":2,
			"type":"VEC4"
		},
		{
			"bufferView":80,
			"componentType":5126,
			"count":2,
			"type":"VEC3"
		},
		{
			"bufferView":81,
			"componentType":5126,
			"count":2,
			"type":"VEC3"
		},
		{
			"bufferView":82,
			"componentType":5126,
			"count":2,
			"type":"VEC4"
		},
		{
			"bufferView":83,
			"componentType":5126,
			"count":2,
			"type":"VEC3"
		},
		{
			"bufferView":84,
			"componentType":5126,
			"count":2,
			"type":"VEC3"
		},
		{
			"bufferView":85,
			"componentType":5126,
			"count":2,
			"type":"VEC4"
		},
		{
			"bufferView":86,
			"componentType":5126,
			"count":2,
			"type":"VEC3"
		},
		{
			"bufferView":87,
			"componentType":5126,
			"count":2,
			"type":"VEC3"
		},
		{
			"bufferView":88,
			"componentType":5126,
			"count":2,
			"type":"VEC4"
		},
		{
			"bufferView":89,
			"componentType":5126,
			"count":2,
			"type":"VEC3"
		},
		{
			"bufferView":90,
			"componentType":5126,
			"count":2,
			"type":"VEC3"
		},
		{
			"bufferView":91,
			"componentType":5126,
			"count":2,
			"type":"VEC4"
		},
		{
			"bufferView":92,
			"componentType":5126,
			"count":2,
			"type":"VEC3"
		},
		{
			"bufferView":93,
			"componentType":5126,
			"count":2,
			"type":"VEC3"
		},
		{
			"bufferView":94,
			"componentType":5126,
			"count":2,
			"type":"VEC4"
		},
		{
			"bufferView":95,
			"componentType":5126,
			"count":2,
			"type":"VEC3"
		},
		{
			"bufferView":96,
			"componentType":5126,
			"count":2,
			"type":"VEC3"
		},
		{
			"bufferView":97,
			"componentType":5126,
			"count":2,
			"type":"VEC4"
		},
		{
			"bufferView":98,
			"componentType":5126,
			"count":2,
			"type":"VEC3"
		},
		{
			"bufferView":99,
			"componentType":5126,
			"count":2,
			"type":"VEC3"
		},
		{
			"bufferView":100,
			"componentType":5126,
			"count":2,
			"type":"VEC4"
		},
		{
			"bufferView":101,
			"componentType":5126,
			"count":2,
			"type":"VEC3"
		},
		{
			"bufferView":102,
			"componentType":5126,
			"count":2,
			"type":"VEC3"
		},
		{
			"bufferView":103,
			"componentType":5126,
			"count":5,
			"type":"VEC4"
		},
		{
			"bufferView":104,
			"componentType":5126,
			"count":2,
			"type":"VEC3"
		},
		{
			"bufferView":105,
			"componentType":5126,
			"count":2,
			"type":"VEC3"
		},
		{
			"bufferView":106,
			"componentType":5126,
			"count":2,
			"type":"VEC4"
		},
		{
			"bufferView":107,
			"componentType":5126,
			"count":2,
			"type":"VEC3"
		},
		{
			"bufferView":108,
			"componentType":5126,
			"count":2,
			"type":"VEC3"
		},
		{
			"bufferView":109,
			"componentType":5126,
			"count":2,
			"type":"VEC4"
		},
		{
			"bufferView":110,
			"componentType":5126,
			"count":2,
			"type":"VEC3"
		},
		{
			"bufferView":111,
			"componentType":5126,
			"count":2,
			"type":"VEC3"
		},
		{
			"bufferView":112,
			"componentType":5126,
			"count":2,
			"type":"VEC4"
		},
		{
			"bufferView":113,
			"componentType":5126,
			"count":2,
			"type":"VEC3"
		},
		{
			"bufferView":114,
			"componentType":5126,
			"count":2,
			"type":"VEC3"
		},
		{
			"bufferView":115,
			"componentType":5126,
			"count":2,
			"type":"VEC4"
		},
		{
			"bufferView":116,
			"componentType":5126,
			"count":2,
			"type":"VEC3"
		},
		{
			"bufferView":117,
			"componentType":5126,
			"count":2,
			"max":[
				4.166666666666667
			],
			"min":[
				0
			],
			"type":"SCALAR"
		},
		{
			"bufferView":118,
			"componentType":5126,
			"count":2,
			"type":"VEC3"
		},
		{
			"bufferView":119,
			"componentType":5126,
			"count":251,
			"max":[
				4.166666666666667
			],
			"min":[
				0
			],
			"type":"SCALAR"
		},
		{
			"bufferView":120,
			"componentType":5126,
			"count":251,
			"type":"VEC4"
		},
		{
			"bufferView":121,
			"componentType":5126,
			"count":2,
			"type":"VEC3"
		},
		{
			"bufferView":122,
			"componentType":5126,
			"count":2,
			"type":"VEC3"
		},
		{
			"bufferView":123,
			"componentType":5126,
			"count":2,
			"type":"VEC4"
		},
		{
			"bufferView":124,
			"componentType":5126,
			"count":2,
			"type":"VEC3"
		},
		{
			"bufferView":125,
			"componentType":5126,
			"count":2,
			"type":"VEC3"
		},
		{
			"bufferView":126,
			"componentType":5126,
			"count":2,
			"type":"VEC4"
		},
		{
			"bufferView":127,
			"componentType":5126,
			"count":2,
			"type":"VEC3"
		},
		{
			"bufferView":128,
			"componentType":5126,
			"count":2,
			"type":"VEC3"
		},
		{
			"bufferView":129,
			"componentType":5126,
			"count":251,
			"type":"VEC4"
		},
		{
			"bufferView":130,
			"componentType":5126,
			"count":2,
			"type":"VEC3"
		},
		{
			"bufferView":131,
			"componentType":5126,
			"count":2,
			"type":"VEC3"
		},
		{
			"bufferView":132,
			"componentType":5126,
			"count":251,
			"type":"VEC4"
		},
		{
			"bufferView":133,
			"componentType":5126,
			"count":2,
			"type":"VEC3"
		},
		{
			"bufferView":134,
			"componentType":5126,
			"count":2,
			"type":"VEC3"
		},
		{
			"bufferView":135,
			"componentType":5126,
			"count":2,
			"type":"VEC4"
		},
		{
			"bufferView":136,
			"componentType":5126,
			"count":2,
			"type":"VEC3"
		},
		{
			"bufferView":137,
			"componentType":5126,
			"count":2,
			"type":"VEC3"
		},
		{
			"bufferView":138,
			"componentType":5126,
			"count":251,
			"type":"VEC4"
		},
		{
			"bufferView":139,
			"componentType":5126,
			"count":2,
			"type":"VEC3"
		},
		{
			"bufferView":140,
			"componentType":5126,
			"count":2,
			"type":"VEC3"
		},
		{
			"bufferView":141,
			"componentType":5126,
			"count":2,
			"type":"VEC4"
		},
		{
			"bufferView":142,
			"componentType":5126,
			"count":2,
			"type":"VEC3"
		},
		{
			"bufferView":143,
			"componentType":5126,
			"count":2,
			"type":"VEC3"
		},
		{
			"bufferView":144,
			"componentType":5126,
			"count":2,
			"type":"VEC4"
		},
		{
			"bufferView":145,
			"componentType":5126,
			"count":2,
			"type":"VEC3"
		},
		{
			"bufferView":146,
			"componentType":5126,
			"count":2,
			"type":"VEC3"
		},
		{
			"bufferView":147,
			"componentType":5126,
			"count":251,
			"type":"VEC4"
		},
		{
			"bufferView":148,
			"componentType":5126,
			"count":2,
			"type":"VEC3"
		},
		{
			"bufferView":149,
			"componentType":5126,
			"count":2,
			"type":"VEC3"
		},
		{
			"bufferView":150,
			"componentType":5126,
			"count":251,
			"type":"VEC4"
		},
		{
			"bufferView":151,
			"componentType":5126,
			"count":2,
			"type":"VEC3"
		},
		{
			"bufferView":152,
			"componentType":5126,
			"count":2,
			"type":"VEC3"
		},
		{
			"bufferView":153,
			"componentType":5126,
			"count":2,
			"type":"VEC4"
		},
		{
			"bufferView":154,
			"componentType":5126,
			"count":2,
			"type":"VEC3"
		},
		{
			"bufferView":155,
			"componentType":5126,
			"count":2,
			"type":"VEC3"
		},
		{
			"bufferView":156,
			"componentType":5126,
			"count":2,
			"type":"VEC4"
		},
		{
			"bufferView":157,
			"componentType":5126,
			"count":2,
			"type":"VEC3"
		},
		{
			"bufferView":158,
			"componentType":5126,
			"count":2,
			"type":"VEC3"
		},
		{
			"bufferView":159,
			"componentType":5126,
			"count":2,
			"type":"VEC4"
		},
		{
			"bufferView":160,
			"componentType":5126,
			"count":2,
			"type":"VEC3"
		},
		{
			"bufferView":161,
			"componentType":5126,
			"count":2,
			"type":"VEC3"
		},
		{
			"bufferView":162,
			"componentType":5126,
			"count":2,
			"type":"VEC4"
		},
		{
			"bufferView":163,
			"componentType":5126,
			"count":2,
			"type":"VEC3"
		},
		{
			"bufferView":164,
			"componentType":5126,
			"count":2,
			"max":[
				0.6666666666666666
			],
			"min":[
				0
			],
			"type":"SCALAR"
		},
		{
			"bufferView":165,
			"componentType":5126,
			"count":2,
			"type":"VEC3"
		},
		{
			"bufferView":166,
			"componentType":5126,
			"count":41,
			"max":[
				0.6666666666666666
			],
			"min":[
				0
			],
			"type":"SCALAR"
		},
		{
			"bufferView":167,
			"componentType":5126,
			"count":41,
			"type":"VEC4"
		},
		{
			"bufferView":168,
			"componentType":5126,
			"count":2,
			"type":"VEC3"
		},
		{
			"bufferView":169,
			"componentType":5126,
			"count":2,
			"type":"VEC3"
		},
		{
			"bufferView":170,
			"componentType":5126,
			"count":2,
			"type":"VEC4"
		},
		{
			"bufferView":171,
			"componentType":5126,
			"count":2,
			"type":"VEC3"
		},
		{
			"bufferView":172,
			"componentType":5126,
			"count":2,
			"type":"VEC3"
		},
		{
			"bufferView":173,
			"componentType":5126,
			"count":2,
			"type":"VEC4"
		},
		{
			"bufferView":174,
			"componentType":5126,
			"count":2,
			"type":"VEC3"
		},
		{
			"bufferView":175,
			"componentType":5126,
			"count":2,
			"type":"VEC3"
		},
		{
			"bufferView":176,
			"componentType":5126,
			"count":41,
			"type":"VEC4"
		},
		{
			"bufferView":177,
			"componentType":5126,
			"count":2,
			"type":"VEC3"
		},
		{
			"bufferView":178,
			"componentType":5126,
			"count":2,
			"type":"VEC3"
		},
		{
			"bufferView":179,
			"componentType":5126,
			"count":2,
			"type":"VEC4"
		},
		{
			"bufferView":180,
			"componentType":5126,
			"count":2,
			"type":"VEC3"
		},
		{
			"bufferView":181,
			"componentType":5126,
			"count":2,
			"type":"VEC3"
		},
		{
			"bufferView":182,
			"componentType":5126,
			"count":2,
			"type":"VEC4"
		},
		{
			"bufferView":183,
			"componentType":5126,
			"count":2,
			"type":"VEC3"
		},
		{
			"bufferView":184,
			"componentType":5126,
			"count":2,
			"type":"VEC3"
		},
		{
			"bufferView":185,
			"componentType":5126,
			"count":2,
			"type":"VEC4"
		},
		{
			"bufferView":186,
			"componentType":5126,
			"count":2,
			"type":"VEC3"
		},
		{
			"bufferView":187,
			"componentType":5126,
			"count":2,
			"type":"VEC3"
		},
		{
			"bufferView":188,
			"componentType":5126,
			"count":2,
			"type":"VEC4"
		},
		{
			"bufferView":189,
			"componentType":5126,
			"count":2,
			"type":"VEC3"
		},
		{
			"bufferView":190,
			"componentType":5126,
			"count":2,
			"type":"VEC3"
		},
		{
			"bufferView":191,
			"componentType":5126,
			"count":41,
			"type":"VEC4"
		},
		{
			"bufferView":192,
			"componentType":5126,
			"count":2,
			"type":"VEC3"
		},
		{
			"bufferView":193,
			"componentType":5126,
			"count":2,
			"type":"VEC3"
		},
		{
			"bufferView":194,
			"componentType":5126,
			"count":2,
			"type":"VEC4"
		},
		{
			"bufferView":195,
			"componentType":5126,
			"count":2,
			"type":"VEC3"
		},
		{
			"bufferView":196,
			"componentType":5126,
			"count":2,
			"type":"VEC3"
		},
		{
			"bufferView":197,
			"componentType":5126,
			"count":41,
			"type":"VEC4"
		},
		{
			"bufferView":198,
			"componentType":5126,
			"count":2,
			"type":"VEC3"
		},
		{
			"bufferView":199,
			"componentType":5126,
			"count":2,
			"type":"VEC3"
		},
		{
			"bufferView":200,
			"componentType":5126,
			"count":41,
			"type":"VEC4"
		},
		{
			"bufferView":201,
			"componentType":5126,
			"count":2,
			"type":"VEC3"
		},
		{
			"bufferView":202,
			"componentType":5126,
			"count":2,
			"type":"VEC3"
		},
		{
			"bufferView":203,
			"componentType":5126,
			"count":41,
			"type":"VEC4"
		},
		{
			"bufferView":204,
			"componentType":5126,
			"count":2,
			"type":"VEC3"
		},
		{
			"bufferView":205,
			"componentType":5126,
			"count":2,
			"type":"VEC3"
		},
		{
			"bufferView":206,
			"componentType":5126,
			"count":41,
			"type":"VEC4"
		},
		{
			"bufferView":207,
			"componentType":5126,
			"count":2,
			"type":"VEC3"
		},
		{
			"bufferView":208,
			"componentType":5126,
			"count":2,
			"type":"VEC3"
		},
		{
			"bufferView":209,
			"componentType":5126,
			"count":41,
			"type":"VEC4"
		},
		{
			"bufferView":210,
			"componentType":5126,
			"count":2,
			"type":"VEC3"
		}
	],
	"bufferViews":[
		{
			"buffer":0,
			"byteLength":10296,
			"byteOffset":0,
			"target":34962
		},
		{
			"buffer":0,
			"byteLength":10296,
			"byteOffset":10296,
			"target":34962
		},
		{
			"buffer":0,
			"byteLength":6864,
			"byteOffset":20592,
			"target":34962
		},
		{
			"buffer":0,
			"byteLength":2640,
			"byteOffset":27456,
			"target":34963
		},
		{
			"buffer":0,
			"byteLength":15744,
			"byteOffset":30096,
			"target":34962
		},
		{
			"buffer":0,
			"byteLength":15744,
			"byteOffset":45840,
			"target":34962
		},
		{
			"buffer":0,
			"byteLength":10496,
			"byteOffset":61584,
			"target":34962
		},
		{
			"buffer":0,
			"byteLength":3984,
			"byteOffset":72080,
			"target":34963
		},
		{
			"buffer":0,
			"byteLength":4464,
			"byteOffset":76064,
			"target":34962
		},
		{
			"buffer":0,
			"byteLength":4464,
			"byteOffset":80528,
			"target":34962
		},
		{
			"buffer":0,
			"byteLength":2976,
			"byteOffset":84992,
			"target":34962
		},
		{
			"buffer":0,
			"byteLength":1128,
			"byteOffset":87968,
			"target":34963
		},
		{
			"buffer":0,
			"byteLength":6624,
			"byteOffset":89096,
			"target":34962
		},
		{
			"buffer":0,
			"byteLength":6624,
			"byteOffset":95720,
			"target":34962
		},
		{
			"buffer":0,
			"byteLength":4416,
			"byteOffset":102344,
			"target":34962
		},
		{
			"buffer":0,
			"byteLength":2376,
			"byteOffset":106760,
			"target":34963
		},
		{
			"buffer":0,
			"byteLength":37128,
			"byteOffset":109136,
			"target":34962
		},
		{
			"buffer":0,
			"byteLength":37128,
			"byteOffset":146264,
			"target":34962
		},
		{
			"buffer":0,
			"byteLength":24752,
			"byteOffset":183392,
			"target":34962
		},
		{
			"buffer":0,
			"byteLength":12376,
			"byteOffset":208144,
			"target":34962
		},
		{
			"buffer":0,
			"byteLength":49504,
			"byteOffset":220520,
			"target":34962
		},
		{
			"buffer":0,
			"byteLength":10128,
			"byteOffset":270024,
			"target":34963
		},
		{
			"buffer":0,
			"byteLength":960,
			"byteOffset":280152
		},
		{
			"buffer":0,
			"byteLength":8,
			"byteOffset":281112
		},
		{
			"buffer":0,
			"byteLength":24,
			"byteOffset":281120
		},
		{
			"buffer":0,
			"byteLength":244,
			"byteOffset":281144
		},
		{
			"buffer":0,
			"byteLength":976,
			"byteOffset":281388
		},
		{
			"buffer":0,
			"byteLength":24,
			"byteOffset":282364
		},
		{
			"buffer":0,
			"byteLength":24,
			"byteOffset":282388
		},
		{
			"buffer":0,
			"byteLength":976,
			"byteOffset":282412
		},
		{
			"buffer":0,
			"byteLength":24,
			"byteOffset":283388
		},
		{
			"buffer":0,
			"byteLength":24,
			"byteOffset":283412
		},
		{
			"buffer":0,
			"byteLength":32,
			"byteOffset":283436
		},
		{
			"buffer":0,
			"byteLength":24,
			"byteOffset":283468
		},
		{
			"buffer":0,
			"byteLength":24,
			"byteOffset":283492
		},
		{
			"buffer":0,
			"byteLength":976,
			"byteOffset":283516
		},
		{
			"buffer":0,
			"byteLength":24,
			"byteOffset":284492
		},
		{
			"buffer":0,
			"byteLength":24,
			"byteOffset":284516
		},
		{
			"buffer":0,
			"byteLength":976,
			"byteOffset":284540
		},
		{
			"buffer":0,
			"byteLength":24,
			"byteOffset":285516
		},
		{
			"buffer":0,
			"byteLength":24,
			"byteOffset":285540
		},
		{
			"buffer":0,
			"byteLength":32,
			"byteOffset":285564
		},
		{
			"buffer":0,
			"byteLength":24,
			"byteOffset":285596
		},
		{
			"buffer":0,
			"byteLength":24,
			"byteOffset":285620
		},
		{
			"buffer":0,
			"byteLength":976,
			"byteOffset":285644
		},
		{
			"buffer":0,
			"byteLength":24,
			"byteOffset":286620
		},
		{
			"buffer":0,
			"byteLength":24,
			"byteOffset":286644
		},
		{
			"buffer":0,
			"byteLength":976,
			"byteOffset":286668
		},
		{
			"buffer":0,
			"byteLength":24,
			"byteOffset":287644
		},
		{
			"buffer":0,
			"byteLength":24,
			"byteOffset":287668
		},
		{
			"buffer":0,
			"byteLength":976,
			"byteOffset":287692
		},
		{
			"buffer":0,
			"byteLength":24,
			"byteOffset":288668
		},
		{
			"buffer":0,
			"byteLength":24,
			"byteOffset":288692
		},
		{
			"buffer":0,
			"byteLength":976,
			"byteOffset":288716
		},
		{
			"buffer":0,
			"byteLength":24,
			"byteOffset":289692
		},
		{
			"buffer":0,
			"byteLength":24,
			"byteOffset":289716
		},
		{
			"buffer":0,
			"byteLength":976,
			"byteOffset":289740
		},
		{
			"buffer":0,
			"byteLength":24,
			"byteOffset":290716
		},
		{
			"buffer":0,
			"byteLength":24,
			"byteOffset":290740
		},
		{
			"buffer":0,
			"byteLength":32,
			"byteOffset":290764
		},
		{
			"buffer":0,
			"byteLength":24,
			"byteOffset":290796
		},
		{
			"buffer":0,
			"byteLength":24,
			"byteOffset":290820
		},
		{
			"buffer":0,
			"byteLength":32,
			"byteOffset":290844
		},
		{
			"buffer":0,
			"byteLength":24,
			"byteOffset":290876
		},
		{
			"buffer":0,
			"byteLength":24,
			"byteOffset":290900
		},
		{
			"buffer":0,
			"byteLength":32,
			"byteOffset":290924
		},
		{
			"buffer":0,
			"byteLength":24,
			"byteOffset":290956
		},
		{
			"buffer":0,
			"byteLength":24,
			"byteOffset":290980
		},
		{
			"buffer":0,
			"byteLength":32,
			"byteOffset":291004
		},
		{
			"buffer":0,
			"byteLength":24,
			"byteOffset":291036
		},
		{
			"buffer":0,
			"byteLength":8,
			"byteOffset":291060
		},
		{
			"buffer":0,
			"byteLength":24,
			"byteOffset":291068
		},
		{
			"buffer":0,
			"byteLength":20,
			"byteOffset":291092
		},
		{
			"buffer":0,
			"byteLength":80,
			"byteOffset":291112
		},
		{
			"buffer":0,
			"byteLength":24,
			"byteOffset":291192
		},
		{
			"buffer":0,
			"byteLength":24,
			"byteOffset":291216
		},
		{
			"buffer":0,
			"byteLength":32,
			"byteOffset":291240
		},
		{
			"buffer":0,
			"byteLength":24,
			"byteOffset":291272
		},
		{
			"buffer":0,
			"byteLength":24,
			"byteOffset":291296
		},
		{
			"buffer":0,
			"byteLength":32,
			"byteOffset":291320
		},
		{
			"buffer":0,
			"byteLength":24,
			"byteOffset":291352
		},
		{
			"buffer":0,
			"byteLength":24,
			"byteOffset":291376
		},
		{
			"buffer":0,
			"byteLength":32,
			"byteOffset":291400
		},
		{
			"buffer":0,
			"byteLength":24,
			"byteOffset":291432
		},
		{
			"buffer":0,
			"byteLength":24,
			"byteOffset":291456
		},
		{
			"buffer":0,
			"byteLength":32,
			"byteOffset":291480
		},
		{
			"buffer":0,
			"byteLength":24,
			"byteOffset":291512
		},
		{
			"buffer":0,
			"byteLength":24,
			"byteOffset":291536
		},
		{
			"buffer":0,
			"byteLength":32,
			"byteOffset":291560
		},
		{
			"buffer":0,
			"byteLength":24,
			"byteOffset":291592
		},
		{
			"buffer":0,
			"byteLength":24,
			"byteOffset":291616
		},
		{
			"buffer":0,
			"byteLength":32,
			"byteOffset":291640
		},
		{
			"buffer":0,
			"byteLength":24,
			"byteOffset":291672
		},
		{
			"buffer":0,
			"byteLength":24,
			"byteOffset":291696
		},
		{
			"buffer":0,
			"byteLength":32,
			"byteOffset":291720
		},
		{
			"buffer":0,
			"byteLength":24,
			"byteOffset":291752
		},
		{
			"buffer":0,
			"byteLength":24,
			"byteOffset":291776
		},
		{
			"buffer":0,
			"byteLength":32,
			"byteOffset":291800
		},
		{
			"buffer":0,
			"byteLength":24,
			"byteOffset":291832
		},
		{
			"buffer":0,
			"byteLength":24,
			"byteOffset":291856
		},
		{
			"buffer":0,
			"byteLength":32,
			"byteOffset":291880
		},
		{
			"buffer":0,
			"byteLength":24,
			"byteOffset":291912
		},
		{
			"buffer":0,
			"byteLength":24,
			"byteOffset":291936
		},
		{
			"buffer":0,
			"byteLength":80,
			"byteOffset":291960
		},
		{
			"buffer":0,
			"byteLength":24,
			"byteOffset":292040
		},
		{
			"buffer":0,
			"byteLength":24,
			"byteOffset":292064
		},
		{
			"buffer":0,
			"byteLength":32,
			"byteOffset":292088
		},
		{
			"buffer":0,
			"byteLength":24,
			"byteOffset":292120
		},
		{
			"buffer":0,
			"byteLength":24,
			"byteOffset":292144
		},
		{
			"buffer":0,
			"byteLength":32,
			"byteOffset":292168
		},
		{
			"buffer":0,
			"byteLength":24,
			"byteOffset":292200
		},
		{
			"buffer":0,
			"byteLength":24,
			"byteOffset":292224
		},
		{
			"buffer":0,
			"byteLength":32,
			"byteOffset":292248
		},
		{
			"buffer":0,
			"byteLength":24,
			"byteOffset":292280
		},
		{
			"buffer":0,
			"byteLength":24,
			"byteOffset":292304
		},
		{
			"buffer":0,
			"byteLength":32,
			"byteOffset":292328
		},
		{
			"buffer":0,
			"byteLength":24,
			"byteOffset":292360
		},
		{
			"buffer":0,
			"byteLength":8,
			"byteOffset":292384
		},
		{
			"buffer":0,
			"byteLength":24,
			"byteOffset":292392
		},
		{
			"buffer":0,
			"byteLength":1004,
			"byteOffset":292416
		},
		{
			"buffer":0,
			"byteLength":4016,
			"byteOffset":293420
		},
		{
			"buffer":0,
			"byteLength":24,
			"byteOffset":297436
		},
		{
			"buffer":0,
			"byteLength":24,
			"byteOffset":297460
		},
		{
			"buffer":0,
			"byteLength":32,
			"byteOffset":297484
		},
		{
			"buffer":0,
			"byteLength":24,
			"byteOffset":297516
		},
		{
			"buffer":0,
			"byteLength":24,
			"byteOffset":297540
		},
		{
			"buffer":0,
			"byteLength":32,
			"byteOffset":297564
		},
		{
			"buffer":0,
			"byteLength":24,
			"byteOffset":297596
		},
		{
			"buffer":0,
			"byteLength":24,
			"byteOffset":297620
		},
		{
			"buffer":0,
			"byteLength":4016,
			"byteOffset":297644
		},
		{
			"buffer":0,
			"byteLength":24,
			"byteOffset":301660
		},
		{
			"buffer":0,
			"byteLength":24,
			"byteOffset":301684
		},
		{
			"buffer":0,
			"byteLength":4016,
			"byteOffset":301708
		},
		{
			"buffer":0,
			"byteLength":24,
			"byteOffset":305724
		},
		{
			"buffer":0,
			"byteLength":24,
			"byteOffset":305748
		},
		{
			"buffer":0,
			"byteLength":32,
			"byteOffset":305772
		},
		{
			"buffer":0,
			"byteLength":24,
			"byteOffset":305804
		},
		{
			"buffer":0,
			"byteLength":24,
			"byteOffset":305828
		},
		{
			"buffer":0,
			"byteLength":4016,
			"byteOffset":305852
		},
		{
			"buffer":0,
			"byteLength":24,
			"byteOffset":309868
		},
		{
			"buffer":0,
			"byteLength":24,
			"byteOffset":309892
		},
		{
			"buffer":0,
			"byteLength":32,
			"byteOffset":309916
		},
		{
			"buffer":0,
			"byteLength":24,
			"byteOffset":309948
		},
		{
			"buffer":0,
			"byteLength":24,
			"byteOffset":309972
		},
		{
			"buffer":0,
			"byteLength":32,
			"byteOffset":309996
		},
		{
			"buffer":0,
			"byteLength":24,
			"byteOffset":310028
		},
		{
			"buffer":0,
			"byteLength":24,
			"byteOffset":310052
		},
		{
			"buffer":0,
			"byteLength":4016,
			"byteOffset":310076
		},
		{
			"buffer":0,
			"byteLength":24,
			"byteOffset":314092
		},
		{
			"buffer":0,
			"byteLength":24,
			"byteOffset":314116
		},
		{
			"buffer":0,
			"byteLength":4016,
			"byteOffset":314140
		},
		{
			"buffer":0,
			"byteLength":24,
			"byteOffset":318156
		},
		{
			"buffer":0,
			"byteLength":24,
			"byteOffset":318180
		},
		{
			"buffer":0,
			"byteLength":32,
			"byteOffset":318204
		},
		{
			"buffer":0,
			"byteLength":24,
			"byteOffset":318236
		},
		{
			"buffer":0,
			"byteLength":24,
			"byteOffset":318260
		},
		{
			"buffer":0,
			"byteLength":32,
			"byteOffset":318284
		},
		{
			"buffer":0,
			"byteLength":24,
			"byteOffset":318316
		},
		{
			"buffer":0,
			"byteLength":24,
			"byteOffset":318340
		},
		{
			"buffer":0,
			"byteLength":32,
			"byteOffset":318364
		},
		{
			"buffer":0,
			"byteLength":24,
			"byteOffset":318396
		},
		{
			"buffer":0,
			"byteLength":24,
			"byteOffset":318420
		},
		{
			"buffer":0,
			"byteLength":32,
			"byteOffset":318444
		},
		{
			"buffer":0,
			"byteLength":24,
			"byteOffset":318476
		},
		{
			"buffer":0,
			"byteLength":8,
			"byteOffset":318500
		},
		{
			"buffer":0,
			"byteLength":24,
			"byteOffset":318508
		},
		{
			"buffer":0,
			"byteLength":164,
			"byteOffset":318532
		},
		{
			"buffer":0,
			"byteLength":656,
			"byteOffset":318696
		},
		{
			"buffer":0,
			"byteLength":24,
			"byteOffset":319352
		},
		{
			"buffer":0,
			"byteLength":24,
			"byteOffset":319376
		},
		{
			"buffer":0,
			"byteLength":32,
			"byteOffset":319400
		},
		{
			"buffer":0,
			"byteLength":24,
			"byteOffset":319432
		},
		{
			"buffer":0,
			"byteLength":24,
			"byteOffset":319456
		},
		{
			"buffer":0,
			"byteLength":32,
			"byteOffset":319480
		},
		{
			"buffer":0,
			"byteLength":24,
			"byteOffset":319512
		},
		{
			"buffer":0,
			"byteLength":24,
			"byteOffset":319536
		},
		{
			"buffer":0,
			"byteLength":656,
			"byteOffset":319560
		},
		{
			"buffer":0,
			"byteLength":24,
			"byteOffset":320216
		},
		{
			"buffer":0,
			"byteLength":24,
			"byteOffset":320240
		},
		{
			"buffer":0,
			"byteLength":32,
			"byteOffset":320264
		},
		{
			"buffer":0,
			"byteLength":24,
			"byteOffset":320296
		},
		{
			"buffer":0,
			"byteLength":24,
			"byteOffset":320320
		},
		{
			"buffer":0,
			"byteLength":32,
			"byteOffset":320344
		},
		{
			"buffer":0,
			"byteLength":24,
			"byteOffset":320376
		},
		{
			"buffer":0,
			"byteLength":24,
			"byteOffset":320400
		},
		{
			"buffer":0,
			"byteLength":32,
			"byteOffset":320424
		},
		{
			"buffer":0,
			"byteLength":24,
			"byteOffset":320456
		},
		{
			"buffer":0,
			"byteLength":24,
			"byteOffset":320480
		},
		{
			"buffer":0,
			"byteLength":32,
			"byteOffset":320504
		},
		{
			"buffer":0,
			"byteLength":24,
			"byteOffset":320536
		},
		{
			"buffer":0,
			"byteLength":24,
			"byteOffset":320560
		},
		{
			"buffer":0,
			"byteLength":656,
			"byteOffset":320584
		},
		{
			"buffer":0,
			"byteLength":24,
			"byteOffset":321240
		},
		{
			"buffer":0,
			"byteLength":24,
			"byteOffset":321264
		},
		{
			"buffer":0,
			"byteLength":32,
			"byteOffset":321288
		},
		{
			"buffer":0,
			"byteLength":24,
			"byteOffset":321320
		},
		{
			"buffer":0,
			"byteLength":24,
			"byteOffset":321344
		},
		{
			"buffer":0,
			"byteLength":656,
			"byteOffset":321368
		},
		{
			"buffer":0,
			"byteLength":24,
			"byteOffset":322024
		},
		{
			"buffer":0,
			"byteLength":24,
			"byteOffset":322048
		},
		{
			"buffer":0,
			"byteLength":656,
			"byteOffset":322072
		},
		{
			"buffer":0,
			"byteLength":24,
			"byteOffset":322728
		},
		{
			"buffer":0,
			"byteLength":24,
			"byteOffset":322752
		},
		{
			"buffer":0,
			"byteLength":656,
			"byteOffset":322776
		},
		{
			"buffer":0,
			"byteLength":24,
			"byteOffset":323432
		},
		{
			"buffer":0,
			"byteLength":24,
			"byteOffset":323456
		},
		{
			"buffer":0,
			"byteLength":656,
			"byteOffset":323480
		},
		{
			"buffer":0,
			"byteLength":24,
			"byteOffset":324136
		},
		{
			"buffer":0,
			"byteLength":24,
			"byteOffset":324160
		},
		{
			"buffer":0,
			"byteLength":656,
			"byteOffset":324184
		},
		{
			"buffer":0,
			"byteLength":24,
			"byteOffset":324840
		}
	],
	"buffers":[
		{
			"byteLength":324864,
			"uri":"Enemy_01.bin"
		}
	]
}
