{
	"asset":{
		"generator":"Khronos glTF Blender I/O v4.4.56",
		"version":"2.0"
	},
	"scene":0,
	"scenes":[
		{
			"name":"Scene",
			"nodes":[
				6
			]
		}
	],
	"nodes":[
		{
			"name":"\u30dc\u30fc\u30f3"
		},
		{
			"name":"\u30dc\u30fc\u30f3.002",
			"rotation":[
				0.2984362542629242,
				0.028564950451254845,
				-0.3047327697277069,
				0.9040231108665466
			],
			"scale":[
				1,
				0.9999999403953552,
				1.0000001192092896
			],
			"translation":[
				3.725290298461914e-08,
				1.1610053777694702,
				2.9041384408401427e-08
			]
		},
		{
			"children":[
				1
			],
			"name":"\u30dc\u30fc\u30f3.001",
			"rotation":[
				-0.4897409677505493,
				-0.5100528597831726,
				-0.36074692010879517,
				0.608162522315979
			],
			"scale":[
				0.9999999403953552,
				0.9999999403953552,
				0.9999999403953552
			]
		},
		{
			"name":"\u30dc\u30fc\u30f3.004",
			"rotation":[
				0.19644714891910553,
				-0.011767326854169369,
				0.2956109344959259,
				0.9348177313804626
			],
			"scale":[
				0.9999998807907104,
				1,
				1
			],
			"translation":[
				-1.4901161193847656e-08,
				1.0267926454544067,
				-5.436595529317856e-08
			]
		},
		{
			"children":[
				3
			],
			"name":"\u30dc\u30fc\u30f3.003",
			"rotation":[
				-0.47792699933052063,
				0.5201166272163391,
				0.3343537151813507,
				0.623916745185852
			],
			"scale":[
				1,
				1.0000001192092896,
				0.9999998807907104
			]
		},
		{
			"mesh":0,
			"name":"\u7403",
			"skin":0
		},
		{
			"children":[
				5,
				0,
				2,
				4
			],
			"name":"\u30a2\u30fc\u30de\u30c1\u30e5\u30a2",
			"translation":[
				0.01832127571105957,
				0.38809096813201904,
				-0.3431857228279114
			]
		}
	],
	"animations":[
		{
			"channels":[
				{
					"sampler":0,
					"target":{
						"node":0,
						"path":"translation"
					}
				},
				{
					"sampler":1,
					"target":{
						"node":0,
						"path":"rotation"
					}
				},
				{
					"sampler":2,
					"target":{
						"node":0,
						"path":"scale"
					}
				},
				{
					"sampler":3,
					"target":{
						"node":2,
						"path":"translation"
					}
				},
				{
					"sampler":4,
					"target":{
						"node":2,
						"path":"rotation"
					}
				},
				{
					"sampler":5,
					"target":{
						"node":2,
						"path":"scale"
					}
				},
				{
					"sampler":6,
					"target":{
						"node":1,
						"path":"translation"
					}
				},
				{
					"sampler":7,
					"target":{
						"node":1,
						"path":"rotation"
					}
				},
				{
					"sampler":8,
					"target":{
						"node":1,
						"path":"scale"
					}
				},
				{
					"sampler":9,
					"target":{
						"node":4,
						"path":"translation"
					}
				},
				{
					"sampler":10,
					"target":{
						"node":4,
						"path":"rotation"
					}
				},
				{
					"sampler":11,
					"target":{
						"node":4,
						"path":"scale"
					}
				},
				{
					"sampler":12,
					"target":{
						"node":3,
						"path":"translation"
					}
				},
				{
					"sampler":13,
					"target":{
						"node":3,
						"path":"rotation"
					}
				},
				{
					"sampler":14,
					"target":{
						"node":3,
						"path":"scale"
					}
				}
			],
			"name":"idle",
			"samplers":[
				{
					"input":7,
					"interpolation":"LINEAR",
					"output":8
				},
				{
					"input":7,
					"interpolation":"LINEAR",
					"output":9
				},
				{
					"input":7,
					"interpolation":"LINEAR",
					"output":10
				},
				{
					"input":7,
					"interpolation":"LINEAR",
					"output":11
				},
				{
					"input":7,
					"interpolation":"LINEAR",
					"output":12
				},
				{
					"input":7,
					"interpolation":"LINEAR",
					"output":13
				},
				{
					"input":7,
					"interpolation":"LINEAR",
					"output":14
				},
				{
					"input":7,
					"interpolation":"LINEAR",
					"output":15
				},
				{
					"input":7,
					"interpolation":"LINEAR",
					"output":16
				},
				{
					"input":7,
					"interpolation":"LINEAR",
					"output":17
				},
				{
					"input":7,
					"interpolation":"LINEAR",
					"output":18
				},
				{
					"input":7,
					"interpolation":"LINEAR",
					"output":19
				},
				{
					"input":7,
					"interpolation":"LINEAR",
					"output":20
				},
				{
					"input":7,
					"interpolation":"LINEAR",
					"output":21
				},
				{
					"input":7,
					"interpolation":"LINEAR",
					"output":22
				}
			]
		}
	],
	"meshes":[
		{
			"name":"\u7403",
			"primitives":[
				{
					"attributes":{
						"POSITION":0,
						"NORMAL":1,
						"TEXCOORD_0":2,
						"JOINTS_0":3,
						"WEIGHTS_0":4
					},
					"indices":5
				}
			]
		}
	],
	"skins":[
		{
			"inverseBindMatrices":6,
			"joints":[
				0,
				2,
				1,
				4,
				3
			],
			"name":"\u30a2\u30fc\u30de\u30c1\u30e5\u30a2"
		}
	],
	"accessors":[
		{
			"bufferView":0,
			"componentType":5126,
			"count":990,
			"max":[
				4.039607048034668,
				2.380471706390381,
				1.3431856632232666
			],
			"min":[
				-4.002964973449707,
				0.24870920181274414,
				-1.3431856632232666
			],
			"type":"VEC3"
		},
		{
			"bufferView":1,
			"componentType":5126,
			"count":990,
			"type":"VEC3"
		},
		{
			"bufferView":2,
			"componentType":5126,
			"count":990,
			"type":"VEC2"
		},
		{
			"bufferView":3,
			"componentType":5121,
			"count":990,
			"type":"VEC4"
		},
		{
			"bufferView":4,
			"componentType":5126,
			"count":990,
			"type":"VEC4"
		},
		{
			"bufferView":5,
			"componentType":5123,
			"count":1584,
			"type":"SCALAR"
		},
		{
			"bufferView":6,
			"componentType":5126,
			"count":5,
			"type":"MAT4"
		},
		{
			"bufferView":7,
			"componentType":5126,
			"count":1,
			"max":[
				0
			],
			"min":[
				0
			],
			"type":"SCALAR"
		},
		{
			"bufferView":8,
			"componentType":5126,
			"count":1,
			"type":"VEC3"
		},
		{
			"bufferView":9,
			"componentType":5126,
			"count":1,
			"type":"VEC4"
		},
		{
			"bufferView":10,
			"componentType":5126,
			"count":1,
			"type":"VEC3"
		},
		{
			"bufferView":11,
			"componentType":5126,
			"count":1,
			"type":"VEC3"
		},
		{
			"bufferView":12,
			"componentType":5126,
			"count":1,
			"type":"VEC4"
		},
		{
			"bufferView":13,
			"componentType":5126,
			"count":1,
			"type":"VEC3"
		},
		{
			"bufferView":14,
			"componentType":5126,
			"count":1,
			"type":"VEC3"
		},
		{
			"bufferView":15,
			"componentType":5126,
			"count":1,
			"type":"VEC4"
		},
		{
			"bufferView":16,
			"componentType":5126,
			"count":1,
			"type":"VEC3"
		},
		{
			"bufferView":17,
			"componentType":5126,
			"count":1,
			"type":"VEC3"
		},
		{
			"bufferView":18,
			"componentType":5126,
			"count":1,
			"type":"VEC4"
		},
		{
			"bufferView":19,
			"componentType":5126,
			"count":1,
			"type":"VEC3"
		},
		{
			"bufferView":20,
			"componentType":5126,
			"count":1,
			"type":"VEC3"
		},
		{
			"bufferView":21,
			"componentType":5126,
			"count":1,
			"type":"VEC4"
		},
		{
			"bufferView":22,
			"componentType":5126,
			"count":1,
			"type":"VEC3"
		}
	],
	"bufferViews":[
		{
			"buffer":0,
			"byteLength":11880,
			"byteOffset":0,
			"target":34962
		},
		{
			"buffer":0,
			"byteLength":11880,
			"byteOffset":11880,
			"target":34962
		},
		{
			"buffer":0,
			"byteLength":7920,
			"byteOffset":23760,
			"target":34962
		},
		{
			"buffer":0,
			"byteLength":3960,
			"byteOffset":31680,
			"target":34962
		},
		{
			"buffer":0,
			"byteLength":15840,
			"byteOffset":35640,
			"target":34962
		},
		{
			"buffer":0,
			"byteLength":3168,
			"byteOffset":51480,
			"target":34963
		},
		{
			"buffer":0,
			"byteLength":320,
			"byteOffset":54648
		},
		{
			"buffer":0,
			"byteLength":4,
			"byteOffset":54968
		},
		{
			"buffer":0,
			"byteLength":12,
			"byteOffset":54972
		},
		{
			"buffer":0,
			"byteLength":16,
			"byteOffset":54984
		},
		{
			"buffer":0,
			"byteLength":12,
			"byteOffset":55000
		},
		{
			"buffer":0,
			"byteLength":12,
			"byteOffset":55012
		},
		{
			"buffer":0,
			"byteLength":16,
			"byteOffset":55024
		},
		{
			"buffer":0,
			"byteLength":12,
			"byteOffset":55040
		},
		{
			"buffer":0,
			"byteLength":12,
			"byteOffset":55052
		},
		{
			"buffer":0,
			"byteLength":16,
			"byteOffset":55064
		},
		{
			"buffer":0,
			"byteLength":12,
			"byteOffset":55080
		},
		{
			"buffer":0,
			"byteLength":12,
			"byteOffset":55092
		},
		{
			"buffer":0,
			"byteLength":16,
			"byteOffset":55104
		},
		{
			"buffer":0,
			"byteLength":12,
			"byteOffset":55120
		},
		{
			"buffer":0,
			"byteLength":12,
			"byteOffset":55132
		},
		{
			"buffer":0,
			"byteLength":16,
			"byteOffset":55144
		},
		{
			"buffer":0,
			"byteLength":12,
			"byteOffset":55160
		}
	],
	"buffers":[
		{
			"byteLength":55172,
			"uri":"Enemy_05_idle.bin"
		}
	]
}
