{
	"asset":{
		"generator":"Khronos glTF Blender I/O v4.4.56",
		"version":"2.0"
	},
	"scene":0,
	"scenes":[
		{
			"name":"Scene",
			"nodes":[
				0
			]
		}
	],
	"nodes":[
		{
			"mesh":0,
			"name":"LowPoly_SwayingGrass"
		}
	],
	"materials":[
		{
			"doubleSided":true,
			"name":"Grass_Green",
			"pbrMetallicRoughness":{
				"baseColorFactor":[
					0.11999999731779099,
					0.41999998688697815,
					0.07999999821186066,
					1
				],
				"metallicFactor":0,
				"roughnessFactor":0.8500000238418579
			}
		},
		{
			"doubleSided":true,
			"name":"Grass_Light",
			"pbrMetallicRoughness":{
				"baseColorFactor":[
					0.2199999988079071,
					0.5799999833106995,
					0.10999999940395355,
					1
				],
				"metallicFactor":0,
				"roughnessFactor":0.8500000238418579
			}
		},
		{
			"doubleSided":true,
			"name":"Grass_Dark",
			"pbrMetallicRoughness":{
				"baseColorFactor":[
					0.07000000029802322,
					0.28999999165534973,
					0.05000000074505806,
					1
				],
				"metallicFactor":0,
				"roughnessFactor":0.8500000238418579
			}
		}
	],
	"meshes":[
		{
			"name":"LowPoly_SwayingGrass_Mesh",
			"primitives":[
				{
					"attributes":{
						"POSITION":0,
						"NORMAL":1
					},
					"indices":2,
					"material":0
				},
				{
					"attributes":{
						"POSITION":3,
						"NORMAL":4
					},
					"indices":5,
					"material":1
				},
				{
					"attributes":{
						"POSITION":6,
						"NORMAL":7
					},
					"indices":5,
					"material":2
				}
			]
		}
	],
	"accessors":[
		{
			"bufferView":0,
			"componentType":5126,
			"count":60,
			"max":[
				0.10000000149011612,
				2.25,
				0.33000001311302185
			],
			"min":[
				-0.23999999463558197,
				0,
				-0.44999998807907104
			],
			"type":"VEC3"
		},
		{
			"bufferView":1,
			"componentType":5126,
			"count":60,
			"type":"VEC3"
		},
		{
			"bufferView":2,
			"componentType":5123,
			"count":90,
			"type":"SCALAR"
		},
		{
			"bufferView":3,
			"componentType":5126,
			"count":60,
			"max":[
				0.3799999952316284,
				1.850000023841858,
				0.38999998569488525
			],
			"min":[
				-0.5299999713897705,
				0,
				-0.09563262015581131
			],
			"type":"VEC3"
		},
		{
			"bufferView":4,
			"componentType":5126,
			"count":60,
			"type":"VEC3"
		},
		{
			"bufferView":5,
			"componentType":5123,
			"count":90,
			"type":"SCALAR"
		},
		{
			"bufferView":6,
			"componentType":5126,
			"count":60,
			"max":[
				0.5299999713897705,
				2,
				0.1599999964237213
			],
			"min":[
				-0.36000001430511475,
				0,
				-0.5199999809265137
			],
			"type":"VEC3"
		},
		{
			"bufferView":7,
			"componentType":5126,
			"count":60,
			"type":"VEC3"
		}
	],
	"bufferViews":[
		{
			"buffer":0,
			"byteLength":720,
			"byteOffset":0,
			"target":34962
		},
		{
			"buffer":0,
			"byteLength":720,
			"byteOffset":720,
			"target":34962
		},
		{
			"buffer":0,
			"byteLength":180,
			"byteOffset":1440,
			"target":34963
		},
		{
			"buffer":0,
			"byteLength":720,
			"byteOffset":1620,
			"target":34962
		},
		{
			"buffer":0,
			"byteLength":720,
			"byteOffset":2340,
			"target":34962
		},
		{
			"buffer":0,
			"byteLength":180,
			"byteOffset":3060,
			"target":34963
		},
		{
			"buffer":0,
			"byteLength":720,
			"byteOffset":3240,
			"target":34962
		},
		{
			"buffer":0,
			"byteLength":720,
			"byteOffset":3960,
			"target":34962
		}
	],
	"buffers":[
		{
			"byteLength":4680,
			"uri":"LowPoly_SwayingGrass.bin"
		}
	]
}
